<?xml version="1.0" encoding="utf-8"?>
<!-- Generator: Adobe Illustrator 25.3.1, SVG Export Plug-In . SVG Version: 6.00 Build 0)  -->
<svg version="1.1" id="Layer_1" xmlns="http://www.w3.org/2000/svg" xmlns:xlink="http://www.w3.org/1999/xlink" x="0px" y="0px"
	 viewBox="0 0 250 250" style="enable-background:new 0 0 250 250;" xml:space="preserve">
<style type="text/css">
	.st0{fill:none;}
	.st1{fill:#0085B4;}
	.st2{fill:none;stroke:#0286B5;stroke-width:7;stroke-miterlimit:10;}
</style>
<g id="Шар_2">
	<g id="Blue_Equal_shapes">
		<g id="Air_Quality">
			<rect class="st0" width="250" height="250"/>
			<g id="Air_Quality-2">
				
					<rect x="78.4" y="106.5" transform="matrix(1.745302e-03 -1 1 1.745302e-03 -58.4065 223.8445)" class="st1" width="9" height="69.4"/>
				<path class="st1" d="M179.2,172c-26,0-47-21-47-47s21-47,47-47s47,21,47,47S205.1,172,179.2,172z M179.2,87.1c-21,0-38,17-38,38
					s17,38,38,38s38-17,38-38C217.2,104.1,200.1,87.1,179.2,87.1L179.2,87.1z"/>
				<path class="st1" d="M223.9,171.8c-1.2,0-2.3-0.5-3.2-1.3l-26.1-26.1c-1.7-1.8-1.6-4.7,0.2-6.4c1.7-1.6,4.4-1.6,6.1,0l26.1,26.1
					c1.8,1.8,1.8,4.6,0,6.4C226.2,171.3,225.1,171.8,223.9,171.8L223.9,171.8z"/>
				<path class="st1" d="M131.9,172c-1.6,0-3.1-0.9-3.9-2.3L82.9,91.6l-45.1,78.2c-1.2,2.2-3.9,3-6.1,1.8s-3-3.9-1.8-6.1
					c0-0.1,0.1-0.1,0.1-0.2l49-84.9c1.2-2.2,4-2.9,6.1-1.6c0.7,0.4,1.2,1,1.6,1.6l49,84.9c1.2,2.2,0.5,4.9-1.7,6.2
					C133.5,171.8,132.7,172,131.9,172L131.9,172z"/>
			</g>
		</g>
	</g>
</g>
<line class="st2" x1="228.4" y1="14" x2="228.4" y2="44"/>
<line class="st2" x1="243.4" y1="29" x2="213.4" y2="29"/>
</svg>
