<?xml version="1.0" encoding="utf-8"?>
<!-- Generator: Adobe Illustrator 26.0.2, SVG Export Plug-In . SVG Version: 6.00 Build 0)  -->
<svg version="1.1" id="Capa_1" xmlns="http://www.w3.org/2000/svg" xmlns:xlink="http://www.w3.org/1999/xlink" x="0px" y="0px"
	 viewBox="0 0 494.5 494.5" style="enable-background:new 0 0 494.5 494.5;" xml:space="preserve">
<style type="text/css">
	.st0{fill:#0085B4;}
</style>
<g>
	<g>
		<path class="st0" d="M370.1,0H124.4c-21.5,0-39,17.4-39,39v416.6c0,21.5,17.4,39,39,39h245.6c21.5,0,39-17.4,39-39V39
			C409,17.4,391.6,0,370.1,0z M328.1,13.2c3.7,0,6.6,3,6.6,6.6s-3,6.6-6.6,6.6s-6.6-3-6.6-6.6C321.5,16.2,324.5,13.2,328.1,13.2z
			 M281.5,16.2c2,0,3.6,1.6,3.6,3.6s-1.6,3.6-3.6,3.6s-3.6-1.6-3.6-3.6C277.9,17.8,279.5,16.2,281.5,16.2z M175,479.5h-8.6
			c-0.6,0-1-0.5-1-1c0-0.6,0.5-1,1-1h8.6c0.6,0,1,0.5,1,1C176,479.1,175.5,479.5,175,479.5z M175,475.4h-8.6c-0.6,0-1-0.5-1-1
			c0-0.6,0.5-1,1-1h8.6c0.6,0,1,0.5,1,1C176,474.9,175.5,475.4,175,475.4z M182.2,478.1c0,1.2-1,2.2-2.2,2.2c-1.2,0-2.2-1-2.2-2.2
			v-7.4h-14.1v7.4c0,1.2-1,2.2-2.2,2.2c-1.2,0-2.2-1-2.2-2.2v-9.6c0-1.2,1-2.2,2.2-2.2H180c1.2,0,2.2,1,2.2,2.2V478.1L182.2,478.1z
			 M268.5,474.3c0,3.6-2.9,6.5-6.5,6.5h-24.3c-3.6,0-6.5-2.9-6.5-6.5v-2c0-3.6,2.9-6.5,6.5-6.5H262c3.6,0,6.5,2.9,6.5,6.5V474.3z
			 M337.9,484.4h-7c-1.2,0-2.2-1-2.2-2.2s1-2.2,2.2-2.2h7c1.5,0,2.7-1.2,2.7-2.6c0-1.4-1.2-2.6-2.7-2.6H332c-0.2,0.3-0.5,0.5-1,0.5
			c-0.1,0-0.3,0-0.5-0.1l-3.6-1.5c-0.4-0.2-0.7-0.6-0.7-1.1c0-0.5,0.3-0.9,0.7-1.1l3.6-1.5c0.4-0.2,1-0.1,1.3,0.3
			c0,0,0.1,0.1,0.1,0.2h6c4,0,7.2,3.2,7.2,7.1C345.1,481.2,341.9,484.4,337.9,484.4z M380.9,455.5H119V40h261.9V455.5z"/>
	</g>
</g>
</svg>
