<?xml version="1.0" encoding="UTF-8"?>
<svg id="_Шар_2" data-name="Шар 2" xmlns="http://www.w3.org/2000/svg" xmlns:xlink="http://www.w3.org/1999/xlink" viewBox="0 0 240 240">
  <defs>
    <style>
      .cls-1, .cls-2, .cls-3 {
        stroke: #0785b4;
      }

      .cls-1, .cls-2, .cls-3, .cls-4 {
        fill: none;
      }

      .cls-1, .cls-3 {
        stroke-miterlimit: 10;
      }

      .cls-2 {
        stroke-linecap: round;
        stroke-linejoin: round;
        stroke-width: 2px;
      }

      .cls-5 {
        fill: #d7e9ef;
      }

      .cls-3 {
        stroke-width: .5px;
      }

      .cls-6 {
        clip-path: url(#clippath);
      }
    </style>
    <clipPath id="clippath">
      <rect class="cls-4" x="45.96" y="46.62" width="148.08" height="146.76" rx="16.1" ry="16.1"/>
    </clipPath>
  </defs>
  <g id="_Шар_2-2" data-name="Шар 2">
    <g id="NEO-1S">
      <rect class="cls-4" width="240" height="240"/>
      <g>
        <g class="cls-6">
          <g>
            <circle class="cls-5" cx="120" cy="88.78" r="1"/>
            <circle class="cls-5" cx="120" cy="151.22" r="1"/>
            <circle class="cls-5" cx="88.78" cy="120" r="1"/>
            <circle class="cls-5" cx="151.22" cy="120" r="1"/>
            <circle class="cls-5" cx="125.42" cy="89.25" r="1"/>
            <circle class="cls-5" cx="114.58" cy="150.75" r="1"/>
            <circle class="cls-5" cx="89.25" cy="114.58" r="1"/>
            <circle class="cls-5" cx="150.75" cy="125.42" r="1"/>
            <circle class="cls-5" cx="130.68" cy="90.66" r="1"/>
            <circle class="cls-5" cx="109.32" cy="149.34" r="1"/>
            <circle class="cls-5" cx="90.66" cy="109.32" r="1"/>
            <circle class="cls-5" cx="149.34" cy="130.68" r="1"/>
            <circle class="cls-5" cx="135.61" cy="92.96" r="1"/>
            <circle class="cls-5" cx="104.39" cy="147.04" r="1"/>
            <circle class="cls-5" cx="92.96" cy="104.39" r="1"/>
            <circle class="cls-5" cx="147.04" cy="135.61" r="1"/>
            <circle class="cls-5" cx="140.07" cy="96.08" r="1"/>
            <circle class="cls-5" cx="99.93" cy="143.92" r="1"/>
            <circle class="cls-5" cx="96.08" cy="99.93" r="1"/>
            <circle class="cls-5" cx="143.92" cy="140.07" r="1"/>
            <circle class="cls-5" cx="143.92" cy="99.93" r="1"/>
            <circle class="cls-5" cx="96.08" cy="140.07" r="1"/>
            <circle class="cls-5" cx="99.93" cy="96.08" r="1"/>
            <circle class="cls-5" cx="140.07" cy="143.92" r="1"/>
            <circle class="cls-5" cx="147.04" cy="104.39" r="1"/>
            <circle class="cls-5" cx="92.96" cy="135.61" r="1"/>
            <circle class="cls-5" cx="104.39" cy="92.96" r="1"/>
            <circle class="cls-5" cx="135.61" cy="147.04" r="1"/>
            <circle class="cls-5" cx="149.34" cy="109.32" r="1"/>
            <circle class="cls-5" cx="90.66" cy="130.68" r="1"/>
            <circle class="cls-5" cx="109.32" cy="90.66" r="1"/>
            <circle class="cls-5" cx="130.68" cy="149.34" r="1"/>
            <circle class="cls-5" cx="150.75" cy="114.58" r="1"/>
            <circle class="cls-5" cx="89.25" cy="125.42" r="1"/>
            <circle class="cls-5" cx="114.58" cy="89.25" r="1"/>
            <circle class="cls-5" cx="125.42" cy="150.75" r="1"/>
            <circle class="cls-5" cx="116.86" cy="84.14" r="1.15"/>
            <circle class="cls-5" cx="123.14" cy="155.86" r="1.15"/>
            <circle class="cls-5" cx="84.14" cy="123.14" r="1.15"/>
            <circle class="cls-5" cx="155.86" cy="116.86" r="1.15"/>
            <circle class="cls-5" cx="123.14" cy="84.14" r="1.15"/>
            <circle class="cls-5" cx="116.86" cy="155.86" r="1.15"/>
            <circle class="cls-5" cx="84.14" cy="116.86" r="1.15"/>
            <circle class="cls-5" cx="155.86" cy="123.14" r="1.15"/>
            <circle class="cls-5" cx="129.32" cy="85.23" r="1.15"/>
            <circle class="cls-5" cx="110.68" cy="154.77" r="1.15"/>
            <circle class="cls-5" cx="85.23" cy="110.68" r="1.15"/>
            <circle class="cls-5" cx="154.77" cy="129.32" r="1.15"/>
            <circle class="cls-5" cx="135.21" cy="87.37" r="1.15"/>
            <circle class="cls-5" cx="104.79" cy="152.63" r="1.15"/>
            <circle class="cls-5" cx="87.37" cy="104.79" r="1.15"/>
            <circle class="cls-5" cx="152.62" cy="135.21" r="1.15"/>
            <circle class="cls-5" cx="140.65" cy="90.51" r="1.15"/>
            <circle class="cls-5" cx="99.35" cy="149.49" r="1.15"/>
            <circle class="cls-5" cx="90.51" cy="99.35" r="1.15"/>
            <circle class="cls-5" cx="149.49" cy="140.65" r="1.15"/>
            <circle class="cls-5" cx="145.45" cy="94.55" r="1.15"/>
            <circle class="cls-5" cx="94.55" cy="145.45" r="1.15"/>
            <circle class="cls-5" cx="94.55" cy="94.55" r="1.15"/>
            <circle class="cls-5" cx="145.45" cy="145.45" r="1.15"/>
            <circle class="cls-5" cx="149.49" cy="99.35" r="1.15"/>
            <circle class="cls-5" cx="90.51" cy="140.65" r="1.15"/>
            <circle class="cls-5" cx="99.35" cy="90.51" r="1.15"/>
            <circle class="cls-5" cx="140.65" cy="149.49" r="1.15"/>
            <circle class="cls-5" cx="152.62" cy="104.79" r="1.15"/>
            <circle class="cls-5" cx="87.37" cy="135.21" r="1.15"/>
            <circle class="cls-5" cx="104.79" cy="87.37" r="1.15"/>
            <circle class="cls-5" cx="135.21" cy="152.63" r="1.15"/>
            <circle class="cls-5" cx="154.77" cy="110.68" r="1.15"/>
            <circle class="cls-5" cx="85.23" cy="129.32" r="1.15"/>
            <circle class="cls-5" cx="110.68" cy="85.23" r="1.15"/>
            <circle class="cls-5" cx="129.32" cy="154.77" r="1.15"/>
            <circle class="cls-5" cx="120" cy="79.61" r="1.29"/>
            <circle class="cls-5" cx="120" cy="160.39" r="1.29"/>
            <circle class="cls-5" cx="79.61" cy="120" r="1.29"/>
            <circle class="cls-5" cx="160.39" cy="120" r="1.29"/>
            <circle class="cls-5" cx="127.01" cy="80.22" r="1.29"/>
            <circle class="cls-5" cx="112.99" cy="159.78" r="1.29"/>
            <circle class="cls-5" cx="80.22" cy="112.99" r="1.29"/>
            <circle class="cls-5" cx="159.78" cy="127.01" r="1.29"/>
            <circle class="cls-5" cx="133.81" cy="82.04" r="1.29"/>
            <circle class="cls-5" cx="106.18" cy="157.96" r="1.29"/>
            <circle class="cls-5" cx="82.04" cy="106.18" r="1.29"/>
            <circle class="cls-5" cx="157.96" cy="133.82" r="1.29"/>
            <circle class="cls-5" cx="140.2" cy="85.02" r="1.29"/>
            <circle class="cls-5" cx="99.8" cy="154.98" r="1.29"/>
            <circle class="cls-5" cx="85.02" cy="99.8" r="1.29"/>
            <circle class="cls-5" cx="154.98" cy="140.2" r="1.29"/>
            <circle class="cls-5" cx="145.96" cy="89.06" r="1.29"/>
            <circle class="cls-5" cx="94.04" cy="150.94" r="1.29"/>
            <circle class="cls-5" cx="89.06" cy="94.04" r="1.29"/>
            <circle class="cls-5" cx="150.94" cy="145.96" r="1.29"/>
            <circle class="cls-5" cx="150.94" cy="94.04" r="1.29"/>
            <circle class="cls-5" cx="89.06" cy="145.96" r="1.29"/>
            <circle class="cls-5" cx="94.04" cy="89.06" r="1.29"/>
            <circle class="cls-5" cx="145.96" cy="150.94" r="1.29"/>
            <circle class="cls-5" cx="154.98" cy="99.8" r="1.29"/>
            <circle class="cls-5" cx="85.02" cy="140.2" r="1.29"/>
            <circle class="cls-5" cx="99.8" cy="85.02" r="1.29"/>
            <circle class="cls-5" cx="140.2" cy="154.98" r="1.29"/>
            <circle class="cls-5" cx="157.96" cy="106.18" r="1.29"/>
            <circle class="cls-5" cx="82.04" cy="133.82" r="1.29"/>
            <circle class="cls-5" cx="106.18" cy="82.04" r="1.29"/>
            <circle class="cls-5" cx="133.81" cy="157.96" r="1.29"/>
            <circle class="cls-5" cx="159.78" cy="112.99" r="1.29"/>
            <circle class="cls-5" cx="80.22" cy="127.01" r="1.29"/>
            <circle class="cls-5" cx="112.99" cy="80.22" r="1.29"/>
            <circle class="cls-5" cx="127.01" cy="159.78" r="1.29"/>
            <circle class="cls-5" cx="116.14" cy="75.86" r="1.42"/>
            <circle class="cls-5" cx="123.86" cy="164.14" r="1.42"/>
            <circle class="cls-5" cx="75.85" cy="123.86" r="1.42"/>
            <circle class="cls-5" cx="164.14" cy="116.14" r="1.42"/>
            <circle class="cls-5" cx="123.86" cy="75.86" r="1.42"/>
            <circle class="cls-5" cx="116.14" cy="164.14" r="1.42"/>
            <circle class="cls-5" cx="75.85" cy="116.14" r="1.42"/>
            <circle class="cls-5" cx="164.14" cy="123.86" r="1.42"/>
            <circle class="cls-5" cx="131.47" cy="77.2" r="1.42"/>
            <circle class="cls-5" cx="108.53" cy="162.8" r="1.42"/>
            <circle class="cls-5" cx="77.2" cy="108.53" r="1.42"/>
            <circle class="cls-5" cx="162.8" cy="131.47" r="1.42"/>
            <circle class="cls-5" cx="138.73" cy="79.84" r="1.42"/>
            <circle class="cls-5" cx="101.27" cy="160.16" r="1.42"/>
            <circle class="cls-5" cx="79.84" cy="101.27" r="1.42"/>
            <circle class="cls-5" cx="160.16" cy="138.73" r="1.42"/>
            <circle class="cls-5" cx="145.42" cy="83.7" r="1.42"/>
            <circle class="cls-5" cx="94.58" cy="156.3" r="1.42"/>
            <circle class="cls-5" cx="83.7" cy="94.58" r="1.42"/>
            <circle class="cls-5" cx="156.3" cy="145.42" r="1.42"/>
            <circle class="cls-5" cx="151.33" cy="88.67" r="1.42"/>
            <circle class="cls-5" cx="88.67" cy="151.33" r="1.42"/>
            <circle class="cls-5" cx="88.67" cy="88.67" r="1.42"/>
            <circle class="cls-5" cx="151.33" cy="151.33" r="1.42"/>
            <circle class="cls-5" cx="156.3" cy="94.58" r="1.42"/>
            <circle class="cls-5" cx="83.7" cy="145.42" r="1.42"/>
            <circle class="cls-5" cx="94.58" cy="83.7" r="1.42"/>
            <circle class="cls-5" cx="145.42" cy="156.3" r="1.42"/>
            <circle class="cls-5" cx="160.16" cy="101.27" r="1.42"/>
            <circle class="cls-5" cx="79.84" cy="138.73" r="1.42"/>
            <circle class="cls-5" cx="101.27" cy="79.84" r="1.42"/>
            <circle class="cls-5" cx="138.73" cy="160.16" r="1.42"/>
            <circle class="cls-5" cx="162.8" cy="108.53" r="1.42"/>
            <circle class="cls-5" cx="77.2" cy="131.47" r="1.42"/>
            <circle class="cls-5" cx="108.53" cy="77.2" r="1.42"/>
            <circle class="cls-5" cx="131.47" cy="162.8" r="1.42"/>
            <circle class="cls-5" cx="120" cy="71.58" r="1.55"/>
            <circle class="cls-5" cx="120" cy="168.42" r="1.55"/>
            <circle class="cls-5" cx="71.58" cy="120" r="1.55"/>
            <circle class="cls-5" cx="168.42" cy="120" r="1.55"/>
            <circle class="cls-5" cx="128.41" cy="72.32" r="1.55"/>
            <circle class="cls-5" cx="111.59" cy="167.68" r="1.55"/>
            <circle class="cls-5" cx="72.32" cy="111.59" r="1.55"/>
            <circle class="cls-5" cx="167.68" cy="128.41" r="1.55"/>
            <circle class="cls-5" cx="136.56" cy="74.5" r="1.55"/>
            <circle class="cls-5" cx="103.44" cy="165.5" r="1.55"/>
            <circle class="cls-5" cx="74.5" cy="103.44" r="1.55"/>
            <circle class="cls-5" cx="165.5" cy="136.56" r="1.55"/>
            <circle class="cls-5" cx="144.21" cy="78.07" r="1.55"/>
            <circle class="cls-5" cx="95.79" cy="161.93" r="1.55"/>
            <circle class="cls-5" cx="78.07" cy="95.79" r="1.55"/>
            <circle class="cls-5" cx="161.93" cy="144.21" r="1.55"/>
            <circle class="cls-5" cx="151.12" cy="82.91" r="1.55"/>
            <circle class="cls-5" cx="88.88" cy="157.09" r="1.55"/>
            <circle class="cls-5" cx="82.91" cy="88.88" r="1.55"/>
            <circle class="cls-5" cx="157.09" cy="151.12" r="1.55"/>
            <circle class="cls-5" cx="157.09" cy="88.88" r="1.55"/>
            <circle class="cls-5" cx="82.91" cy="151.12" r="1.55"/>
            <circle class="cls-5" cx="88.88" cy="82.91" r="1.55"/>
            <circle class="cls-5" cx="151.12" cy="157.09" r="1.55"/>
            <circle class="cls-5" cx="161.93" cy="95.79" r="1.55"/>
            <circle class="cls-5" cx="78.07" cy="144.21" r="1.55"/>
            <circle class="cls-5" cx="95.79" cy="78.07" r="1.55"/>
            <circle class="cls-5" cx="144.21" cy="161.93" r="1.55"/>
            <circle class="cls-5" cx="165.5" cy="103.44" r="1.55"/>
            <circle class="cls-5" cx="74.5" cy="136.56" r="1.55"/>
            <circle class="cls-5" cx="103.44" cy="74.5" r="1.55"/>
            <circle class="cls-5" cx="136.56" cy="165.5" r="1.55"/>
            <circle class="cls-5" cx="167.68" cy="111.59" r="1.55"/>
            <circle class="cls-5" cx="72.32" cy="128.41" r="1.55"/>
            <circle class="cls-5" cx="111.59" cy="72.32" r="1.55"/>
            <circle class="cls-5" cx="128.41" cy="167.68" r="1.55"/>
            <circle class="cls-5" cx="115.41" cy="67.59" r="1.68"/>
            <circle class="cls-5" cx="124.58" cy="172.41" r="1.68"/>
            <circle class="cls-5" cx="67.59" cy="124.58" r="1.68"/>
            <circle class="cls-5" cx="172.41" cy="115.42" r="1.68"/>
            <circle class="cls-5" cx="124.58" cy="67.59" r="1.68"/>
            <circle class="cls-5" cx="115.41" cy="172.41" r="1.68"/>
            <circle class="cls-5" cx="67.59" cy="115.42" r="1.68"/>
            <circle class="cls-5" cx="172.41" cy="124.58" r="1.68"/>
            <circle class="cls-5" cx="133.62" cy="69.19" r="1.68"/>
            <circle class="cls-5" cx="106.38" cy="170.81" r="1.68"/>
            <circle class="cls-5" cx="69.19" cy="106.38" r="1.68"/>
            <circle class="cls-5" cx="170.81" cy="133.62" r="1.68"/>
            <circle class="cls-5" cx="142.23" cy="72.32" r="1.68"/>
            <circle class="cls-5" cx="97.77" cy="167.68" r="1.68"/>
            <circle class="cls-5" cx="72.32" cy="97.77" r="1.68"/>
            <circle class="cls-5" cx="167.68" cy="142.23" r="1.68"/>
            <circle class="cls-5" cx="150.17" cy="76.91" r="1.68"/>
            <circle class="cls-5" cx="89.83" cy="163.09" r="1.68"/>
            <circle class="cls-5" cx="76.91" cy="89.83" r="1.68"/>
            <circle class="cls-5" cx="163.09" cy="150.17" r="1.68"/>
            <circle class="cls-5" cx="157.2" cy="82.8" r="1.68"/>
            <circle class="cls-5" cx="82.8" cy="157.2" r="1.68"/>
            <circle class="cls-5" cx="82.8" cy="82.8" r="1.68"/>
            <circle class="cls-5" cx="157.2" cy="157.2" r="1.68"/>
            <circle class="cls-5" cx="163.09" cy="89.83" r="1.68"/>
            <circle class="cls-5" cx="76.91" cy="150.17" r="1.68"/>
            <circle class="cls-5" cx="89.83" cy="76.91" r="1.68"/>
            <circle class="cls-5" cx="150.17" cy="163.09" r="1.68"/>
            <circle class="cls-5" cx="167.68" cy="97.77" r="1.68"/>
            <circle class="cls-5" cx="72.32" cy="142.23" r="1.68"/>
            <circle class="cls-5" cx="97.77" cy="72.32" r="1.68"/>
            <circle class="cls-5" cx="142.23" cy="167.68" r="1.68"/>
            <circle class="cls-5" cx="170.81" cy="106.38" r="1.68"/>
            <circle class="cls-5" cx="69.19" cy="133.62" r="1.68"/>
            <circle class="cls-5" cx="106.38" cy="69.19" r="1.68"/>
            <circle class="cls-5" cx="133.62" cy="170.81" r="1.68"/>
            <circle class="cls-5" cx="120" cy="63.32" r="1.81"/>
            <circle class="cls-5" cx="120" cy="176.68" r="1.81"/>
            <circle class="cls-5" cx="63.32" cy="120" r="1.81"/>
            <circle class="cls-5" cx="176.67" cy="120" r="1.81"/>
            <circle class="cls-5" cx="129.84" cy="64.19" r="1.81"/>
            <circle class="cls-5" cx="110.16" cy="175.81" r="1.81"/>
            <circle class="cls-5" cx="64.19" cy="110.16" r="1.81"/>
            <circle class="cls-5" cx="175.81" cy="129.84" r="1.81"/>
            <circle class="cls-5" cx="139.38" cy="66.74" r="1.81"/>
            <circle class="cls-5" cx="100.62" cy="173.26" r="1.81"/>
            <circle class="cls-5" cx="66.74" cy="100.62" r="1.81"/>
            <circle class="cls-5" cx="173.26" cy="139.38" r="1.81"/>
            <circle class="cls-5" cx="148.34" cy="70.92" r="1.81"/>
            <circle class="cls-5" cx="91.66" cy="169.08" r="1.81"/>
            <circle class="cls-5" cx="70.92" cy="91.66" r="1.81"/>
            <circle class="cls-5" cx="169.08" cy="148.34" r="1.81"/>
            <circle class="cls-5" cx="156.43" cy="76.58" r="1.81"/>
            <circle class="cls-5" cx="83.57" cy="163.42" r="1.81"/>
            <circle class="cls-5" cx="76.58" cy="83.57" r="1.81"/>
            <circle class="cls-5" cx="163.42" cy="156.43" r="1.81"/>
            <circle class="cls-5" cx="163.42" cy="83.57" r="1.81"/>
            <circle class="cls-5" cx="76.58" cy="156.43" r="1.81"/>
            <circle class="cls-5" cx="83.57" cy="76.58" r="1.81"/>
            <circle class="cls-5" cx="156.43" cy="163.42" r="1.81"/>
            <circle class="cls-5" cx="169.08" cy="91.66" r="1.81"/>
            <circle class="cls-5" cx="70.92" cy="148.34" r="1.81"/>
            <circle class="cls-5" cx="91.66" cy="70.92" r="1.81"/>
            <circle class="cls-5" cx="148.34" cy="169.08" r="1.81"/>
            <circle class="cls-5" cx="173.26" cy="100.62" r="1.81"/>
            <circle class="cls-5" cx="66.74" cy="139.38" r="1.81"/>
            <circle class="cls-5" cx="100.62" cy="66.74" r="1.81"/>
            <circle class="cls-5" cx="139.38" cy="173.26" r="1.81"/>
            <circle class="cls-5" cx="175.81" cy="110.16" r="1.81"/>
            <circle class="cls-5" cx="64.19" cy="129.84" r="1.81"/>
            <circle class="cls-5" cx="110.16" cy="64.19" r="1.81"/>
            <circle class="cls-5" cx="129.84" cy="175.81" r="1.81"/>
            <circle class="cls-5" cx="114.72" cy="59.66" r="1.94"/>
            <circle class="cls-5" cx="125.28" cy="180.34" r="1.94"/>
            <circle class="cls-5" cx="59.66" cy="125.28" r="1.94"/>
            <circle class="cls-5" cx="180.34" cy="114.72" r="1.94"/>
            <circle class="cls-5" cx="125.28" cy="59.66" r="1.94"/>
            <circle class="cls-5" cx="114.72" cy="180.34" r="1.94"/>
            <circle class="cls-5" cx="59.66" cy="114.72" r="1.94"/>
            <circle class="cls-5" cx="180.34" cy="125.28" r="1.94"/>
            <circle class="cls-5" cx="135.68" cy="61.49" r="1.94"/>
            <circle class="cls-5" cx="104.32" cy="178.51" r="1.94"/>
            <circle class="cls-5" cx="61.49" cy="104.32" r="1.94"/>
            <circle class="cls-5" cx="178.51" cy="135.68" r="1.94"/>
            <circle class="cls-5" cx="145.6" cy="65.1" r="1.94"/>
            <circle class="cls-5" cx="94.4" cy="174.9" r="1.94"/>
            <circle class="cls-5" cx="65.1" cy="94.4" r="1.94"/>
            <circle class="cls-5" cx="174.9" cy="145.6" r="1.94"/>
            <circle class="cls-5" cx="154.74" cy="70.38" r="1.94"/>
            <circle class="cls-5" cx="85.26" cy="169.62" r="1.94"/>
            <circle class="cls-5" cx="70.38" cy="85.26" r="1.94"/>
            <circle class="cls-5" cx="169.62" cy="154.74" r="1.94"/>
            <circle class="cls-5" cx="162.83" cy="77.17" r="1.94"/>
            <circle class="cls-5" cx="77.17" cy="162.83" r="1.94"/>
            <circle class="cls-5" cx="77.17" cy="77.17" r="1.94"/>
            <circle class="cls-5" cx="162.83" cy="162.83" r="1.94"/>
            <circle class="cls-5" cx="169.62" cy="85.26" r="1.94"/>
            <circle class="cls-5" cx="70.38" cy="154.74" r="1.94"/>
            <circle class="cls-5" cx="85.26" cy="70.38" r="1.94"/>
            <circle class="cls-5" cx="154.74" cy="169.62" r="1.94"/>
            <circle class="cls-5" cx="174.9" cy="94.4" r="1.94"/>
            <circle class="cls-5" cx="65.1" cy="145.6" r="1.94"/>
            <circle class="cls-5" cx="94.4" cy="65.1" r="1.94"/>
            <circle class="cls-5" cx="145.6" cy="174.9" r="1.94"/>
            <circle class="cls-5" cx="178.51" cy="104.32" r="1.94"/>
            <circle class="cls-5" cx="61.49" cy="135.68" r="1.94"/>
            <circle class="cls-5" cx="104.32" cy="61.49" r="1.94"/>
            <circle class="cls-5" cx="135.68" cy="178.51" r="1.94"/>
            <circle class="cls-5" cx="120" cy="54.83" r="2.09"/>
            <circle class="cls-5" cx="120" cy="185.17" r="2.09"/>
            <circle class="cls-5" cx="54.83" cy="120" r="2.09"/>
            <circle class="cls-5" cx="185.17" cy="120" r="2.09"/>
            <circle class="cls-5" cx="131.32" cy="55.82" r="2.09"/>
            <circle class="cls-5" cx="108.68" cy="184.18" r="2.09"/>
            <circle class="cls-5" cx="55.82" cy="108.68" r="2.09"/>
            <circle class="cls-5" cx="184.18" cy="131.32" r="2.09"/>
            <circle class="cls-5" cx="142.29" cy="58.76" r="2.09"/>
            <circle class="cls-5" cx="97.71" cy="181.24" r="2.09"/>
            <circle class="cls-5" cx="58.76" cy="97.71" r="2.09"/>
            <circle class="cls-5" cx="181.24" cy="142.29" r="2.09"/>
            <circle class="cls-5" cx="152.58" cy="63.56" r="2.09"/>
            <circle class="cls-5" cx="87.42" cy="176.44" r="2.09"/>
            <circle class="cls-5" cx="63.56" cy="87.42" r="2.09"/>
            <circle class="cls-5" cx="176.44" cy="152.58" r="2.09"/>
            <circle class="cls-5" cx="161.89" cy="70.08" r="2.09"/>
            <circle class="cls-5" cx="78.11" cy="169.92" r="2.09"/>
            <circle class="cls-5" cx="70.08" cy="78.11" r="2.09"/>
            <circle class="cls-5" cx="169.92" cy="161.89" r="2.09"/>
            <circle class="cls-5" cx="169.92" cy="78.11" r="2.09"/>
            <circle class="cls-5" cx="70.08" cy="161.89" r="2.09"/>
            <circle class="cls-5" cx="78.11" cy="70.08" r="2.09"/>
            <circle class="cls-5" cx="161.89" cy="169.92" r="2.09"/>
            <circle class="cls-5" cx="176.44" cy="87.42" r="2.09"/>
            <circle class="cls-5" cx="63.56" cy="152.58" r="2.09"/>
            <circle class="cls-5" cx="87.42" cy="63.56" r="2.09"/>
            <circle class="cls-5" cx="152.58" cy="176.44" r="2.09"/>
            <circle class="cls-5" cx="181.24" cy="97.71" r="2.09"/>
            <circle class="cls-5" cx="58.76" cy="142.29" r="2.09"/>
            <circle class="cls-5" cx="97.71" cy="58.76" r="2.09"/>
            <circle class="cls-5" cx="142.29" cy="181.24" r="2.09"/>
            <circle class="cls-5" cx="184.18" cy="108.68" r="2.09"/>
            <circle class="cls-5" cx="55.82" cy="131.32" r="2.09"/>
            <circle class="cls-5" cx="108.68" cy="55.82" r="2.09"/>
            <circle class="cls-5" cx="131.32" cy="184.18" r="2.09"/>
            <circle class="cls-5" cx="113.88" cy="50" r="2.25"/>
            <circle class="cls-5" cx="126.12" cy="190" r="2.25"/>
            <circle class="cls-5" cx="50" cy="126.12" r="2.25"/>
            <circle class="cls-5" cx="190" cy="113.88" r="2.25"/>
            <circle class="cls-5" cx="126.12" cy="50" r="2.25"/>
            <circle class="cls-5" cx="113.88" cy="190" r="2.25"/>
            <circle class="cls-5" cx="50" cy="113.88" r="2.25"/>
            <circle class="cls-5" cx="190" cy="126.12" r="2.25"/>
            <circle class="cls-5" cx="138.19" cy="52.13" r="2.25"/>
            <circle class="cls-5" cx="101.81" cy="187.87" r="2.25"/>
            <circle class="cls-5" cx="52.13" cy="101.81" r="2.25"/>
            <circle class="cls-5" cx="187.87" cy="138.19" r="2.25"/>
            <circle class="cls-5" cx="149.7" cy="56.32" r="2.25"/>
            <circle class="cls-5" cx="90.3" cy="183.68" r="2.25"/>
            <circle class="cls-5" cx="56.32" cy="90.3" r="2.25"/>
            <circle class="cls-5" cx="183.68" cy="149.7" r="2.25"/>
            <circle class="cls-5" cx="160.3" cy="62.44" r="2.25"/>
            <circle class="cls-5" cx="79.7" cy="177.56" r="2.25"/>
            <circle class="cls-5" cx="62.44" cy="79.7" r="2.25"/>
            <circle class="cls-5" cx="177.56" cy="160.3" r="2.25"/>
            <circle class="cls-5" cx="169.69" cy="70.31" r="2.25"/>
            <circle class="cls-5" cx="70.31" cy="169.69" r="2.25"/>
            <circle class="cls-5" cx="70.31" cy="70.31" r="2.25"/>
            <circle class="cls-5" cx="169.69" cy="169.69" r="2.25"/>
            <circle class="cls-5" cx="177.56" cy="79.7" r="2.25"/>
            <circle class="cls-5" cx="62.44" cy="160.3" r="2.25"/>
            <circle class="cls-5" cx="79.7" cy="62.44" r="2.25"/>
            <circle class="cls-5" cx="160.3" cy="177.56" r="2.25"/>
            <circle class="cls-5" cx="183.68" cy="90.3" r="2.25"/>
            <circle class="cls-5" cx="56.32" cy="149.7" r="2.25"/>
            <circle class="cls-5" cx="90.3" cy="56.32" r="2.25"/>
            <circle class="cls-5" cx="149.7" cy="183.68" r="2.25"/>
            <circle class="cls-5" cx="187.87" cy="101.81" r="2.25"/>
            <circle class="cls-5" cx="52.13" cy="138.19" r="2.25"/>
            <circle class="cls-5" cx="101.81" cy="52.13" r="2.25"/>
            <circle class="cls-5" cx="138.19" cy="187.87" r="2.25"/>
            <circle class="cls-5" cx="120" cy="44.99" r="2.4"/>
            <circle class="cls-5" cx="120" cy="195.01" r="2.4"/>
            <circle class="cls-5" cx="44.99" cy="120" r="2.4"/>
            <circle class="cls-5" cx="195.01" cy="120" r="2.4"/>
            <circle class="cls-5" cx="133.02" cy="46.13" r="2.4"/>
            <circle class="cls-5" cx="106.97" cy="193.87" r="2.4"/>
            <circle class="cls-5" cx="46.13" cy="106.97" r="2.4"/>
            <circle class="cls-5" cx="193.87" cy="133.03" r="2.4"/>
            <circle class="cls-5" cx="145.65" cy="49.51" r="2.4"/>
            <circle class="cls-5" cx="94.34" cy="190.49" r="2.4"/>
            <circle class="cls-5" cx="49.51" cy="94.34" r="2.4"/>
            <circle class="cls-5" cx="190.49" cy="145.66" r="2.4"/>
            <circle class="cls-5" cx="157.5" cy="55.04" r="2.4"/>
            <circle class="cls-5" cx="82.49" cy="184.96" r="2.4"/>
            <circle class="cls-5" cx="55.04" cy="82.49" r="2.4"/>
            <circle class="cls-5" cx="184.96" cy="157.51" r="2.4"/>
            <circle class="cls-5" cx="168.22" cy="62.54" r="2.4"/>
            <circle class="cls-5" cx="71.78" cy="177.46" r="2.4"/>
            <circle class="cls-5" cx="62.54" cy="71.78" r="2.4"/>
            <circle class="cls-5" cx="177.46" cy="168.22" r="2.4"/>
            <circle class="cls-5" cx="177.46" cy="71.78" r="2.4"/>
            <circle class="cls-5" cx="62.54" cy="168.22" r="2.4"/>
            <circle class="cls-5" cx="71.78" cy="62.54" r="2.4"/>
            <circle class="cls-5" cx="168.22" cy="177.46" r="2.4"/>
            <circle class="cls-5" cx="184.96" cy="82.49" r="2.4"/>
            <circle class="cls-5" cx="55.04" cy="157.51" r="2.4"/>
            <circle class="cls-5" cx="82.49" cy="55.04" r="2.4"/>
            <circle class="cls-5" cx="157.5" cy="184.96" r="2.4"/>
            <circle class="cls-5" cx="190.49" cy="94.34" r="2.4"/>
            <circle class="cls-5" cx="49.51" cy="145.66" r="2.4"/>
            <circle class="cls-5" cx="94.34" cy="49.51" r="2.4"/>
            <circle class="cls-5" cx="145.65" cy="190.49" r="2.4"/>
            <circle class="cls-5" cx="193.87" cy="106.97" r="2.4"/>
            <circle class="cls-5" cx="46.13" cy="133.03" r="2.4"/>
            <circle class="cls-5" cx="106.97" cy="46.13" r="2.4"/>
            <circle class="cls-5" cx="133.03" cy="193.87" r="2.4"/>
            <circle class="cls-5" cx="113.12" cy="41.37" r="2.53"/>
            <circle class="cls-5" cx="126.88" cy="198.63" r="2.53"/>
            <circle class="cls-5" cx="126.88" cy="41.37" r="2.53"/>
            <circle class="cls-5" cx="113.12" cy="198.63" r="2.53"/>
            <circle class="cls-5" cx="140.43" cy="43.76" r="2.53"/>
            <circle class="cls-5" cx="99.57" cy="196.24" r="2.53"/>
            <circle class="cls-5" cx="43.76" cy="99.57" r="2.53"/>
            <circle class="cls-5" cx="196.24" cy="140.43" r="2.53"/>
            <circle class="cls-5" cx="153.36" cy="48.47" r="2.53"/>
            <circle class="cls-5" cx="86.64" cy="191.53" r="2.53"/>
            <circle class="cls-5" cx="48.47" cy="86.64" r="2.53"/>
            <circle class="cls-5" cx="191.53" cy="153.36" r="2.53"/>
            <circle class="cls-5" cx="165.27" cy="55.35" r="2.53"/>
            <circle class="cls-5" cx="74.73" cy="184.65" r="2.53"/>
            <circle class="cls-5" cx="55.35" cy="74.73" r="2.53"/>
            <circle class="cls-5" cx="184.65" cy="165.27" r="2.53"/>
            <circle class="cls-5" cx="175.81" cy="64.19" r="2.53"/>
            <circle class="cls-5" cx="64.19" cy="175.81" r="2.53"/>
            <circle class="cls-5" cx="64.19" cy="64.19" r="2.53"/>
            <circle class="cls-5" cx="175.81" cy="175.81" r="2.53"/>
            <circle class="cls-5" cx="184.65" cy="74.73" r="2.53"/>
            <circle class="cls-5" cx="55.35" cy="165.27" r="2.53"/>
            <circle class="cls-5" cx="74.73" cy="55.35" r="2.53"/>
            <circle class="cls-5" cx="165.27" cy="184.65" r="2.53"/>
            <circle class="cls-5" cx="191.53" cy="86.64" r="2.53"/>
            <circle class="cls-5" cx="48.47" cy="153.36" r="2.53"/>
            <circle class="cls-5" cx="86.64" cy="48.47" r="2.53"/>
            <circle class="cls-5" cx="153.36" cy="191.53" r="2.53"/>
            <circle class="cls-5" cx="196.24" cy="99.57" r="2.53"/>
            <circle class="cls-5" cx="43.76" cy="140.43" r="2.53"/>
            <circle class="cls-5" cx="99.57" cy="43.76" r="2.53"/>
            <circle class="cls-5" cx="140.43" cy="196.24" r="2.53"/>
            <circle class="cls-5" cx="91.22" cy="199.06" r="2.69"/>
            <circle class="cls-5" cx="162.07" cy="47.14" r="2.69"/>
            <circle class="cls-5" cx="77.93" cy="192.86" r="2.69"/>
            <circle class="cls-5" cx="47.14" cy="77.93" r="2.69"/>
            <circle class="cls-5" cx="192.86" cy="162.07" r="2.69"/>
            <circle class="cls-5" cx="174.08" cy="55.55" r="2.69"/>
            <circle class="cls-5" cx="65.92" cy="184.45" r="2.69"/>
            <circle class="cls-5" cx="55.55" cy="65.92" r="2.69"/>
            <circle class="cls-5" cx="184.45" cy="174.08" r="2.69"/>
            <circle class="cls-5" cx="184.45" cy="65.92" r="2.69"/>
            <circle class="cls-5" cx="55.55" cy="174.08" r="2.69"/>
            <circle class="cls-5" cx="65.92" cy="55.55" r="2.69"/>
            <circle class="cls-5" cx="174.08" cy="184.45" r="2.69"/>
            <circle class="cls-5" cx="192.86" cy="77.93" r="2.69"/>
            <circle class="cls-5" cx="47.14" cy="162.07" r="2.69"/>
            <circle class="cls-5" cx="77.93" cy="47.14" r="2.69"/>
            <circle class="cls-5" cx="162.07" cy="192.86" r="2.69"/>
            <circle class="cls-5" cx="148.78" cy="199.06" r="2.69"/>
            <circle class="cls-5" cx="172.12" cy="45.56" r="2.91"/>
            <circle class="cls-5" cx="67.88" cy="194.44" r="2.91"/>
            <circle class="cls-5" cx="45.56" cy="67.88" r="2.91"/>
            <circle class="cls-5" cx="194.44" cy="172.12" r="2.91"/>
            <circle class="cls-5" cx="184.26" cy="55.74" r="2.91"/>
            <circle class="cls-5" cx="55.74" cy="184.26" r="2.91"/>
            <circle class="cls-5" cx="55.74" cy="55.74" r="2.91"/>
            <circle class="cls-5" cx="184.26" cy="184.26" r="2.91"/>
            <circle class="cls-5" cx="194.44" cy="67.88" r="2.91"/>
            <circle class="cls-5" cx="45.56" cy="172.12" r="2.91"/>
            <circle class="cls-5" cx="67.88" cy="45.56" r="2.91"/>
            <circle class="cls-5" cx="172.12" cy="194.44" r="2.91"/>
            <circle class="cls-5" cx="181.45" cy="46.77" r="3.06"/>
            <circle class="cls-5" cx="58.55" cy="193.23" r="3.06"/>
            <circle class="cls-5" cx="46.77" cy="58.55" r="3.06"/>
            <circle class="cls-5" cx="193.23" cy="181.45" r="3.06"/>
            <circle class="cls-5" cx="193.23" cy="58.55" r="3.06"/>
            <circle class="cls-5" cx="46.77" cy="181.45" r="3.06"/>
            <circle class="cls-5" cx="58.55" cy="46.77" r="3.06"/>
            <circle class="cls-5" cx="181.45" cy="193.23" r="3.06"/>
          </g>
        </g>
        <rect class="cls-2" x="43" y="43.69" width="154" height="152.62" rx="17.88" ry="17.88"/>
        <rect class="cls-1" x="45.96" y="46.62" width="148.08" height="146.76" rx="16.1" ry="16.1"/>
        <circle class="cls-3" cx="120" cy="120" r="27.63"/>
        <rect class="cls-5" x="108.08" y="108.47" width="23.84" height="23.06" rx="3.6" ry="3.6"/>
      </g>
    </g>
  </g>
</svg>