<svg xmlns="http://www.w3.org/2000/svg" viewBox="0 0 250 250"><defs><style>.cls-1{fill:#0085b4;}.cls-2{fill:none;}</style></defs><g id="Шар_2" data-name="Шар 2"><g id="Blue"><g id="Sensor_-_Nutrient" data-name="Sensor - Nutrient"><circle class="cls-1" cx="122.97" cy="92.99" r="1.52"/><path class="cls-1" d="M192.05,176.35S143.26,92,142.67,91.2a1.23,1.23,0,0,1-.26-.76V52.36a1.23,1.23,0,0,1,1.24-1.24h5.94a1.25,1.25,0,0,0,1.24-1.24V40.83a1.25,1.25,0,0,0-1.24-1.24H100.65a1.25,1.25,0,0,0-1.24,1.24v9.05a1.25,1.25,0,0,0,1.24,1.24h5.94a1.23,1.23,0,0,1,1.24,1.24V90.44a1.23,1.23,0,0,1-.26.76c-.59.77-49.38,85.15-49.38,85.15a22.16,22.16,0,0,0,19.2,33.24h95.47A22.16,22.16,0,0,0,192.05,176.35Zm-4,19.83a17.34,17.34,0,0,1-15.15,8.74H77.39a17.49,17.49,0,0,1-15.16-26.23C75.35,156,109.51,97,111.44,93.82a5.93,5.93,0,0,0,1.06-3.38V51.12h25.24V89.2c0,2.44.37,3.63,1.06,4.62C140.73,97,174.89,156,188,178.68A17.34,17.34,0,0,1,188,196.18Z"/><path class="cls-1" d="M177.22,179.75l-24.64-42.68c-2.25,2.65-6.54,5.68-14.48,5.68-15.57,0-13.35-11-26.47-11a23.35,23.35,0,0,0-11,2.62,15.13,15.13,0,0,0-6.07,5.88L71.76,179.75a10.53,10.53,0,0,0,9.12,15.8h87.21A10.54,10.54,0,0,0,177.22,179.75ZM123.5,151.22a3.53,3.53,0,1,1,2.66,4.23A3.53,3.53,0,0,1,123.5,151.22Zm-17.89-7.63a5.56,5.56,0,1,1,4.19,6.67A5.57,5.57,0,0,1,105.61,143.59ZM113,161a2.06,2.06,0,1,1-1.55-2.47A2.05,2.05,0,0,1,113,161Zm27.46,23.11c-7.7,10.83-21.48,5.67-26.34,3.45,6-16.77,16.6-19.17,18.7-19.48l.37,0c-12.91-.64-19.53,11.39-21.92,17-4-15.39,5.11-21.87,14.69-22.61,17.62-1.36,16.61-11.49,16.61-11.49S150.4,170.17,140.5,184.07Z"/><circle class="cls-1" cx="137.05" cy="127.27" r="5.94"/><circle class="cls-1" cx="117.04" cy="114.53" r="3.77"/><circle class="cls-1" cx="133.22" cy="105.05" r="2.2"/><rect id="Frame" class="cls-2" width="250" height="250"/></g></g></g></svg>