<svg xmlns="http://www.w3.org/2000/svg" viewBox="0 0 250 250"><defs><style>.cls-1{fill:none;}.cls-2{fill:#0085b4;}</style></defs><g id="Шар_2" data-name="Шар 2"><g id="Blue_Equal_shapes" data-name="Blue Equal shapes"><g id="Micro_Gateway" data-name="Micro Gateway"><rect class="cls-1" width="250" height="250"/><g id="Micro_Gateway-2" data-name="Micro Gateway"><path class="cls-2" d="M172.58,68.5H77.87A10.18,10.18,0,0,0,67.72,78.65v94.7A10.18,10.18,0,0,0,77.87,183.5h94.71a10.17,10.17,0,0,0,10.14-10.15V78.65A10.17,10.17,0,0,0,172.58,68.5ZM176,171.66a5.09,5.09,0,0,1-5.08,5.08H79.56a5.09,5.09,0,0,1-5.07-5.08V80.34a5.09,5.09,0,0,1,5.07-5.08h91.32A5.09,5.09,0,0,1,176,80.34Z"/><path class="cls-2" d="M81.9,169.26V118.53a.6.6,0,0,1,.61-.6H90a.6.6,0,0,1,.6.6v19.63q0,4.13,1.65,6.16c1.09,1.35,2.86,2,5.28,2a8.7,8.7,0,0,0,3.78-.77,8.44,8.44,0,0,0,2.65-2,.66.66,0,0,0,.15-.42V118.53a.6.6,0,0,1,.61-.6h7.47a.6.6,0,0,1,.6.6v22.36c0,2.61.2,4.2.6,4.76a2.89,2.89,0,0,0,2.48.84H117l-.71,6.6a.6.6,0,0,1-.6.54h-2.61c-3.25,0-5.65-1-7.17-3.07a.61.61,0,0,0-.9-.11,15.14,15.14,0,0,1-3.13,2,11.59,11.59,0,0,1-5.11,1.05,16.25,16.25,0,0,1-5.34-.88.61.61,0,0,0-.82.56v16.09a.6.6,0,0,1-.6.61H82.51A.61.61,0,0,1,81.9,169.26Z"/><path class="cls-2" d="M164.58,92a5.48,5.48,0,1,0-5.14-3.87l-10,5.79a12.05,12.05,0,0,0-20.72,2.49l-10-3c0-.08,0-.17,0-.25a6,6,0,1,0-.86,3.07l10,3a12.49,12.49,0,0,0-.17,1.94,12,12,0,0,0,17.57,10.73l4.37,6.29a9.74,9.74,0,1,0,2.42-1.67l-4.36-6.28a12.06,12.06,0,0,0,3.18-13.78L161,90.64A5.33,5.33,0,0,0,164.58,92Z"/></g></g></g></g></svg>