<svg xmlns="http://www.w3.org/2000/svg" viewBox="0 0 250 250"><defs><style>.cls-1{fill:#0085b4;}.cls-2{fill:none;}</style></defs><g id="Шар_2" data-name="Шар 2"><g id="Blue"><g id="General_-_Gateway" data-name="General - Gateway"><path class="cls-1" d="M183.24,69.36H35a10,10,0,0,0-10,10V173a10,10,0,0,0,10,10H183.24a10,10,0,0,0,10-10V79.36A10,10,0,0,0,183.24,69.36Zm3.17,101.78a5,5,0,0,1-5,5H36.83a5,5,0,0,1-5-5V81.19a5,5,0,0,1,5-5H181.41a5,5,0,0,1,5,5Z"/><path class="cls-1" d="M143,102.57a7.87,7.87,0,1,0-7.87-7.87,8,8,0,0,0,.32,2.21l-14.65,8.46A17.63,17.63,0,0,0,90.46,109l-14.61-4.39c0-.13,0-.25,0-.38a8.75,8.75,0,1,0-1.25,4.5l14.65,4.41a17.62,17.62,0,0,0,25.46,18.52l6.38,9.21a14.18,14.18,0,1,0,3.54-2.45l-6.36-9.18a17.61,17.61,0,0,0,4.64-20.16l14.79-8.54A7.81,7.81,0,0,0,143,102.57Z"/><rect class="cls-1" x="196.66" y="118.71" width="11.38" height="14.57" rx="2.5"/><path class="cls-1" d="M221.59,69.36h0a3.43,3.43,0,0,0-3.42,3.42v49.48a.49.49,0,0,1-.49.49H214a2.51,2.51,0,0,0-2.5,2.5v1.83a2.51,2.51,0,0,0,2.5,2.5h9.38a1.67,1.67,0,0,0,1.67-1.67V72.78A3.43,3.43,0,0,0,221.59,69.36Z"/><rect id="Frame" class="cls-2" width="250" height="250"/></g></g></g></svg>