<svg xmlns="http://www.w3.org/2000/svg" viewBox="0 0 250 250"><defs><style>.cls-1{fill:#0085b4;}.cls-2{fill:none;}</style></defs><g id="Шар_2" data-name="Шар 2"><g id="Blue"><g id="Sensor_-_Temperature_Logger" data-name="Sensor - Temperature Logger"><path class="cls-1" d="M126,160a35.55,35.55,0,0,1-35.5-35.5,2.5,2.5,0,0,1,5,0A30.51,30.51,0,1,0,105.38,102,2.5,2.5,0,0,1,102,98.34,35.5,35.5,0,1,1,126,160Z"/><rect class="cls-1" x="101.17" y="86.4" width="4.09" height="16.32" rx="2.04"/><rect class="cls-1" x="107.29" y="92.52" width="4.09" height="16.32" rx="2.04" transform="translate(210.01 -8.65) rotate(90)"/><rect class="cls-1" x="122.65" y="106.45" width="4.91" height="23.92" rx="2.45"/><rect class="cls-1" x="128.31" y="119.71" width="4.99" height="16.32" rx="2.45" transform="translate(258.68 -2.94) rotate(90)"/><path class="cls-1" d="M125.92,206.49A81.06,81.06,0,1,1,196.2,85a2.76,2.76,0,1,1-4.79,2.76A75.54,75.54,0,1,0,125.92,201a74.77,74.77,0,0,0,33.2-7.67,2.76,2.76,0,1,1,2.43,5A80.28,80.28,0,0,1,125.92,206.49Z"/><g id="temp"><path class="cls-1" d="M205.4,161.67V110.4a14.38,14.38,0,0,0-28.75,0v51.27a23.84,23.84,0,1,0,28.75,0ZM191,199.92a19.34,19.34,0,0,1-11.11-35.16,1.48,1.48,0,0,0,.63-1.22V111.11a10.48,10.48,0,1,1,21,0v52.43a1.49,1.49,0,0,0,.64,1.22A19.34,19.34,0,0,1,191,199.92Z"/><path class="cls-1" d="M185.83,148v20.81a12.67,12.67,0,1,0,10.39,0V148Z"/></g><rect id="Frame" class="cls-2" width="250" height="250"/></g></g></g></svg>