<svg xmlns="http://www.w3.org/2000/svg" xmlns:xlink="http://www.w3.org/1999/xlink" viewBox="0 0 240 240"><defs><style>.cls-1,.cls-3,.cls-5{fill:none;}.cls-2{fill:#d8e9f0;}.cls-3,.cls-5{stroke:#0285b4;stroke-miterlimit:10;}.cls-3{stroke-width:2px;}.cls-4{fill:#a8d2e2;}.cls-5{stroke-width:0.5px;}.cls-6{clip-path:url(#clip-path);}.cls-7{fill:#005d8d;}.cls-8{fill:#0785b4;}.cls-9{fill:#a9d2e2;}</style><clipPath id="clip-path"><path class="cls-1" d="M120.78,63.19c.29-6.13-5.29-10.54-14.34-14A80.74,80.74,0,0,0,78,44h-.3A82.58,82.58,0,0,0,49,49.23c-9,3.42-14.62,7.83-14.33,14V187.9C34.39,194,40,198.44,49,201.85a82.56,82.56,0,0,0,28.72,5.26h.57a79.1,79.1,0,0,0,28.14-5.26c9-3.41,14.63-7.82,14.34-13.95Z"/></clipPath></defs><g id="Шар_2" data-name="Шар 2"><g id="Шар_2-2" data-name="Шар 2"><g id="Wired_Temperature_Sensor" data-name="Wired Temperature Sensor"><rect class="cls-1" width="240" height="240"/><g id="Wired_Temperature_Sensor-2" data-name="Wired Temperature Sensor"><path class="cls-2" d="M179.5,139.76a3,3,0,0,1-3-3V75.91a3,3,0,0,1,6,0v60.83A3,3,0,0,1,179.5,139.76Z"/><path class="cls-3" d="M78.55,41.86A10.26,10.26,0,0,1,88.81,31.59h82"/><path class="cls-3" d="M164,31.59h7c23.33,0,36.5,15.78,36.5,32.38l.33,5.2v85.41a32.58,32.58,0,0,1-32.58,32.58h0a32.57,32.57,0,0,1-32.58-32.58V69.17a32.58,32.58,0,0,1,32.58-32.58h0c17.6,0,29.11,13.93,29.73,31.38v87.55a25,25,0,0,1-25,25h0a25,25,0,0,1-25-25V68.23a25,25,0,0,1,25-25h0c13.28,0,21.35,10.35,22.15,23.43v89.78a17.41,17.41,0,0,1-17.41,17.42h0a17.42,17.42,0,0,1-17.42-17.42V67.3a17.42,17.42,0,0,1,17.42-17.42h0c9.11,0,14.43,8.75,14.41,15.91v91.6a9.83,9.83,0,0,1-9.83,9.83h0a9.83,9.83,0,0,1-9.83-9.83V139.76"/><path class="cls-4" d="M176.88,128.25h5.23a1.23,1.23,0,0,1,1.23,1.23v10.1a3.47,3.47,0,0,1-3.47,3.47h-.75a3.47,3.47,0,0,1-3.47-3.47v-10.1A1.23,1.23,0,0,1,176.88,128.25Z"/><g id="BLE_Temperature_Humidity_Sensor" data-name="BLE Temperature/Humidity Sensor"><path class="cls-5" d="M123.16,61.46c.3-6.29-5.58-10.83-15.13-14.34a87.22,87.22,0,0,0-30-5.4h-.31a89.11,89.11,0,0,0-30.3,5.4C37.88,50.63,32,55.17,32.3,61.46V189.62c-.31,6.3,5.58,10.83,15.13,14.35a89.37,89.37,0,0,0,30.3,5.39h.6A85.72,85.72,0,0,0,108,204c9.55-3.52,15.43-8.05,15.13-14.35Z"/><g class="cls-6"><circle class="cls-2" cx="73.79" cy="50.11" r="1.7"/><circle class="cls-2" cx="81.88" cy="201" r="1.7"/><circle class="cls-2" cx="81.88" cy="50.11" r="1.7"/><circle class="cls-2" cx="73.79" cy="201" r="1.7"/><circle class="cls-2" cx="81.88" cy="200.99" r="1.7"/><circle class="cls-2" cx="81.88" cy="50.1" r="1.7"/><circle class="cls-2" cx="73.79" cy="200.99" r="1.7"/><circle class="cls-2" cx="89.89" cy="50.94" r="1.7"/><circle class="cls-2" cx="65.78" cy="200.11" r="1.7"/><circle class="cls-2" cx="97.8" cy="52.66" r="1.7"/><circle class="cls-2" cx="57.87" cy="198.4" r="1.7"/><circle class="cls-2" cx="65.78" cy="200.1" r="1.7"/><circle class="cls-2" cx="97.81" cy="52.65" r="1.7"/><circle class="cls-2" cx="57.87" cy="198.39" r="1.7"/><circle class="cls-2" cx="105.32" cy="55.16" r="1.7"/><circle class="cls-2" cx="50.36" cy="195.92" r="1.7"/><circle class="cls-2" cx="112.69" cy="58.51" r="1.7"/><circle class="cls-2" cx="42.98" cy="192.58" r="1.7"/><circle class="cls-2" cx="50.36" cy="195.91" r="1.7"/><circle class="cls-2" cx="112.69" cy="58.5" r="1.7"/><circle class="cls-2" cx="42.99" cy="192.57" r="1.7"/><circle class="cls-2" cx="65.78" cy="50.96" r="1.7"/><circle class="cls-2" cx="89.9" cy="200.13" r="1.7"/><circle class="cls-2" cx="57.87" cy="52.68" r="1.7"/><circle class="cls-2" cx="97.81" cy="198.41" r="1.7"/><circle class="cls-2" cx="89.89" cy="200.12" r="1.7"/><circle class="cls-2" cx="57.87" cy="52.66" r="1.7"/><circle class="cls-2" cx="97.8" cy="198.4" r="1.7"/><circle class="cls-2" cx="50.36" cy="55.18" r="1.7"/><circle class="cls-2" cx="105.32" cy="195.94" r="1.7"/><circle class="cls-2" cx="42.99" cy="58.52" r="1.7"/><circle class="cls-2" cx="112.69" cy="192.6" r="1.7"/><circle class="cls-2" cx="105.32" cy="195.93" r="1.7"/><circle class="cls-2" cx="42.98" cy="58.51" r="1.7"/><circle class="cls-2" cx="112.69" cy="192.59" r="1.7"/><circle class="cls-2" cx="119.15" cy="62.29" r="1.7"/><circle class="cls-2" cx="36.52" cy="188.8" r="1.7"/><circle class="cls-2" cx="125.68" cy="67.07" r="1.7"/><circle class="cls-2" cx="29.99" cy="184.02" r="1.7"/><circle class="cls-2" cx="36.53" cy="188.79" r="1.7"/><circle class="cls-2" cx="125.69" cy="67.06" r="1.7"/><circle class="cls-2" cx="30" cy="184.01" r="1.7"/><circle class="cls-2" cx="36.48" cy="62.29" r="1.7"/><circle class="cls-2" cx="119.11" cy="188.8" r="1.7"/><circle class="cls-2" cx="29.95" cy="67.07" r="1.7"/><circle class="cls-2" cx="125.64" cy="184.02" r="1.7"/><circle class="cls-2" cx="119.11" cy="188.79" r="1.7"/><circle class="cls-2" cx="29.95" cy="67.06" r="1.7"/><circle class="cls-2" cx="125.64" cy="184.01" r="1.7"/><circle class="cls-2" cx="77.73" cy="54.66" r="1.59"/><circle class="cls-2" cx="77.9" cy="196.39" r="1.59"/><circle class="cls-2" cx="85.31" cy="55.06" r="1.59"/><circle class="cls-2" cx="70.32" cy="196" r="1.59"/><circle class="cls-2" cx="77.9" cy="196.38" r="1.59"/><circle class="cls-2" cx="85.31" cy="55.05" r="1.59"/><circle class="cls-2" cx="70.32" cy="195.99" r="1.59"/><circle class="cls-2" cx="92.77" cy="56.23" r="1.59"/><circle class="cls-2" cx="62.86" cy="194.77" r="1.59"/><circle class="cls-2" cx="100.1" cy="58.23" r="1.59"/><circle class="cls-2" cx="55.54" cy="192.78" r="1.59"/><circle class="cls-2" cx="62.86" cy="194.76" r="1.59"/><circle class="cls-2" cx="100.1" cy="58.22" r="1.59"/><circle class="cls-2" cx="55.54" cy="192.77" r="1.59"/><circle class="cls-2" cx="107.01" cy="60.94" r="1.59"/><circle class="cls-2" cx="48.62" cy="190.09" r="1.59"/><circle class="cls-2" cx="113.75" cy="64.44" r="1.59"/><circle class="cls-2" cx="41.88" cy="186.6" r="1.59"/><circle class="cls-2" cx="48.62" cy="190.08" r="1.59"/><circle class="cls-2" cx="113.75" cy="64.43" r="1.59"/><circle class="cls-2" cx="41.88" cy="186.59" r="1.59"/><circle class="cls-2" cx="70.18" cy="55.06" r="1.59"/><circle class="cls-2" cx="85.45" cy="195.97" r="1.59"/><circle class="cls-2" cx="62.69" cy="56.28" r="1.59"/><circle class="cls-2" cx="92.94" cy="194.75" r="1.59"/><circle class="cls-2" cx="85.45" cy="195.96" r="1.59"/><circle class="cls-2" cx="62.69" cy="56.27" r="1.59"/><circle class="cls-2" cx="92.94" cy="194.74" r="1.59"/><circle class="cls-2" cx="55.53" cy="58.26" r="1.59"/><circle class="cls-2" cx="100.1" cy="192.8" r="1.59"/><circle class="cls-2" cx="48.46" cy="61.03" r="1.59"/><circle class="cls-2" cx="107.17" cy="190.03" r="1.59"/><circle class="cls-2" cx="100.1" cy="192.8" r="1.59"/><circle class="cls-2" cx="48.46" cy="61.02" r="1.59"/><circle class="cls-2" cx="107.17" cy="190.03" r="1.59"/><circle class="cls-2" cx="119.62" cy="68.29" r="1.59"/><circle class="cls-2" cx="36.01" cy="182.74" r="1.59"/><circle class="cls-2" cx="125.5" cy="73.09" r="1.59"/><circle class="cls-2" cx="30.13" cy="177.94" r="1.59"/><circle class="cls-2" cx="36.02" cy="182.73" r="1.59"/><circle class="cls-2" cx="125.51" cy="73.09" r="1.59"/><circle class="cls-2" cx="30.13" cy="177.93" r="1.59"/><circle class="cls-2" cx="42.19" cy="64.24" r="1.59"/><circle class="cls-2" cx="113.37" cy="186.8" r="1.59"/><circle class="cls-2" cx="35.84" cy="68.4" r="1.59"/><circle class="cls-2" cx="119.73" cy="182.64" r="1.59"/><circle class="cls-2" cx="113.37" cy="186.79" r="1.59"/><circle class="cls-2" cx="35.83" cy="68.39" r="1.59"/><circle class="cls-2" cx="119.72" cy="182.63" r="1.59"/><circle class="cls-2" cx="74.31" cy="59.92" r="1.48"/><circle class="cls-2" cx="81.35" cy="191.14" r="1.48"/><circle class="cls-2" cx="81.35" cy="59.92" r="1.48"/><circle class="cls-2" cx="74.31" cy="191.14" r="1.48"/><circle class="cls-2" cx="81.35" cy="191.13" r="1.48"/><circle class="cls-2" cx="81.35" cy="59.91" r="1.48"/><circle class="cls-2" cx="74.31" cy="191.13" r="1.48"/><circle class="cls-2" cx="88.32" cy="60.64" r="1.48"/><circle class="cls-2" cx="67.35" cy="190.36" r="1.48"/><circle class="cls-2" cx="95.2" cy="62.14" r="1.48"/><circle class="cls-2" cx="60.47" cy="188.87" r="1.48"/><circle class="cls-2" cx="67.35" cy="190.36" r="1.48"/><circle class="cls-2" cx="95.2" cy="62.13" r="1.48"/><circle class="cls-2" cx="60.47" cy="188.86" r="1.48"/><circle class="cls-2" cx="101.73" cy="64.32" r="1.48"/><circle class="cls-2" cx="53.94" cy="186.72" r="1.48"/><circle class="cls-2" cx="108.14" cy="67.22" r="1.48"/><circle class="cls-2" cx="47.53" cy="183.81" r="1.48"/><circle class="cls-2" cx="53.94" cy="186.71" r="1.48"/><circle class="cls-2" cx="108.14" cy="67.21" r="1.48"/><circle class="cls-2" cx="47.53" cy="183.8" r="1.48"/><circle class="cls-2" cx="67.35" cy="60.66" r="1.48"/><circle class="cls-2" cx="88.32" cy="190.38" r="1.48"/><circle class="cls-2" cx="60.47" cy="62.15" r="1.48"/><circle class="cls-2" cx="95.2" cy="188.88" r="1.48"/><circle class="cls-2" cx="88.32" cy="190.37" r="1.48"/><circle class="cls-2" cx="60.47" cy="62.14" r="1.48"/><circle class="cls-2" cx="95.2" cy="188.88" r="1.48"/><circle class="cls-2" cx="53.94" cy="64.33" r="1.48"/><circle class="cls-2" cx="101.73" cy="186.73" r="1.48"/><circle class="cls-2" cx="47.53" cy="67.24" r="1.48"/><circle class="cls-2" cx="108.14" cy="183.83" r="1.48"/><circle class="cls-2" cx="101.73" cy="186.73" r="1.48"/><circle class="cls-2" cx="47.53" cy="67.23" r="1.48"/><circle class="cls-2" cx="108.14" cy="183.82" r="1.48"/><circle class="cls-2" cx="113.76" cy="70.51" r="1.48"/><circle class="cls-2" cx="41.9" cy="180.53" r="1.48"/><circle class="cls-2" cx="119.44" cy="74.67" r="1.48"/><circle class="cls-2" cx="36.23" cy="176.37" r="1.48"/><circle class="cls-2" cx="41.91" cy="180.52" r="1.48"/><circle class="cls-2" cx="119.44" cy="74.66" r="1.48"/><circle class="cls-2" cx="36.23" cy="176.36" r="1.48"/><circle class="cls-2" cx="41.87" cy="70.51" r="1.48"/><circle class="cls-2" cx="113.73" cy="180.53" r="1.48"/><circle class="cls-2" cx="36.2" cy="74.67" r="1.48"/><circle class="cls-2" cx="119.41" cy="176.37" r="1.48"/><circle class="cls-2" cx="113.72" cy="180.52" r="1.48"/><circle class="cls-2" cx="36.19" cy="74.66" r="1.48"/><circle class="cls-2" cx="119.4" cy="176.36" r="1.48"/><circle class="cls-2" cx="77.74" cy="64.6" r="1.37"/><circle class="cls-2" cx="77.89" cy="186.41" r="1.37"/><circle class="cls-2" cx="84.26" cy="64.95" r="1.37"/><circle class="cls-2" cx="71.38" cy="186.06" r="1.37"/><circle class="cls-2" cx="77.89" cy="186.4" r="1.37"/><circle class="cls-2" cx="84.26" cy="64.94" r="1.37"/><circle class="cls-2" cx="71.38" cy="186.06" r="1.37"/><circle class="cls-2" cx="90.67" cy="65.95" r="1.37"/><circle class="cls-2" cx="64.96" cy="185.01" r="1.37"/><circle class="cls-2" cx="96.96" cy="67.67" r="1.37"/><circle class="cls-2" cx="58.67" cy="183.3" r="1.37"/><circle class="cls-2" cx="64.97" cy="185" r="1.37"/><circle class="cls-2" cx="96.96" cy="67.66" r="1.37"/><circle class="cls-2" cx="58.67" cy="183.29" r="1.37"/><circle class="cls-2" cx="102.9" cy="70" r="1.37"/><circle class="cls-2" cx="52.73" cy="180.99" r="1.37"/><circle class="cls-2" cx="108.7" cy="73.01" r="1.37"/><circle class="cls-2" cx="46.93" cy="177.99" r="1.37"/><circle class="cls-2" cx="52.73" cy="180.98" r="1.37"/><circle class="cls-2" cx="108.7" cy="73" r="1.37"/><circle class="cls-2" cx="46.94" cy="177.98" r="1.37"/><circle class="cls-2" cx="71.26" cy="64.95" r="1.37"/><circle class="cls-2" cx="84.38" cy="186.04" r="1.37"/><circle class="cls-2" cx="64.82" cy="66" r="1.37"/><circle class="cls-2" cx="90.82" cy="184.99" r="1.37"/><circle class="cls-2" cx="84.38" cy="186.03" r="1.37"/><circle class="cls-2" cx="64.82" cy="65.99" r="1.37"/><circle class="cls-2" cx="90.81" cy="184.98" r="1.37"/><circle class="cls-2" cx="58.67" cy="67.7" r="1.37"/><circle class="cls-2" cx="96.97" cy="183.32" r="1.37"/><circle class="cls-2" cx="52.59" cy="70.08" r="1.37"/><circle class="cls-2" cx="103.04" cy="180.94" r="1.37"/><circle class="cls-2" cx="96.97" cy="183.31" r="1.37"/><circle class="cls-2" cx="52.59" cy="70.07" r="1.37"/><circle class="cls-2" cx="103.04" cy="180.93" r="1.37"/><circle class="cls-2" cx="113.74" cy="76.32" r="1.37"/><circle class="cls-2" cx="41.89" cy="174.67" r="1.37"/><circle class="cls-2" cx="118.79" cy="80.44" r="1.37"/><circle class="cls-2" cx="36.84" cy="170.55" r="1.37"/><circle class="cls-2" cx="41.89" cy="174.67" r="1.37"/><circle class="cls-2" cx="118.8" cy="80.44" r="1.37"/><circle class="cls-2" cx="36.84" cy="170.54" r="1.37"/><circle class="cls-2" cx="47.2" cy="72.83" r="1.37"/><circle class="cls-2" cx="108.37" cy="178.16" r="1.37"/><circle class="cls-2" cx="41.74" cy="76.41" r="1.37"/><circle class="cls-2" cx="113.83" cy="174.58" r="1.37"/><circle class="cls-2" cx="108.37" cy="178.15" r="1.37"/><circle class="cls-2" cx="41.74" cy="76.4" r="1.37"/><circle class="cls-2" cx="113.83" cy="174.58" r="1.37"/><circle class="cls-2" cx="74.82" cy="69.25" r="1.26"/><circle class="cls-2" cx="80.84" cy="181.55" r="1.26"/><circle class="cls-2" cx="80.84" cy="69.25" r="1.26"/><circle class="cls-2" cx="74.82" cy="181.55" r="1.26"/><circle class="cls-2" cx="80.84" cy="181.55" r="1.26"/><circle class="cls-2" cx="80.84" cy="69.24" r="1.26"/><circle class="cls-2" cx="74.82" cy="181.55" r="1.26"/><circle class="cls-2" cx="86.81" cy="69.87" r="1.26"/><circle class="cls-2" cx="68.86" cy="180.9" r="1.26"/><circle class="cls-2" cx="92.69" cy="71.15" r="1.26"/><circle class="cls-2" cx="62.97" cy="179.62" r="1.26"/><circle class="cls-2" cx="68.86" cy="180.89" r="1.26"/><circle class="cls-2" cx="92.69" cy="71.14" r="1.26"/><circle class="cls-2" cx="62.97" cy="179.61" r="1.26"/><circle class="cls-2" cx="98.28" cy="73.01" r="1.26"/><circle class="cls-2" cx="57.38" cy="177.78" r="1.26"/><circle class="cls-2" cx="103.77" cy="75.5" r="1.26"/><circle class="cls-2" cx="51.89" cy="175.29" r="1.26"/><circle class="cls-2" cx="57.38" cy="177.77" r="1.26"/><circle class="cls-2" cx="103.77" cy="75.49" r="1.26"/><circle class="cls-2" cx="51.89" cy="175.28" r="1.26"/><circle class="cls-2" cx="68.86" cy="69.88" r="1.26"/><circle class="cls-2" cx="86.81" cy="180.91" r="1.26"/><circle class="cls-2" cx="62.97" cy="71.16" r="1.26"/><circle class="cls-2" cx="92.69" cy="179.63" r="1.26"/><circle class="cls-2" cx="86.81" cy="180.9" r="1.26"/><circle class="cls-2" cx="62.97" cy="71.15" r="1.26"/><circle class="cls-2" cx="92.69" cy="179.62" r="1.26"/><circle class="cls-2" cx="57.38" cy="73.02" r="1.26"/><circle class="cls-2" cx="98.29" cy="177.79" r="1.26"/><circle class="cls-2" cx="51.89" cy="75.51" r="1.26"/><circle class="cls-2" cx="103.77" cy="175.3" r="1.26"/><circle class="cls-2" cx="98.28" cy="177.78" r="1.26"/><circle class="cls-2" cx="51.89" cy="75.5" r="1.26"/><circle class="cls-2" cx="103.77" cy="175.29" r="1.26"/><circle class="cls-2" cx="108.58" cy="78.31" r="1.26"/><circle class="cls-2" cx="47.08" cy="172.48" r="1.26"/><circle class="cls-2" cx="113.44" cy="81.87" r="1.26"/><circle class="cls-2" cx="42.22" cy="168.92" r="1.26"/><circle class="cls-2" cx="47.08" cy="172.47" r="1.26"/><circle class="cls-2" cx="113.44" cy="81.86" r="1.26"/><circle class="cls-2" cx="42.22" cy="168.91" r="1.26"/><circle class="cls-2" cx="47.05" cy="78.31" r="1.26"/><circle class="cls-2" cx="108.55" cy="172.48" r="1.26"/><circle class="cls-2" cx="42.19" cy="81.87" r="1.26"/><circle class="cls-2" cx="113.41" cy="168.92" r="1.26"/><circle class="cls-2" cx="108.55" cy="172.47" r="1.26"/><circle class="cls-2" cx="42.19" cy="81.86" r="1.26"/><circle class="cls-2" cx="113.41" cy="168.91" r="1.26"/><circle class="cls-2" cx="77.67" cy="73.94" r="1.16"/><circle class="cls-2" cx="77.8" cy="176.82" r="1.16"/><circle class="cls-2" cx="83.17" cy="74.23" r="1.16"/><circle class="cls-2" cx="72.3" cy="176.53" r="1.16"/><circle class="cls-2" cx="77.8" cy="176.81" r="1.16"/><circle class="cls-2" cx="83.17" cy="74.23" r="1.16"/><circle class="cls-2" cx="72.3" cy="176.52" r="1.16"/><circle class="cls-2" cx="88.59" cy="75.09" r="1.16"/><circle class="cls-2" cx="66.88" cy="175.64" r="1.16"/><circle class="cls-2" cx="93.9" cy="76.53" r="1.16"/><circle class="cls-2" cx="61.57" cy="174.19" r="1.16"/><circle class="cls-2" cx="66.88" cy="175.64" r="1.16"/><circle class="cls-2" cx="93.9" cy="76.53" r="1.16"/><circle class="cls-2" cx="61.57" cy="174.19" r="1.16"/><circle class="cls-2" cx="98.92" cy="78.51" r="1.16"/><circle class="cls-2" cx="56.55" cy="172.24" r="1.16"/><circle class="cls-2" cx="103.81" cy="81.04" r="1.16"/><circle class="cls-2" cx="51.66" cy="169.71" r="1.16"/><circle class="cls-2" cx="56.55" cy="172.24" r="1.16"/><circle class="cls-2" cx="103.81" cy="81.03" r="1.16"/><circle class="cls-2" cx="51.66" cy="169.7" r="1.16"/><circle class="cls-2" cx="72.2" cy="74.24" r="1.16"/><circle class="cls-2" cx="83.28" cy="176.51" r="1.16"/><circle class="cls-2" cx="66.76" cy="75.12" r="1.16"/><circle class="cls-2" cx="88.71" cy="175.63" r="1.16"/><circle class="cls-2" cx="83.27" cy="176.51" r="1.16"/><circle class="cls-2" cx="66.76" cy="75.12" r="1.16"/><circle class="cls-2" cx="88.71" cy="175.62" r="1.16"/><circle class="cls-2" cx="61.56" cy="76.56" r="1.16"/><circle class="cls-2" cx="93.91" cy="174.21" r="1.16"/><circle class="cls-2" cx="56.43" cy="78.57" r="1.16"/><circle class="cls-2" cx="99.04" cy="172.2" r="1.16"/><circle class="cls-2" cx="93.91" cy="174.21" r="1.16"/><circle class="cls-2" cx="56.43" cy="78.56" r="1.16"/><circle class="cls-2" cx="99.03" cy="172.2" r="1.16"/><circle class="cls-2" cx="108.07" cy="83.84" r="1.16"/><circle class="cls-2" cx="47.4" cy="166.91" r="1.16"/><circle class="cls-2" cx="112.34" cy="87.32" r="1.16"/><circle class="cls-2" cx="43.13" cy="163.42" r="1.16"/><circle class="cls-2" cx="47.4" cy="166.9" r="1.16"/><circle class="cls-2" cx="112.34" cy="87.32" r="1.16"/><circle class="cls-2" cx="43.13" cy="163.42" r="1.16"/><circle class="cls-2" cx="51.88" cy="80.89" r="1.16"/><circle class="cls-2" cx="103.54" cy="169.85" r="1.16"/><circle class="cls-2" cx="47.27" cy="83.91" r="1.16"/><circle class="cls-2" cx="108.15" cy="166.83" r="1.16"/><circle class="cls-2" cx="103.54" cy="169.85" r="1.16"/><circle class="cls-2" cx="47.27" cy="83.91" r="1.16"/><circle class="cls-2" cx="108.14" cy="166.83" r="1.16"/><circle class="cls-2" cx="115.87" cy="90.87" r="1.16" transform="matrix(0.1, -1, 1, 0.1, 14.13, 197.32)"/><circle class="cls-2" cx="39.59" cy="159.88" r="1.16" transform="translate(-123.39 183.68) rotate(-84.4)"/><circle class="cls-2" cx="39.59" cy="90.87" r="1.16" transform="translate(-8.68 4.3) rotate(-5.6)"/><circle class="cls-2" cx="115.87" cy="159.88" r="1.16" transform="translate(-15.05 12.07) rotate(-5.6)"/><circle class="cls-2" cx="43.57" cy="86.91" r="1.16" transform="matrix(1, -0.09, 0.09, 1, -7.82, 4.38)"/><circle class="cls-2" cx="111.85" cy="163.84" r="1.16" transform="translate(-14.61 11) rotate(-5.28)"/><circle class="cls-2" cx="26.38" cy="125.08" r="1.16"/><circle class="cls-2" cx="129.25" cy="124.96" r="1.16"/><circle class="cls-2" cx="26.67" cy="119.58" r="1.16"/><circle class="cls-2" cx="128.97" cy="130.46" r="1.16"/><circle class="cls-2" cx="129.25" cy="124.96" r="1.16"/><circle class="cls-2" cx="26.66" cy="119.58" r="1.16"/><circle class="cls-2" cx="128.96" cy="130.46" r="1.16"/><circle class="cls-2" cx="27.52" cy="114.17" r="1.16"/><circle class="cls-2" cx="128.08" cy="135.87" r="1.16"/><circle class="cls-2" cx="28.97" cy="108.85" r="1.16"/><circle class="cls-2" cx="126.63" cy="141.19" r="1.16"/><circle class="cls-2" cx="128.07" cy="135.87" r="1.16"/><circle class="cls-2" cx="28.96" cy="108.85" r="1.16"/><circle class="cls-2" cx="126.62" cy="141.19" r="1.16"/><circle class="cls-2" cx="30.94" cy="103.83" r="1.16"/><circle class="cls-2" cx="124.68" cy="146.21" r="1.16"/><circle class="cls-2" cx="33.48" cy="98.94" r="1.16"/><circle class="cls-2" cx="122.14" cy="151.1" r="1.16"/><circle class="cls-2" cx="124.67" cy="146.2" r="1.16"/><circle class="cls-2" cx="33.47" cy="98.94" r="1.16"/><circle class="cls-2" cx="122.14" cy="151.09" r="1.16"/><circle class="cls-2" cx="26.67" cy="130.56" r="1.16"/><circle class="cls-2" cx="128.95" cy="119.48" r="1.16"/><circle class="cls-2" cx="27.56" cy="135.99" r="1.16"/><circle class="cls-2" cx="128.06" cy="114.04" r="1.16"/><circle class="cls-2" cx="128.94" cy="119.48" r="1.16"/><circle class="cls-2" cx="27.55" cy="136" r="1.16"/><circle class="cls-2" cx="128.05" cy="114.04" r="1.16"/><circle class="cls-2" cx="28.99" cy="141.19" r="1.16"/><circle class="cls-2" cx="126.65" cy="108.85" r="1.16"/><circle class="cls-2" cx="31" cy="146.32" r="1.16"/><circle class="cls-2" cx="124.64" cy="103.72" r="1.16"/><circle class="cls-2" cx="126.64" cy="108.85" r="1.16"/><circle class="cls-2" cx="31" cy="146.32" r="1.16"/><circle class="cls-2" cx="124.63" cy="103.72" r="1.16"/><circle class="cls-2" cx="36.27" cy="94.68" r="1.16"/><circle class="cls-2" cx="119.34" cy="155.36" r="1.16"/><circle class="cls-2" cx="119.34" cy="155.35" r="1.16"/><circle class="cls-2" cx="33.33" cy="150.87" r="1.16"/><circle class="cls-2" cx="122.29" cy="99.22" r="1.16"/><circle class="cls-2" cx="36.35" cy="155.48" r="1.16"/><circle class="cls-2" cx="119.27" cy="94.61" r="1.16"/><circle class="cls-2" cx="122.28" cy="99.22" r="1.16"/><circle class="cls-2" cx="36.34" cy="155.49" r="1.16"/><circle class="cls-2" cx="119.26" cy="94.61" r="1.16"/><circle class="cls-2" cx="21.67" cy="122.33" r="1.26"/><circle class="cls-2" cx="133.98" cy="128.44" r="1.26"/><circle class="cls-2" cx="22.32" cy="116.34" r="1.26"/><circle class="cls-2" cx="133.33" cy="134.43" r="1.26"/><circle class="cls-2" cx="133.97" cy="128.44" r="1.26"/><circle class="cls-2" cx="22.31" cy="116.34" r="1.26"/><circle class="cls-2" cx="133.32" cy="134.43" r="1.26"/><circle class="cls-2" cx="23.58" cy="110.48" r="1.26"/><circle class="cls-2" cx="132.03" cy="140.29" r="1.26"/><circle class="cls-2" cx="25.49" cy="104.76" r="1.26"/><circle class="cls-2" cx="130.12" cy="146" r="1.26"/><circle class="cls-2" cx="132.02" cy="140.28" r="1.26"/><circle class="cls-2" cx="25.48" cy="104.76" r="1.26"/><circle class="cls-2" cx="130.12" cy="146" r="1.26"/><circle class="cls-2" cx="27.94" cy="99.41" r="1.26"/><circle class="cls-2" cx="127.69" cy="151.36" r="1.26"/><circle class="cls-2" cx="31.01" cy="94.22" r="1.26"/><circle class="cls-2" cx="124.63" cy="156.55" r="1.26"/><circle class="cls-2" cx="127.68" cy="151.36" r="1.26"/><circle class="cls-2" cx="31" cy="94.22" r="1.26"/><circle class="cls-2" cx="124.62" cy="156.54" r="1.26"/><circle class="cls-2" cx="21.66" cy="128.32" r="1.26"/><circle class="cls-2" cx="133.97" cy="122.44" r="1.26"/><circle class="cls-2" cx="22.3" cy="134.31" r="1.26"/><circle class="cls-2" cx="133.34" cy="116.45" r="1.26"/><circle class="cls-2" cx="133.97" cy="122.44" r="1.26"/><circle class="cls-2" cx="22.29" cy="134.31" r="1.26"/><circle class="cls-2" cx="133.33" cy="116.45" r="1.26"/><circle class="cls-2" cx="23.55" cy="140.07" r="1.26"/><circle class="cls-2" cx="132.11" cy="110.69" r="1.26"/><circle class="cls-2" cx="25.43" cy="145.79" r="1.26"/><circle class="cls-2" cx="130.23" cy="104.97" r="1.26"/><circle class="cls-2" cx="132.1" cy="110.69" r="1.26"/><circle class="cls-2" cx="25.42" cy="145.8" r="1.26"/><circle class="cls-2" cx="130.22" cy="104.97" r="1.26"/><circle class="cls-2" cx="34.32" cy="89.74" r="1.26"/><circle class="cls-2" cx="121.31" cy="161.03" r="1.26"/><circle class="cls-2" cx="38.38" cy="85.29" r="1.26"/><circle class="cls-2" cx="117.25" cy="165.48" r="1.26"/><circle class="cls-2" cx="121.3" cy="161.02" r="1.26"/><circle class="cls-2" cx="38.38" cy="85.29" r="1.26"/><circle class="cls-2" cx="117.24" cy="165.47" r="1.26"/><circle class="cls-2" cx="27.69" cy="150.91" r="1.26"/><circle class="cls-2" cx="127.93" cy="99.91" r="1.26"/><circle class="cls-2" cx="30.71" cy="156.12" r="1.26"/><circle class="cls-2" cx="124.92" cy="94.7" r="1.26"/><circle class="cls-2" cx="127.93" cy="99.91" r="1.26"/><circle class="cls-2" cx="30.7" cy="156.13" r="1.26"/><circle class="cls-2" cx="124.91" cy="94.7" r="1.26"/><circle class="cls-2" cx="123.35" cy="94.75" r="1.26"/><circle class="cls-2" cx="123.34" cy="94.75" r="1.26"/><circle class="cls-2" cx="32.28" cy="160.55" r="1.26"/><circle class="cls-2" cx="120.08" cy="90.26" r="1.26"/><circle class="cls-2" cx="36.29" cy="165.05" r="1.26"/><circle class="cls-2" cx="116.07" cy="85.77" r="1.26"/><circle class="cls-2" cx="120.07" cy="90.26" r="1.26"/><circle class="cls-2" cx="36.29" cy="165.05" r="1.26"/><circle class="cls-2" cx="116.06" cy="85.77" r="1.26"/><circle class="cls-2" cx="75.17" cy="78.38" r="1.06" transform="translate(-4.08 4.13) rotate(-3.06)"/><circle class="cls-2" cx="80.35" cy="172.42" r="1.06" transform="translate(-9.1 4.54) rotate(-3.06)"/><circle class="cls-2" cx="80.21" cy="78.37" r="1.06" transform="translate(-4.07 4.4) rotate(-3.06)"/><circle class="cls-2" cx="75.31" cy="172.43" r="1.06" transform="translate(-9.1 4.27) rotate(-3.06)"/><circle class="cls-2" cx="80.35" cy="172.41" r="1.06" transform="translate(-9.1 4.54) rotate(-3.06)"/><circle class="cls-2" cx="80.21" cy="78.37" r="1.06" transform="translate(-4.07 4.4) rotate(-3.06)"/><circle class="cls-2" cx="75.31" cy="172.42" r="1.06" transform="translate(-9.1 4.27) rotate(-3.06)"/><circle class="cls-2" cx="85.21" cy="78.89" r="1.06" transform="translate(-4.09 4.67) rotate(-3.06)"/><circle class="cls-2" cx="70.32" cy="171.88" r="1.06" transform="translate(-9.08 4) rotate(-3.06)"/><circle class="cls-2" cx="90.14" cy="79.95" r="1.06" transform="translate(-4.14 4.93) rotate(-3.06)"/><circle class="cls-2" cx="65.39" cy="170.82" r="1.06" transform="translate(-9.03 3.74) rotate(-3.06)"/><circle class="cls-2" cx="70.32" cy="171.88" r="1.06" transform="translate(-9.08 4) rotate(-3.06)"/><circle class="cls-2" cx="90.14" cy="79.94" r="1.06" transform="translate(-4.14 4.93) rotate(-3.06)"/><circle class="cls-2" cx="65.39" cy="170.81" r="1.06" transform="translate(-9.03 3.74) rotate(-3.06)"/><circle class="cls-2" cx="94.82" cy="81.5" r="1.06" transform="translate(-4.22 5.18) rotate(-3.06)"/><circle class="cls-2" cx="60.7" cy="169.28" r="1.06" transform="translate(-8.96 3.48) rotate(-3.06)"/><circle class="cls-2" cx="99.42" cy="83.58" r="1.06" transform="translate(-4.32 5.43) rotate(-3.06)"/><circle class="cls-2" cx="56.11" cy="167.21" r="1.06" transform="translate(-8.85 3.24) rotate(-3.06)"/><circle class="cls-2" cx="60.71" cy="169.28" r="1.06" transform="translate(-8.96 3.49) rotate(-3.06)"/><circle class="cls-2" cx="99.42" cy="83.58" r="1.06" transform="translate(-4.32 5.43) rotate(-3.06)"/><circle class="cls-2" cx="56.11" cy="167.2" r="1.06" transform="translate(-8.85 3.24) rotate(-3.06)"/><circle class="cls-2" cx="70.18" cy="78.92" r="1.06" transform="translate(-4.12 3.86) rotate(-3.06)"/><circle class="cls-2" cx="85.35" cy="171.87" r="1.06" transform="translate(-9.06 4.81) rotate(-3.06)"/><circle class="cls-2" cx="65.25" cy="80" r="1.06" transform="translate(-4.18 3.6) rotate(-3.06)"/><circle class="cls-2" cx="90.27" cy="170.79" r="1.06" transform="translate(-9 5.07) rotate(-3.06)"/><circle class="cls-2" cx="85.35" cy="171.86" r="1.06" transform="translate(-9.06 4.81) rotate(-3.06)"/><circle class="cls-2" cx="65.25" cy="79.99" r="1.06" transform="translate(-4.18 3.6) rotate(-3.06)"/><circle class="cls-2" cx="90.27" cy="170.79" r="1.06" transform="translate(-9 5.07) rotate(-3.06)"/><circle class="cls-2" cx="60.57" cy="81.56" r="1.06" transform="translate(-4.27 3.35) rotate(-3.06)"/><circle class="cls-2" cx="94.95" cy="169.24" r="1.06" transform="translate(-8.91 5.31) rotate(-3.06)"/><circle class="cls-2" cx="55.99" cy="83.65" r="1.06" transform="translate(-4.39 3.11) rotate(-3.06)"/><circle class="cls-2" cx="99.54" cy="167.15" r="1.06" transform="translate(-8.79 5.56) rotate(-3.06)"/><circle class="cls-2" cx="94.95" cy="169.24" r="1.06" transform="translate(-8.91 5.31) rotate(-3.06)"/><circle class="cls-2" cx="55.98" cy="83.65" r="1.06" transform="translate(-4.39 3.11) rotate(-3.06)"/><circle class="cls-2" cx="99.54" cy="167.15" r="1.06" transform="translate(-8.79 5.56) rotate(-3.06)"/><circle class="cls-2" cx="103.45" cy="85.93" r="1.06" transform="matrix(1, -0.05, 0.05, 1, -4.44, 5.65)"/><circle class="cls-2" cx="52.07" cy="164.86" r="1.06" transform="translate(-8.73 3.02) rotate(-3.06)"/><circle class="cls-2" cx="107.52" cy="88.91" r="1.06" transform="translate(-4.6 5.87) rotate(-3.06)"/><circle class="cls-2" cx="48" cy="161.88" r="1.06" transform="translate(-8.58 2.8) rotate(-3.06)"/><circle class="cls-2" cx="52.08" cy="164.85" r="1.06" transform="matrix(1, -0.05, 0.05, 1, -8.73, 3.02)"/><circle class="cls-2" cx="107.53" cy="88.9" r="1.06" transform="translate(-4.6 5.87) rotate(-3.06)"/><circle class="cls-2" cx="48.01" cy="161.88" r="1.06" transform="translate(-8.58 2.8) rotate(-3.06)"/><circle class="cls-2" cx="51.94" cy="86.01" r="1.06" transform="translate(-4.52 2.9) rotate(-3.06)"/><circle class="cls-2" cx="103.54" cy="164.78" r="1.06" transform="translate(-8.66 5.77) rotate(-3.06)"/><circle class="cls-2" cx="47.87" cy="88.99" r="1.06" transform="translate(-4.69 2.68) rotate(-3.06)"/><circle class="cls-2" cx="107.61" cy="161.8" r="1.06" transform="translate(-8.49 5.98) rotate(-3.06)"/><circle class="cls-2" cx="103.54" cy="164.78" r="1.06" transform="translate(-8.66 5.77) rotate(-3.06)"/><circle class="cls-2" cx="47.87" cy="88.99" r="1.06" transform="translate(-4.69 2.68) rotate(-3.06)"/><circle class="cls-2" cx="107.6" cy="161.79" r="1.06" transform="translate(-8.49 5.98) rotate(-3.06)"/><circle class="cls-2" cx="110.93" cy="91.97" r="1.06" transform="translate(14.17 198.75) rotate(-87.48)"/><circle class="cls-2" cx="44.59" cy="158.82" r="1.06" transform="translate(-116.03 196.4) rotate(-87.48)"/><circle class="cls-2" cx="41.2" cy="95.73" r="1.06" transform="translate(-13.98 7.32) rotate(-8.68)"/><circle class="cls-2" cx="114.33" cy="155.06" r="1.06" transform="translate(-22.1 19.04) rotate(-8.68)"/><circle class="cls-2" cx="44.63" cy="91.91" r="1.06" transform="translate(-12.9 7.47) rotate(-8.37)"/><circle class="cls-2" cx="110.85" cy="158.88" r="1.06" transform="translate(-21.94 17.82) rotate(-8.37)"/><circle class="cls-2" cx="30.8" cy="127.66" r="1.06" transform="translate(-6.78 1.83) rotate(-3.06)"/><circle class="cls-2" cx="124.84" cy="122.48" r="1.06" transform="translate(-6.37 6.84) rotate(-3.06)"/><circle class="cls-2" cx="30.79" cy="122.61" r="1.06" transform="translate(-6.51 1.82) rotate(-3.06)"/><circle class="cls-2" cx="124.85" cy="127.52" r="1.06" transform="translate(-6.63 6.85) rotate(-3.06)"/><circle class="cls-2" cx="124.83" cy="122.48" r="1.06" transform="translate(-6.37 6.84) rotate(-3.06)"/><circle class="cls-2" cx="30.79" cy="122.61" r="1.06" transform="translate(-6.51 1.82) rotate(-3.06)"/><circle class="cls-2" cx="124.84" cy="127.52" r="1.06" transform="translate(-6.63 6.85) rotate(-3.06)"/><circle class="cls-2" cx="31.31" cy="117.62" r="1.06" transform="translate(-6.24 1.84) rotate(-3.06)"/><circle class="cls-2" cx="124.3" cy="132.51" r="1.06" transform="translate(-6.9 6.83) rotate(-3.06)"/><circle class="cls-2" cx="32.37" cy="112.69" r="1.06" transform="translate(-5.97 1.89) rotate(-3.06)"/><circle class="cls-2" cx="123.24" cy="137.44" r="1.06" transform="translate(-7.17 6.78) rotate(-3.06)"/><circle class="cls-2" cx="124.3" cy="132.51" r="1.06" transform="translate(-6.9 6.83) rotate(-3.06)"/><circle class="cls-2" cx="32.36" cy="112.69" r="1.06" transform="translate(-5.97 1.89) rotate(-3.06)"/><circle class="cls-2" cx="123.23" cy="137.44" r="1.06" transform="translate(-7.17 6.78) rotate(-3.06)"/><circle class="cls-2" cx="33.92" cy="108.01" r="1.06" transform="translate(-5.72 1.97) rotate(-3.06)"/><circle class="cls-2" cx="121.7" cy="142.13" r="1.06" transform="translate(-7.42 6.71) rotate(-3.06)"/><circle class="cls-2" cx="36" cy="103.41" r="1.06" transform="translate(-5.47 2.07) rotate(-3.06)"/><circle class="cls-2" cx="119.63" cy="146.72" r="1.06" transform="translate(-7.67 6.6) rotate(-3.06)"/><circle class="cls-2" cx="121.7" cy="142.12" r="1.06" transform="translate(-7.42 6.7) rotate(-3.06)"/><circle class="cls-2" cx="35.99" cy="103.41" r="1.06" transform="translate(-5.47 2.07) rotate(-3.06)"/><circle class="cls-2" cx="119.62" cy="146.72" r="1.06" transform="translate(-7.67 6.6) rotate(-3.06)"/><circle class="cls-2" cx="31.34" cy="132.65" r="1.06" transform="translate(-7.04 1.86) rotate(-3.06)"/><circle class="cls-2" cx="124.29" cy="117.48" r="1.06" transform="translate(-6.1 6.81) rotate(-3.06)"/><circle class="cls-2" cx="32.42" cy="137.57" r="1.06" transform="translate(-7.3 1.93) rotate(-3.06)"/><circle class="cls-2" cx="123.21" cy="112.56" r="1.06" transform="translate(-5.84 6.74) rotate(-3.06)"/><circle class="cls-2" cx="124.28" cy="117.48" r="1.06" transform="translate(-6.1 6.81) rotate(-3.06)"/><circle class="cls-2" cx="32.41" cy="137.58" r="1.06" transform="matrix(1, -0.05, 0.05, 1, -7.3, 1.93)"/><circle class="cls-2" cx="123.21" cy="112.56" r="1.06" transform="translate(-5.84 6.74) rotate(-3.06)"/><circle class="cls-2" cx="33.98" cy="142.25" r="1.06" transform="translate(-7.55 2.02) rotate(-3.06)"/><circle class="cls-2" cx="121.66" cy="107.88" r="1.06" transform="translate(-5.59 6.65) rotate(-3.06)"/><circle class="cls-2" cx="36.07" cy="146.84" r="1.06" transform="translate(-7.79 2.14) rotate(-3.06)"/><circle class="cls-2" cx="119.57" cy="103.29" r="1.06" transform="translate(-5.35 6.54) rotate(-3.06)"/><circle class="cls-2" cx="121.66" cy="107.88" r="1.06" transform="translate(-5.59 6.65) rotate(-3.06)"/><circle class="cls-2" cx="36.07" cy="146.85" r="1.06" transform="translate(-7.79 2.14) rotate(-3.06)"/><circle class="cls-2" cx="119.57" cy="103.29" r="1.06" transform="translate(-5.35 6.54) rotate(-3.06)"/><circle class="cls-2" cx="38.35" cy="99.38" r="1.06" transform="translate(-5.25 2.19) rotate(-3.06)"/><circle class="cls-2" cx="117.28" cy="150.75" r="1.06" transform="translate(-7.89 6.48) rotate(-3.06)"/><circle class="cls-2" cx="117.27" cy="150.75" r="1.06" transform="translate(-7.89 6.48) rotate(-3.06)"/><circle class="cls-2" cx="38.42" cy="150.89" r="1.06" transform="translate(-8.01 2.27) rotate(-3.06)"/><circle class="cls-2" cx="117.2" cy="99.29" r="1.06" transform="translate(-5.14 6.4) rotate(-3.06)"/><circle class="cls-2" cx="41.41" cy="154.96" r="1.06" transform="translate(-8.22 2.43) rotate(-3.06)"/><circle class="cls-2" cx="114.22" cy="95.22" r="1.06" transform="translate(-4.92 6.24) rotate(-3.06)"/><circle class="cls-2" cx="117.2" cy="99.29" r="1.06" transform="translate(-5.14 6.4) rotate(-3.06)"/><circle class="cls-2" cx="41.41" cy="154.96" r="1.06" transform="translate(-8.22 2.43) rotate(-3.06)"/><circle class="cls-2" cx="114.21" cy="95.23" r="1.06" transform="matrix(1, -0.05, 0.05, 1, -4.92, 6.24)"/><circle class="cls-2" cx="77.7" cy="83.59" r="0.94"/><circle class="cls-2" cx="77.8" cy="167.19" r="0.94"/><circle class="cls-2" cx="82.17" cy="83.83" r="0.94"/><circle class="cls-2" cx="73.33" cy="166.95" r="0.94"/><circle class="cls-2" cx="77.8" cy="167.18" r="0.94"/><circle class="cls-2" cx="82.17" cy="83.82" r="0.94"/><circle class="cls-2" cx="73.33" cy="166.95" r="0.94"/><circle class="cls-2" cx="86.57" cy="84.52" r="0.94"/><circle class="cls-2" cx="68.93" cy="166.23" r="0.94"/><circle class="cls-2" cx="90.89" cy="85.7" r="0.94"/><circle class="cls-2" cx="64.61" cy="165.05" r="0.94"/><circle class="cls-2" cx="68.93" cy="166.23" r="0.94"/><circle class="cls-2" cx="90.89" cy="85.69" r="0.94"/><circle class="cls-2" cx="64.61" cy="165.05" r="0.94"/><circle class="cls-2" cx="94.97" cy="87.3" r="0.94"/><circle class="cls-2" cx="60.53" cy="163.47" r="0.94"/><circle class="cls-2" cx="98.94" cy="89.36" r="0.94"/><circle class="cls-2" cx="56.56" cy="161.41" r="0.94"/><circle class="cls-2" cx="60.54" cy="163.46" r="0.94"/><circle class="cls-2" cx="98.94" cy="89.35" r="0.94"/><circle class="cls-2" cx="56.56" cy="161.4" r="0.94"/><circle class="cls-2" cx="73.25" cy="83.83" r="0.94"/><circle class="cls-2" cx="82.25" cy="166.94" r="0.94"/><circle class="cls-2" cx="68.83" cy="84.55" r="0.94"/><circle class="cls-2" cx="86.67" cy="166.22" r="0.94"/><circle class="cls-2" cx="82.25" cy="166.93" r="0.94"/><circle class="cls-2" cx="68.83" cy="84.54" r="0.94"/><circle class="cls-2" cx="86.67" cy="166.21" r="0.94"/><circle class="cls-2" cx="64.61" cy="85.71" r="0.94"/><circle class="cls-2" cx="90.89" cy="165.07" r="0.94"/><circle class="cls-2" cx="60.44" cy="87.35" r="0.94"/><circle class="cls-2" cx="95.06" cy="163.44" r="0.94"/><circle class="cls-2" cx="90.89" cy="165.06" r="0.94"/><circle class="cls-2" cx="60.44" cy="87.34" r="0.94"/><circle class="cls-2" cx="95.06" cy="163.43" r="0.94"/><circle class="cls-2" cx="102.4" cy="91.63" r="0.94"/><circle class="cls-2" cx="53.1" cy="159.13" r="0.94"/><circle class="cls-2" cx="105.87" cy="94.46" r="0.94"/><circle class="cls-2" cx="49.63" cy="156.3" r="0.94"/><circle class="cls-2" cx="53.1" cy="159.13" r="0.94"/><circle class="cls-2" cx="105.87" cy="94.46" r="0.94"/><circle class="cls-2" cx="49.63" cy="156.3" r="0.94"/><circle class="cls-2" cx="56.74" cy="89.24" r="0.94"/><circle class="cls-2" cx="98.72" cy="161.53" r="0.94"/><circle class="cls-2" cx="53" cy="91.69" r="0.94"/><circle class="cls-2" cx="102.46" cy="159.07" r="0.94"/><circle class="cls-2" cx="98.72" cy="161.52" r="0.94"/><circle class="cls-2" cx="52.99" cy="91.69" r="0.94"/><circle class="cls-2" cx="102.46" cy="159.07" r="0.94"/><circle class="cls-2" cx="108.74" cy="97.34" r="0.94" transform="translate(1.25 196.07) rotate(-84.4)"/><circle class="cls-2" cx="46.76" cy="153.42" r="0.94" transform="translate(-110.5 184.98) rotate(-84.4)"/><circle class="cls-2" cx="46.76" cy="97.34" r="0.94" transform="translate(-9.28 5.03) rotate(-5.6)"/><circle class="cls-2" cx="108.74" cy="153.42" r="0.94" transform="translate(-14.45 11.34) rotate(-5.6)"/><circle class="cls-2" cx="49.99" cy="94.12" r="0.94" transform="translate(-8.46 5) rotate(-5.28)"/><circle class="cls-2" cx="105.47" cy="156.64" r="0.94" transform="translate(-13.98 10.38) rotate(-5.28)"/><circle class="cls-2" cx="36.02" cy="125.15" r="0.94"/><circle class="cls-2" cx="119.61" cy="125.04" r="0.94"/><circle class="cls-2" cx="36.25" cy="120.68" r="0.94"/><circle class="cls-2" cx="119.38" cy="129.51" r="0.94"/><circle class="cls-2" cx="119.61" cy="125.04" r="0.94"/><circle class="cls-2" cx="36.25" cy="120.68" r="0.94"/><circle class="cls-2" cx="119.37" cy="129.51" r="0.94"/><circle class="cls-2" cx="36.95" cy="116.28" r="0.94"/><circle class="cls-2" cx="118.66" cy="133.91" r="0.94"/><circle class="cls-2" cx="38.12" cy="111.96" r="0.94"/><circle class="cls-2" cx="117.48" cy="138.23" r="0.94"/><circle class="cls-2" cx="118.65" cy="133.91" r="0.94"/><circle class="cls-2" cx="38.12" cy="111.95" r="0.94"/><circle class="cls-2" cx="117.48" cy="138.23" r="0.94"/><circle class="cls-2" cx="39.72" cy="107.88" r="0.94"/><circle class="cls-2" cx="115.9" cy="142.31" r="0.94"/><circle class="cls-2" cx="41.79" cy="103.9" r="0.94"/><circle class="cls-2" cx="113.84" cy="146.29" r="0.94"/><circle class="cls-2" cx="115.89" cy="142.31" r="0.94"/><circle class="cls-2" cx="41.78" cy="103.9" r="0.94"/><circle class="cls-2" cx="113.83" cy="146.28" r="0.94"/><circle class="cls-2" cx="36.26" cy="129.59" r="0.94"/><circle class="cls-2" cx="119.37" cy="120.59" r="0.94"/><circle class="cls-2" cx="36.98" cy="134.01" r="0.94"/><circle class="cls-2" cx="118.65" cy="116.17" r="0.94"/><circle class="cls-2" cx="119.36" cy="120.59" r="0.94"/><circle class="cls-2" cx="36.97" cy="134.01" r="0.94"/><circle class="cls-2" cx="118.64" cy="116.17" r="0.94"/><circle class="cls-2" cx="38.14" cy="138.24" r="0.94"/><circle class="cls-2" cx="117.5" cy="111.95" r="0.94"/><circle class="cls-2" cx="39.78" cy="142.4" r="0.94"/><circle class="cls-2" cx="115.86" cy="107.78" r="0.94"/><circle class="cls-2" cx="117.49" cy="111.95" r="0.94"/><circle class="cls-2" cx="39.77" cy="142.41" r="0.94"/><circle class="cls-2" cx="115.86" cy="107.79" r="0.94"/><circle class="cls-2" cx="44.06" cy="100.44" r="0.94"/><circle class="cls-2" cx="111.56" cy="149.75" r="0.94"/><circle class="cls-2" cx="111.56" cy="149.74" r="0.94"/><circle class="cls-2" cx="41.67" cy="146.1" r="0.94"/><circle class="cls-2" cx="113.95" cy="104.13" r="0.94"/><circle class="cls-2" cx="44.12" cy="149.85" r="0.94"/><circle class="cls-2" cx="111.5" cy="100.38" r="0.94"/><circle class="cls-2" cx="113.95" cy="104.13" r="0.94"/><circle class="cls-2" cx="44.11" cy="149.85" r="0.94"/><circle class="cls-2" cx="111.5" cy="100.38" r="0.94"/><circle class="cls-2" cx="75.74" cy="88.48" r="0.83" transform="translate(-4.62 4.17) rotate(-3.06)"/><circle class="cls-2" cx="79.81" cy="162.33" r="0.83" transform="translate(-8.56 4.5) rotate(-3.06)"/><circle class="cls-2" cx="79.7" cy="88.47" r="0.83" transform="translate(-4.61 4.38) rotate(-3.06)"/><circle class="cls-2" cx="75.85" cy="162.34" r="0.83" transform="translate(-8.57 4.28) rotate(-3.06)"/><circle class="cls-2" cx="79.81" cy="162.33" r="0.83" transform="translate(-8.56 4.5) rotate(-3.06)"/><circle class="cls-2" cx="79.7" cy="88.46" r="0.83" transform="translate(-4.61 4.38) rotate(-3.06)"/><circle class="cls-2" cx="75.85" cy="162.33" r="0.83" transform="translate(-8.56 4.28) rotate(-3.06)"/><circle class="cls-2" cx="83.62" cy="88.87" r="0.83" transform="translate(-4.63 4.59) rotate(-3.06)"/><circle class="cls-2" cx="71.93" cy="161.91" r="0.83" transform="translate(-8.55 4.07) rotate(-3.06)"/><circle class="cls-2" cx="87.49" cy="89.71" r="0.83" transform="translate(-4.67 4.8) rotate(-3.06)"/><circle class="cls-2" cx="68.05" cy="161.08" r="0.83" transform="translate(-8.51 3.87) rotate(-3.06)"/><circle class="cls-2" cx="71.93" cy="161.91" r="0.83" transform="translate(-8.55 4.07) rotate(-3.06)"/><circle class="cls-2" cx="87.49" cy="89.7" r="0.83" transform="translate(-4.67 4.8) rotate(-3.06)"/><circle class="cls-2" cx="68.06" cy="161.07" r="0.83" transform="matrix(1, -0.05, 0.05, 1, -8.51, 3.87)"/><circle class="cls-2" cx="91.17" cy="90.93" r="0.83" transform="translate(-4.73 5) rotate(-3.06)"/><circle class="cls-2" cx="64.38" cy="159.87" r="0.83" transform="translate(-8.45 3.67) rotate(-3.06)"/><circle class="cls-2" cx="94.78" cy="92.56" r="0.83" transform="translate(-4.81 5.2) rotate(-3.06)"/><circle class="cls-2" cx="60.77" cy="158.24" r="0.83" transform="translate(-8.37 3.47) rotate(-3.06)"/><circle class="cls-2" cx="64.38" cy="159.87" r="0.83" transform="translate(-8.45 3.67) rotate(-3.06)"/><circle class="cls-2" cx="94.78" cy="92.55" r="0.83" transform="translate(-4.81 5.2) rotate(-3.06)"/><circle class="cls-2" cx="60.77" cy="158.24" r="0.83" transform="translate(-8.37 3.47) rotate(-3.06)"/><circle class="cls-2" cx="71.82" cy="88.9" r="0.83" transform="translate(-4.65 3.96) rotate(-3.06)"/><circle class="cls-2" cx="83.73" cy="161.9" r="0.83" transform="translate(-8.53 4.7) rotate(-3.06)"/><circle class="cls-2" cx="67.95" cy="89.74" r="0.83" transform="translate(-4.7 3.76) rotate(-3.06)"/><circle class="cls-2" cx="87.6" cy="161.06" r="0.83" transform="translate(-8.48 4.91) rotate(-3.06)"/><circle class="cls-2" cx="83.73" cy="161.9" r="0.83" transform="translate(-8.53 4.7) rotate(-3.06)"/><circle class="cls-2" cx="67.95" cy="89.74" r="0.83" transform="matrix(1, -0.05, 0.05, 1, -4.7, 3.76)"/><circle class="cls-2" cx="87.6" cy="161.05" r="0.83" transform="translate(-8.48 4.91) rotate(-3.06)"/><circle class="cls-2" cx="64.27" cy="90.97" r="0.83" transform="translate(-4.77 3.56) rotate(-3.06)"/><circle class="cls-2" cx="91.28" cy="159.84" r="0.83" transform="translate(-8.41 5.1) rotate(-3.06)"/><circle class="cls-2" cx="60.67" cy="92.62" r="0.83" transform="translate(-4.86 3.37) rotate(-3.06)"/><circle class="cls-2" cx="94.88" cy="158.2" r="0.83" transform="translate(-8.32 5.3) rotate(-3.06)"/><circle class="cls-2" cx="91.27" cy="159.84" r="0.83" transform="translate(-8.41 5.1) rotate(-3.06)"/><circle class="cls-2" cx="60.67" cy="92.61" r="0.83" transform="translate(-4.86 3.37) rotate(-3.06)"/><circle class="cls-2" cx="94.88" cy="158.19" r="0.83" transform="translate(-8.32 5.3) rotate(-3.06)"/><circle class="cls-2" cx="97.95" cy="94.4" r="0.83" transform="translate(-4.9 5.37) rotate(-3.06)"/><circle class="cls-2" cx="57.6" cy="156.39" r="0.83" transform="translate(-8.27 3.3) rotate(-3.06)"/><circle class="cls-2" cx="101.15" cy="96.74" r="0.83" transform="translate(-5.02 5.54) rotate(-3.06)"/><circle class="cls-2" cx="54.4" cy="154.06" r="0.83" transform="translate(-8.15 3.13) rotate(-3.06)"/><circle class="cls-2" cx="57.6" cy="156.39" r="0.83" transform="translate(-8.27 3.3) rotate(-3.06)"/><circle class="cls-2" cx="101.15" cy="96.74" r="0.83" transform="translate(-5.02 5.54) rotate(-3.06)"/><circle class="cls-2" cx="54.4" cy="154.05" r="0.83" transform="translate(-8.15 3.13) rotate(-3.06)"/><circle class="cls-2" cx="57.49" cy="94.46" r="0.83" transform="translate(-4.96 3.21) rotate(-3.06)"/><circle class="cls-2" cx="98.02" cy="156.34" r="0.83" transform="translate(-8.21 5.46) rotate(-3.06)"/><circle class="cls-2" cx="54.3" cy="96.81" r="0.83" transform="translate(-5.09 3.04) rotate(-3.06)"/><circle class="cls-2" cx="101.21" cy="153.99" r="0.83" transform="translate(-8.08 5.63) rotate(-3.06)"/><circle class="cls-2" cx="98.02" cy="156.33" r="0.83" transform="translate(-8.21 5.46) rotate(-3.06)"/><circle class="cls-2" cx="54.29" cy="96.8" r="0.83" transform="translate(-5.09 3.04) rotate(-3.06)"/><circle class="cls-2" cx="101.21" cy="153.99" r="0.83" transform="translate(-8.08 5.63) rotate(-3.06)"/><circle class="cls-2" cx="103.82" cy="99.15" r="0.83" transform="translate(0.21 198.52) rotate(-87.48)"/><circle class="cls-2" cx="51.72" cy="151.65" r="0.83" transform="translate(-102.05 196.67) rotate(-87.48)"/><circle class="cls-2" cx="49.05" cy="102.1" r="0.83" transform="translate(-14.85 8.58) rotate(-8.68)"/><circle class="cls-2" cx="106.49" cy="148.7" r="0.83" transform="translate(-21.23 17.78) rotate(-8.68)"/><circle class="cls-2" cx="51.75" cy="99.1" r="0.83" transform="translate(-13.87 8.59) rotate(-8.37)"/><circle class="cls-2" cx="103.76" cy="151.7" r="0.83" transform="translate(-20.97 16.72) rotate(-8.37)"/><circle class="cls-2" cx="40.89" cy="127.18" r="0.83" transform="translate(-6.74 2.37) rotate(-3.06)"/><circle class="cls-2" cx="114.75" cy="123.11" r="0.83" transform="translate(-6.41 6.31) rotate(-3.06)"/><circle class="cls-2" cx="40.88" cy="123.22" r="0.83" transform="translate(-6.52 2.36) rotate(-3.06)"/><circle class="cls-2" cx="114.75" cy="127.07" r="0.83" transform="translate(-6.63 6.31) rotate(-3.06)"/><circle class="cls-2" cx="114.74" cy="123.11" r="0.83" transform="translate(-6.41 6.31) rotate(-3.06)"/><circle class="cls-2" cx="40.88" cy="123.22" r="0.83" transform="translate(-6.52 2.36) rotate(-3.06)"/><circle class="cls-2" cx="114.75" cy="127.07" r="0.83" transform="translate(-6.63 6.31) rotate(-3.06)"/><circle class="cls-2" cx="41.29" cy="119.29" r="0.83" transform="translate(-6.31 2.38) rotate(-3.06)"/><circle class="cls-2" cx="114.33" cy="130.99" r="0.83" transform="translate(-6.84 6.3) rotate(-3.06)"/><circle class="cls-2" cx="42.12" cy="115.42" r="0.83" transform="translate(-6.11 2.42) rotate(-3.06)"/><circle class="cls-2" cx="113.49" cy="134.86" r="0.83" transform="translate(-7.04 6.26) rotate(-3.06)"/><circle class="cls-2" cx="114.32" cy="130.99" r="0.83" transform="translate(-6.84 6.3) rotate(-3.06)"/><circle class="cls-2" cx="42.12" cy="115.42" r="0.83" transform="translate(-6.11 2.42) rotate(-3.06)"/><circle class="cls-2" cx="113.49" cy="134.86" r="0.83" transform="translate(-7.04 6.26) rotate(-3.06)"/><circle class="cls-2" cx="43.34" cy="111.74" r="0.83" transform="translate(-5.91 2.48) rotate(-3.06)"/><circle class="cls-2" cx="112.29" cy="138.54" r="0.83" transform="translate(-7.24 6.2) rotate(-3.06)"/><circle class="cls-2" cx="44.97" cy="108.13" r="0.83" transform="translate(-5.71 2.56) rotate(-3.06)"/><circle class="cls-2" cx="110.65" cy="142.15" r="0.83" transform="translate(-7.44 6.12) rotate(-3.06)"/><circle class="cls-2" cx="112.28" cy="138.54" r="0.83" transform="translate(-7.24 6.2) rotate(-3.06)"/><circle class="cls-2" cx="44.97" cy="108.13" r="0.83" transform="translate(-5.71 2.56) rotate(-3.06)"/><circle class="cls-2" cx="110.65" cy="142.15" r="0.83" transform="translate(-7.44 6.11) rotate(-3.06)"/><circle class="cls-2" cx="41.31" cy="131.1" r="0.83" transform="translate(-6.95 2.39) rotate(-3.06)"/><circle class="cls-2" cx="114.32" cy="119.19" r="0.83" transform="translate(-6.2 6.28) rotate(-3.06)"/><circle class="cls-2" cx="42.16" cy="134.97" r="0.83" transform="translate(-7.15 2.45) rotate(-3.06)"/><circle class="cls-2" cx="113.47" cy="115.32" r="0.83" transform="translate(-6 6.23) rotate(-3.06)"/><circle class="cls-2" cx="114.31" cy="119.19" r="0.83" transform="translate(-6.2 6.28) rotate(-3.06)"/><circle class="cls-2" cx="42.15" cy="134.97" r="0.83" transform="translate(-7.15 2.44) rotate(-3.06)"/><circle class="cls-2" cx="113.47" cy="115.32" r="0.83" transform="translate(-6 6.23) rotate(-3.06)"/><circle class="cls-2" cx="43.39" cy="138.64" r="0.83" transform="translate(-7.35 2.52) rotate(-3.06)"/><circle class="cls-2" cx="112.25" cy="111.64" r="0.83" transform="translate(-5.8 6.16) rotate(-3.06)"/><circle class="cls-2" cx="45.03" cy="142.25" r="0.83" transform="translate(-7.54 2.61) rotate(-3.06)"/><circle class="cls-2" cx="110.61" cy="108.04" r="0.83" transform="translate(-5.61 6.06) rotate(-3.06)"/><circle class="cls-2" cx="112.25" cy="111.64" r="0.83" transform="translate(-5.8 6.16) rotate(-3.06)"/><circle class="cls-2" cx="45.03" cy="142.25" r="0.83" transform="translate(-7.54 2.61) rotate(-3.06)"/><circle class="cls-2" cx="110.61" cy="108.04" r="0.83" transform="translate(-5.61 6.06) rotate(-3.06)"/><circle class="cls-2" cx="46.82" cy="104.97" r="0.83" transform="matrix(1, -0.05, 0.05, 1, -5.54, 2.65)"/><circle class="cls-2" cx="108.81" cy="145.32" r="0.83" transform="translate(-7.61 6.02) rotate(-3.06)"/><circle class="cls-2" cx="108.81" cy="145.31" r="0.83" transform="translate(-7.61 6.02) rotate(-3.06)"/><circle class="cls-2" cx="46.88" cy="145.43" r="0.83" transform="translate(-7.7 2.71) rotate(-3.06)"/><circle class="cls-2" cx="108.75" cy="104.89" r="0.83" transform="translate(-5.45 5.96) rotate(-3.06)"/><circle class="cls-2" cx="49.22" cy="148.62" r="0.83" transform="translate(-7.87 2.84) rotate(-3.06)"/><circle class="cls-2" cx="106.41" cy="101.7" r="0.83" transform="translate(-5.28 5.83) rotate(-3.06)"/><circle class="cls-2" cx="108.75" cy="104.9" r="0.83" transform="translate(-5.45 5.96) rotate(-3.06)"/><circle class="cls-2" cx="49.22" cy="148.62" r="0.83" transform="translate(-7.87 2.84) rotate(-3.06)"/><circle class="cls-2" cx="106.4" cy="101.7" r="0.83" transform="translate(-5.28 5.83) rotate(-3.06)"/><circle class="cls-2" cx="74.63" cy="93.9" r="0.71" transform="translate(-8.85 7.77) rotate(-5.63)"/><circle class="cls-2" cx="80.95" cy="157.06" r="0.71" transform="translate(-15.01 8.7) rotate(-5.63)"/><circle class="cls-2" cx="78.02" cy="93.74" r="0.71" transform="translate(-8.82 8.1) rotate(-5.63)"/><circle class="cls-2" cx="77.56" cy="157.22" r="0.71" transform="translate(-15.04 8.36) rotate(-5.63)"/><circle class="cls-2" cx="80.95" cy="157.06" r="0.71" transform="translate(-15.01 8.7) rotate(-5.63)"/><circle class="cls-2" cx="78.02" cy="93.74" r="0.71" transform="translate(-8.82 8.1) rotate(-5.63)"/><circle class="cls-2" cx="77.56" cy="157.21" r="0.71" transform="translate(-15.04 8.36) rotate(-5.63)"/><circle class="cls-2" cx="81.4" cy="93.94" r="0.71" transform="translate(-8.82 8.44) rotate(-5.63)"/><circle class="cls-2" cx="74.18" cy="157" r="0.71" transform="translate(-15.04 8.03) rotate(-5.63)"/><circle class="cls-2" cx="84.75" cy="94.5" r="0.71" transform="translate(-8.86 8.77) rotate(-5.63)"/><circle class="cls-2" cx="70.83" cy="156.43" r="0.71" transform="translate(-15 7.7) rotate(-5.63)"/><circle class="cls-2" cx="74.18" cy="157" r="0.71" transform="translate(-15.04 8.03) rotate(-5.63)"/><circle class="cls-2" cx="84.75" cy="94.5" r="0.71" transform="translate(-8.86 8.77) rotate(-5.63)"/><circle class="cls-2" cx="70.83" cy="156.43" r="0.71" transform="translate(-15 7.7) rotate(-5.63)"/><circle class="cls-2" cx="87.95" cy="95.41" r="0.71" transform="translate(-8.93 9.08) rotate(-5.63)"/><circle class="cls-2" cx="67.63" cy="155.54" r="0.71" transform="translate(-14.93 7.38) rotate(-5.63)"/><circle class="cls-2" cx="91.11" cy="96.67" r="0.71" transform="translate(-9.04 9.4) rotate(-5.63)"/><circle class="cls-2" cx="64.47" cy="154.28" r="0.71" transform="translate(-14.82 7.07) rotate(-5.63)"/><circle class="cls-2" cx="67.63" cy="155.54" r="0.71" transform="translate(-14.93 7.38) rotate(-5.63)"/><circle class="cls-2" cx="91.11" cy="96.66" r="0.71" transform="translate(-9.04 9.4) rotate(-5.63)"/><circle class="cls-2" cx="64.47" cy="154.28" r="0.71" transform="translate(-14.82 7.07) rotate(-5.63)"/><circle class="cls-2" cx="71.28" cy="94.41" r="0.71" transform="translate(-8.91 7.45) rotate(-5.63)"/><circle class="cls-2" cx="84.3" cy="156.54" r="0.71" transform="translate(-14.94 9.02) rotate(-5.63)"/><circle class="cls-2" cx="68" cy="95.28" r="0.71" transform="translate(-9.02 7.13) rotate(-5.63)"/><circle class="cls-2" cx="87.58" cy="155.67" r="0.71" transform="translate(-14.84 9.34) rotate(-5.63)"/><circle class="cls-2" cx="84.3" cy="156.54" r="0.71" transform="translate(-14.94 9.02) rotate(-5.63)"/><circle class="cls-2" cx="68" cy="95.28" r="0.71" transform="translate(-9.02 7.13) rotate(-5.63)"/><circle class="cls-2" cx="87.58" cy="155.66" r="0.71" transform="translate(-14.84 9.34) rotate(-5.63)"/><circle class="cls-2" cx="64.9" cy="96.48" r="0.71" transform="translate(-9.15 6.83) rotate(-5.63)"/><circle class="cls-2" cx="90.69" cy="154.48" r="0.71" transform="translate(-14.71 9.64) rotate(-5.63)"/><circle class="cls-2" cx="61.87" cy="98.03" r="0.71" transform="translate(-9.31 6.54) rotate(-5.63)"/><circle class="cls-2" cx="93.72" cy="152.94" r="0.71" transform="translate(-14.55 9.93) rotate(-5.63)"/><circle class="cls-2" cx="90.69" cy="154.48" r="0.71" transform="translate(-14.71 9.64) rotate(-5.63)"/><circle class="cls-2" cx="61.87" cy="98.02" r="0.71" transform="translate(-9.31 6.54) rotate(-5.63)"/><circle class="cls-2" cx="93.71" cy="152.93" r="0.71" transform="translate(-14.55 9.93) rotate(-5.63)"/><circle class="cls-2" cx="93.89" cy="98.13" r="0.71" transform="translate(-9.17 9.68) rotate(-5.63)"/><circle class="cls-2" cx="61.68" cy="152.82" r="0.71" transform="translate(-14.69 6.79) rotate(-5.63)"/><circle class="cls-2" cx="96.73" cy="100.01" r="0.71" transform="translate(-9.34 9.97) rotate(-5.63)"/><circle class="cls-2" cx="58.85" cy="150.94" r="0.71" transform="translate(-14.52 6.5) rotate(-5.63)"/><circle class="cls-2" cx="61.69" cy="152.82" r="0.71" transform="translate(-14.69 6.79) rotate(-5.63)"/><circle class="cls-2" cx="96.73" cy="100" r="0.71" transform="translate(-9.34 9.97) rotate(-5.63)"/><circle class="cls-2" cx="58.85" cy="150.94" r="0.71" transform="translate(-14.52 6.5) rotate(-5.63)"/><circle class="cls-2" cx="59.21" cy="99.73" r="0.71" transform="translate(-9.49 6.29) rotate(-5.63)"/><circle class="cls-2" cx="96.34" cy="151.22" r="0.71" transform="translate(-14.36 10.18) rotate(-5.63)"/><circle class="cls-2" cx="56.57" cy="101.87" r="0.71" transform="translate(-9.72 6.04) rotate(-5.63)"/><circle class="cls-2" cx="98.98" cy="149.09" r="0.71" transform="matrix(1, -0.1, 0.1, 1, -14.14, 10.43)"/><circle class="cls-2" cx="96.33" cy="151.22" r="0.71" transform="translate(-14.36 10.18) rotate(-5.63)"/><circle class="cls-2" cx="56.56" cy="101.86" r="0.71" transform="translate(-9.72 6.04) rotate(-5.63)"/><circle class="cls-2" cx="98.98" cy="149.08" r="0.71" transform="translate(-14.14 10.42) rotate(-5.63)"/><circle class="cls-2" cx="99.11" cy="101.97" r="0.71"/><circle class="cls-2" cx="56.47" cy="148.98" r="0.71"/><circle class="cls-2" cx="52.27" cy="106.6" r="0.71" transform="translate(-19.79 12.25) rotate(-11.25)"/><circle class="cls-2" cx="103.31" cy="144.35" r="0.71" transform="translate(-26.18 22.93) rotate(-11.25)"/><circle class="cls-2" cx="54.47" cy="103.93" r="0.71" transform="translate(-18.72 12.22) rotate(-10.93)"/><circle class="cls-2" cx="101.08" cy="147.02" r="0.71" transform="translate(-26.05 21.84) rotate(-10.93)"/><circle class="cls-2" cx="46.24" cy="128.42" r="0.71" transform="translate(-12.37 5.15) rotate(-5.63)"/><circle class="cls-2" cx="109.4" cy="122.09" r="0.71" transform="translate(-11.45 11.32) rotate(-5.63)"/><circle class="cls-2" cx="46.08" cy="125.02" r="0.71" transform="translate(-12.04 5.12) rotate(-5.63)"/><circle class="cls-2" cx="109.56" cy="125.48" r="0.71" transform="translate(-11.78 11.35) rotate(-5.63)"/><circle class="cls-2" cx="109.4" cy="122.09" r="0.71" transform="translate(-11.45 11.32) rotate(-5.63)"/><circle class="cls-2" cx="46.08" cy="125.02" r="0.71" transform="translate(-12.04 5.12) rotate(-5.63)"/><circle class="cls-2" cx="109.55" cy="125.48" r="0.71" transform="translate(-11.78 11.35) rotate(-5.63)"/><circle class="cls-2" cx="46.28" cy="121.64" r="0.71" transform="translate(-11.71 5.12) rotate(-5.63)"/><circle class="cls-2" cx="109.34" cy="128.86" r="0.71" transform="translate(-12.11 11.34) rotate(-5.63)"/><circle class="cls-2" cx="46.84" cy="118.29" r="0.71" transform="translate(-11.37 5.16) rotate(-5.63)"/><circle class="cls-2" cx="108.77" cy="132.22" r="0.71" transform="translate(-12.44 11.3) rotate(-5.63)"/><circle class="cls-2" cx="109.34" cy="128.86" r="0.71" transform="translate(-12.11 11.34) rotate(-5.63)"/><circle class="cls-2" cx="46.84" cy="118.29" r="0.71" transform="translate(-11.37 5.16) rotate(-5.63)"/><circle class="cls-2" cx="108.77" cy="132.21" r="0.71" transform="matrix(1, -0.1, 0.1, 1, -12.44, 11.3)"/><circle class="cls-2" cx="47.75" cy="115.09" r="0.71" transform="translate(-11.06 5.24) rotate(-5.63)"/><circle class="cls-2" cx="107.88" cy="135.42" r="0.71" transform="translate(-12.76 11.23) rotate(-5.63)"/><circle class="cls-2" cx="49.01" cy="111.93" r="0.71" transform="translate(-10.74 5.35) rotate(-5.63)"/><circle class="cls-2" cx="106.62" cy="138.57" r="0.71" transform="translate(-13.08 11.12) rotate(-5.63)"/><circle class="cls-2" cx="107.88" cy="135.41" r="0.71" transform="translate(-12.76 11.23) rotate(-5.63)"/><circle class="cls-2" cx="49" cy="111.93" r="0.71" transform="translate(-10.74 5.34) rotate(-5.63)"/><circle class="cls-2" cx="106.62" cy="138.57" r="0.71" transform="translate(-13.07 11.12) rotate(-5.63)"/><circle class="cls-2" cx="46.75" cy="131.76" r="0.71" transform="translate(-12.7 5.22) rotate(-5.63)"/><circle class="cls-2" cx="108.88" cy="118.74" r="0.71" transform="translate(-11.12 11.25) rotate(-5.63)"/><circle class="cls-2" cx="47.62" cy="135.04" r="0.71" transform="translate(-13.01 5.32) rotate(-5.63)"/><circle class="cls-2" cx="108.01" cy="115.46" r="0.71" transform="translate(-10.8 11.15) rotate(-5.63)"/><circle class="cls-2" cx="108.88" cy="118.74" r="0.71" transform="translate(-11.12 11.25) rotate(-5.63)"/><circle class="cls-2" cx="47.62" cy="135.04" r="0.71" transform="translate(-13.01 5.32) rotate(-5.63)"/><circle class="cls-2" cx="108" cy="115.46" r="0.71" transform="translate(-10.8 11.15) rotate(-5.63)"/><circle class="cls-2" cx="48.82" cy="138.15" r="0.71" transform="matrix(1, -0.1, 0.1, 1, -13.31, 5.45)"/><circle class="cls-2" cx="106.82" cy="112.35" r="0.71" transform="translate(-10.5 11.02) rotate(-5.63)"/><circle class="cls-2" cx="50.37" cy="141.17" r="0.71" transform="translate(-13.6 5.62) rotate(-5.63)"/><circle class="cls-2" cx="105.28" cy="109.33" r="0.71" transform="translate(-10.21 10.85) rotate(-5.63)"/><circle class="cls-2" cx="106.82" cy="112.36" r="0.71" transform="translate(-10.5 11.02) rotate(-5.63)"/><circle class="cls-2" cx="50.36" cy="141.18" r="0.71" transform="translate(-13.6 5.62) rotate(-5.63)"/><circle class="cls-2" cx="105.27" cy="109.33" r="0.71" transform="translate(-10.21 10.85) rotate(-5.63)"/><circle class="cls-2" cx="50.47" cy="109.15" r="0.71" transform="translate(-10.46 5.48) rotate(-5.63)"/><circle class="cls-2" cx="105.16" cy="141.36" r="0.71" transform="translate(-13.36 10.99) rotate(-5.63)"/><circle class="cls-2" cx="105.16" cy="141.36" r="0.71" transform="translate(-13.36 10.99) rotate(-5.63)"/><circle class="cls-2" cx="52.07" cy="143.83" r="0.71" transform="translate(-13.85 5.8) rotate(-5.63)"/><circle class="cls-2" cx="103.56" cy="106.71" r="0.71" transform="translate(-9.96 10.67) rotate(-5.63)"/><circle class="cls-2" cx="54.21" cy="146.48" r="0.71" transform="translate(-14.1 6.02) rotate(-5.63)"/><circle class="cls-2" cx="101.43" cy="104.06" r="0.71" transform="translate(-9.72 10.45) rotate(-5.63)"/><circle class="cls-2" cx="103.56" cy="106.71" r="0.71" transform="translate(-9.97 10.67) rotate(-5.63)"/><circle class="cls-2" cx="54.2" cy="146.48" r="0.71" transform="translate(-14.1 6.02) rotate(-5.63)"/><circle class="cls-2" cx="101.42" cy="104.06" r="0.71" transform="translate(-9.72 10.45) rotate(-5.63)"/><circle class="cls-2" cx="76.29" cy="98.31" r="0.61" transform="translate(-5.14 4.22) rotate(-3.06)"/><circle class="cls-2" cx="79.28" cy="152.49" r="0.61" transform="translate(-8.03 4.45) rotate(-3.06)"/><circle class="cls-2" cx="79.2" cy="98.3" r="0.61" transform="translate(-5.14 4.37) rotate(-3.06)"/><circle class="cls-2" cx="76.37" cy="152.5" r="0.61" transform="matrix(1, -0.05, 0.05, 1, -8.04, 4.3)"/><circle class="cls-2" cx="79.28" cy="152.49" r="0.61" transform="translate(-8.03 4.45) rotate(-3.06)"/><circle class="cls-2" cx="79.2" cy="98.3" r="0.61" transform="translate(-5.14 4.37) rotate(-3.06)"/><circle class="cls-2" cx="76.37" cy="152.49" r="0.61" transform="translate(-8.04 4.3) rotate(-3.06)"/><circle class="cls-2" cx="82.08" cy="98.6" r="0.61" transform="translate(-5.15 4.53) rotate(-3.06)"/><circle class="cls-2" cx="73.5" cy="152.18" r="0.61" transform="translate(-8.03 4.14) rotate(-3.06)"/><circle class="cls-2" cx="84.92" cy="99.21" r="0.61" transform="translate(-5.18 4.68) rotate(-3.06)"/><circle class="cls-2" cx="70.65" cy="151.57" r="0.61" transform="translate(-8 3.99) rotate(-3.06)"/><circle class="cls-2" cx="73.5" cy="152.18" r="0.61" transform="translate(-8.03 4.14) rotate(-3.06)"/><circle class="cls-2" cx="84.92" cy="99.21" r="0.61" transform="translate(-5.18 4.68) rotate(-3.06)"/><circle class="cls-2" cx="70.66" cy="151.57" r="0.61" transform="translate(-8 3.99) rotate(-3.06)"/><circle class="cls-2" cx="87.62" cy="100.1" r="0.61" transform="translate(-5.22 4.82) rotate(-3.06)"/><circle class="cls-2" cx="67.96" cy="150.69" r="0.61" transform="translate(-7.95 3.85) rotate(-3.06)"/><circle class="cls-2" cx="90.26" cy="101.3" r="0.61" transform="translate(-5.28 4.97) rotate(-3.06)"/><circle class="cls-2" cx="65.31" cy="149.49" r="0.61" transform="translate(-7.89 3.7) rotate(-3.06)"/><circle class="cls-2" cx="67.96" cy="150.68" r="0.61" transform="translate(-7.95 3.85) rotate(-3.06)"/><circle class="cls-2" cx="90.27" cy="101.3" r="0.61" transform="translate(-5.28 4.97) rotate(-3.06)"/><circle class="cls-2" cx="65.31" cy="149.49" r="0.61" transform="translate(-7.89 3.7) rotate(-3.06)"/><circle class="cls-2" cx="73.42" cy="98.61" r="0.61" transform="translate(-5.16 4.06) rotate(-3.06)"/><circle class="cls-2" cx="82.16" cy="152.18" r="0.61" transform="translate(-8.01 4.61) rotate(-3.06)"/><circle class="cls-2" cx="70.58" cy="99.24" r="0.61" transform="translate(-5.2 3.91) rotate(-3.06)"/><circle class="cls-2" cx="84.99" cy="151.56" r="0.61" transform="translate(-7.98 4.76) rotate(-3.06)"/><circle class="cls-2" cx="82.16" cy="152.17" r="0.61" transform="translate(-8.01 4.61) rotate(-3.06)"/><circle class="cls-2" cx="70.58" cy="99.23" r="0.61" transform="translate(-5.2 3.91) rotate(-3.06)"/><circle class="cls-2" cx="84.99" cy="151.55" r="0.61" transform="translate(-7.98 4.76) rotate(-3.06)"/><circle class="cls-2" cx="67.88" cy="100.14" r="0.61" transform="translate(-5.25 3.77) rotate(-3.06)"/><circle class="cls-2" cx="87.69" cy="150.66" r="0.61" transform="translate(-7.92 4.9) rotate(-3.06)"/><circle class="cls-2" cx="65.24" cy="101.34" r="0.61" transform="translate(-5.32 3.63) rotate(-3.06)"/><circle class="cls-2" cx="90.34" cy="149.46" r="0.61" transform="translate(-7.86 5.04) rotate(-3.06)"/><circle class="cls-2" cx="87.69" cy="150.66" r="0.61" transform="translate(-7.92 4.9) rotate(-3.06)"/><circle class="cls-2" cx="65.24" cy="101.34" r="0.61" transform="translate(-5.32 3.63) rotate(-3.06)"/><circle class="cls-2" cx="90.33" cy="149.46" r="0.61" transform="translate(-7.86 5.04) rotate(-3.06)"/><circle class="cls-2" cx="92.59" cy="102.65" r="0.61" transform="translate(-5.35 5.09) rotate(-3.06)"/><circle class="cls-2" cx="62.98" cy="148.14" r="0.61" transform="translate(-7.82 3.58) rotate(-3.06)"/><circle class="cls-2" cx="94.93" cy="104.37" r="0.61" transform="translate(-5.44 5.22) rotate(-3.06)"/><circle class="cls-2" cx="60.64" cy="146.42" r="0.61" transform="translate(-7.74 3.45) rotate(-3.06)"/><circle class="cls-2" cx="62.99" cy="148.13" r="0.61" transform="matrix(1, -0.05, 0.05, 1, -7.82, 3.58)"/><circle class="cls-2" cx="94.94" cy="104.37" r="0.61" transform="translate(-5.44 5.22) rotate(-3.06)"/><circle class="cls-2" cx="60.64" cy="146.42" r="0.61" transform="translate(-7.74 3.45) rotate(-3.06)"/><circle class="cls-2" cx="62.9" cy="102.7" r="0.61" transform="translate(-5.4 3.51) rotate(-3.06)"/><circle class="cls-2" cx="92.64" cy="148.09" r="0.61" transform="translate(-7.78 5.16) rotate(-3.06)"/><circle class="cls-2" cx="60.56" cy="104.42" r="0.61" transform="translate(-5.49 3.38) rotate(-3.06)"/><circle class="cls-2" cx="94.98" cy="146.37" r="0.61" transform="translate(-7.68 5.28) rotate(-3.06)"/><circle class="cls-2" cx="92.64" cy="148.09" r="0.61" transform="matrix(1, -0.05, 0.05, 1, -7.78, 5.16)"/><circle class="cls-2" cx="60.56" cy="104.42" r="0.61" transform="translate(-5.49 3.38) rotate(-3.06)"/><circle class="cls-2" cx="94.98" cy="146.37" r="0.61" transform="translate(-7.68 5.28) rotate(-3.06)"/><circle class="cls-2" cx="96.9" cy="106.14" r="0.61" transform="translate(-13.39 198.28) rotate(-87.48)"/><circle class="cls-2" cx="58.67" cy="144.65" r="0.61" transform="translate(-88.42 196.92) rotate(-87.48)"/><circle class="cls-2" cx="56.71" cy="108.3" r="0.61" transform="translate(-15.7 9.81) rotate(-8.68)"/><circle class="cls-2" cx="98.86" cy="142.49" r="0.61" transform="translate(-20.38 16.56) rotate(-8.68)"/><circle class="cls-2" cx="58.7" cy="106.1" r="0.61" transform="translate(-14.82 9.67) rotate(-8.37)"/><circle class="cls-2" cx="96.85" cy="144.69" r="0.61" transform="translate(-20.03 15.64) rotate(-8.37)"/><circle class="cls-2" cx="50.72" cy="126.7" r="0.61" transform="translate(-6.7 2.89) rotate(-3.06)"/><circle class="cls-2" cx="104.91" cy="123.71" r="0.61" transform="translate(-6.46 5.78) rotate(-3.06)"/><circle class="cls-2" cx="50.72" cy="123.79" r="0.61" transform="translate(-6.54 2.89) rotate(-3.06)"/><circle class="cls-2" cx="104.92" cy="126.62" r="0.61" transform="translate(-6.62 5.79) rotate(-3.06)"/><circle class="cls-2" cx="104.91" cy="123.71" r="0.61" transform="translate(-6.46 5.78) rotate(-3.06)"/><circle class="cls-2" cx="50.72" cy="123.79" r="0.61" transform="translate(-6.54 2.89) rotate(-3.06)"/><circle class="cls-2" cx="104.91" cy="126.62" r="0.61" transform="translate(-6.62 5.79) rotate(-3.06)"/><circle class="cls-2" cx="51.02" cy="120.92" r="0.61" transform="translate(-6.39 2.9) rotate(-3.06)"/><circle class="cls-2" cx="104.6" cy="129.5" r="0.61" transform="matrix(1, -0.05, 0.05, 1, -6.77, 5.77)"/><circle class="cls-2" cx="51.63" cy="118.08" r="0.61" transform="translate(-6.23 2.93) rotate(-3.06)"/><circle class="cls-2" cx="103.99" cy="132.34" r="0.61" transform="translate(-6.92 5.74) rotate(-3.06)"/><circle class="cls-2" cx="104.6" cy="129.5" r="0.61" transform="translate(-6.77 5.77) rotate(-3.06)"/><circle class="cls-2" cx="51.62" cy="118.07" r="0.61" transform="translate(-6.23 2.93) rotate(-3.06)"/><circle class="cls-2" cx="103.99" cy="132.34" r="0.61" transform="translate(-6.92 5.74) rotate(-3.06)"/><circle class="cls-2" cx="52.52" cy="115.38" r="0.61" transform="translate(-6.09 2.97) rotate(-3.06)"/><circle class="cls-2" cx="103.11" cy="135.04" r="0.61" transform="translate(-7.07 5.7) rotate(-3.06)"/><circle class="cls-2" cx="53.72" cy="112.73" r="0.61" transform="translate(-5.95 3.03) rotate(-3.06)"/><circle class="cls-2" cx="101.91" cy="137.69" r="0.61" transform="translate(-7.21 5.64) rotate(-3.06)"/><circle class="cls-2" cx="103.1" cy="135.04" r="0.61" transform="translate(-7.07 5.7) rotate(-3.06)"/><circle class="cls-2" cx="53.72" cy="112.73" r="0.61" transform="translate(-5.95 3.03) rotate(-3.06)"/><circle class="cls-2" cx="101.91" cy="137.68" r="0.61" transform="translate(-7.21 5.64) rotate(-3.06)"/><circle class="cls-2" cx="51.03" cy="129.57" r="0.61" transform="translate(-6.85 2.91) rotate(-3.06)"/><circle class="cls-2" cx="104.6" cy="120.84" r="0.61" transform="translate(-6.31 5.76) rotate(-3.06)"/><circle class="cls-2" cx="51.66" cy="132.41" r="0.61" transform="translate(-7 2.95) rotate(-3.06)"/><circle class="cls-2" cx="103.97" cy="118" r="0.61" transform="translate(-6.16 5.72) rotate(-3.06)"/><circle class="cls-2" cx="104.59" cy="120.84" r="0.61" transform="translate(-6.31 5.76) rotate(-3.06)"/><circle class="cls-2" cx="51.65" cy="132.41" r="0.61" transform="translate(-7 2.95) rotate(-3.06)"/><circle class="cls-2" cx="103.97" cy="118" r="0.61" transform="translate(-6.16 5.72) rotate(-3.06)"/><circle class="cls-2" cx="52.56" cy="135.11" r="0.61" transform="translate(-7.14 3) rotate(-3.06)"/><circle class="cls-2" cx="103.08" cy="115.3" r="0.61" transform="translate(-6.01 5.67) rotate(-3.06)"/><circle class="cls-2" cx="53.76" cy="137.76" r="0.61" transform="matrix(1, -0.05, 0.05, 1, -7.28, 3.07)"/><circle class="cls-2" cx="101.88" cy="112.66" r="0.61" transform="translate(-5.87 5.6) rotate(-3.06)"/><circle class="cls-2" cx="103.08" cy="115.3" r="0.61" transform="translate(-6.01 5.67) rotate(-3.06)"/><circle class="cls-2" cx="53.76" cy="137.76" r="0.61" transform="translate(-7.28 3.07) rotate(-3.06)"/><circle class="cls-2" cx="101.87" cy="112.66" r="0.61" transform="translate(-5.87 5.6) rotate(-3.06)"/><circle class="cls-2" cx="55.07" cy="110.41" r="0.61" transform="translate(-5.82 3.1) rotate(-3.06)"/><circle class="cls-2" cx="100.56" cy="140.01" r="0.61" transform="translate(-7.34 5.57) rotate(-3.06)"/><circle class="cls-2" cx="100.55" cy="140.01" r="0.61" transform="translate(-7.34 5.57) rotate(-3.06)"/><circle class="cls-2" cx="55.12" cy="140.09" r="0.61" transform="translate(-7.41 3.14) rotate(-3.06)"/><circle class="cls-2" cx="100.51" cy="110.35" r="0.61" transform="translate(-5.75 5.53) rotate(-3.06)"/><circle class="cls-2" cx="56.84" cy="142.43" r="0.61" transform="translate(-7.53 3.24) rotate(-3.06)"/><circle class="cls-2" cx="98.79" cy="108.01" r="0.61" transform="matrix(1, -0.05, 0.05, 1, -5.63, 5.43)"/><circle class="cls-2" cx="100.51" cy="110.35" r="0.61" transform="matrix(1, -0.05, 0.05, 1, -5.75, 5.53)"/><circle class="cls-2" cx="56.84" cy="142.43" r="0.61" transform="translate(-7.53 3.24) rotate(-3.06)"/><circle class="cls-2" cx="98.79" cy="108.01" r="0.61" transform="translate(-5.63 5.43) rotate(-3.06)"/></g><path class="cls-3" d="M120.78,63.19c.29-6.13-5.29-10.54-14.34-14A80.74,80.74,0,0,0,78,44h-.3A82.58,82.58,0,0,0,49,49.23c-9,3.42-14.62,7.83-14.33,14V187.9C34.39,194,40,198.44,49,201.85a82.56,82.56,0,0,0,28.72,5.26h.57a79.1,79.1,0,0,0,28.14-5.26c9-3.41,14.63-7.82,14.34-13.95Z"/><circle class="cls-5" cx="77.66" cy="125.4" r="23.97"/><g id="earth"><g id="green"><path class="cls-7" d="M80.27,105.8c-.71-.09-.78-.1-2-.17-.61,0-.66,0-1.76,0-.55,0-.57,0-1.61.15-.32,0-.74.11-1,.17-6.6,1.36-12.11,6-13.39,11.27,5.17-12.37,19.8-11,19.94-11l.36.07a9.64,9.64,0,0,1,2.32.81,7.14,7.14,0,0,1,1.1.69l.46.39.21.21a3.94,3.94,0,0,1,.73,1.12c1.87,4.42-6.81,8.1-12.19,6.25-4.12-1.41-4.18-5.19-.12-7.1a11.41,11.41,0,0,0-1.7.94c-5.56,3.83-3.15,10.22,4.36,11.6,8.15,1.49,18.9-3.6,14.53-10.42l-.28-.35-.32-.35a10.9,10.9,0,0,0-2.65-2c-.53-.28-1.24-.62-1.78-.87a21.44,21.44,0,0,0-2.82-1,21.8,21.8,0,0,0-2.35-.47"/><path class="cls-8" d="M94,114.28l.22.39c2.42,5-1.64,8.56-3.5,9.84-10.46,7.19-29.09,3.13-26.86-8.41-2,4.87-.54,9.87,4,13.39,10.58,8.16,30.61,3.14,29.35-7.36l-.33-1.51a20,20,0,0,0-1.24-3.49A20.27,20.27,0,0,0,93.79,114l-.32-.43Zm-.5-.74v0l-.07-.09Z"/><path class="cls-9" d="M96.51,130.33C91,140.7,64.61,142.49,59.56,126c.08.59.17,1.13.27,1.6,3.65,16.56,28.89,17.66,34.81,8.18.28-.47.62-1.12.87-1.6a21.16,21.16,0,0,0,1.56-4.57c.14-.65.24-1.53.33-2.19a8,8,0,0,1-.89,2.91"/><path class="cls-2" d="M62,136.71c5,8.44,12.9,9.45,19,8.44l.77-.15c.49-.11.49-.11,1.49-.38.51-.15.51-.15,1.52-.52.54-.21.54-.21,1.57-.69a18.34,18.34,0,0,0,1.62-.89,16.57,16.57,0,0,0,1.72-1.18l.07-.05c-7,5.26-20.75,4.85-27.52-4.32"/></g></g></g></g></g></g></g></svg>