<?xml version="1.0" encoding="UTF-8"?><svg xmlns="http://www.w3.org/2000/svg" viewBox="0 0 250 250"><defs><style>.i{fill:#0085b4;}.j{fill:none;}</style></defs><g id="a"/><g id="b"><g id="c"><g id="d"><g id="e"><path class="i" d="M147.72,142.46V62.12c0-12.42-10.1-22.52-22.52-22.52s-22.52,10.1-22.52,22.52v80.34c-9.3,7.05-14.82,18.09-14.82,29.79,0,20.59,16.75,37.35,37.35,37.35s37.35-16.75,37.35-37.35c0-11.7-5.52-22.74-14.82-29.79Zm-22.52,62.15c-17.85,0-32.37-14.52-32.37-32.37,0-10.52,5.15-20.42,13.76-26.49,.66-.47,1.06-1.23,1.06-2.04V62.12c0-9.67,7.87-17.54,17.54-17.54s17.54,7.87,17.54,17.54v81.6c0,.81,.39,1.57,1.06,2.04,8.62,6.06,13.77,15.97,13.77,26.49,0,17.85-14.52,32.37-32.37,32.37Z"/><path class="i" d="M115.29,110.2v39.68c-8.58,3.87-14.24,12.53-14.24,22.03,0,13.32,10.84,24.15,24.15,24.15s24.15-10.84,24.15-24.15c0-9.5-5.66-18.16-14.24-22.03v-39.68h-19.82Z"/></g><g id="f"><path class="i" d="M96.72,68.3c-3.97,0-5.8-1.28-8.11-2.91-2.63-1.85-5.62-3.95-11.4-3.95s-8.77,2.1-11.4,3.95c-2.31,1.63-4.14,2.91-8.11,2.91s-5.8-1.28-8.11-2.91c-2.63-1.85-5.62-3.95-11.4-3.95-1.58,0-2.86,1.28-2.86,2.86s1.28,2.86,2.86,2.86c3.97,0,5.8,1.28,8.11,2.91,2.63,1.85,5.62,3.95,11.4,3.95s8.77-2.1,11.4-3.95c2.31-1.63,4.14-2.91,8.11-2.91s5.8,1.28,8.11,2.91c2.63,1.85,5.62,3.95,11.4,3.95"/><path class="i" d="M96.72,85.16c-3.97,0-5.8-1.28-8.11-2.91-2.63-1.85-5.62-3.95-11.4-3.95s-8.77,2.1-11.4,3.95c-2.31,1.63-4.14,2.91-8.11,2.91s-5.8-1.28-8.11-2.91c-2.51-1.77-5.35-3.76-10.64-3.94-.24-.07-.5-.11-.76-.11-1.58,0-2.86,1.28-2.86,2.86s1.28,2.86,2.86,2.86v.09c3.97,0,5.8,1.28,8.11,2.91,2.63,1.85,5.62,3.95,11.4,3.95s8.77-2.1,11.4-3.95c2.31-1.63,4.14-2.91,8.11-2.91s5.8,1.28,8.11,2.91c2.63,1.85,5.62,3.95,11.4,3.95"/><path class="i" d="M96.72,118.88c-3.97,0-5.8-1.28-8.11-2.91-2.63-1.85-5.62-3.95-11.4-3.95s-8.77,2.1-11.4,3.95c-2.31,1.63-4.14,2.91-8.11,2.91s-5.8-1.28-8.11-2.91c-2.52-1.77-5.36-3.77-10.67-3.94-.23-.06-.48-.1-.73-.1-1.58,0-2.86,1.28-2.86,2.86s1.28,2.86,2.86,2.86v.09c3.97,0,5.8,1.28,8.11,2.91,2.63,1.85,5.62,3.95,11.4,3.95s8.77-2.1,11.4-3.95c2.31-1.63,4.14-2.91,8.11-2.91s5.8,1.28,8.11,2.91c2.63,1.85,5.62,3.95,11.4,3.95"/><path class="i" d="M96.72,102.02c-3.97,0-5.8-1.28-8.11-2.91-2.63-1.85-5.62-3.95-11.4-3.95s-8.77,2.1-11.4,3.95c-2.31,1.63-4.14,2.91-8.11,2.91s-5.8-1.28-8.11-2.91c-2.63-1.85-5.62-3.95-11.4-3.95h0c-1.58,0-2.86,1.29-2.86,2.86s1.28,2.86,2.86,2.86c.03,0,.07,0,.1,0,3.9,.02,5.72,1.3,8.01,2.91,2.63,1.85,5.62,3.95,11.4,3.95s8.77-2.1,11.4-3.95c2.31-1.63,4.14-2.91,8.11-2.91s5.8,1.28,8.11,2.91c2.63,1.85,5.62,3.95,11.4,3.95"/></g><g id="g"><path class="i" d="M153.69,68.3c3.97,0,5.8-1.28,8.11-2.91,2.63-1.85,5.62-3.95,11.4-3.95s8.77,2.1,11.4,3.95c2.31,1.63,4.14,2.91,8.11,2.91,3.97,0,5.8-1.28,8.11-2.91,2.63-1.85,5.62-3.95,11.4-3.95,1.58,0,2.86,1.28,2.86,2.86s-1.28,2.86-2.86,2.86c-3.97,0-5.8,1.28-8.11,2.91-2.63,1.85-5.62,3.95-11.4,3.95-5.78,0-8.77-2.1-11.4-3.95-2.31-1.63-4.14-2.91-8.11-2.91-3.97,0-5.8,1.28-8.11,2.91-2.63,1.85-5.62,3.95-11.4,3.95"/><path class="i" d="M153.69,85.16c3.97,0,5.8-1.28,8.11-2.91,2.63-1.85,5.62-3.95,11.4-3.95s8.77,2.1,11.4,3.95c2.31,1.63,4.14,2.91,8.11,2.91,3.97,0,5.8-1.28,8.11-2.91,2.51-1.77,5.35-3.76,10.64-3.94,.24-.07,.5-.11,.76-.11,1.58,0,2.86,1.28,2.86,2.86s-1.28,2.86-2.86,2.86v.09c-3.97,0-5.8,1.28-8.11,2.91-2.63,1.85-5.62,3.95-11.4,3.95s-8.77-2.1-11.4-3.95c-2.31-1.63-4.14-2.91-8.11-2.91s-5.8,1.28-8.11,2.91c-2.63,1.85-5.62,3.95-11.4,3.95"/><path class="i" d="M153.69,118.88c3.97,0,5.8-1.28,8.11-2.91,2.63-1.85,5.62-3.95,11.4-3.95s8.77,2.1,11.4,3.95c2.31,1.63,4.14,2.91,8.11,2.91s5.8-1.28,8.11-2.91c2.52-1.77,5.36-3.77,10.67-3.94,.23-.06,.48-.1,.73-.1,1.58,0,2.86,1.28,2.86,2.86s-1.28,2.86-2.86,2.86v.09c-3.97,0-5.8,1.28-8.11,2.91-2.63,1.85-5.62,3.95-11.4,3.95s-8.77-2.1-11.4-3.95c-2.31-1.63-4.14-2.91-8.11-2.91s-5.8,1.28-8.11,2.91c-2.63,1.85-5.62,3.95-11.4,3.95"/><path class="i" d="M153.69,102.02c3.97,0,5.8-1.28,8.11-2.91,2.63-1.85,5.62-3.95,11.4-3.95s8.77,2.1,11.4,3.95c2.31,1.63,4.14,2.91,8.11,2.91,3.97,0,5.8-1.28,8.11-2.91,2.63-1.85,5.62-3.95,11.4-3.95h0c1.58,0,2.86,1.29,2.86,2.86s-1.28,2.86-2.86,2.86c-.03,0-.07,0-.1,0-3.9,.02-5.72,1.3-8.01,2.91-2.63,1.85-5.62,3.95-11.4,3.95s-8.77-2.1-11.4-3.95c-2.31-1.63-4.14-2.91-8.11-2.91-3.97,0-5.8,1.28-8.11,2.91-2.63,1.85-5.62,3.95-11.4,3.95"/></g><rect id="h" class="j" width="250" height="250"/></g></g></g></svg>