<svg xmlns="http://www.w3.org/2000/svg" viewBox="0 0 240 240"><defs><style>.cls-1,.cls-2,.cls-3{fill:none;}.cls-2,.cls-3{stroke:#0285b4;stroke-miterlimit:10;}.cls-3{stroke-width:0.75px;fill-rule:evenodd;}.cls-4{fill:#0285b4;}.cls-5{fill:#d8e9f0;}</style></defs><g id="Шар_2" data-name="Шар 2"><g id="Шар_2-2" data-name="Шар 2"><g id="Micro_Gateway" data-name="Micro Gateway"><rect class="cls-1" width="240" height="240"/><g id="Micro_Gateway-2" data-name="Micro Gateway"><g id="USB_connector" data-name="USB connector"><path class="cls-2" d="M103.83,62.38V89.94h32.25V62.38Zm12.9,10.56h-7.62V67.07h7.62Zm15.25,0h-7.63V67.07H132Z"/></g><path class="cls-3" d="M146,121.27a3.08,3.08,0,0,1,3.08,3.08h0a3.08,3.08,0,0,1-3.08,3.09"/><path class="cls-4" d="M143.73,93.94v74.88c-5.05.25-18.73.9-23.9.9s-18.83-.65-23.88-.9V93.94h47.77m2-2H94v4.8a1.33,1.33,0,0,0,0,2.65v2.14a1.33,1.33,0,0,0-1.3,1.32,1.34,1.34,0,0,0,1.3,1.33v2.14a1.33,1.33,0,0,0-1.3,1.32A1.34,1.34,0,0,0,94,109v2.13a1.34,1.34,0,0,0-1.3,1.33,1.33,1.33,0,0,0,1.3,1.32v2.14a1.34,1.34,0,0,0-1.3,1.33,1.33,1.33,0,0,0,1.3,1.32v2.14a1.33,1.33,0,0,0,0,2.65v2.14a1.33,1.33,0,0,0-1.3,1.32,1.34,1.34,0,0,0,1.3,1.33v2.14a1.33,1.33,0,0,0-1.3,1.32,1.34,1.34,0,0,0,1.3,1.33v2.14a1.32,1.32,0,0,0,0,2.64v2.14a1.34,1.34,0,0,0-1.3,1.33,1.33,1.33,0,0,0,1.3,1.32v2.14a1.33,1.33,0,0,0,0,2.65v2.14a1.33,1.33,0,0,0,0,2.65v2.14a1.33,1.33,0,0,0-1.3,1.32,1.34,1.34,0,0,0,1.3,1.33V159a1.32,1.32,0,0,0,0,2.64v2.14a1.34,1.34,0,0,0-1.3,1.33,1.33,1.33,0,0,0,1.3,1.32v1.63h0a1.34,1.34,0,0,0,0,2.67s19.42,1,25.9,1,25.91-1,25.91-1a1.34,1.34,0,0,0,0-2.67h0v-1.63A1.32,1.32,0,0,0,147,165.1a1.33,1.33,0,0,0-1.29-1.33v-2.14a1.32,1.32,0,0,0,0-2.64v-2.14a1.33,1.33,0,0,0,1.29-1.33,1.32,1.32,0,0,0-1.29-1.32v-2.14a1.33,1.33,0,0,0,0-2.65v-2.14a1.33,1.33,0,0,0,0-2.65v-2.14a1.32,1.32,0,0,0,1.29-1.32,1.33,1.33,0,0,0-1.29-1.33v-2.14a1.32,1.32,0,0,0,0-2.64v-2.14a1.33,1.33,0,0,0,1.29-1.33,1.32,1.32,0,0,0-1.29-1.32v-2.14a1.33,1.33,0,0,0,1.29-1.33,1.32,1.32,0,0,0-1.29-1.32v-2.14a1.33,1.33,0,0,0,0-2.65v-2.14a1.32,1.32,0,0,0,1.29-1.32,1.33,1.33,0,0,0-1.29-1.33v-2.14a1.32,1.32,0,0,0,1.29-1.32,1.33,1.33,0,0,0-1.29-1.33V109a1.33,1.33,0,0,0,1.29-1.33,1.32,1.32,0,0,0-1.29-1.32v-2.14a1.33,1.33,0,0,0,1.29-1.33,1.32,1.32,0,0,0-1.29-1.32V99.39a1.33,1.33,0,0,0,0-2.65v-4.8Z"/><g id="Слой_2" data-name="Слой 2"><g id="Blue_копия_" data-name="Blue копия "><g id="Слой_2_копия2_" data-name="Слой 2 копия2 "><g id="earth"><g id="green"><path class="cls-4" d="M104.94,151.15a3.88,3.88,0,0,0-.48,0,2.79,2.79,0,0,0-.42,0l-.38,0-.25,0a4.07,4.07,0,0,0-3.19,2.69c1.23-2.95,4.72-2.63,4.75-2.63l.09,0a2.11,2.11,0,0,1,.55.19,1.45,1.45,0,0,1,.26.17l.11.09,0,.05a.8.8,0,0,1,.18.27c.45,1.05-1.62,1.93-2.91,1.49-1-.34-1-1.24,0-1.69a2.24,2.24,0,0,0-.4.22c-1.33.91-.76,2.44,1,2.76s4.5-.85,3.46-2.48l-.07-.08-.07-.09a2.59,2.59,0,0,0-.63-.47l-.43-.21a5.3,5.3,0,0,0-.67-.23,3.47,3.47,0,0,0-.56-.11"/><path class="cls-4" d="M108.21,153.17l.05.09a1.85,1.85,0,0,1-.84,2.35c-2.49,1.71-6.93.74-6.4-2a2.62,2.62,0,0,0,1,3.2c2.52,1.94,7.3.75,7-1.76l-.08-.36a4.53,4.53,0,0,0-.3-.83,4.44,4.44,0,0,0-.43-.75l-.08-.1Zm-.12-.18h0v0Z"/><path class="cls-4" d="M108.81,157c-1.3,2.47-7.6,2.9-8.81-1a3.25,3.25,0,0,0,.07.38c.87,3.95,6.89,4.21,8.3,2l.2-.39a4.67,4.67,0,0,0,.37-1.09,4.34,4.34,0,0,0,.08-.52,2,2,0,0,1-.21.7"/><path class="cls-4" d="M100.59,158.52a4.16,4.16,0,0,0,4.52,2l.18,0,.36-.09.36-.12.38-.17a2.82,2.82,0,0,0,.38-.21,3.71,3.71,0,0,0,.41-.28h0a4.94,4.94,0,0,1-6.56-1"/></g></g><path class="cls-4" d="M112.39,152.19a.51.51,0,0,1,.51.51.52.52,0,0,1-.51.51.51.51,0,0,1-.35-.15.53.53,0,0,1-.15-.36.55.55,0,0,1,.15-.36A.51.51,0,0,1,112.39,152.19Zm-.3,2h.62v4.77h-.62Z"/><path class="cls-4" d="M113.61,158.93l.92-6.45h.11l2.62,5.29,2.6-5.29h.1l.93,6.45h-.63l-.64-4.62-2.28,4.62h-.17l-2.3-4.65-.64,4.65Z"/><path class="cls-4" d="M126.22,154.16v4.77h-.59V158a2.46,2.46,0,0,1-.83.67,2.38,2.38,0,0,1-3.38-2.18,2.38,2.38,0,0,1,2.38-2.37,2.16,2.16,0,0,1,1,.23,2.44,2.44,0,0,1,.81.72v-1Zm-2.37.56a1.86,1.86,0,0,0-.92.24,1.77,1.77,0,0,0-.66.67,1.86,1.86,0,0,0,.67,2.52,1.69,1.69,0,0,0,.9.24,1.77,1.77,0,0,0,.93-.24,1.74,1.74,0,0,0,.67-.65,1.92,1.92,0,0,0,.24-.93,1.79,1.79,0,0,0-.53-1.32A1.76,1.76,0,0,0,123.85,154.72Z"/><path class="cls-4" d="M128,152.39h.62v1.77h.88v.52h-.88v4.24H128v-4.23h-.9v-.53h.9Z"/><path class="cls-4" d="M130.35,154.16H131V155a2.29,2.29,0,0,1,.59-.61,1.1,1.1,0,0,1,.65-.21,1.21,1.21,0,0,1,.55.16l-.32.52a.8.8,0,0,0-.33-.08.88.88,0,0,0-.59.25,1.54,1.54,0,0,0-.43.78,6,6,0,0,0-.12,1.53v1.62h-.63Z"/><path class="cls-4" d="M134,152.19a.5.5,0,1,1,0,1,.5.5,0,0,1-.48-.49.5.5,0,0,1,.14-.36A.55.55,0,0,1,134,152.19Zm-.31,2h.62v4.77h-.62Z"/><path class="cls-4" d="M135.48,154.16h.74l1.27,1.74,1.25-1.74h.74l-1.62,2.25,1.83,2.52h-.75l-1.45-2-1.45,2h-.73l1.81-2.52Z"/></g></g></g><rect class="cls-5" x="99.44" y="96.74" width="40.76" height="2.65" rx="1.32"/><rect class="cls-5" x="99.44" y="101.49" width="40.76" height="2.65" rx="1.32"/><rect class="cls-5" x="99.47" y="106.23" width="40.76" height="2.65" rx="1.32"/><rect class="cls-5" x="99.47" y="110.98" width="40.76" height="2.65" rx="1.32"/><rect class="cls-5" x="99.47" y="115.73" width="40.76" height="2.65" rx="1.32"/><rect class="cls-5" x="99.47" y="120.47" width="40.76" height="2.65" rx="1.32"/><rect class="cls-5" x="99.47" y="125.22" width="40.76" height="2.65" rx="1.32"/><rect class="cls-5" x="99.47" y="129.96" width="40.76" height="2.65" rx="1.32"/><rect class="cls-5" x="99.47" y="135.22" width="40.76" height="2.65" rx="1.32"/><rect class="cls-5" x="99.47" y="139.97" width="40.76" height="2.65" rx="1.32"/><rect class="cls-5" x="99.47" y="144.71" width="40.76" height="2.65" rx="1.32"/><rect class="cls-5" x="99.47" y="163.68" width="40.76" height="2.65" rx="1.32"/></g></g></g></g></svg>