<?xml version="1.0" encoding="utf-8"?>
<!-- Generator: Adobe Illustrator 26.5.0, SVG Export Plug-In . SVG Version: 6.00 Build 0)  -->
<svg version="1.1" id="Layer_1" xmlns="http://www.w3.org/2000/svg" xmlns:xlink="http://www.w3.org/1999/xlink" x="0px" y="0px"
	 viewBox="0 0 250 250" style="enable-background:new 0 0 250 250;" xml:space="preserve">
<style type="text/css">
	.st0{fill:#0085B4;}
	.st1{fill:none;}
	.st2{font-family:'Roboto-Bold';}
	.st3{font-size:72px;}
</style>
<g id="a">
</g>
<g id="b">
	<g id="c">
		<g id="d">
			<path class="st0" d="M110.1,210.4c-32.5,0-58.9-28-58.9-62.5c0-14.1,9-35.3,26.8-63.1C90.6,65.2,103.5,48.7,104,48l6-7.6l6,7.6
				c0.6,0.7,13.5,17.2,26.1,36.9c5.5,8.6,10.2,16.6,14,23.8c0.7,1.4,0.2,3.1-1.2,3.9c-1.4,0.7-3.1,0.2-3.9-1.2
				c-3.7-7.1-8.4-15-13.7-23.4c-12.4-19.4-25.2-35.7-25.7-36.4l-1.5-1.9l-1.5,1.9c-0.5,0.7-13.3,17-25.8,36.4
				c-17.2,26.9-25.9,47.1-25.9,60c0,31.3,23.8,56.7,53.2,56.7c0.3,0,0.7,0,1,0c17.1-0.4,33.2-9.6,42.9-24.8c0.9-1.3,2.6-1.7,4-0.9
				c1.3,0.9,1.7,2.6,0.9,4c-10.8,16.8-28.6,27-47.6,27.4C110.8,210.4,110.4,210.4,110.1,210.4L110.1,210.4z"/>
			<rect id="e" class="st1" width="250" height="250"/>
			<text transform="matrix(1 0 0 1 69.4336 167)" class="st0 st2 st3">Soil</text>
		</g>
	</g>
</g>
</svg>
