<svg xmlns="http://www.w3.org/2000/svg" xmlns:xlink="http://www.w3.org/1999/xlink" viewBox="0 0 240 240"><defs><style>.cls-1,.cls-5,.cls-6,.cls-7{fill:none;}.cls-2{fill:#fff;}.cls-3{clip-path:url(#clip-path);}.cls-4{fill:#d8e9f0;}.cls-5,.cls-6,.cls-7{stroke:#0285b4;stroke-miterlimit:10;}.cls-6{stroke-width:2px;}.cls-7{stroke-width:0.5px;}.cls-8{fill:#005d8d;}.cls-9{fill:#0285b4;}.cls-10{fill:#a8d2e2;}</style><clipPath id="clip-path"><path class="cls-1" d="M120,35a85,85,0,1,0,85,85A85,85,0,0,0,120,35Zm0,139.15A54.15,54.15,0,1,1,174.15,120,54.15,54.15,0,0,1,120,174.15Z"/></clipPath></defs><g id="Шар_2" data-name="Шар 2"><g id="Шар_2-2" data-name="Шар 2"><g id="Series_1_Gateway" data-name="Series 1 Gateway"><rect class="cls-2" width="240" height="240"/><g id="Series_1_Gateway-2" data-name="Series 1 Gateway"><g class="cls-3"><circle class="cls-4" cx="115.8" cy="39.85" r="1.8"/><circle class="cls-4" cx="124.38" cy="199.82" r="1.8"/><circle class="cls-4" cx="124.38" cy="39.85" r="1.8"/><circle class="cls-4" cx="115.8" cy="199.82" r="1.8"/><circle class="cls-4" cx="124.38" cy="199.81" r="1.8"/><circle class="cls-4" cx="124.38" cy="39.84" r="1.8"/><circle class="cls-4" cx="115.8" cy="199.81" r="1.8"/><circle class="cls-4" cx="132.87" cy="40.74" r="1.8"/><circle class="cls-4" cx="107.31" cy="198.88" r="1.8"/><circle class="cls-4" cx="141.26" cy="42.56" r="1.8"/><circle class="cls-4" cx="98.92" cy="197.06" r="1.8"/><circle class="cls-4" cx="107.31" cy="198.87" r="1.8"/><circle class="cls-4" cx="141.26" cy="42.55" r="1.8"/><circle class="cls-4" cx="98.93" cy="197.04" r="1.8"/><circle class="cls-4" cx="149.22" cy="45.21" r="1.8"/><circle class="cls-4" cx="90.96" cy="194.43" r="1.8"/><circle class="cls-4" cx="157.04" cy="48.76" r="1.8"/><circle class="cls-4" cx="83.14" cy="190.89" r="1.8"/><circle class="cls-4" cx="90.96" cy="194.42" r="1.8"/><circle class="cls-4" cx="157.04" cy="48.75" r="1.8"/><circle class="cls-4" cx="83.15" cy="190.88" r="1.8"/><circle class="cls-4" cx="107.31" cy="40.76" r="1.8"/><circle class="cls-4" cx="132.88" cy="198.89" r="1.8"/><circle class="cls-4" cx="98.93" cy="42.58" r="1.8"/><circle class="cls-4" cx="141.26" cy="197.07" r="1.8"/><circle class="cls-4" cx="132.87" cy="198.88" r="1.8"/><circle class="cls-4" cx="98.92" cy="42.57" r="1.8"/><circle class="cls-4" cx="141.26" cy="197.06" r="1.8"/><circle class="cls-4" cx="90.96" cy="45.23" r="1.8"/><circle class="cls-4" cx="149.23" cy="194.45" r="1.8"/><circle class="cls-4" cx="83.15" cy="48.77" r="1.8"/><circle class="cls-4" cx="157.04" cy="190.91" r="1.8"/><circle class="cls-4" cx="149.22" cy="194.44" r="1.8"/><circle class="cls-4" cx="83.14" cy="48.76" r="1.8"/><circle class="cls-4" cx="157.04" cy="190.9" r="1.8"/><circle class="cls-4" cx="163.89" cy="52.76" r="1.8"/><circle class="cls-4" cx="76.29" cy="186.88" r="1.8"/><circle class="cls-4" cx="170.81" cy="57.83" r="1.8"/><circle class="cls-4" cx="69.37" cy="181.81" r="1.8"/><circle class="cls-4" cx="76.3" cy="186.87" r="1.8"/><circle class="cls-4" cx="170.82" cy="57.82" r="1.8"/><circle class="cls-4" cx="69.38" cy="181.8" r="1.8"/><circle class="cls-4" cx="76.25" cy="52.76" r="1.8"/><circle class="cls-4" cx="163.85" cy="186.88" r="1.8"/><circle class="cls-4" cx="69.33" cy="57.83" r="1.8"/><circle class="cls-4" cx="170.77" cy="181.81" r="1.8"/><circle class="cls-4" cx="163.84" cy="186.88" r="1.8"/><circle class="cls-4" cx="69.33" cy="57.83" r="1.8"/><circle class="cls-4" cx="170.77" cy="181.81" r="1.8"/><circle class="cls-4" cx="119.86" cy="46.54" r="1.65"/><circle class="cls-4" cx="120.04" cy="193.07" r="1.65"/><circle class="cls-4" cx="127.7" cy="46.96" r="1.65"/><circle class="cls-4" cx="112.21" cy="192.66" r="1.65"/><circle class="cls-4" cx="120.04" cy="193.06" r="1.65"/><circle class="cls-4" cx="127.7" cy="46.95" r="1.65"/><circle class="cls-4" cx="112.21" cy="192.65" r="1.65"/><circle class="cls-4" cx="135.41" cy="48.17" r="1.65"/><circle class="cls-4" cx="104.5" cy="191.4" r="1.65"/><circle class="cls-4" cx="142.98" cy="50.23" r="1.65"/><circle class="cls-4" cx="96.93" cy="189.33" r="1.65"/><circle class="cls-4" cx="104.5" cy="191.39" r="1.65"/><circle class="cls-4" cx="142.99" cy="50.22" r="1.65"/><circle class="cls-4" cx="96.93" cy="189.32" r="1.65"/><circle class="cls-4" cx="150.13" cy="53.04" r="1.65"/><circle class="cls-4" cx="89.78" cy="186.55" r="1.65"/><circle class="cls-4" cx="157.1" cy="56.65" r="1.65"/><circle class="cls-4" cx="82.81" cy="182.94" r="1.65"/><circle class="cls-4" cx="89.78" cy="186.55" r="1.65"/><circle class="cls-4" cx="157.1" cy="56.64" r="1.65"/><circle class="cls-4" cx="82.82" cy="182.93" r="1.65"/><circle class="cls-4" cx="112.07" cy="46.96" r="1.65"/><circle class="cls-4" cx="127.85" cy="192.63" r="1.65"/><circle class="cls-4" cx="104.32" cy="48.22" r="1.65"/><circle class="cls-4" cx="135.59" cy="191.37" r="1.65"/><circle class="cls-4" cx="127.84" cy="192.62" r="1.65"/><circle class="cls-4" cx="104.32" cy="48.21" r="1.65"/><circle class="cls-4" cx="135.59" cy="191.36" r="1.65"/><circle class="cls-4" cx="96.92" cy="50.27" r="1.65"/><circle class="cls-4" cx="142.99" cy="189.36" r="1.65"/><circle class="cls-4" cx="89.62" cy="53.13" r="1.65"/><circle class="cls-4" cx="150.3" cy="186.5" r="1.65"/><circle class="cls-4" cx="142.99" cy="189.35" r="1.65"/><circle class="cls-4" cx="89.61" cy="53.12" r="1.65"/><circle class="cls-4" cx="150.29" cy="186.49" r="1.65"/><circle class="cls-4" cx="163.16" cy="60.64" r="1.65"/><circle class="cls-4" cx="76.74" cy="178.96" r="1.65"/><circle class="cls-4" cx="169.24" cy="65.6" r="1.65"/><circle class="cls-4" cx="70.66" cy="173.99" r="1.65"/><circle class="cls-4" cx="76.75" cy="178.95" r="1.65"/><circle class="cls-4" cx="169.25" cy="65.59" r="1.65"/><circle class="cls-4" cx="70.67" cy="173.99" r="1.65"/><circle class="cls-4" cx="83.13" cy="56.44" r="1.65"/><circle class="cls-4" cx="156.71" cy="183.15" r="1.65"/><circle class="cls-4" cx="76.56" cy="60.74" r="1.65"/><circle class="cls-4" cx="163.27" cy="178.85" r="1.65"/><circle class="cls-4" cx="156.7" cy="183.14" r="1.65"/><circle class="cls-4" cx="76.56" cy="60.73" r="1.65"/><circle class="cls-4" cx="163.27" cy="178.84" r="1.65"/><circle class="cls-4" cx="174.28" cy="70.65" r="1.65" transform="translate(86.96 237.2) rotate(-84.4)"/><circle class="cls-4" cx="65.63" cy="168.94" r="1.65" transform="matrix(0.1, -1, 1, 0.1, -108.91, 217.77)"/><circle class="cls-4" cx="65.63" cy="70.65" r="1.65" transform="translate(-6.58 6.74) rotate(-5.6)"/><circle class="cls-4" cx="174.28" cy="168.94" r="1.65" transform="translate(-15.66 17.81) rotate(-5.6)"/><circle class="cls-4" cx="71.29" cy="65.01" r="1.65" transform="translate(-5.68 6.84) rotate(-5.28)"/><circle class="cls-4" cx="168.55" cy="174.59" r="1.65" transform="translate(-15.36 16.27) rotate(-5.28)"/><circle class="cls-4" cx="46.81" cy="119.38" r="1.65"/><circle class="cls-4" cx="193.33" cy="119.2" r="1.65"/><circle class="cls-4" cx="47.22" cy="111.55" r="1.65"/><circle class="cls-4" cx="192.92" cy="127.04" r="1.65"/><circle class="cls-4" cx="193.32" cy="119.2" r="1.65"/><circle class="cls-4" cx="47.21" cy="111.55" r="1.65"/><circle class="cls-4" cx="192.91" cy="127.04" r="1.65"/><circle class="cls-4" cx="48.43" cy="103.83" r="1.65"/><circle class="cls-4" cx="191.66" cy="134.75" r="1.65"/><circle class="cls-4" cx="50.5" cy="96.26" r="1.65"/><circle class="cls-4" cx="189.59" cy="142.32" r="1.65"/><circle class="cls-4" cx="191.65" cy="134.75" r="1.65"/><circle class="cls-4" cx="50.49" cy="96.26" r="1.65"/><circle class="cls-4" cx="189.58" cy="142.32" r="1.65"/><circle class="cls-4" cx="53.3" cy="89.12" r="1.65"/><circle class="cls-4" cx="186.82" cy="149.47" r="1.65"/><circle class="cls-4" cx="56.92" cy="82.15" r="1.65"/><circle class="cls-4" cx="183.21" cy="156.44" r="1.65"/><circle class="cls-4" cx="186.81" cy="149.46" r="1.65"/><circle class="cls-4" cx="56.91" cy="82.15" r="1.65"/><circle class="cls-4" cx="183.2" cy="156.43" r="1.65"/><circle class="cls-4" cx="47.22" cy="127.18" r="1.65"/><circle class="cls-4" cx="192.9" cy="111.4" r="1.65"/><circle class="cls-4" cx="48.49" cy="134.92" r="1.65"/><circle class="cls-4" cx="191.64" cy="103.66" r="1.65"/><circle class="cls-4" cx="192.89" cy="111.4" r="1.65"/><circle class="cls-4" cx="48.48" cy="134.93" r="1.65"/><circle class="cls-4" cx="191.63" cy="103.66" r="1.65"/><circle class="cls-4" cx="50.53" cy="142.32" r="1.65"/><circle class="cls-4" cx="189.62" cy="96.26" r="1.65"/><circle class="cls-4" cx="53.39" cy="149.63" r="1.65"/><circle class="cls-4" cx="186.76" cy="88.95" r="1.65"/><circle class="cls-4" cx="189.61" cy="96.26" r="1.65"/><circle class="cls-4" cx="53.38" cy="149.63" r="1.65"/><circle class="cls-4" cx="186.75" cy="88.95" r="1.65"/><circle class="cls-4" cx="60.9" cy="76.08" r="1.65"/><circle class="cls-4" cx="179.22" cy="162.5" r="1.65"/><circle class="cls-4" cx="179.21" cy="162.5" r="1.65"/><circle class="cls-4" cx="56.71" cy="156.12" r="1.65"/><circle class="cls-4" cx="183.41" cy="82.54" r="1.65"/><circle class="cls-4" cx="61.01" cy="162.68" r="1.65"/><circle class="cls-4" cx="179.11" cy="75.97" r="1.65"/><circle class="cls-4" cx="183.4" cy="82.54" r="1.65"/><circle class="cls-4" cx="61" cy="162.69" r="1.65"/><circle class="cls-4" cx="179.1" cy="75.98" r="1.65"/><circle class="cls-4" cx="40.1" cy="115.46" r="1.8"/><circle class="cls-4" cx="200.06" cy="124.16" r="1.8"/><circle class="cls-4" cx="41.03" cy="106.93" r="1.8"/><circle class="cls-4" cx="199.13" cy="132.69" r="1.8"/><circle class="cls-4" cx="200.05" cy="124.16" r="1.8"/><circle class="cls-4" cx="41.02" cy="106.93" r="1.8"/><circle class="cls-4" cx="199.12" cy="132.69" r="1.8"/><circle class="cls-4" cx="42.82" cy="98.58" r="1.8"/><circle class="cls-4" cx="197.28" cy="141.04" r="1.8"/><circle class="cls-4" cx="45.54" cy="90.44" r="1.8"/><circle class="cls-4" cx="194.57" cy="149.17" r="1.8"/><circle class="cls-4" cx="197.27" cy="141.03" r="1.8"/><circle class="cls-4" cx="45.52" cy="90.44" r="1.8"/><circle class="cls-4" cx="194.56" cy="149.17" r="1.8"/><circle class="cls-4" cx="49.03" cy="82.81" r="1.8"/><circle class="cls-4" cx="191.11" cy="156.81" r="1.8"/><circle class="cls-4" cx="53.4" cy="75.42" r="1.8"/><circle class="cls-4" cx="186.74" cy="164.2" r="1.8"/><circle class="cls-4" cx="191.1" cy="156.8" r="1.8"/><circle class="cls-4" cx="53.39" cy="75.42" r="1.8"/><circle class="cls-4" cx="186.73" cy="164.19" r="1.8"/><circle class="cls-4" cx="40.08" cy="124" r="1.8"/><circle class="cls-4" cx="200.06" cy="115.62" r="1.8"/><circle class="cls-4" cx="40.99" cy="132.53" r="1.8"/><circle class="cls-4" cx="199.15" cy="107.08" r="1.8"/><circle class="cls-4" cx="200.04" cy="115.62" r="1.8"/><circle class="cls-4" cx="40.98" cy="132.53" r="1.8"/><circle class="cls-4" cx="199.14" cy="107.09" r="1.8"/><circle class="cls-4" cx="42.77" cy="140.73" r="1.8"/><circle class="cls-4" cx="197.4" cy="98.88" r="1.8"/><circle class="cls-4" cx="45.45" cy="148.88" r="1.8"/><circle class="cls-4" cx="194.72" cy="90.73" r="1.8"/><circle class="cls-4" cx="197.39" cy="98.89" r="1.8"/><circle class="cls-4" cx="45.44" cy="148.89" r="1.8"/><circle class="cls-4" cx="194.71" cy="90.74" r="1.8"/><circle class="cls-4" cx="58.12" cy="69.04" r="1.8"/><circle class="cls-4" cx="182.02" cy="170.58" r="1.8"/><circle class="cls-4" cx="63.9" cy="62.71" r="1.8"/><circle class="cls-4" cx="176.23" cy="176.91" r="1.8"/><circle class="cls-4" cx="182.01" cy="170.57" r="1.8"/><circle class="cls-4" cx="63.9" cy="62.7" r="1.8"/><circle class="cls-4" cx="176.23" cy="176.91" r="1.8"/><circle class="cls-4" cx="48.68" cy="156.17" r="1.8"/><circle class="cls-4" cx="191.45" cy="83.53" r="1.8"/><circle class="cls-4" cx="52.97" cy="163.59" r="1.8"/><circle class="cls-4" cx="187.16" cy="76.1" r="1.8"/><circle class="cls-4" cx="191.44" cy="83.53" r="1.8"/><circle class="cls-4" cx="52.96" cy="163.6" r="1.8"/><circle class="cls-4" cx="187.15" cy="76.11" r="1.8"/><circle class="cls-4" cx="55.22" cy="169.9" r="1.8"/><circle class="cls-4" cx="180.26" cy="69.78" r="1.8"/><circle class="cls-4" cx="60.93" cy="176.3" r="1.8"/><circle class="cls-4" cx="174.55" cy="63.38" r="1.8"/><circle class="cls-4" cx="180.26" cy="69.79" r="1.8"/><circle class="cls-4" cx="60.92" cy="176.31" r="1.8"/><circle class="cls-4" cx="174.54" cy="63.39" r="1.8"/><circle class="cls-4" cx="116.3" cy="52.87" r="1.51" transform="translate(-2.66 6.29) rotate(-3.06)"/><circle class="cls-4" cx="123.68" cy="186.81" r="1.51" transform="translate(-9.8 6.87) rotate(-3.06)"/><circle class="cls-4" cx="123.49" cy="52.85" r="1.51" transform="translate(-2.65 6.67) rotate(-3.06)"/><circle class="cls-4" cx="116.5" cy="186.82" r="1.51" transform="translate(-9.81 6.49) rotate(-3.06)"/><circle class="cls-4" cx="123.68" cy="186.8" r="1.51" transform="translate(-9.8 6.87) rotate(-3.06)"/><circle class="cls-4" cx="123.49" cy="52.85" r="1.51" transform="translate(-2.65 6.67) rotate(-3.06)"/><circle class="cls-4" cx="116.5" cy="186.81" r="1.51" transform="translate(-9.81 6.49) rotate(-3.06)"/><circle class="cls-4" cx="130.6" cy="53.58" r="1.51" transform="translate(-2.68 7.05) rotate(-3.06)"/><circle class="cls-4" cx="109.39" cy="186.04" r="1.51" transform="translate(-9.78 6.11) rotate(-3.06)"/><circle class="cls-4" cx="137.62" cy="55.1" r="1.51" transform="translate(-2.75 7.43) rotate(-3.06)"/><circle class="cls-4" cx="102.37" cy="184.53" r="1.51" transform="translate(-9.71 5.73) rotate(-3.06)"/><circle class="cls-4" cx="109.39" cy="186.03" r="1.51" transform="translate(-9.78 6.11) rotate(-3.06)"/><circle class="cls-4" cx="137.62" cy="55.09" r="1.51" transform="translate(-2.75 7.43) rotate(-3.06)"/><circle class="cls-4" cx="102.37" cy="184.52" r="1.51" transform="translate(-9.71 5.73) rotate(-3.06)"/><circle class="cls-4" cx="144.29" cy="57.31" r="1.51" transform="translate(-2.86 7.79) rotate(-3.06)"/><circle class="cls-4" cx="95.69" cy="182.34" r="1.51" transform="translate(-9.61 5.37) rotate(-3.06)"/><circle class="cls-4" cx="150.84" cy="60.27" r="1.51" transform="matrix(1, -0.05, 0.05, 1, -3, 8.14)"/><circle class="cls-4" cx="89.15" cy="179.38" r="1.51" transform="translate(-9.46 5.02) rotate(-3.06)"/><circle class="cls-4" cx="95.7" cy="182.33" r="1.51" transform="translate(-9.6 5.37) rotate(-3.06)"/><circle class="cls-4" cx="150.84" cy="60.26" r="1.51" transform="translate(-3 8.15) rotate(-3.06)"/><circle class="cls-4" cx="89.15" cy="179.37" r="1.51" transform="translate(-9.46 5.02) rotate(-3.06)"/><circle class="cls-4" cx="109.2" cy="53.63" r="1.51" transform="translate(-2.71 5.91) rotate(-3.06)"/><circle class="cls-4" cx="130.8" cy="186.02" r="1.51" transform="translate(-9.75 7.25) rotate(-3.06)"/><circle class="cls-4" cx="102.18" cy="55.16" r="1.51" transform="translate(-2.8 5.54) rotate(-3.06)"/><circle class="cls-4" cx="137.81" cy="184.49" r="1.51" transform="translate(-9.66 7.63) rotate(-3.06)"/><circle class="cls-4" cx="130.79" cy="186.01" r="1.51" transform="translate(-9.75 7.25) rotate(-3.06)"/><circle class="cls-4" cx="102.18" cy="55.16" r="1.51" transform="translate(-2.8 5.54) rotate(-3.06)"/><circle class="cls-4" cx="137.81" cy="184.48" r="1.51" transform="translate(-9.66 7.63) rotate(-3.06)"/><circle class="cls-4" cx="95.51" cy="57.4" r="1.51" transform="translate(-2.93 5.18) rotate(-3.06)"/><circle class="cls-4" cx="144.48" cy="182.28" r="1.51" transform="translate(-9.53 7.98) rotate(-3.06)"/><circle class="cls-4" cx="88.98" cy="60.38" r="1.51" transform="translate(-3.1 4.84) rotate(-3.06)"/><circle class="cls-4" cx="151.02" cy="179.3" r="1.51" transform="matrix(1, -0.05, 0.05, 1, -9.36, 8.32)"/><circle class="cls-4" cx="144.47" cy="182.27" r="1.51" transform="translate(-9.53 7.98) rotate(-3.06)"/><circle class="cls-4" cx="88.97" cy="60.37" r="1.51" transform="translate(-3.1 4.84) rotate(-3.06)"/><circle class="cls-4" cx="151.01" cy="179.3" r="1.51" transform="translate(-9.36 8.32) rotate(-3.06)"/><circle class="cls-4" cx="156.58" cy="63.62" r="1.51" transform="translate(-3.18 8.46) rotate(-3.06)"/><circle class="cls-4" cx="83.41" cy="176.03" r="1.51" transform="translate(-9.29 4.71) rotate(-3.06)"/><circle class="cls-4" cx="162.38" cy="67.85" r="1.51" transform="translate(-3.39 8.77) rotate(-3.06)"/><circle class="cls-4" cx="77.6" cy="171.8" r="1.51" transform="translate(-9.07 4.39) rotate(-3.06)"/><circle class="cls-4" cx="83.41" cy="176.03" r="1.51" transform="matrix(1, -0.05, 0.05, 1, -9.29, 4.71)"/><circle class="cls-4" cx="162.39" cy="67.85" r="1.51" transform="translate(-3.39 8.77) rotate(-3.06)"/><circle class="cls-4" cx="77.61" cy="171.79" r="1.51" transform="translate(-9.07 4.39) rotate(-3.06)"/><circle class="cls-4" cx="83.21" cy="63.72" r="1.51" transform="translate(-3.29 4.54) rotate(-3.06)"/><circle class="cls-4" cx="156.71" cy="175.93" r="1.51" transform="translate(-9.18 8.62) rotate(-3.06)"/><circle class="cls-4" cx="77.42" cy="67.98" r="1.51" transform="translate(-3.52 4.23) rotate(-3.06)"/><circle class="cls-4" cx="162.5" cy="171.67" r="1.51" transform="translate(-8.94 8.93) rotate(-3.06)"/><circle class="cls-4" cx="156.71" cy="175.92" r="1.51" transform="translate(-9.18 8.62) rotate(-3.06)"/><circle class="cls-4" cx="77.41" cy="67.97" r="1.51" transform="translate(-3.52 4.23) rotate(-3.06)"/><circle class="cls-4" cx="162.5" cy="171.67" r="1.51" transform="translate(-8.94 8.93) rotate(-3.06)"/><circle class="cls-4" cx="167.23" cy="72.22" r="1.51" transform="translate(87.74 236.12) rotate(-87.48)"/><circle class="cls-4" cx="72.75" cy="167.43" r="1.51" transform="translate(-97.71 232.76) rotate(-87.48)"/><circle class="cls-4" cx="67.91" cy="77.57" r="1.51" transform="translate(-10.93 11.14) rotate(-8.68)"/><circle class="cls-4" cx="172.07" cy="162.08" r="1.51" transform="translate(-22.5 27.84) rotate(-8.68)"/><circle class="cls-4" cx="72.81" cy="72.13" r="1.51" transform="translate(-9.72 11.36) rotate(-8.37)"/><circle class="cls-4" cx="167.11" cy="167.52" r="1.51" transform="translate(-22.6 26.11) rotate(-8.37)"/><circle class="cls-4" cx="53.11" cy="123.05" r="1.51" transform="translate(-6.5 3.01) rotate(-3.06)"/><circle class="cls-4" cx="187.05" cy="115.67" r="1.51" transform="translate(-5.91 10.16) rotate(-3.06)"/><circle class="cls-4" cx="53.09" cy="115.87" r="1.51" transform="translate(-6.11 3) rotate(-3.06)"/><circle class="cls-4" cx="187.06" cy="122.85" r="1.51" transform="translate(-6.3 10.17) rotate(-3.06)"/><circle class="cls-4" cx="187.04" cy="115.67" r="1.51" transform="translate(-5.91 10.16) rotate(-3.06)"/><circle class="cls-4" cx="53.09" cy="115.87" r="1.51" transform="translate(-6.11 3) rotate(-3.06)"/><circle class="cls-4" cx="187.05" cy="122.85" r="1.51" transform="translate(-6.3 10.17) rotate(-3.06)"/><circle class="cls-4" cx="53.82" cy="108.76" r="1.51" transform="translate(-5.73 3.03) rotate(-3.06)"/><circle class="cls-4" cx="186.28" cy="129.96" r="1.51" transform="translate(-6.68 10.14) rotate(-3.06)"/><circle class="cls-4" cx="55.34" cy="101.73" r="1.51" transform="translate(-5.36 3.1) rotate(-3.06)"/><circle class="cls-4" cx="184.77" cy="136.99" r="1.51" transform="translate(-7.05 10.07) rotate(-3.06)"/><circle class="cls-4" cx="186.27" cy="129.96" r="1.51" transform="translate(-6.68 10.14) rotate(-3.06)"/><circle class="cls-4" cx="55.33" cy="101.73" r="1.51" transform="translate(-5.36 3.1) rotate(-3.06)"/><circle class="cls-4" cx="184.76" cy="136.98" r="1.51" transform="translate(-7.05 10.07) rotate(-3.06)"/><circle class="cls-4" cx="57.55" cy="95.06" r="1.51" transform="translate(-5 3.21) rotate(-3.06)"/><circle class="cls-4" cx="182.58" cy="143.66" r="1.51" transform="translate(-7.41 9.96) rotate(-3.06)"/><circle class="cls-4" cx="60.51" cy="88.52" r="1.51" transform="translate(-4.64 3.36) rotate(-3.06)"/><circle class="cls-4" cx="179.62" cy="150.2" r="1.51" transform="translate(-7.77 9.81) rotate(-3.06)"/><circle class="cls-4" cx="182.57" cy="143.65" r="1.51" transform="translate(-7.41 9.96) rotate(-3.06)"/><circle class="cls-4" cx="60.5" cy="88.51" r="1.51" transform="translate(-4.64 3.36) rotate(-3.06)"/><circle class="cls-4" cx="179.61" cy="150.2" r="1.51" transform="translate(-7.77 9.81) rotate(-3.06)"/><circle class="cls-4" cx="53.87" cy="130.16" r="1.51" transform="translate(-6.88 3.06) rotate(-3.06)"/><circle class="cls-4" cx="186.26" cy="108.56" r="1.51" transform="translate(-5.53 10.11) rotate(-3.06)"/><circle class="cls-4" cx="55.4" cy="137.17" r="1.51" transform="translate(-7.25 3.16) rotate(-3.06)"/><circle class="cls-4" cx="184.73" cy="101.54" r="1.51" transform="translate(-5.16 10.01) rotate(-3.06)"/><circle class="cls-4" cx="186.25" cy="108.56" r="1.51" transform="translate(-5.53 10.11) rotate(-3.06)"/><circle class="cls-4" cx="55.4" cy="137.18" r="1.51" transform="translate(-7.25 3.16) rotate(-3.06)"/><circle class="cls-4" cx="184.72" cy="101.54" r="1.51" transform="translate(-5.16 10.01) rotate(-3.06)"/><circle class="cls-4" cx="57.64" cy="143.84" r="1.51" transform="translate(-7.6 3.28) rotate(-3.06)"/><circle class="cls-4" cx="182.52" cy="94.87" r="1.51" transform="translate(-4.81 9.89) rotate(-3.06)"/><circle class="cls-4" cx="60.62" cy="150.38" r="1.51" transform="translate(-7.95 3.45) rotate(-3.06)"/><circle class="cls-4" cx="179.54" cy="88.34" r="1.51" transform="translate(-4.46 9.72) rotate(-3.06)"/><circle class="cls-4" cx="182.51" cy="94.88" r="1.51" transform="translate(-4.81 9.89) rotate(-3.06)"/><circle class="cls-4" cx="60.61" cy="150.38" r="1.51" transform="translate(-7.95 3.45) rotate(-3.06)"/><circle class="cls-4" cx="179.54" cy="88.34" r="1.51" transform="translate(-4.46 9.72) rotate(-3.06)"/><circle class="cls-4" cx="63.86" cy="82.77" r="1.51" transform="matrix(1, -0.05, 0.05, 1, -4.33, 3.53)"/><circle class="cls-4" cx="176.27" cy="155.95" r="1.51" transform="translate(-8.08 9.64) rotate(-3.06)"/><circle class="cls-4" cx="176.27" cy="155.94" r="1.51" transform="translate(-8.08 9.64) rotate(-3.06)"/><circle class="cls-4" cx="63.96" cy="156.14" r="1.51" transform="translate(-8.25 3.64) rotate(-3.06)"/><circle class="cls-4" cx="176.17" cy="82.64" r="1.51" transform="translate(-4.16 9.53) rotate(-3.06)"/><circle class="cls-4" cx="68.22" cy="161.93" r="1.51" transform="translate(-8.55 3.88) rotate(-3.06)"/><circle class="cls-4" cx="171.91" cy="76.85" r="1.51" transform="translate(-3.86 9.29) rotate(-3.06)"/><circle class="cls-4" cx="176.16" cy="82.64" r="1.51" transform="translate(-4.16 9.53) rotate(-3.06)"/><circle class="cls-4" cx="68.21" cy="161.94" r="1.51" transform="translate(-8.55 3.88) rotate(-3.06)"/><circle class="cls-4" cx="171.91" cy="76.86" r="1.51" transform="translate(-3.86 9.29) rotate(-3.06)"/><circle class="cls-4" cx="119.9" cy="60.28" r="1.34"/><circle class="cls-4" cx="120.05" cy="179.35" r="1.34"/><circle class="cls-4" cx="126.27" cy="60.62" r="1.34"/><circle class="cls-4" cx="113.68" cy="179.02" r="1.34"/><circle class="cls-4" cx="120.05" cy="179.34" r="1.34"/><circle class="cls-4" cx="126.27" cy="60.61" r="1.34"/><circle class="cls-4" cx="113.68" cy="179.01" r="1.34"/><circle class="cls-4" cx="132.54" cy="61.6" r="1.34"/><circle class="cls-4" cx="107.41" cy="177.99" r="1.34"/><circle class="cls-4" cx="138.69" cy="63.28" r="1.34"/><circle class="cls-4" cx="101.26" cy="176.31" r="1.34"/><circle class="cls-4" cx="107.42" cy="177.98" r="1.34"/><circle class="cls-4" cx="138.69" cy="63.27" r="1.34"/><circle class="cls-4" cx="101.26" cy="176.3" r="1.34"/><circle class="cls-4" cx="144.5" cy="65.56" r="1.34"/><circle class="cls-4" cx="95.45" cy="174.06" r="1.34"/><circle class="cls-4" cx="150.16" cy="68.5" r="1.34"/><circle class="cls-4" cx="89.79" cy="171.12" r="1.34"/><circle class="cls-4" cx="95.46" cy="174.05" r="1.34"/><circle class="cls-4" cx="150.16" cy="68.49" r="1.34"/><circle class="cls-4" cx="89.8" cy="171.11" r="1.34"/><circle class="cls-4" cx="113.57" cy="60.62" r="1.34"/><circle class="cls-4" cx="126.39" cy="179" r="1.34"/><circle class="cls-4" cx="107.27" cy="61.65" r="1.34"/><circle class="cls-4" cx="132.68" cy="177.97" r="1.34"/><circle class="cls-4" cx="126.39" cy="178.99" r="1.34"/><circle class="cls-4" cx="107.27" cy="61.64" r="1.34"/><circle class="cls-4" cx="132.68" cy="177.96" r="1.34"/><circle class="cls-4" cx="101.26" cy="63.31" r="1.34"/><circle class="cls-4" cx="138.69" cy="176.34" r="1.34"/><circle class="cls-4" cx="95.32" cy="65.64" r="1.34"/><circle class="cls-4" cx="144.63" cy="174.01" r="1.34"/><circle class="cls-4" cx="138.69" cy="176.33" r="1.34"/><circle class="cls-4" cx="95.32" cy="65.63" r="1.34"/><circle class="cls-4" cx="144.63" cy="174" r="1.34"/><circle class="cls-4" cx="155.09" cy="71.74" r="1.34"/><circle class="cls-4" cx="84.86" cy="167.88" r="1.34"/><circle class="cls-4" cx="160.03" cy="75.77" r="1.34"/><circle class="cls-4" cx="79.92" cy="163.85" r="1.34"/><circle class="cls-4" cx="84.87" cy="167.87" r="1.34"/><circle class="cls-4" cx="160.03" cy="75.76" r="1.34"/><circle class="cls-4" cx="79.93" cy="163.84" r="1.34"/><circle class="cls-4" cx="90.05" cy="68.33" r="1.34"/><circle class="cls-4" cx="149.84" cy="171.29" r="1.34"/><circle class="cls-4" cx="84.72" cy="71.82" r="1.34"/><circle class="cls-4" cx="155.18" cy="167.79" r="1.34"/><circle class="cls-4" cx="149.84" cy="171.28" r="1.34"/><circle class="cls-4" cx="84.71" cy="71.82" r="1.34"/><circle class="cls-4" cx="155.17" cy="167.79" r="1.34"/><circle class="cls-4" cx="164.12" cy="79.87" r="1.34" transform="translate(68.61 235.41) rotate(-84.4)"/><circle class="cls-4" cx="75.83" cy="159.75" r="1.34" transform="translate(-90.55 219.63) rotate(-84.4)"/><circle class="cls-4" cx="75.83" cy="79.87" r="1.34" transform="translate(-7.43 7.78) rotate(-5.6)"/><circle class="cls-4" cx="164.12" cy="159.75" r="1.34" transform="translate(-14.81 16.78) rotate(-5.6)"/><circle class="cls-4" cx="80.43" cy="75.29" r="1.34" transform="translate(-6.59 7.73) rotate(-5.28)"/><circle class="cls-4" cx="159.46" cy="164.33" r="1.34" transform="translate(-14.46 15.38) rotate(-5.28)"/><circle class="cls-4" cx="60.54" cy="119.47" r="1.34"/><circle class="cls-4" cx="179.6" cy="119.33" r="1.34"/><circle class="cls-4" cx="60.87" cy="113.1" r="1.34"/><circle class="cls-4" cx="179.27" cy="125.69" r="1.34"/><circle class="cls-4" cx="179.6" cy="119.33" r="1.34"/><circle class="cls-4" cx="60.86" cy="113.1" r="1.34"/><circle class="cls-4" cx="179.26" cy="125.69" r="1.34"/><circle class="cls-4" cx="61.86" cy="106.84" r="1.34"/><circle class="cls-4" cx="178.24" cy="131.96" r="1.34"/><circle class="cls-4" cx="63.54" cy="100.69" r="1.34"/><circle class="cls-4" cx="176.57" cy="138.11" r="1.34"/><circle class="cls-4" cx="178.23" cy="131.96" r="1.34"/><circle class="cls-4" cx="63.53" cy="100.68" r="1.34"/><circle class="cls-4" cx="176.56" cy="138.11" r="1.34"/><circle class="cls-4" cx="65.82" cy="94.88" r="1.34"/><circle class="cls-4" cx="174.31" cy="143.92" r="1.34"/><circle class="cls-4" cx="68.75" cy="89.22" r="1.34"/><circle class="cls-4" cx="171.37" cy="149.58" r="1.34"/><circle class="cls-4" cx="174.3" cy="143.92" r="1.34"/><circle class="cls-4" cx="68.74" cy="89.21" r="1.34"/><circle class="cls-4" cx="171.37" cy="149.58" r="1.34"/><circle class="cls-4" cx="60.88" cy="125.81" r="1.34"/><circle class="cls-4" cx="179.25" cy="112.99" r="1.34"/><circle class="cls-4" cx="61.9" cy="132.1" r="1.34"/><circle class="cls-4" cx="178.22" cy="106.69" r="1.34"/><circle class="cls-4" cx="179.24" cy="112.99" r="1.34"/><circle class="cls-4" cx="61.89" cy="132.1" r="1.34"/><circle class="cls-4" cx="178.22" cy="106.69" r="1.34"/><circle class="cls-4" cx="63.56" cy="138.12" r="1.34"/><circle class="cls-4" cx="176.59" cy="100.68" r="1.34"/><circle class="cls-4" cx="65.89" cy="144.05" r="1.34"/><circle class="cls-4" cx="174.26" cy="94.74" r="1.34"/><circle class="cls-4" cx="176.58" cy="100.68" r="1.34"/><circle class="cls-4" cx="65.88" cy="144.05" r="1.34"/><circle class="cls-4" cx="174.25" cy="94.75" r="1.34"/><circle class="cls-4" cx="71.99" cy="84.29" r="1.34"/><circle class="cls-4" cx="168.13" cy="154.51" r="1.34"/><circle class="cls-4" cx="168.13" cy="154.51" r="1.34"/><circle class="cls-4" cx="68.58" cy="149.32" r="1.34"/><circle class="cls-4" cx="171.54" cy="89.53" r="1.34"/><circle class="cls-4" cx="72.08" cy="154.66" r="1.34"/><circle class="cls-4" cx="168.05" cy="84.2" r="1.34"/><circle class="cls-4" cx="171.53" cy="89.54" r="1.34"/><circle class="cls-4" cx="72.07" cy="154.66" r="1.34"/><circle class="cls-4" cx="168.04" cy="84.2" r="1.34"/><circle class="cls-4" cx="117.11" cy="67.24" r="1.18" transform="translate(-3.43 6.35) rotate(-3.06)"/><circle class="cls-4" cx="122.91" cy="172.44" r="1.18" transform="translate(-9.04 6.81) rotate(-3.06)"/><circle class="cls-4" cx="122.75" cy="67.23" r="1.18" transform="translate(-3.42 6.65) rotate(-3.06)"/><circle class="cls-4" cx="117.27" cy="172.45" r="1.18" transform="translate(-9.05 6.51) rotate(-3.06)"/><circle class="cls-4" cx="122.91" cy="172.43" r="1.18" transform="translate(-9.04 6.81) rotate(-3.06)"/><circle class="cls-4" cx="122.75" cy="67.23" r="1.18" transform="translate(-3.42 6.65) rotate(-3.06)"/><circle class="cls-4" cx="117.27" cy="172.44" r="1.18" transform="translate(-9.05 6.51) rotate(-3.06)"/><circle class="cls-4" cx="128.34" cy="67.81" r="1.18" transform="translate(-3.44 6.95) rotate(-3.06)"/><circle class="cls-4" cx="111.68" cy="171.84" r="1.18" transform="translate(-9.02 6.21) rotate(-3.06)"/><circle class="cls-4" cx="133.85" cy="69" r="1.18" transform="translate(-3.5 7.25) rotate(-3.06)"/><circle class="cls-4" cx="106.17" cy="170.65" r="1.18" transform="translate(-8.97 5.92) rotate(-3.06)"/><circle class="cls-4" cx="111.68" cy="171.83" r="1.18" transform="translate(-9.02 6.21) rotate(-3.06)"/><circle class="cls-4" cx="133.85" cy="68.99" r="1.18" transform="translate(-3.49 7.25) rotate(-3.06)"/><circle class="cls-4" cx="106.17" cy="170.64" r="1.18" transform="translate(-8.97 5.92) rotate(-3.06)"/><circle class="cls-4" cx="139.09" cy="70.73" r="1.18" transform="translate(-3.58 7.53) rotate(-3.06)"/><circle class="cls-4" cx="100.93" cy="168.93" r="1.18" transform="translate(-8.88 5.63) rotate(-3.06)"/><circle class="cls-4" cx="144.23" cy="73.06" r="1.18" transform="translate(-3.7 7.81) rotate(-3.06)"/><circle class="cls-4" cx="95.78" cy="166.61" r="1.18" transform="translate(-8.76 5.36) rotate(-3.06)"/><circle class="cls-4" cx="100.93" cy="168.93" r="1.18" transform="translate(-8.88 5.63) rotate(-3.06)"/><circle class="cls-4" cx="144.24" cy="73.05" r="1.18" transform="translate(-3.7 7.81) rotate(-3.06)"/><circle class="cls-4" cx="95.79" cy="166.6" r="1.18" transform="translate(-8.76 5.36) rotate(-3.06)"/><circle class="cls-4" cx="111.53" cy="67.84" r="1.18" transform="translate(-3.47 6.06) rotate(-3.06)"/><circle class="cls-4" cx="128.49" cy="171.82" r="1.18" transform="translate(-9 7.11) rotate(-3.06)"/><circle class="cls-4" cx="106.02" cy="69.05" r="1.18" transform="translate(-3.54 5.76) rotate(-3.06)"/><circle class="cls-4" cx="134.01" cy="170.62" r="1.18" transform="translate(-8.92 7.4) rotate(-3.06)"/><circle class="cls-4" cx="128.49" cy="171.82" r="1.18" transform="translate(-9 7.11) rotate(-3.06)"/><circle class="cls-4" cx="106.02" cy="69.04" r="1.18" transform="translate(-3.54 5.76) rotate(-3.06)"/><circle class="cls-4" cx="134" cy="170.61" r="1.18" transform="translate(-8.92 7.4) rotate(-3.06)"/><circle class="cls-4" cx="100.78" cy="70.8" r="1.18" transform="translate(-3.64 5.49) rotate(-3.06)"/><circle class="cls-4" cx="139.24" cy="168.89" r="1.18" transform="translate(-8.82 7.68) rotate(-3.06)"/><circle class="cls-4" cx="95.65" cy="73.14" r="1.18" transform="translate(-3.77 5.21) rotate(-3.06)"/><circle class="cls-4" cx="144.38" cy="166.55" r="1.18" transform="translate(-8.69 7.95) rotate(-3.06)"/><circle class="cls-4" cx="139.24" cy="168.88" r="1.18" transform="translate(-8.82 7.68) rotate(-3.06)"/><circle class="cls-4" cx="95.64" cy="73.13" r="1.18" transform="translate(-3.77 5.21) rotate(-3.06)"/><circle class="cls-4" cx="144.37" cy="166.54" r="1.18" transform="translate(-8.69 7.95) rotate(-3.06)"/><circle class="cls-4" cx="148.74" cy="75.69" r="1.18" transform="translate(-3.83 8.06) rotate(-3.06)"/><circle class="cls-4" cx="91.27" cy="163.98" r="1.18" transform="translate(-8.63 5.11) rotate(-3.06)"/><circle class="cls-4" cx="153.3" cy="79.01" r="1.18" transform="translate(-4 8.3) rotate(-3.06)"/><circle class="cls-4" cx="86.72" cy="160.65" r="1.18" transform="translate(-8.46 4.86) rotate(-3.06)"/><circle class="cls-4" cx="91.28" cy="163.97" r="1.18" transform="translate(-8.63 5.11) rotate(-3.06)"/><circle class="cls-4" cx="153.31" cy="79.01" r="1.18" transform="translate(-4 8.3) rotate(-3.06)"/><circle class="cls-4" cx="86.72" cy="160.65" r="1.18" transform="translate(-8.46 4.86) rotate(-3.06)"/><circle class="cls-4" cx="91.12" cy="75.77" r="1.18" transform="translate(-3.92 4.98) rotate(-3.06)"/><circle class="cls-4" cx="148.85" cy="163.9" r="1.18" transform="translate(-8.54 8.19) rotate(-3.06)"/><circle class="cls-4" cx="86.57" cy="79.11" r="1.18" transform="translate(-4.1 4.74) rotate(-3.06)"/><circle class="cls-4" cx="153.4" cy="160.56" r="1.18" transform="translate(-8.36 8.42) rotate(-3.06)"/><circle class="cls-4" cx="148.85" cy="163.89" r="1.18" transform="translate(-8.54 8.19) rotate(-3.06)"/><circle class="cls-4" cx="86.57" cy="79.11" r="1.18" transform="translate(-4.1 4.74) rotate(-3.06)"/><circle class="cls-4" cx="153.39" cy="160.55" r="1.18" transform="translate(-8.36 8.42) rotate(-3.06)"/><circle class="cls-4" cx="157.11" cy="82.44" r="1.18" transform="translate(67.85 235.78) rotate(-87.48)"/><circle class="cls-4" cx="82.91" cy="157.22" r="1.18" transform="translate(-77.8 233.15) rotate(-87.48)"/><circle class="cls-4" cx="79.1" cy="86.65" r="1.18" transform="translate(-12.18 12.94) rotate(-8.68)"/><circle class="cls-4" cx="160.91" cy="153.02" r="1.18" transform="translate(-21.26 26.05) rotate(-8.68)"/><circle class="cls-4" cx="82.95" cy="82.38" r="1.18" transform="translate(-11.11 12.95) rotate(-8.37)"/><circle class="cls-4" cx="157.02" cy="157.29" r="1.18" transform="translate(-21.22 24.53) rotate(-8.37)"/><circle class="cls-4" cx="67.48" cy="122.36" r="1.18" transform="translate(-6.44 3.78) rotate(-3.06)"/><circle class="cls-4" cx="172.67" cy="116.57" r="1.18" transform="translate(-5.98 9.39) rotate(-3.06)"/><circle class="cls-4" cx="67.47" cy="116.72" r="1.18" transform="translate(-6.14 3.77) rotate(-3.06)"/><circle class="cls-4" cx="172.68" cy="122.21" r="1.18" transform="translate(-6.28 9.4) rotate(-3.06)"/><circle class="cls-4" cx="172.67" cy="116.57" r="1.18" transform="translate(-5.98 9.39) rotate(-3.06)"/><circle class="cls-4" cx="67.46" cy="116.72" r="1.18" transform="translate(-6.14 3.77) rotate(-3.06)"/><circle class="cls-4" cx="172.67" cy="122.21" r="1.18" transform="translate(-6.28 9.4) rotate(-3.06)"/><circle class="cls-4" cx="68.04" cy="111.14" r="1.18" transform="translate(-5.84 3.79) rotate(-3.06)"/><circle class="cls-4" cx="172.07" cy="127.8" r="1.18" transform="translate(-6.58 9.38) rotate(-3.06)"/><circle class="cls-4" cx="69.23" cy="105.62" r="1.18" transform="translate(-5.54 3.85) rotate(-3.06)"/><circle class="cls-4" cx="170.88" cy="133.31" r="1.18" transform="translate(-6.88 9.32) rotate(-3.06)"/><circle class="cls-4" cx="172.07" cy="127.79" r="1.18" transform="translate(-6.58 9.38) rotate(-3.06)"/><circle class="cls-4" cx="69.22" cy="105.62" r="1.18" transform="translate(-5.54 3.85) rotate(-3.06)"/><circle class="cls-4" cx="170.88" cy="133.31" r="1.18" transform="translate(-6.88 9.32) rotate(-3.06)"/><circle class="cls-4" cx="70.97" cy="100.38" r="1.18" transform="translate(-5.26 3.94) rotate(-3.06)"/><circle class="cls-4" cx="169.17" cy="138.55" r="1.18" transform="translate(-7.16 9.24) rotate(-3.06)"/><circle class="cls-4" cx="73.29" cy="95.24" r="1.18" transform="translate(-4.98 4.05) rotate(-3.06)"/><circle class="cls-4" cx="166.84" cy="143.69" r="1.18" transform="translate(-7.44 9.12) rotate(-3.06)"/><circle class="cls-4" cx="169.16" cy="138.55" r="1.18" transform="translate(-7.16 9.24) rotate(-3.06)"/><circle class="cls-4" cx="73.29" cy="95.24" r="1.18" transform="translate(-4.98 4.05) rotate(-3.06)"/><circle class="cls-4" cx="166.84" cy="143.69" r="1.18" transform="translate(-7.44 9.12) rotate(-3.06)"/><circle class="cls-4" cx="68.08" cy="127.95" r="1.18" transform="translate(-6.74 3.82) rotate(-3.06)"/><circle class="cls-4" cx="172.06" cy="110.98" r="1.18" transform="translate(-5.68 9.35) rotate(-3.06)"/><circle class="cls-4" cx="69.28" cy="133.46" r="1.18" transform="translate(-7.03 3.89) rotate(-3.06)"/><circle class="cls-4" cx="170.85" cy="105.47" r="1.18" transform="translate(-5.39 9.28) rotate(-3.06)"/><circle class="cls-4" cx="172.05" cy="110.98" r="1.18" transform="translate(-5.68 9.35) rotate(-3.06)"/><circle class="cls-4" cx="69.27" cy="133.46" r="1.18" transform="translate(-7.03 3.89) rotate(-3.06)"/><circle class="cls-4" cx="170.85" cy="105.47" r="1.18" transform="translate(-5.39 9.28) rotate(-3.06)"/><circle class="cls-4" cx="71.03" cy="138.69" r="1.18" transform="translate(-7.31 3.99) rotate(-3.06)"/><circle class="cls-4" cx="169.12" cy="100.24" r="1.18" transform="translate(-5.11 9.18) rotate(-3.06)"/><circle class="cls-4" cx="73.37" cy="143.83" r="1.18" transform="matrix(1, -0.05, 0.05, 1, -7.58, 4.13)"/><circle class="cls-4" cx="166.78" cy="95.1" r="1.18" transform="translate(-4.84 9.05) rotate(-3.06)"/><circle class="cls-4" cx="169.11" cy="100.24" r="1.18" transform="translate(-5.11 9.18) rotate(-3.06)"/><circle class="cls-4" cx="73.37" cy="143.83" r="1.18" transform="translate(-7.58 4.13) rotate(-3.06)"/><circle class="cls-4" cx="166.78" cy="95.1" r="1.18" transform="translate(-4.84 9.05) rotate(-3.06)"/><circle class="cls-4" cx="75.92" cy="90.73" r="1.18" transform="translate(-4.74 4.19) rotate(-3.06)"/><circle class="cls-4" cx="164.21" cy="148.2" r="1.18" transform="translate(-7.68 8.99) rotate(-3.06)"/><circle class="cls-4" cx="164.21" cy="148.2" r="1.18" transform="translate(-7.68 8.98) rotate(-3.06)"/><circle class="cls-4" cx="76" cy="148.36" r="1.18" transform="translate(-7.82 4.27) rotate(-3.06)"/><circle class="cls-4" cx="164.13" cy="90.63" r="1.18" transform="translate(-4.61 8.9) rotate(-3.06)"/><circle class="cls-4" cx="79.35" cy="152.9" r="1.18" transform="translate(-8.06 4.46) rotate(-3.06)"/><circle class="cls-4" cx="160.79" cy="86.08" r="1.18" transform="translate(-4.37 8.71) rotate(-3.06)"/><circle class="cls-4" cx="164.12" cy="90.63" r="1.18" transform="translate(-4.61 8.9) rotate(-3.06)"/><circle class="cls-4" cx="79.34" cy="152.91" r="1.18" transform="translate(-8.06 4.46) rotate(-3.06)"/><circle class="cls-4" cx="160.78" cy="86.08" r="1.18" transform="translate(-4.37 8.71) rotate(-3.06)"/><circle class="cls-4" cx="115.53" cy="74.96" r="1.02" transform="translate(-6.79 11.69) rotate(-5.63)"/><circle class="cls-4" cx="124.54" cy="164.93" r="1.02" transform="translate(-15.57 13.01) rotate(-5.63)"/><circle class="cls-4" cx="120.36" cy="74.74" r="1.02" transform="translate(-6.75 12.16) rotate(-5.63)"/><circle class="cls-4" cx="119.7" cy="165.15" r="1.02" transform="translate(-15.62 12.53) rotate(-5.63)"/><circle class="cls-4" cx="124.54" cy="164.92" r="1.02" transform="translate(-15.57 13.01) rotate(-5.63)"/><circle class="cls-4" cx="120.36" cy="74.73" r="1.02" transform="translate(-6.75 12.16) rotate(-5.63)"/><circle class="cls-4" cx="119.7" cy="165.15" r="1.02" transform="translate(-15.62 12.53) rotate(-5.63)"/><circle class="cls-4" cx="125.17" cy="75.02" r="1.02" transform="translate(-6.75 12.64) rotate(-5.63)"/><circle class="cls-4" cx="114.89" cy="164.84" r="1.02" transform="translate(-15.61 12.06) rotate(-5.63)"/><circle class="cls-4" cx="129.95" cy="75.83" r="1.02" transform="translate(-6.81 13.11) rotate(-5.63)"/><circle class="cls-4" cx="110.12" cy="164.04" r="1.02" transform="translate(-15.56 11.59) rotate(-5.63)"/><circle class="cls-4" cx="114.89" cy="164.84" r="1.02" transform="translate(-15.61 12.06) rotate(-5.63)"/><circle class="cls-4" cx="129.95" cy="75.82" r="1.02" transform="translate(-6.81 13.11) rotate(-5.63)"/><circle class="cls-4" cx="110.12" cy="164.03" r="1.02" transform="translate(-15.55 11.59) rotate(-5.63)"/><circle class="cls-4" cx="134.51" cy="77.11" r="1.02" transform="translate(-6.91 13.56) rotate(-5.63)"/><circle class="cls-4" cx="105.56" cy="162.77" r="1.02" transform="translate(-15.45 11.14) rotate(-5.63)"/><circle class="cls-4" cx="139" cy="78.91" r="1.02" transform="translate(-7.07 14.01) rotate(-5.63)"/><circle class="cls-4" cx="101.06" cy="160.97" r="1.02" transform="translate(-15.3 10.69) rotate(-5.63)"/><circle class="cls-4" cx="105.56" cy="162.76" r="1.02" transform="matrix(1, -0.1, 0.1, 1, -15.45, 11.14)"/><circle class="cls-4" cx="139.01" cy="78.9" r="1.02" transform="translate(-7.07 14.01) rotate(-5.63)"/><circle class="cls-4" cx="101.06" cy="160.97" r="1.02" transform="translate(-15.3 10.69) rotate(-5.63)"/><circle class="cls-4" cx="110.77" cy="75.69" r="1.02" transform="translate(-6.89 11.23) rotate(-5.63)"/><circle class="cls-4" cx="129.3" cy="164.19" r="1.02" transform="translate(-15.48 13.47) rotate(-5.63)"/><circle class="cls-4" cx="106.09" cy="76.94" r="1.02" transform="translate(-7.03 10.77) rotate(-5.63)"/><circle class="cls-4" cx="133.98" cy="162.94" r="1.02" transform="translate(-15.33 13.92) rotate(-5.63)"/><circle class="cls-4" cx="129.3" cy="164.18" r="1.02" transform="translate(-15.48 13.47) rotate(-5.63)"/><circle class="cls-4" cx="106.08" cy="76.93" r="1.02" transform="translate(-7.03 10.77) rotate(-5.63)"/><circle class="cls-4" cx="133.98" cy="162.94" r="1.02" transform="translate(-15.33 13.92) rotate(-5.63)"/><circle class="cls-4" cx="101.67" cy="78.64" r="1.02" transform="translate(-7.22 10.35) rotate(-5.63)"/><circle class="cls-4" cx="138.4" cy="161.26" r="1.02" transform="translate(-15.15 14.35) rotate(-5.63)"/><circle class="cls-4" cx="97.35" cy="80.85" r="1.02" transform="translate(-7.46 9.94) rotate(-5.63)"/><circle class="cls-4" cx="142.72" cy="159.05" r="1.02" transform="translate(-14.91 14.76) rotate(-5.63)"/><circle class="cls-4" cx="138.4" cy="161.25" r="1.02" transform="translate(-15.15 14.35) rotate(-5.63)"/><circle class="cls-4" cx="97.35" cy="80.84" r="1.02" transform="translate(-7.46 9.94) rotate(-5.63)"/><circle class="cls-4" cx="142.71" cy="159.05" r="1.02" transform="translate(-14.91 14.76) rotate(-5.63)"/><circle class="cls-4" cx="142.97" cy="80.99" r="1.02" transform="translate(-7.25 14.41) rotate(-5.63)"/><circle class="cls-4" cx="97.09" cy="158.89" r="1.02" transform="translate(-15.11 10.29) rotate(-5.63)"/><circle class="cls-4" cx="147.01" cy="83.67" r="1.02" transform="translate(-7.5 14.82) rotate(-5.63)"/><circle class="cls-4" cx="93.06" cy="156.21" r="1.02" transform="translate(-14.87 9.88) rotate(-5.63)"/><circle class="cls-4" cx="97.1" cy="158.89" r="1.02" transform="translate(-15.11 10.29) rotate(-5.63)"/><circle class="cls-4" cx="147.01" cy="83.66" r="1.02" transform="translate(-7.5 14.82) rotate(-5.63)"/><circle class="cls-4" cx="93.06" cy="156.21" r="1.02" transform="translate(-14.87 9.88) rotate(-5.63)"/><circle class="cls-4" cx="93.57" cy="83.27" r="1.02" transform="translate(-7.72 9.58) rotate(-5.63)"/><circle class="cls-4" cx="146.45" cy="156.61" r="1.02" transform="translate(-14.65 15.12) rotate(-5.63)"/><circle class="cls-4" cx="89.8" cy="86.31" r="1.02" transform="translate(-8.03 9.22) rotate(-5.63)"/><circle class="cls-4" cx="150.22" cy="153.57" r="1.02" transform="translate(-14.34 15.47) rotate(-5.63)"/><circle class="cls-4" cx="146.45" cy="156.6" r="1.02" transform="translate(-14.65 15.12) rotate(-5.63)"/><circle class="cls-4" cx="89.8" cy="86.31" r="1.02" transform="translate(-8.03 9.22) rotate(-5.63)"/><circle class="cls-4" cx="150.22" cy="153.56" r="1.02" transform="translate(-14.34 15.47) rotate(-5.63)"/><circle class="cls-4" cx="150.4" cy="86.46" r="1.02"/><circle class="cls-4" cx="89.66" cy="153.42" r="1.02"/><circle class="cls-4" cx="83.69" cy="93.06" r="1.02" transform="translate(-16.55 18.11) rotate(-11.25)"/><circle class="cls-4" cx="156.37" cy="146.82" r="1.02" transform="translate(-25.64 33.33) rotate(-11.25)"/><circle class="cls-4" cx="86.82" cy="89.25" r="1.02" transform="translate(-15.35 18.09) rotate(-10.93)"/><circle class="cls-4" cx="153.2" cy="150.63" r="1.02" transform="translate(-25.79 31.79) rotate(-10.93)"/><circle class="cls-4" cx="75.09" cy="124.13" r="1.02" transform="translate(-11.81 7.96) rotate(-5.63)"/><circle class="cls-4" cx="165.06" cy="115.12" r="1.02" transform="translate(-10.49 16.74) rotate(-5.63)"/><circle class="cls-4" cx="74.87" cy="119.29" r="1.02" transform="translate(-11.34 7.92) rotate(-5.63)"/><circle class="cls-4" cx="165.28" cy="119.95" r="1.02" transform="translate(-10.97 16.79) rotate(-5.63)"/><circle class="cls-4" cx="165.05" cy="115.12" r="1.02" transform="translate(-10.49 16.74) rotate(-5.63)"/><circle class="cls-4" cx="74.86" cy="119.29" r="1.02" transform="matrix(1, -0.1, 0.1, 1, -11.34, 7.92)"/><circle class="cls-4" cx="165.27" cy="119.95" r="1.02" transform="translate(-10.97 16.79) rotate(-5.63)"/><circle class="cls-4" cx="75.15" cy="114.48" r="1.02" transform="translate(-10.86 7.92) rotate(-5.63)"/><circle class="cls-4" cx="164.97" cy="124.77" r="1.02" transform="translate(-11.44 16.78) rotate(-5.63)"/><circle class="cls-4" cx="75.95" cy="109.71" r="1.02" transform="translate(-10.39 7.98) rotate(-5.63)"/><circle class="cls-4" cx="164.16" cy="129.54" r="1.02" transform="translate(-11.91 16.72) rotate(-5.63)"/><circle class="cls-4" cx="164.97" cy="124.77" r="1.02" transform="translate(-11.44 16.78) rotate(-5.63)"/><circle class="cls-4" cx="75.95" cy="109.71" r="1.02" transform="translate(-10.39 7.98) rotate(-5.63)"/><circle class="cls-4" cx="164.16" cy="129.54" r="1.02" transform="translate(-11.91 16.72) rotate(-5.63)"/><circle class="cls-4" cx="77.24" cy="105.15" r="1.02" transform="translate(-9.94 8.08) rotate(-5.63)"/><circle class="cls-4" cx="162.89" cy="134.1" r="1.02" transform="translate(-12.37 16.62) rotate(-5.63)"/><circle class="cls-4" cx="79.04" cy="100.65" r="1.02" transform="translate(-9.49 8.24) rotate(-5.63)"/><circle class="cls-4" cx="161.1" cy="138.6" r="1.02" transform="matrix(1, -0.1, 0.1, 1, -12.81, 16.47)"/><circle class="cls-4" cx="162.89" cy="134.1" r="1.02" transform="translate(-12.36 16.62) rotate(-5.63)"/><circle class="cls-4" cx="79.03" cy="100.65" r="1.02" transform="translate(-9.49 8.24) rotate(-5.63)"/><circle class="cls-4" cx="161.09" cy="138.59" r="1.02" transform="translate(-12.81 16.47) rotate(-5.63)"/><circle class="cls-4" cx="75.82" cy="128.89" r="1.02" transform="translate(-12.27 8.06) rotate(-5.63)"/><circle class="cls-4" cx="164.31" cy="110.35" r="1.02" transform="translate(-10.03 16.65) rotate(-5.63)"/><circle class="cls-4" cx="77.07" cy="133.57" r="1.02" transform="translate(-12.73 8.2) rotate(-5.63)"/><circle class="cls-4" cx="163.07" cy="105.67" r="1.02" transform="matrix(1, -0.1, 0.1, 1, -9.58, 16.5)"/><circle class="cls-4" cx="164.31" cy="110.35" r="1.02" transform="translate(-10.03 16.64) rotate(-5.63)"/><circle class="cls-4" cx="77.06" cy="133.57" r="1.02" transform="translate(-12.73 8.2) rotate(-5.63)"/><circle class="cls-4" cx="163.06" cy="105.68" r="1.02" transform="translate(-9.58 16.5) rotate(-5.63)"/><circle class="cls-4" cx="78.77" cy="137.99" r="1.02" transform="translate(-13.15 8.39) rotate(-5.63)"/><circle class="cls-4" cx="161.38" cy="101.25" r="1.02" transform="translate(-9.15 16.31) rotate(-5.63)"/><circle class="cls-4" cx="80.97" cy="142.3" r="1.02" transform="matrix(1, -0.1, 0.1, 1, -13.56, 8.63)"/><circle class="cls-4" cx="159.18" cy="96.94" r="1.02" transform="translate(-8.74 16.08) rotate(-5.63)"/><circle class="cls-4" cx="161.38" cy="101.26" r="1.02" transform="translate(-9.15 16.31) rotate(-5.63)"/><circle class="cls-4" cx="80.97" cy="142.31" r="1.02" transform="translate(-13.56 8.63) rotate(-5.63)"/><circle class="cls-4" cx="159.18" cy="96.94" r="1.02" transform="translate(-8.74 16.08) rotate(-5.63)"/><circle class="cls-4" cx="81.12" cy="96.69" r="1.02" transform="translate(-9.09 8.42) rotate(-5.63)"/><circle class="cls-4" cx="159.02" cy="142.56" r="1.02" transform="translate(-13.21 16.28) rotate(-5.63)"/><circle class="cls-4" cx="159.01" cy="142.56" r="1.02" transform="translate(-13.21 16.28) rotate(-5.63)"/><circle class="cls-4" cx="83.4" cy="146.08" r="1.02" transform="translate(-13.92 8.88) rotate(-5.63)"/><circle class="cls-4" cx="156.74" cy="93.21" r="1.02" transform="translate(-8.38 15.82) rotate(-5.63)"/><circle class="cls-4" cx="86.44" cy="149.85" r="1.02" transform="translate(-14.28 9.2) rotate(-5.63)"/><circle class="cls-4" cx="153.7" cy="89.44" r="1.02" transform="translate(-8.03 15.5) rotate(-5.63)"/><circle class="cls-4" cx="156.73" cy="93.21" r="1.02" transform="translate(-8.39 15.82) rotate(-5.63)"/><circle class="cls-4" cx="86.44" cy="149.86" r="1.02" transform="translate(-14.28 9.2) rotate(-5.63)"/><circle class="cls-4" cx="153.69" cy="89.44" r="1.02" transform="translate(-8.03 15.5) rotate(-5.63)"/><circle class="cls-4" cx="117.9" cy="81.24" r="0.87" transform="translate(-4.17 6.42) rotate(-3.06)"/><circle class="cls-4" cx="122.15" cy="158.42" r="0.87" transform="translate(-8.29 6.75) rotate(-3.06)"/><circle class="cls-4" cx="122.04" cy="81.24" r="0.87" transform="translate(-4.17 6.64) rotate(-3.06)"/><circle class="cls-4" cx="118.01" cy="158.43" r="0.87" transform="translate(-8.3 6.53) rotate(-3.06)"/><circle class="cls-4" cx="122.15" cy="158.42" r="0.87" transform="translate(-8.29 6.75) rotate(-3.06)"/><circle class="cls-4" cx="122.04" cy="81.23" r="0.87" transform="translate(-4.17 6.64) rotate(-3.06)"/><circle class="cls-4" cx="118.01" cy="158.42" r="0.87" transform="translate(-8.3 6.53) rotate(-3.06)"/><circle class="cls-4" cx="126.14" cy="81.66" r="0.87" transform="translate(-4.18 6.86) rotate(-3.06)"/><circle class="cls-4" cx="113.92" cy="157.98" r="0.87" transform="translate(-8.28 6.31) rotate(-3.06)"/><circle class="cls-4" cx="130.18" cy="82.53" r="0.87" transform="translate(-4.22 7.07) rotate(-3.06)"/><circle class="cls-4" cx="109.87" cy="157.11" r="0.87" transform="translate(-8.24 6.09) rotate(-3.06)"/><circle class="cls-4" cx="113.92" cy="157.98" r="0.87" transform="translate(-8.28 6.31) rotate(-3.06)"/><circle class="cls-4" cx="130.18" cy="82.52" r="0.87" transform="translate(-4.22 7.07) rotate(-3.06)"/><circle class="cls-4" cx="109.87" cy="157.1" r="0.87" transform="translate(-8.24 6.09) rotate(-3.06)"/><circle class="cls-4" cx="134.03" cy="83.8" r="0.87" transform="translate(-4.29 7.28) rotate(-3.06)"/><circle class="cls-4" cx="106.02" cy="155.85" r="0.87" transform="translate(-8.18 5.89) rotate(-3.06)"/><circle class="cls-4" cx="137.8" cy="85.51" r="0.87" transform="translate(-4.37 7.48) rotate(-3.06)"/><circle class="cls-4" cx="102.25" cy="154.14" r="0.87" transform="translate(-8.09 5.68) rotate(-3.06)"/><circle class="cls-4" cx="106.03" cy="155.84" r="0.87" transform="translate(-8.17 5.89) rotate(-3.06)"/><circle class="cls-4" cx="137.8" cy="85.5" r="0.87" transform="translate(-4.37 7.48) rotate(-3.06)"/><circle class="cls-4" cx="102.25" cy="154.14" r="0.87" transform="translate(-8.09 5.68) rotate(-3.06)"/><circle class="cls-4" cx="113.8" cy="81.68" r="0.87" transform="translate(-4.2 6.2) rotate(-3.06)"/><circle class="cls-4" cx="126.25" cy="157.97" r="0.87" transform="translate(-8.26 6.97) rotate(-3.06)"/><circle class="cls-4" cx="109.76" cy="82.57" r="0.87" transform="matrix(1, -0.05, 0.05, 1, -4.25, 5.98)"/><circle class="cls-4" cx="130.29" cy="157.09" r="0.87" transform="translate(-8.21 7.19) rotate(-3.06)"/><circle class="cls-4" cx="126.25" cy="157.97" r="0.87" transform="translate(-8.26 6.97) rotate(-3.06)"/><circle class="cls-4" cx="109.76" cy="82.56" r="0.87" transform="translate(-4.25 5.98) rotate(-3.06)"/><circle class="cls-4" cx="130.29" cy="157.08" r="0.87" transform="translate(-8.21 7.19) rotate(-3.06)"/><circle class="cls-4" cx="105.92" cy="83.85" r="0.87" transform="translate(-4.33 5.78) rotate(-3.06)"/><circle class="cls-4" cx="134.14" cy="155.82" r="0.87" transform="translate(-8.13 7.39) rotate(-3.06)"/><circle class="cls-4" cx="102.15" cy="85.57" r="0.87" transform="translate(-4.43 5.58) rotate(-3.06)"/><circle class="cls-4" cx="137.9" cy="154.1" r="0.87" transform="translate(-8.04 7.59) rotate(-3.06)"/><circle class="cls-4" cx="134.13" cy="155.81" r="0.87" transform="translate(-8.13 7.39) rotate(-3.06)"/><circle class="cls-4" cx="102.15" cy="85.56" r="0.87" transform="translate(-4.43 5.58) rotate(-3.06)"/><circle class="cls-4" cx="137.9" cy="154.1" r="0.87" transform="translate(-8.04 7.59) rotate(-3.06)"/><circle class="cls-4" cx="141.11" cy="87.44" r="0.87" transform="translate(-4.47 7.66) rotate(-3.06)"/><circle class="cls-4" cx="98.94" cy="152.22" r="0.87" transform="translate(-7.99 5.5) rotate(-3.06)"/><circle class="cls-4" cx="144.45" cy="89.88" r="0.87" transform="translate(-4.6 7.85) rotate(-3.06)"/><circle class="cls-4" cx="95.6" cy="149.78" r="0.87" transform="translate(-7.87 5.32) rotate(-3.06)"/><circle class="cls-4" cx="98.95" cy="152.21" r="0.87" transform="translate(-7.99 5.5) rotate(-3.06)"/><circle class="cls-4" cx="144.45" cy="89.87" r="0.87" transform="translate(-4.6 7.85) rotate(-3.06)"/><circle class="cls-4" cx="95.6" cy="149.77" r="0.87" transform="translate(-7.87 5.32) rotate(-3.06)"/><circle class="cls-4" cx="98.83" cy="87.5" r="0.87" transform="translate(-4.53 5.41) rotate(-3.06)"/><circle class="cls-4" cx="141.19" cy="152.16" r="0.87" transform="translate(-7.93 7.76) rotate(-3.06)"/><circle class="cls-4" cx="95.49" cy="89.95" r="0.87" transform="translate(-4.67 5.23) rotate(-3.06)"/><circle class="cls-4" cx="144.52" cy="149.7" r="0.87" transform="translate(-7.79 7.94) rotate(-3.06)"/><circle class="cls-4" cx="141.18" cy="152.15" r="0.87" transform="translate(-7.93 7.76) rotate(-3.06)"/><circle class="cls-4" cx="95.49" cy="89.95" r="0.87" transform="translate(-4.67 5.23) rotate(-3.06)"/><circle class="cls-4" cx="144.52" cy="149.7" r="0.87" transform="translate(-7.79 7.94) rotate(-3.06)"/><circle class="cls-4" cx="147.25" cy="92.4" r="0.87" transform="translate(48.48 235.44) rotate(-87.48)"/><circle class="cls-4" cx="92.8" cy="147.26" r="0.87" transform="translate(-58.39 233.51) rotate(-87.48)"/><circle class="cls-4" cx="90.01" cy="95.48" r="0.87" transform="translate(-13.38 14.69) rotate(-8.68)"/><circle class="cls-4" cx="150.04" cy="144.17" r="0.87" transform="translate(-20.05 24.31) rotate(-8.68)"/><circle class="cls-4" cx="92.84" cy="92.35" r="0.87" transform="translate(-12.45 14.49) rotate(-8.37)"/><circle class="cls-4" cx="147.18" cy="147.31" r="0.87" transform="matrix(0.99, -0.15, 0.15, 0.99, -19.87, 22.99)"/><circle class="cls-4" cx="81.48" cy="121.68" r="0.87" transform="translate(-6.38 4.53) rotate(-3.06)"/><circle class="cls-4" cx="158.66" cy="117.43" r="0.87" transform="translate(-6.05 8.64) rotate(-3.06)"/><circle class="cls-4" cx="81.48" cy="117.55" r="0.87" transform="translate(-6.16 4.52) rotate(-3.06)"/><circle class="cls-4" cx="158.67" cy="121.57" r="0.87" transform="translate(-6.27 8.65) rotate(-3.06)"/><circle class="cls-4" cx="158.66" cy="117.43" r="0.87" transform="translate(-6.05 8.64) rotate(-3.06)"/><circle class="cls-4" cx="81.47" cy="117.55" r="0.87" transform="translate(-6.16 4.52) rotate(-3.06)"/><circle class="cls-4" cx="158.66" cy="121.57" r="0.87" transform="translate(-6.27 8.65) rotate(-3.06)"/><circle class="cls-4" cx="81.9" cy="113.45" r="0.87" transform="matrix(1, -0.05, 0.05, 1, -5.94, 4.54)"/><circle class="cls-4" cx="158.22" cy="125.67" r="0.87" transform="translate(-6.49 8.63) rotate(-3.06)"/><circle class="cls-4" cx="82.77" cy="109.4" r="0.87" transform="translate(-5.73 4.58) rotate(-3.06)"/><circle class="cls-4" cx="157.35" cy="129.72" r="0.87" transform="translate(-6.71 8.59) rotate(-3.06)"/><circle class="cls-4" cx="158.22" cy="125.67" r="0.87" transform="translate(-6.49 8.63) rotate(-3.06)"/><circle class="cls-4" cx="82.77" cy="109.4" r="0.87" transform="translate(-5.73 4.58) rotate(-3.06)"/><circle class="cls-4" cx="157.34" cy="129.71" r="0.87" transform="translate(-6.71 8.59) rotate(-3.06)"/><circle class="cls-4" cx="84.05" cy="105.56" r="0.87" transform="translate(-5.52 4.64) rotate(-3.06)"/><circle class="cls-4" cx="156.09" cy="133.56" r="0.87" transform="translate(-6.91 8.53) rotate(-3.06)"/><circle class="cls-4" cx="85.75" cy="101.78" r="0.87" transform="translate(-5.32 4.73) rotate(-3.06)"/><circle class="cls-4" cx="154.39" cy="137.33" r="0.87" transform="translate(-7.12 8.44) rotate(-3.06)"/><circle class="cls-4" cx="156.09" cy="133.56" r="0.87" transform="translate(-6.91 8.53) rotate(-3.06)"/><circle class="cls-4" cx="85.75" cy="101.78" r="0.87" transform="translate(-5.32 4.73) rotate(-3.06)"/><circle class="cls-4" cx="154.38" cy="137.33" r="0.87" transform="translate(-7.12 8.44) rotate(-3.06)"/><circle class="cls-4" cx="81.92" cy="125.78" r="0.87" transform="translate(-6.6 4.56) rotate(-3.06)"/><circle class="cls-4" cx="158.21" cy="113.33" r="0.87" transform="translate(-5.83 8.61) rotate(-3.06)"/><circle class="cls-4" cx="82.81" cy="129.82" r="0.87" transform="translate(-6.82 4.61) rotate(-3.06)"/><circle class="cls-4" cx="157.33" cy="109.29" r="0.87" transform="translate(-5.61 8.56) rotate(-3.06)"/><circle class="cls-4" cx="158.21" cy="113.33" r="0.87" transform="translate(-5.83 8.61) rotate(-3.06)"/><circle class="cls-4" cx="82.8" cy="129.82" r="0.87" transform="translate(-6.82 4.61) rotate(-3.06)"/><circle class="cls-4" cx="157.32" cy="109.29" r="0.87" transform="translate(-5.61 8.56) rotate(-3.06)"/><circle class="cls-4" cx="84.09" cy="133.66" r="0.87" transform="translate(-7.02 4.68) rotate(-3.06)"/><circle class="cls-4" cx="156.06" cy="105.45" r="0.87" transform="translate(-5.41 8.49) rotate(-3.06)"/><circle class="cls-4" cx="85.81" cy="137.43" r="0.87" transform="matrix(1, -0.05, 0.05, 1, -7.22, 4.78)"/><circle class="cls-4" cx="154.34" cy="101.68" r="0.87" transform="matrix(1, -0.05, 0.05, 1, -5.21, 8.39)"/><circle class="cls-4" cx="156.05" cy="105.45" r="0.87" transform="translate(-5.41 8.49) rotate(-3.06)"/><circle class="cls-4" cx="85.81" cy="137.43" r="0.87" transform="translate(-7.22 4.78) rotate(-3.06)"/><circle class="cls-4" cx="154.34" cy="101.68" r="0.87" transform="translate(-5.21 8.39) rotate(-3.06)"/><circle class="cls-4" cx="87.68" cy="98.48" r="0.87" transform="translate(-5.14 4.83) rotate(-3.06)"/><circle class="cls-4" cx="152.46" cy="140.64" r="0.87" transform="translate(-7.3 8.35) rotate(-3.06)"/><circle class="cls-4" cx="152.45" cy="140.64" r="0.87" transform="translate(-7.3 8.35) rotate(-3.06)"/><circle class="cls-4" cx="87.74" cy="140.75" r="0.87" transform="translate(-7.39 4.89) rotate(-3.06)"/><circle class="cls-4" cx="152.4" cy="98.4" r="0.87" transform="translate(-5.04 8.28) rotate(-3.06)"/><circle class="cls-4" cx="90.19" cy="144.09" r="0.87" transform="translate(-7.57 5.02) rotate(-3.06)"/><circle class="cls-4" cx="149.94" cy="95.06" r="0.87" transform="translate(-4.86 8.15) rotate(-3.06)"/><circle class="cls-4" cx="152.39" cy="98.4" r="0.87" transform="translate(-5.04 8.28) rotate(-3.06)"/><circle class="cls-4" cx="90.19" cy="144.09" r="0.87" transform="translate(-7.57 5.02) rotate(-3.06)"/><circle class="cls-4" cx="149.94" cy="95.07" r="0.87" transform="translate(-4.86 8.15) rotate(-3.06)"/></g><circle class="cls-5" cx="120" cy="120" r="85"/><circle class="cls-6" cx="120" cy="120" r="54.15"/><circle class="cls-7" cx="120" cy="120" r="49.74"/><g id="earth"><g id="green"><path class="cls-8" d="M87.88,107.86a8.93,8.93,0,0,0-1-.09h-.9l-.83.08-.54.09c-3.41.71-6.25,3.1-6.91,5.82,2.67-6.38,10.22-5.69,10.29-5.68l.19,0a4.66,4.66,0,0,1,1.19.41,3.41,3.41,0,0,1,.57.36l.24.2.1.11a2.11,2.11,0,0,1,.39.58c1,2.28-3.52,4.17-6.3,3.22-2.12-.72-2.15-2.67-.06-3.66a5.81,5.81,0,0,0-.88.49c-2.86,2-1.63,5.27,2.25,6,4.21.77,9.76-1.86,7.5-5.38l-.14-.18-.17-.18a5.79,5.79,0,0,0-1.37-1l-.91-.44a9.68,9.68,0,0,0-1.46-.5,8.35,8.35,0,0,0-1.21-.24"/><path class="cls-9" d="M94.94,112.23l.12.2c1.25,2.6-.85,4.42-1.8,5.08-5.4,3.71-15,1.61-13.86-4.34a5.65,5.65,0,0,0,2.07,6.91c5.46,4.21,15.79,1.62,15.14-3.8l-.17-.78a11,11,0,0,0-.63-1.8,10.07,10.07,0,0,0-1-1.63l-.16-.22Zm-.25-.38h0l0,0Z"/><path class="cls-10" d="M96.25,120.51c-2.82,5.35-16.45,6.28-19.06-2.23,0,.3.09.58.14.82,1.89,8.55,14.91,9.11,18,4.22.15-.24.32-.57.45-.83a11.43,11.43,0,0,0,.8-2.35c.07-.34.13-.79.17-1.13a4,4,0,0,1-.46,1.5"/><path class="cls-4" d="M78.46,123.8c2.6,4.36,6.66,4.88,9.79,4.36l.39-.08.77-.2.79-.27a6.34,6.34,0,0,0,.81-.35c.28-.14.56-.29.83-.46a9.31,9.31,0,0,0,.89-.61l0,0c-3.62,2.72-10.7,2.51-14.19-2.22"/></g></g><path class="cls-9" d="M104,110.11a1.1,1.1,0,1,1,0,2.2,1.11,1.11,0,0,1-1.08-1.09,1.06,1.06,0,0,1,.32-.78A1,1,0,0,1,104,110.11Zm-.65,4.25h1.33v10.33h-1.33Z"/><path class="cls-9" d="M106.64,124.69l2-14h.23l5.67,11.45,5.62-11.45h.23l2,14H121l-1.38-10-4.94,10h-.35l-5-10.06L108,124.69Z"/><path class="cls-9" d="M133.93,114.36V124.7h-1.27v-1.94a5.43,5.43,0,0,1-1.81,1.45,5.11,5.11,0,0,1-5.81-1,5,5,0,0,1-1.5-3.69,5.16,5.16,0,0,1,5.16-5.14,4.77,4.77,0,0,1,2.22.52,5.1,5.1,0,0,1,1.75,1.55v-2.07Zm-5.13,1.22a4,4,0,0,0-2,.52,4,4,0,0,0-1.44,5.43,3.82,3.82,0,0,0,1.45,1.48,3.87,3.87,0,0,0,2,.53,4,4,0,0,0,2-.53,3.73,3.73,0,0,0,1.46-1.41,4.06,4.06,0,0,0,.5-2,3.9,3.9,0,0,0-1.14-2.85A3.84,3.84,0,0,0,128.8,115.58Z"/><path class="cls-9" d="M137.7,110.53H139v3.83h1.9v1.15H139v9.17H137.7v-9.17h-1.94v-1.15h1.94Z"/><path class="cls-9" d="M142.88,114.36h1.36v1.77a4.67,4.67,0,0,1,1.28-1.34,2.31,2.31,0,0,1,2.58-.09l-.69,1.12a2.12,2.12,0,0,0-.71-.18,2,2,0,0,0-1.28.55,3.49,3.49,0,0,0-.94,1.69,14,14,0,0,0-.24,3.32v3.49h-1.36Z"/><path class="cls-9" d="M150.83,110.11a1.11,1.11,0,0,1,1.1,1.11,1.1,1.1,0,0,1-2.19,0,1.07,1.07,0,0,1,.33-.78A1,1,0,0,1,150.83,110.11Zm-.66,4.25h1.33v10.33h-1.33Z"/><path class="cls-9" d="M154,114.36h1.59l2.75,3.78,2.71-3.78h1.6l-3.51,4.88,4,5.45h-1.62l-3.15-4.34-3.12,4.34H153.6l3.92-5.44Z"/></g></g></g></g></svg>