<?xml version="1.0" encoding="UTF-8"?>
<svg id="_Шар_2" data-name="Шар 2" xmlns="http://www.w3.org/2000/svg" viewBox="0 0 250 250">
  <defs>
    <style>
      .cls-1 {
        fill: #0085b4;
      }

      .cls-2 {
        fill: none;
      }
    </style>
  </defs>
  <g id="Blue_Square" data-name="Blue Square">
    <g id="Whirpool_-_Refrigeration" data-name="Whirpool - Refrigeration">
      <rect id="Frame" class="cls-2" y="0" width="250" height="250"/>
      <g>
        <path class="cls-1" d="m173,32.77c1.56,0,2.83,1.27,2.83,2.83v178.79c0,1.56-1.27,2.83-2.83,2.83h-96c-1.56,0-2.83-1.27-2.83-2.83V35.6c0-1.56,1.27-2.83,2.83-2.83h96m0-7h-96c-5.43,0-9.83,4.4-9.83,9.83v178.79c0,5.43,4.4,9.83,9.83,9.83h96c5.43,0,9.83-4.4,9.83-9.83V35.6c0-5.43-4.4-9.83-9.83-9.83h0Z"/>
        <path class="cls-1" d="m178.83,89.4h-106.89c-1.38,0-2.5-1.12-2.5-2.5s1.12-2.5,2.5-2.5h106.89c1.38,0,2.5,1.12,2.5,2.5s-1.12,2.5-2.5,2.5Z"/>
        <path class="cls-1" d="m178.83,99.06h-106.89c-1.38,0-2.5-1.12-2.5-2.5s1.12-2.5,2.5-2.5h106.89c1.38,0,2.5,1.12,2.5,2.5s-1.12,2.5-2.5,2.5Z"/>
        <path class="cls-1" d="m96.17,71.97c-1.38,0-2.5-1.12-2.5-2.5v-21.57c0-1.38,1.12-2.5,2.5-2.5s2.5,1.12,2.5,2.5v21.57c0,1.38-1.12,2.5-2.5,2.5Z"/>
        <path class="cls-1" d="m96.17,164.27c-1.38,0-2.5-1.12-2.5-2.5v-30.22c0-1.38,1.12-2.5,2.5-2.5s2.5,1.12,2.5,2.5v30.22c0,1.38-1.12,2.5-2.5,2.5Z"/>
      </g>
    </g>
  </g>
</svg>