<svg xmlns="http://www.w3.org/2000/svg" viewBox="0 0 250 250"><defs><style>.cls-1{fill:#0085b4;}.cls-2{fill:none;}</style></defs><g id="Шар_2" data-name="Шар 2"><g id="Blue"><g id="Sensor_-_Neo-1DP" data-name="Sensor - Neo-1DP"><path class="cls-1" d="M176.36,64.63a8.41,8.41,0,0,1,8.4,8.4V176.16a8.41,8.41,0,0,1-8.4,8.4H73.23a8.41,8.41,0,0,1-8.4-8.4V73a8.4,8.4,0,0,1,8.4-8.4H176.36m0-6H73.23A14.39,14.39,0,0,0,58.83,73V176.16a14.4,14.4,0,0,0,14.4,14.4H176.36a14.4,14.4,0,0,0,14.4-14.4V73a14.4,14.4,0,0,0-14.4-14.4Z"/><g id="temp"><path class="cls-1" d="M105.12,135.41V90a12.73,12.73,0,0,0-25.46,0v45.39a21.1,21.1,0,1,0,25.46,0ZM92.39,169.27a17.12,17.12,0,0,1-9.84-31.13,1.33,1.33,0,0,0,.56-1.08V90.64a9.28,9.28,0,0,1,18.56,0v46.42a1.33,1.33,0,0,0,.56,1.08,17.12,17.12,0,0,1-9.84,31.13Z"/><path class="cls-1" d="M87.79,123.34v18.42a11.22,11.22,0,1,0,9.2,0V123.34Z"/></g><path class="cls-1" d="M164.53,106.23c2.05-3.2,4.14-5.85,4.16-5.88l.6-.76.6.76s2.11,2.68,4.16,5.88c2.82,4.4,4.24,7.72,4.24,9.89,0,5.28-4,9.57-9,9.57s-9-4.29-9-9.57C160.29,114,161.72,110.63,164.53,106.23Z"/><path class="cls-1" d="M142.52,138.57C146.22,132.79,150,128,150,128l1.08-1.37,1.08,1.37s3.79,4.81,7.49,10.59c5.06,7.9,7.63,13.89,7.63,17.79,0,9.5-7.27,17.23-16.2,17.23s-16.2-7.73-16.2-17.23C134.89,152.46,137.46,146.47,142.52,138.57Z"/><path class="cls-1" d="M142.66,82.27c1.54-2.4,3.11-4.39,3.12-4.41l.45-.57.45.57s1.58,2,3.13,4.41c2.1,3.3,3.17,5.79,3.17,7.42a6.76,6.76,0,1,1-13.5,0C139.48,88.06,140.55,85.57,142.66,82.27Z"/><path class="cls-1" d="M169.89,52H155.21a1.7,1.7,0,0,0-1.7,1.7v2a1.7,1.7,0,0,0,1.7,1.7h14.68a1.7,1.7,0,0,0,1.7-1.7v-2a1.7,1.7,0,0,0-1.7-1.7Z"/><path class="cls-1" d="M190.86,212.11H58.72a21.47,21.47,0,0,1-21.44-21.45V62.28a3,3,0,0,1,6,0V190.66a15.46,15.46,0,0,0,15.44,15.45H190.86a15.47,15.47,0,0,0,15.45-15.45V58.53a15.47,15.47,0,0,0-15.45-15.45H172a6.21,6.21,0,0,0-6.2,6.2v3.38a3,3,0,0,1-6,0V49.28A12.21,12.21,0,0,1,172,37.08h18.88a21.48,21.48,0,0,1,21.45,21.45V190.66A21.48,21.48,0,0,1,190.86,212.11Z"/><rect id="Frame" class="cls-2" width="250" height="250"/></g></g></g></svg>