<svg xmlns="http://www.w3.org/2000/svg" viewBox="0 0 250 250"><defs><style>.cls-1{fill:#0085b4;}.cls-2{fill:none;}</style></defs><g id="Шар_2" data-name="Шар 2"><g id="Blue"><g id="Series_1_Gateway" data-name="Series 1 Gateway"><path class="cls-1" d="M124.8,41.16a85,85,0,1,0,85,85A85,85,0,0,0,124.8,41.16Zm0,163.17A78.17,78.17,0,1,1,203,126.16,78.16,78.16,0,0,1,124.8,204.33Z"/><path class="cls-1" d="M172.41,94.43a7.92,7.92,0,0,1-5.3-2L152.18,101a17.81,17.81,0,0,1-4.7,20.37l6.44,9.27a14.22,14.22,0,1,1-3.58,2.48l-6.45-9.3a17.76,17.76,0,0,1-25.72-18.72l-14.8-4.45a8.81,8.81,0,1,1,1.27-4.54c0,.12,0,.25,0,.37l14.75,4.44A17.81,17.81,0,0,1,150,97.26l14.81-8.54a7.95,7.95,0,1,1,7.62,5.71Z"/><path class="cls-1" d="M71,169.23a4,4,0,0,1-1.6-3.21,3.92,3.92,0,0,1,4-3.93,4.11,4.11,0,0,1,2.44.77,16.32,16.32,0,0,0,9.91,3.49c3.49,0,5.59-1.39,5.59-3.66v-.11c0-2.16-1.33-3.26-7.81-4.92-7.8-2-12.84-4.16-12.84-11.85v-.11c0-7,5.65-11.68,13.56-11.68a22.5,22.5,0,0,1,12.29,3.43,3.94,3.94,0,0,1-2.1,7.31,4.06,4.06,0,0,1-2.16-.61,16.12,16.12,0,0,0-8.14-2.6c-3.26,0-5,1.49-5,3.37V145c0,2.55,1.66,3.38,8.36,5.1,7.86,2.05,12.29,4.87,12.29,11.62v.11c0,7.7-5.87,12-14.23,12A25,25,0,0,1,71,169.23Z"/><path class="cls-1" d="M109.66,142.65l-3,.78a7,7,0,0,1-1.49.22,3.74,3.74,0,0,1-3.71-3.65,3.78,3.78,0,0,1,2.82-3.66l5.49-1.6a15.31,15.31,0,0,1,4-.72h.11a4.2,4.2,0,0,1,4.21,4.21v31.22a4.21,4.21,0,0,1-8.42,0Z"/><rect id="Frame" class="cls-2" width="250" height="250"/></g></g></g></svg>