<?xml version="1.0" encoding="UTF-8"?>
<svg id="_Шар_2" data-name="Шар 2" xmlns="http://www.w3.org/2000/svg" viewBox="0 0 250 250">
  <defs>
    <style>
      .cls-1 {
        fill: #0085b4;
      }

      .cls-2 {
        fill: none;
      }
    </style>
  </defs>
  <g id="Blue_Square" data-name="Blue Square">
    <g id="Gateway_-_Whirpool" data-name="Gateway - Whirpool">
      <path class="cls-1" d="m189.94,41.16H59.94c-11.05,0-20,8.95-20,20v130c0,11.05,8.95,20,20,20h130c11.05,0,20-8.95,20-20V61.16c0-11.05-8.95-20-20-20Zm13.1,148.45c0,8.09-6.56,14.65-14.65,14.65H61.49c-8.09,0-14.65-6.56-14.65-14.65V62.71c0-8.09,6.56-14.65,14.65-14.65h126.91c8.09,0,14.65,6.56,14.65,14.65v126.91Z"/>
      <path class="cls-1" d="m184.09,73.94c-2.04,0-3.89-.77-5.3-2.04l-14.94,8.62c.91,2.14,1.41,4.49,1.41,6.96,0,5.35-2.37,10.14-6.1,13.41l6.43,9.27c1.88-.92,3.98-1.44,6.21-1.44,7.85,0,14.22,6.37,14.22,14.22s-6.37,14.22-14.22,14.22-14.22-6.37-14.22-14.22c0-4.06,1.71-7.71,4.43-10.3l-6.45-9.3c-2.44,1.25-5.2,1.97-8.13,1.97-9.85,0-17.83-7.98-17.83-17.83,0-.98.1-1.93.25-2.86l-14.8-4.45c-1.54,2.56-4.35,4.28-7.56,4.28-4.87,0-8.83-3.95-8.83-8.83s3.95-8.83,8.83-8.83,8.83,3.95,8.83,8.83c0,.13-.01.25-.02.38l14.75,4.44c2.73-6.35,9.04-10.79,16.38-10.79,5.82,0,10.97,2.8,14.23,7.12l14.8-8.55c-.21-.71-.32-1.46-.32-2.23,0-4.39,3.56-7.95,7.95-7.95s7.95,3.56,7.95,7.95-3.56,7.95-7.95,7.95Z"/>
      <rect id="Frame" class="cls-2" width="250" height="250"/>
      <g>
        <path class="cls-1" d="m109.74,127.03c.61-.39,1.22-.77,1.82-1.15-.6.37-1.21.75-1.82,1.15Z"/>
        <path class="cls-1" d="m136.56,117.64c.12.04.23.09.34.14-.11-.05-.22-.1-.34-.14Z"/>
        <path class="cls-1" d="m135.93,117.44c.13.03.25.07.37.11-.12-.04-.24-.08-.37-.11Z"/>
        <path class="cls-1" d="m116.31,119.88s.07-.04.11-.06c-.04.02-.07.04-.11.06Z"/>
        <path class="cls-1" d="m135.24,117.3c.13.02.26.05.39.08-.13-.03-.26-.05-.39-.08Z"/>
        <path class="cls-1" d="m132.17,113.9c.13-.03.25-.05.37-.07-.12.02-.25.04-.37.07Z"/>
        <path class="cls-1" d="m134.5,117.21c.14.01.28.03.41.04-.14-.02-.27-.03-.41-.04Z"/>
        <path class="cls-1" d="m118.29,118.89c.17-.08.34-.16.51-.25-.17.08-.34.16-.51.25Z"/>
        <path class="cls-1" d="m133.72,117.18c.15,0,.29,0,.43.01-.14,0-.29-.01-.43-.01Z"/>
        <path class="cls-1" d="m138.16,118.56c.15.13.29.27.42.42-.13-.15-.27-.29-.42-.42Z"/>
        <path class="cls-1" d="m105.48,129.89c.63-.44,1.27-.88,1.89-1.3-.63.42-1.26.85-1.89,1.3Z"/>
        <path class="cls-1" d="m133.75,113.62c.12-.02.23-.04.35-.05-.11.02-.23.03-.35.05Z"/>
        <path class="cls-1" d="m107.86,128.27c.59-.39,1.17-.78,1.75-1.15-.58.37-1.16.76-1.75,1.15Z"/>
        <path class="cls-1" d="m60.52,188.11c-.06-.05-.13-.11-.19-.16.06.06.13.11.19.16Z"/>
        <path class="cls-1" d="m120.46,117.87c.1-.04.2-.09.3-.14-.1.04-.2.09-.3.14Z"/>
        <path class="cls-1" d="m137.68,118.19c.11.08.22.16.32.24-.11-.08-.21-.17-.32-.24Z"/>
        <path class="cls-1" d="m137.15,117.89c.11.06.22.12.33.19-.11-.06-.21-.13-.33-.19Z"/>
        <path class="cls-1" d="m113.76,121.24c.18-.1.35-.19.53-.29-.18.09-.35.19-.53.29Z"/>
        <path class="cls-1" d="m124.56,116.16c.14-.05.29-.11.43-.16-.14.05-.29.11-.43.16Z"/>
        <path class="cls-1" d="m126.77,115.37c.06-.02.12-.04.18-.06-.06.02-.12.04-.18.06Z"/>
        <path class="cls-1" d="m121.54,120.5c.52-.24,1.04-.46,1.55-.67-.51.21-1.02.44-1.55.67Z"/>
        <path class="cls-1" d="m123.47,119.67c.43-.17.85-.34,1.26-.5-.41.16-.83.32-1.26.5Z"/>
        <path class="cls-1" d="m125.04,119.06c.49-.18.96-.35,1.43-.5-.47.15-.95.32-1.43.5Z"/>
        <path class="cls-1" d="m119.88,121.28c.46-.22.92-.44,1.37-.65-.45.21-.91.42-1.37.65Z"/>
        <path class="cls-1" d="m128.5,114.82c.14-.04.29-.09.43-.13-.14.04-.29.08-.43.13Z"/>
        <path class="cls-1" d="m116.05,123.26c.5-.27.99-.54,1.48-.8-.49.26-.98.52-1.48.8Z"/>
        <path class="cls-1" d="m130.4,114.29c.06-.02.12-.03.19-.05-.06.02-.12.03-.19.05Z"/>
        <path class="cls-1" d="m126.8,118.45c.39-.13.78-.24,1.15-.35-.38.11-.76.22-1.15.35Z"/>
        <path class="cls-1" d="m122.65,116.92c.14-.06.27-.11.41-.17-.14.06-.27.11-.41.17Z"/>
        <path class="cls-1" d="m131.15,117.38c.4-.06.79-.11,1.16-.14-.38.03-.76.08-1.16.14Z"/>
        <path class="cls-1" d="m117.81,122.32c.56-.29,1.11-.57,1.65-.83-.54.27-1.09.54-1.65.83Z"/>
        <path class="cls-1" d="m112.04,125.59c.54-.33,1.07-.65,1.6-.96-.53.31-1.06.63-1.6.96Z"/>
        <path class="cls-1" d="m113.86,124.5c.59-.34,1.17-.67,1.74-.99-.58.32-1.15.65-1.74.99Z"/>
        <path class="cls-1" d="m132.52,117.23c.32-.02.62-.04.92-.04-.3,0-.61.02-.92.04Z"/>
        <path class="cls-1" d="m128.25,118.02c.44-.12.88-.23,1.3-.33-.42.1-.86.2-1.3.33Z"/>
        <path class="cls-1" d="m129.83,117.63c.36-.08.7-.14,1.04-.2-.34.06-.69.12-1.04.2Z"/>
        <path class="cls-1" d="m65.9,190c-.07,0-.14-.01-.22-.02.07,0,.14.02.22.02Z"/>
        <path class="cls-1" d="m135.51,113.42c.08,0,.15,0,.23-.01-.08,0-.15,0-.23.01Z"/>
        <path class="cls-1" d="m64.89,189.89c-.11-.02-.21-.03-.32-.05.11.02.21.04.32.05Z"/>
        <path class="cls-1" d="m67.03,190.04c.05,0,.11,0,.16,0-.07,0-.15,0-.22,0,.02,0,.04,0,.06,0Z"/>
        <path class="cls-1" d="m65.53,184.16c-.06-.04-.12-.09-.17-.13.06.05.12.09.17.13Z"/>
        <path class="cls-1" d="m142.82,114.75c.09.06.18.12.27.18-.09-.06-.18-.12-.27-.18Z"/>
        <path class="cls-1" d="m137.96,113.39c.13,0,.26.01.39.02-.13-.01-.26-.02-.39-.02Z"/>
        <path class="cls-1" d="m71.88,183.65c-.74.11-1.44.17-2.07.17-1.81,0-3.1-.43-3.85-1.28-1.7-1.95-.77-6.52,2.46-12.38l3.46,13.5Z"/>
        <path class="cls-1" d="m139.11,113.49c.09.01.19.02.28.03-.09-.01-.18-.02-.28-.03Z"/>
        <path class="cls-1" d="m143.54,115.27c.07.06.14.11.21.17-.07-.06-.14-.12-.21-.17Z"/>
        <path class="cls-1" d="m141.23,113.98c.11.04.21.08.31.12-.1-.04-.21-.08-.31-.12Z"/>
        <path class="cls-1" d="m140.34,113.72c.08.02.16.05.24.07-.08-.02-.16-.05-.24-.07Z"/>
        <path class="cls-1" d="m68.62,189.97c-.11,0-.22.01-.33.02.11,0,.22-.01.33-.02Z"/>
        <path class="cls-1" d="m70.13,189.81c-.05,0-.1.02-.16.02.05,0,.1-.02.16-.02Z"/>
        <path class="cls-1" d="m71.8,189.53c-.13.03-.26.05-.39.07.13-.02.26-.05.39-.07Z"/>
        <path class="cls-1" d="m63.91,189.71c-.1-.02-.2-.04-.3-.07.1.03.2.05.3.07Z"/>
        <path class="cls-1" d="m72.25,185.12c-.43.07-.85.12-1.25.15.4-.03.82-.08,1.25-.15Z"/>
        <path class="cls-1" d="m111.64,122.43c.15-.09.31-.17.46-.26-.15.09-.31.17-.46.26Z"/>
        <path class="cls-1" d="m137.06,113.36c-.06,0-.13,0-.2,0,.13,0,.26,0,.39,0-.07,0-.13,0-.2,0Z"/>
        <path class="cls-1" d="m61.94,189.03c-.07-.03-.14-.07-.21-.11.07.04.14.08.21.11Z"/>
        <path class="cls-1" d="m70.61,185.28c-.26.02-.53.03-.78.03.25,0,.52-.02.78-.03Z"/>
        <path class="cls-1" d="m61.21,188.62c-.08-.05-.16-.1-.23-.16.08.05.15.11.23.16Z"/>
        <path class="cls-1" d="m106.84,125.34c.19-.12.39-.25.58-.37-.19.12-.39.24-.58.37Z"/>
        <path class="cls-1" d="m142.06,114.33c.1.05.21.1.31.15-.1-.05-.2-.11-.31-.15Z"/>
        <path class="cls-1" d="m66.19,184.57c-.07-.03-.13-.07-.19-.11.06.04.12.07.19.11Z"/>
        <path class="cls-1" d="m68.88,185.28c-.09,0-.17-.02-.26-.03.09,0,.17.02.26.03Z"/>
        <path class="cls-1" d="m66.96,184.9s-.04-.01-.06-.02c.02,0,.04.01.06.02Z"/>
        <path class="cls-1" d="m109.14,123.91c.15-.09.29-.18.44-.27-.14.09-.29.18-.44.27Z"/>
        <path class="cls-1" d="m67.96,185.15c-.09-.02-.17-.03-.26-.05.08.02.17.03.26.05Z"/>
        <path class="cls-1" d="m62.89,189.42s-.1-.03-.15-.05c.05.02.1.03.15.05Z"/>
        <path class="cls-1" d="m123.87,158.73l-.38,1.42c-2.16,8.57-4.12,16.21-5.57,23.76h-.2c-.74-5.2-1.91-10.88-3.23-16.68-2.09,1.75-4.25,3.48-6.45,5.15-.17.13-.35.26-.52.39l5.25,21.44h9.39l14.16-49.37c-3.07,3.99-6.62,8.04-10.61,12.07-.6.61-1.22,1.21-1.83,1.81Z"/>
        <path class="cls-1" d="m112.53,158.96c-.2.19-.4.37-.6.55l-.41.37c-.42.38-.84.75-1.27,1.12-1.63,1.42-3.16,2.7-4.67,3.92l-1.59-6.51c-2.16-8.78-3.61-15.5-4.54-22.44h-.21c-1.13,6.83-2.78,13.56-5.36,22.44l-5.05,18.25c-.44.26-.88.52-1.31.77-2.4,1.35-4.7,2.5-6.88,3.45,1.21-6.15,3.06-13.17,5.09-20.74l4.94-18.46,1.53-5.72,2.81-10.5h9.39l.3,1.25.77,3.17.38,1.58,6.67,27.49Z"/>
        <path class="cls-1" d="m132.68,125.47l-4.47,16.9c5.19-6.57,8.59-12.48,9.7-16.9h-5.22Z"/>
        <path class="cls-1" d="m74.59,194.21h9.39l2.28-8.24c-4.59,2.21-8.82,3.79-12.58,4.69l.91,3.55Z"/>
        <path class="cls-1" d="m79.36,181.44c-.08.04-.17.07-.26.11-2.65,1.07-5.03,1.77-7.07,2.08-.05,0-.1.01-.15.02l-3.46-13.5-.54-2.1-1.35-5.25-.49-1.92-9.09-35.4h9.49l6.83,28.75,1.08,4.56.35,1.46c1.81,7.51,3.45,14.99,4.67,21.19Z"/>
        <path class="cls-1" d="m137.5,140.7c-3.42,4.84-7.76,9.99-12.87,15.16-3.22,3.26-6.74,6.53-10.53,9.73-.07.05-.14.11-.2.17-2.25,1.9-4.52,3.71-6.78,5.42-7.03,5.32-13.97,9.67-20.33,12.85-4.93,2.47-9.51,4.22-13.5,5.17-.51.12-1.01.23-1.5.32-.13.02-.26.05-.38.08-.44.08-.87.15-1.29.2l-.16.02c-.46.06-.91.11-1.35.14-.11,0-.22.02-.33.02-.37.02-.74.04-1.09.04-.08,0-.15,0-.22,0-.37,0-.72-.02-1.08-.04-.07,0-.14-.02-.21-.02-.27-.02-.54-.05-.8-.09-.11-.01-.21-.03-.32-.04-.23-.04-.44-.08-.66-.14-.1-.02-.2-.05-.29-.07-.25-.07-.49-.14-.72-.22-.05-.02-.11-.03-.15-.05-.28-.11-.54-.22-.79-.34-.08-.04-.14-.08-.21-.11-.18-.1-.35-.2-.53-.31-.08-.05-.15-.11-.23-.16-.16-.11-.31-.23-.46-.35-.06-.06-.13-.11-.19-.17-.11-.09-.2-.19-.29-.28-.1-.1-.19-.2-.27-.3-3.77-4.46-.85-13.75,6.76-24.57l1.35,5.25c-4.15,7.03-5.48,12.69-3.05,15.48.08.09.17.17.26.26.08.08.18.17.27.24.06.04.12.08.18.13.14.11.3.21.46.3.07.04.13.08.19.11.23.11.46.22.72.31.02,0,.05,0,.06.02.23.08.48.15.74.2.08.02.17.04.26.05.22.04.44.07.66.1.08,0,.17.02.26.02.3.03.61.05.93.05h.03c.25,0,.51-.02.78-.04.14,0,.26,0,.39-.02.41-.04.82-.08,1.25-.15,2.16-.33,4.65-1.06,7.4-2.17.21-.08.43-.17.65-.26,2.47-1.03,5.15-2.35,7.96-3.94,5.53-3.12,11.58-7.25,17.73-12.2,1.75-1.4,3.5-2.87,5.26-4.4.57-.5,1.13-1,1.7-1.51,5.48-4.93,10.31-9.94,14.33-14.72,6.63-7.9,10.99-15.17,12.19-20.44.64-2.81.4-5.04-.87-6.5-.13-.15-.27-.29-.42-.42-.05-.04-.11-.08-.15-.11-.11-.09-.21-.17-.32-.25-.07-.05-.14-.08-.21-.12-.11-.06-.21-.13-.32-.18-.08-.05-.16-.08-.24-.11-.11-.05-.23-.11-.35-.15-.08-.03-.18-.05-.27-.08-.12-.04-.24-.08-.36-.11-.1-.03-.2-.05-.3-.07-.13-.03-.26-.05-.39-.08-.11-.02-.21-.03-.32-.05-.14-.02-.27-.03-.41-.05-.11,0-.23,0-.35-.02-.14,0-.29-.02-.43-.02-.04,0-.08,0-.11,0-.05,0-.11,0-.16,0-.3,0-.6.02-.92.05-.08,0-.15,0-.22.02-.38.03-.77.08-1.16.14-.09.02-.18.03-.27.05-.34.06-.69.12-1.05.2-.09.02-.18.04-.27.05-.43.1-.86.2-1.3.33-.1.02-.2.05-.29.08-.38.11-.76.23-1.15.35-.11.04-.22.08-.33.11-.47.16-.95.32-1.43.51-.11.04-.2.08-.31.12-.41.15-.83.32-1.26.49-.13.05-.25.11-.38.16-.51.21-1.03.44-1.55.67-.1.05-.2.09-.29.14-.45.2-.9.42-1.37.65-.14.07-.28.14-.42.2-.54.26-1.09.54-1.65.84-.08.05-.17.09-.26.14-.49.26-.99.53-1.49.8-.15.08-.3.17-.45.25-.57.32-1.15.66-1.74,1-.08.05-.15.09-.22.13-.53.32-1.06.63-1.61.97-.16.1-.32.19-.48.29-.6.38-1.21.75-1.82,1.15-.04.02-.08.05-.13.08-.57.37-1.16.75-1.74,1.15-.17.11-.32.22-.49.33-.63.42-1.26.85-1.89,1.3l-.77-3.17c.72-.48,1.43-.94,2.13-1.38.19-.13.38-.25.58-.37.57-.36,1.15-.72,1.71-1.06.14-.09.29-.18.44-.26.69-.42,1.38-.83,2.07-1.22.15-.09.31-.17.46-.26.56-.32,1.11-.63,1.66-.93.17-.1.35-.2.53-.29.68-.37,1.35-.73,2.02-1.07.04-.02.07-.04.11-.06.63-.32,1.26-.63,1.88-.93.17-.08.34-.17.51-.25.56-.26,1.11-.52,1.66-.77l.29-.14c.64-.29,1.27-.56,1.89-.81.14-.06.27-.11.41-.17.51-.21,1.01-.41,1.5-.6.14-.05.29-.11.43-.17.6-.22,1.2-.44,1.78-.63.06-.02.12-.04.18-.05.52-.18,1.04-.34,1.55-.49.15-.05.29-.08.44-.13.5-.14.99-.28,1.47-.4.06-.02.13-.03.19-.05.54-.14,1.06-.25,1.58-.35.13-.02.25-.04.37-.07.41-.08.81-.14,1.21-.2.11-.02.23-.04.35-.05.48-.06.95-.11,1.41-.15.08,0,.16,0,.23,0,.38-.03.75-.05,1.12-.05h.39c.24,0,.48,0,.71.02.13,0,.26.02.39.02.26.02.51.05.75.08.09.02.18.02.27.04.33.04.65.11.96.19.08.01.16.04.24.07.22.06.44.12.65.2.11.04.21.08.31.12.18.07.35.14.52.22.11.05.2.11.3.16.16.08.32.17.47.26.09.06.18.12.27.18.15.11.3.23.44.34.07.06.14.11.21.17.11.1.2.19.29.29s.19.2.28.31c3.78,4.49.83,13.8-6.82,24.66Z"/>
        <path class="cls-1" d="m128.93,114.69c.5-.14.99-.28,1.47-.4-.48.12-.97.25-1.47.4Z"/>
        <path class="cls-1" d="m142.36,114.48c.16.08.31.17.46.27-.15-.09-.3-.18-.46-.27Z"/>
        <path class="cls-1" d="m140.58,113.79c.22.06.44.12.65.2-.21-.07-.43-.14-.65-.2Z"/>
        <path class="cls-1" d="m120.76,117.74c.64-.28,1.27-.56,1.89-.81-.62.26-1.25.53-1.89.81Z"/>
        <path class="cls-1" d="m118.8,118.64c.56-.27,1.11-.52,1.66-.77-.55.25-1.1.5-1.66.77Z"/>
        <path class="cls-1" d="m130.59,114.25c.54-.13,1.06-.25,1.58-.35-.52.1-1.04.22-1.58.35Z"/>
        <path class="cls-1" d="m126.95,115.31c.52-.17,1.04-.34,1.55-.49-.51.15-1.03.31-1.55.49Z"/>
        <path class="cls-1" d="m124.99,116c.6-.22,1.2-.44,1.78-.64-.58.2-1.18.41-1.78.64Z"/>
        <path class="cls-1" d="m123.06,116.76c.51-.21,1.01-.4,1.5-.59-.49.19-.99.39-1.5.59Z"/>
        <path class="cls-1" d="m141.54,114.1c.18.07.35.14.52.22-.17-.08-.34-.15-.52-.22Z"/>
        <path class="cls-1" d="m137.25,113.36c.24,0,.47.01.71.02-.23-.01-.47-.02-.71-.02Z"/>
        <path class="cls-1" d="m104.71,126.73c.71-.47,1.42-.93,2.13-1.38-.71.45-1.42.91-2.13,1.38Z"/>
        <path class="cls-1" d="m135.74,113.41c.38-.03.76-.04,1.12-.04-.37,0-.74.02-1.12.04Z"/>
        <path class="cls-1" d="m109.58,123.65c.69-.42,1.38-.82,2.07-1.22-.68.4-1.37.8-2.07,1.22Z"/>
        <path class="cls-1" d="m107.43,124.97c.57-.36,1.14-.72,1.71-1.06-.57.35-1.14.7-1.71,1.06Z"/>
        <path class="cls-1" d="m134.1,113.57c.48-.06.95-.12,1.41-.15-.46.03-.93.09-1.41.15Z"/>
        <path class="cls-1" d="m112.1,122.17c.56-.32,1.11-.63,1.66-.93-.55.3-1.1.61-1.66.93Z"/>
        <path class="cls-1" d="m116.42,119.82c.63-.32,1.26-.63,1.87-.93-.62.3-1.24.61-1.87.93Z"/>
        <path class="cls-1" d="m132.54,113.83c.41-.08.81-.14,1.21-.2-.4.06-.8.13-1.21.2Z"/>
        <path class="cls-1" d="m114.29,120.95c.68-.37,1.35-.73,2.02-1.07-.67.34-1.34.7-2.02,1.07Z"/>
        <path class="cls-1" d="m138.35,113.41c.26.02.51.05.75.08-.25-.03-.5-.06-.75-.08Z"/>
        <path class="cls-1" d="m139.38,113.53c.33.05.65.11.95.19-.31-.08-.62-.14-.95-.19Z"/>
        <path class="cls-1" d="m124.73,119.18c.1-.04.2-.08.31-.12-.1.04-.2.08-.31.12Z"/>
        <path class="cls-1" d="m132.31,117.24c.07,0,.15,0,.22-.02-.07,0-.14,0-.22.02Z"/>
        <path class="cls-1" d="m133.6,117.18c-.05,0-.11,0-.16,0,.09,0,.18,0,.27,0-.04,0-.07,0-.11,0Z"/>
        <path class="cls-1" d="m134.15,117.2c.12,0,.24,0,.35.02-.11,0-.23-.01-.35-.02Z"/>
        <path class="cls-1" d="m134.91,117.26c.11.01.22.03.33.04-.11-.02-.22-.03-.33-.04Z"/>
        <path class="cls-1" d="m136.29,117.55c.09.03.18.05.27.09-.09-.03-.18-.06-.27-.09Z"/>
        <path class="cls-1" d="m135.63,117.38c.1.02.2.04.3.06-.1-.02-.2-.04-.3-.06Z"/>
        <path class="cls-1" d="m126.47,118.56c.11-.04.22-.07.33-.11-.11.04-.22.07-.33.11Z"/>
        <path class="cls-1" d="m127.96,118.1c.1-.03.2-.06.29-.08-.1.03-.2.06-.29.08Z"/>
        <path class="cls-1" d="m130.88,117.43c.09-.02.18-.03.27-.05-.09.01-.18.03-.27.05Z"/>
        <path class="cls-1" d="m123.09,119.83c.13-.05.25-.1.38-.16-.13.05-.25.1-.38.16Z"/>
        <path class="cls-1" d="m129.55,117.69c.09-.02.18-.04.28-.06-.09.02-.18.04-.28.06Z"/>
        <path class="cls-1" d="m66.9,184.88c-.25-.09-.49-.19-.71-.31.23.12.46.22.71.31Z"/>
        <path class="cls-1" d="m136.91,117.78c.08.04.16.07.24.11-.08-.04-.16-.07-.24-.11Z"/>
        <path class="cls-1" d="m65.36,184.03c-.19-.15-.37-.32-.53-.5.16.18.34.35.53.5Z"/>
        <path class="cls-1" d="m66,184.46c-.16-.09-.32-.19-.47-.3.15.11.3.21.47.3Z"/>
        <path class="cls-1" d="m68.62,185.25c-.23-.02-.45-.06-.66-.1.21.04.43.07.66.1Z"/>
        <path class="cls-1" d="m67.7,185.1c-.26-.06-.5-.12-.74-.2.23.08.48.15.74.2Z"/>
        <path class="cls-1" d="m143.1,114.92c.15.11.3.22.44.34-.14-.12-.29-.24-.44-.34Z"/>
        <path class="cls-1" d="m138.01,118.44c.05.04.11.08.15.12-.05-.04-.1-.08-.15-.12Z"/>
        <path class="cls-1" d="m71,185.27c-.14.01-.26.01-.39.02.13,0,.26,0,.39-.02Z"/>
        <path class="cls-1" d="m69.8,185.32s.02,0,.03,0c-.33,0-.65-.01-.95-.04.3.02.61.04.93.04Z"/>
        <path class="cls-1" d="m137.48,118.07c.07.04.14.08.2.12-.07-.04-.14-.08-.2-.12Z"/>
        <path class="cls-1" d="m68.29,189.99c-.37.02-.74.04-1.1.04.36,0,.72-.02,1.1-.04Z"/>
        <path class="cls-1" d="m65.68,189.98c-.27-.02-.54-.05-.8-.09.26.04.53.07.8.09Z"/>
        <path class="cls-1" d="m66.97,190.04c-.37,0-.73-.01-1.07-.04.35.02.71.04,1.07.04Z"/>
        <path class="cls-1" d="m63.61,189.64c-.25-.06-.49-.14-.72-.22.23.08.48.15.72.22Z"/>
        <path class="cls-1" d="m121.25,120.64c.1-.04.2-.09.29-.14-.1.04-.2.09-.29.14Z"/>
        <path class="cls-1" d="m73.3,189.2c-.51.12-1.01.23-1.5.32.49-.1.99-.2,1.5-.32Z"/>
        <path class="cls-1" d="m143.75,115.44c.2.19.4.38.58.59-.18-.21-.37-.41-.58-.59Z"/>
        <path class="cls-1" d="m62.74,189.37c-.28-.1-.54-.22-.8-.34.25.12.52.24.8.34Z"/>
        <path class="cls-1" d="m71.41,189.6c-.44.08-.87.15-1.29.21.42-.06.85-.13,1.29-.21Z"/>
        <path class="cls-1" d="m69.97,189.83c-.46.06-.91.11-1.35.14.44-.03.89-.08,1.35-.14Z"/>
        <path class="cls-1" d="m64.57,189.84c-.23-.04-.44-.08-.66-.13.21.05.43.09.66.13Z"/>
        <path class="cls-1" d="m115.6,123.51c.15-.08.3-.17.45-.25-.15.08-.3.17-.45.25Z"/>
        <path class="cls-1" d="m61.74,188.92c-.18-.1-.36-.2-.53-.31.17.11.35.21.53.31Z"/>
        <path class="cls-1" d="m119.46,121.48c.14-.07.28-.14.42-.2-.14.07-.28.14-.42.2Z"/>
        <path class="cls-1" d="m111.56,125.89c.16-.1.32-.19.48-.29-.16.1-.32.19-.48.29Z"/>
        <path class="cls-1" d="m117.54,122.46c.09-.05.18-.1.27-.14-.09.05-.18.1-.27.14Z"/>
        <path class="cls-1" d="m113.64,124.63c.07-.04.15-.09.22-.13-.07.04-.15.09-.22.13Z"/>
        <path class="cls-1" d="m60.33,187.94c-.2-.18-.39-.37-.56-.58.17.21.36.4.56.58Z"/>
        <path class="cls-1" d="m60.98,188.46c-.16-.11-.31-.23-.46-.35.15.12.3.24.46.35Z"/>
        <path class="cls-1" d="m109.61,127.12s.09-.06.13-.08c-.04.03-.09.06-.13.08Z"/>
        <path class="cls-1" d="m107.38,128.59c.16-.11.32-.22.49-.33-.16.11-.32.22-.49.33Z"/>
      </g>
    </g>
  </g>
</svg>