<svg xmlns="http://www.w3.org/2000/svg" viewBox="0 0 250 250"><defs><style>.cls-1{fill:none;}.cls-2{fill:#0085b4;}</style></defs><g id="Шар_2" data-name="Шар 2"><g id="Blue_Equal_shapes" data-name="Blue Equal shapes"><g id="Temperature_Humidity" data-name="Temperature &amp; Humidity"><rect class="cls-1" width="250" height="250"/><g id="temp"><path class="cls-2" d="M103.14,132.93V82.5a14.14,14.14,0,1,0-28.28,0v50.43a23.44,23.44,0,1,0,28.28,0ZM89,170.55A19,19,0,0,1,78.07,136a1.47,1.47,0,0,0,.62-1.2V83.19a10.31,10.31,0,0,1,20.62,0v51.58a1.47,1.47,0,0,0,.62,1.2A19,19,0,0,1,89,170.55Z"/><path class="cls-2" d="M83.89,119.52V140a12.46,12.46,0,1,0,10.22,0V119.52Z"/></g><path class="cls-2" d="M169.15,100.51c2.29-3.56,4.6-6.5,4.63-6.53l.66-.85.67.85s2.34,3,4.63,6.53c3.12,4.88,4.7,8.58,4.7,11,0,5.87-4.48,10.64-10,10.64s-10-4.77-10-10.64C164.44,109.09,166,105.39,169.15,100.51Z"/><path class="cls-2" d="M144.7,136.44c4.11-6.42,8.28-11.71,8.32-11.76l1.2-1.52,1.2,1.52c.05,0,4.22,5.34,8.33,11.76,5.62,8.78,8.47,15.43,8.47,19.77,0,10.55-8.07,19.14-18,19.14s-18-8.59-18-19.14C136.22,151.87,139.07,145.22,144.7,136.44Z"/><path class="cls-2" d="M144.86,73.89c1.71-2.67,3.45-4.88,3.47-4.9l.5-.64.5.64s1.75,2.23,3.46,4.9c2.35,3.66,3.54,6.43,3.54,8.24a7.51,7.51,0,1,1-15,0C141.33,80.32,142.51,77.55,144.86,73.89Z"/><path class="cls-2" d="M125,210.41A85.41,85.41,0,1,1,210.41,125,85.5,85.5,0,0,1,125,210.41Zm0-165A79.59,79.59,0,1,0,204.59,125,79.69,79.69,0,0,0,125,45.41Z"/></g></g></g></svg>