<?xml version="1.0" encoding="UTF-8"?>
<svg id="_Шар_2" data-name="Шар 2" xmlns="http://www.w3.org/2000/svg" viewBox="0 0 250 250">
  <defs>
    <style>
      .cls-1 {
        fill: #0085b4;
      }

      .cls-2 {
        fill: none;
      }
    </style>
  </defs>
  <g id="Blue_Square" data-name="Blue Square">
    <g id="Whirpool_-_Dishwasher" data-name="Whirpool - Dishwasher">
      <rect id="Frame" class="cls-2" width="250" height="250"/>
      <g>
        <path class="cls-1" d="m194.87,47.55c3.39,0,6.14,2.76,6.14,6.15v142.6c0,3.39-2.75,6.14-6.14,6.14H55.12c-3.39,0-6.14-2.75-6.14-6.14V53.7c0-3.39,2.75-6.15,6.14-6.15h139.75m0-7H55.12c-7.25,0-13.14,5.89-13.14,13.15v142.6c0,7.26,5.89,13.14,13.14,13.14h139.75c7.26,0,13.14-5.88,13.14-13.14V53.7c0-7.26-5.88-13.15-13.14-13.15h0Z"/>
        <path class="cls-1" d="m105.18,190.58c-.24.22-.49.44-.75.65h1.44c-.24-.21-.47-.43-.69-.65h0Z"/>
        <circle class="cls-1" cx="67.11" cy="59.19" r="7.53"/>
        <circle class="cls-1" cx="89.06" cy="59.19" r="7.53"/>
        <path class="cls-1" d="m192.29,56.66v5.06h-63.83v-5.06h63.83m.37-5h-64.58c-2.55,0-4.63,2.07-4.63,4.63v5.81c0,2.55,2.07,4.63,4.63,4.63h64.58c2.55,0,4.63-2.07,4.63-4.63v-5.81c0-2.55-2.07-4.63-4.63-4.63h0Z"/>
        <path class="cls-1" d="m185.95,86.66c.17,0,.3.14.3.3v102.67c0,.17-.14.3-.3.3H63.41c-.17,0-.3-.14-.3-.3v-102.67c0-.17.14-.3.3-.3h122.55m0-5H63.41c-2.93,0-5.3,2.37-5.3,5.3v102.67c0,2.93,2.37,5.3,5.3,5.3h122.55c2.93,0,5.3-2.37,5.3-5.3v-102.67c0-2.93-2.37-5.3-5.3-5.3h0Z"/>
        <g>
          <path class="cls-1" d="m156.1,185.56h-10.03c-4.74,0-8.7-3.71-9.02-8.43l-2.16-31.92c0-2.85,2.32-5.17,5.17-5.17h22.04c2.85,0,5.17,2.32,5.17,5.17v.14s-2.16,31.79-2.16,31.79c-.32,4.73-4.28,8.43-9.02,8.43Zm-17.21-40.41l2.15,31.7c.18,2.64,2.39,4.7,5.03,4.7h10.03c2.64,0,4.85-2.07,5.03-4.7l2.15-31.7c-.03-.62-.54-1.12-1.17-1.12h-22.04c-.63,0-1.15.5-1.17,1.12Z"/>
          <path class="cls-1" d="m98.2,174.52c-9.75,0-17.69-7.93-17.69-17.69s7.93-17.69,17.69-17.69,17.69,7.93,17.69,17.69-7.93,17.69-17.69,17.69Zm0-31.37c-7.55,0-13.69,6.14-13.69,13.69s6.14,13.69,13.69,13.69,13.69-6.14,13.69-13.69-6.14-13.69-13.69-13.69Z"/>
          <path class="cls-1" d="m98.2,186.1c-16.14,0-29.26-13.13-29.26-29.26s13.13-29.26,29.26-29.26,29.26,13.13,29.26,29.26-13.13,29.26-29.26,29.26Zm0-54.53c-13.93,0-25.26,11.33-25.26,25.26s11.33,25.26,25.26,25.26,25.26-11.33,25.26-25.26-11.33-25.26-25.26-25.26Z"/>
          <path class="cls-1" d="m171.22,170.76h-6.3l-2-2v-18.26l2-2h8.04c1.46,0,2.84.63,3.79,1.73.95,1.1,1.38,2.56,1.18,4l-1.74,12.22c-.35,2.46-2.49,4.31-4.97,4.31Zm-4.3-4h4.3c.5,0,.94-.38,1.01-.88l1.74-12.22c.06-.4-.13-.68-.24-.81-.11-.13-.37-.35-.77-.35h-6.04v14.26Z"/>
          <path class="cls-1" d="m82.84,115.93c-.17,0-.33-.02-.49-.05-.16-.03-.32-.08-.47-.14-.15-.07-.3-.14-.43-.23-.14-.09-.27-.2-.38-.31-.12-.12-.22-.25-.31-.38-.09-.14-.17-.28-.23-.43-.06-.16-.11-.31-.14-.47-.04-.16-.05-.33-.05-.49,0-.66.26-1.3.73-1.77.11-.11.24-.22.38-.31.13-.09.28-.17.43-.23s.31-.11.47-.14c.81-.16,1.67.1,2.25.68.12.12.22.24.31.38.1.14.17.28.23.43.07.15.12.31.15.47.03.16.05.33.05.49s-.02.33-.05.49c-.03.16-.08.31-.15.47-.06.15-.13.29-.23.43-.09.13-.19.26-.31.38-.46.46-1.11.73-1.76.73Z"/>
          <path class="cls-1" d="m87.43,110.04c-.82-1.11-.58-2.68.53-3.5h0c1.11-.82,2.67-.58,3.49.53h0c.82,1.11.59,2.68-.52,3.49h0c-.45.33-.97.49-1.49.49h0c-.76,0-1.52-.35-2.01-1.01Zm6.6-4.88c-.82-1.11-.58-2.67.53-3.49h0c1.11-.82,2.68-.59,3.5.52h0c.82,1.12.58,2.68-.53,3.5h0c-.45.33-.97.49-1.48.49h0c-.77,0-1.53-.35-2.02-1.02Zm6.61-4.87c-.82-1.11-.59-2.68.53-3.5h0c1.11-.82,2.67-.58,3.49.53h0c.82,1.11.59,2.67-.53,3.49h0c-.44.33-.96.49-1.48.49h0c-.76,0-1.52-.35-2.01-1.01Zm6.6-4.88c-.82-1.11-.58-2.67.53-3.49h0c1.11-.82,2.68-.59,3.5.52h0c.82,1.11.58,2.68-.53,3.5h0c-.45.33-.97.49-1.48.49h0c-.77,0-1.53-.35-2.02-1.02Zm6.61-4.87c-.82-1.11-.59-2.68.53-3.5h0c1.11-.82,2.67-.58,3.49.53h0c.82,1.11.58,2.67-.53,3.49h0c-.44.33-.96.49-1.48.49h0c-.76,0-1.52-.35-2.01-1.01Z"/>
          <path class="cls-1" d="m160,110.56c-1.11-.82-1.34-2.38-.52-3.49h0c.82-1.11,2.38-1.35,3.49-.53h0c1.11.82,1.35,2.39.53,3.5h0c-.49.66-1.25,1.01-2.01,1.01h0c-.52,0-1.04-.16-1.49-.49Zm-6.6-4.87c-1.11-.82-1.35-2.39-.53-3.5h0c.82-1.11,2.39-1.34,3.5-.52h0c1.11.82,1.34,2.38.52,3.49h0c-.49.67-1.24,1.02-2.01,1.02h0c-.51,0-1.04-.16-1.48-.49Zm-6.61-4.88c-1.11-.82-1.34-2.38-.52-3.49h0c.82-1.11,2.38-1.35,3.49-.53h0c1.11.82,1.35,2.39.53,3.5h0c-.49.66-1.25,1.01-2.01,1.01h0c-.52,0-1.04-.16-1.49-.49Zm-6.6-4.87c-1.11-.82-1.35-2.39-.53-3.5h0c.82-1.11,2.39-1.34,3.5-.52h0c1.11.82,1.35,2.38.53,3.49h0c-.49.67-1.25,1.02-2.02,1.02h0c-.51,0-1.03-.16-1.48-.49Zm-6.6-4.88c-1.12-.82-1.35-2.38-.53-3.49h0c.82-1.11,2.38-1.35,3.49-.53h0c1.11.82,1.35,2.39.53,3.5h0c-.49.66-1.25,1.01-2.01,1.01h0c-.52,0-1.04-.16-1.48-.49Z"/>
          <path class="cls-1" d="m168.09,115.93c-.66,0-1.3-.27-1.77-.73-.11-.12-.22-.25-.31-.38-.09-.14-.16-.28-.23-.43-.06-.16-.11-.31-.14-.47-.03-.16-.05-.33-.05-.49,0-.66.27-1.3.73-1.77.94-.93,2.61-.93,3.54,0,.11.12.22.24.31.38s.17.28.23.43.11.31.14.47c.04.16.05.33.05.49s0,.33-.05.49c-.03.16-.08.31-.14.47-.06.15-.14.29-.23.43-.09.13-.2.26-.31.38-.47.46-1.11.73-1.77.73Z"/>
          <g>
            <path class="cls-1" d="m109.7,126.3c-.16,0-.32-.01-.48-.04-.16-.04-.32-.08-.47-.15-.15-.06-.3-.14-.43-.23-.14-.09-.27-.19-.39-.31-.46-.46-.73-1.11-.73-1.77,0-.16.02-.32.05-.48.03-.16.08-.32.14-.47.07-.15.14-.3.23-.43.1-.14.2-.27.31-.38.12-.12.25-.22.39-.31.13-.09.28-.17.43-.23.15-.07.31-.11.47-.15.8-.16,1.67.11,2.25.69.12.11.22.24.31.38.09.13.17.28.23.43s.11.31.14.47c.04.16.05.32.05.48,0,.66-.26,1.31-.73,1.77-.46.47-1.11.73-1.77.73Z"/>
            <path class="cls-1" d="m111.93,118.2c-1.28-.51-1.91-1.96-1.4-3.25h0c.51-1.28,1.97-1.9,3.25-1.39h0c1.28.51,1.91,1.96,1.4,3.24h0c-.39.98-1.33,1.58-2.33,1.58h0c-.3,0-.62-.06-.92-.18Zm3.15-7.92c-1.28-.51-1.91-1.97-1.4-3.25h0c.51-1.28,1.97-1.91,3.25-1.4h0c1.28.51,1.91,1.96,1.4,3.25h0c-.39.98-1.33,1.57-2.32,1.57h0c-.31,0-.62-.05-.93-.17Zm3.16-7.93c-1.29-.51-1.91-1.96-1.4-3.25h0c.51-1.28,1.96-1.91,3.24-1.4h0c1.29.52,1.91,1.97,1.4,3.25h0c-.39.98-1.33,1.58-2.32,1.58h0c-.31,0-.62-.06-.92-.18Zm3.15-7.93c-1.28-.51-1.91-1.96-1.4-3.24h0c.51-1.29,1.96-1.91,3.25-1.4h0c1.28.51,1.91,1.96,1.4,3.25h0c-.4.98-1.34,1.57-2.33,1.57h0c-.31,0-.62-.05-.92-.18Z"/>
            <path class="cls-1" d="m135.75,116.8c-.51-1.28.12-2.73,1.4-3.24h0c1.28-.51,2.74.11,3.25,1.39h0c.51,1.29-.12,2.74-1.4,3.25h0c-.31.12-.62.18-.93.18h0c-.99,0-1.93-.6-2.32-1.58Zm-3.15-7.92c-.51-1.29.11-2.74,1.4-3.25h0c1.28-.51,2.73.12,3.24,1.4h0c.51,1.28-.11,2.74-1.39,3.25h0c-.31.12-.62.17-.93.17h0c-.99,0-1.93-.59-2.32-1.57Zm-3.15-7.93c-.52-1.28.11-2.73,1.4-3.25h0c1.28-.51,2.73.12,3.24,1.4h0c.51,1.29-.11,2.74-1.4,3.25h0c-.3.12-.61.18-.92.18h0c-.99,0-1.93-.6-2.32-1.58Zm-3.16-7.92c-.51-1.29.12-2.74,1.4-3.25h0c1.29-.51,2.74.12,3.25,1.4h0c.51,1.28-.12,2.73-1.4,3.24h0c-.3.13-.62.18-.92.18h0c-1,0-1.94-.59-2.33-1.57Z"/>
            <path class="cls-1" d="m141.23,126.3c-.17,0-.33-.01-.49-.04-.16-.04-.32-.08-.47-.15-.15-.06-.3-.14-.43-.23-.14-.09-.27-.19-.38-.31-.47-.46-.73-1.11-.73-1.77,0-.16,0-.32.04-.48.04-.16.08-.32.15-.47.06-.15.14-.3.23-.43.09-.14.19-.27.31-.38.11-.12.24-.22.38-.31.13-.09.28-.17.43-.23.15-.07.31-.11.47-.15.81-.16,1.67.11,2.25.69.12.11.22.24.31.38.09.13.17.28.23.43.07.15.11.31.15.47.03.16.05.32.05.48,0,.66-.27,1.31-.74,1.77-.46.47-1.11.73-1.76.73Z"/>
          </g>
        </g>
      </g>
    </g>
  </g>
</svg>