<?xml version="1.0" encoding="UTF-8"?>
<svg id="_Шар_2" data-name="Шар 2" xmlns="http://www.w3.org/2000/svg" viewBox="0 0 250 250">
  <defs>
    <style>
      .cls-1 {
        fill: #0085b4;
      }

      .cls-2 {
        fill: none;
      }
    </style>
  </defs>
  <g id="Blue_Square" data-name="Blue Square">
    <g id="Whirpool_-_Vertical_washer" data-name="Whirpool - Vertical washer">
      <rect id="Frame" class="cls-2" y="0" width="250" height="250"/>
      <g>
        <path class="cls-1" d="m177.86,81.73c2.1,0,3.81,1.71,3.81,3.81v109.69c0,2.1-1.71,3.81-3.81,3.81h-103.8c-2.1,0-3.81-1.71-3.81-3.81v-109.69c0-2.1,1.71-3.81,3.81-3.81h103.8m0-7h-103.8c-5.97,0-10.81,4.84-10.81,10.81v109.69c0,5.97,4.84,10.81,10.81,10.81h103.8c5.97,0,10.81-4.84,10.81-10.81v-109.69c0-5.97-4.84-10.81-10.81-10.81h0Z"/>
        <path class="cls-1" d="m172.27,42.98c.51,0,.92.41.92.92v15.83c0,.51-.41.92-.92.92h-93c-.51,0-.92-.41-.92-.92v-15.83c0-.51.41-.92.92-.92h93m0-5h-93c-3.27,0-5.92,2.65-5.92,5.92v15.83c0,3.27,2.65,5.92,5.92,5.92h93c3.27,0,5.92-2.65,5.92-5.92v-15.83c0-3.27-2.65-5.92-5.92-5.92h0Z"/>
        <rect class="cls-1" x="62.22" y="67.86" width="22.28" height="7" transform="translate(-23.88 103.26) rotate(-62.37)"/>
        <path class="cls-1" d="m180.91,83.17c-.39-.81-6.53-12.43-10.56-20.05l6.19-3.27c10.55,19.94,10.7,20.3,10.79,20.52l-3.24,1.32-3.17,1.49Z"/>
        <path class="cls-1" d="m151.55,133.04c-.86,0-1.74-.02-2.63-.06-9.34-.41-16.09-3.02-22.61-5.54-6.87-2.66-13.98-5.41-24.75-6.02-20.92-1.17-33.08,10.7-33.2,10.82l-3.55-3.52c.55-.56,13.76-13.61,37.03-12.29,11.56.65,19.04,3.55,26.28,6.34,6.43,2.49,12.51,4.84,21.03,5.21,22.4.99,34.1-12.27,34.22-12.4l3.8,3.25c-.51.6-12.4,14.2-35.6,14.2Z"/>
        <circle class="cls-1" cx="125.89" cy="51.82" r="6.01"/>
        <rect class="cls-1" x="141.77" y="45.8" width="28.65" height="12.03" rx="4.6" ry="4.6"/>
      </g>
    </g>
  </g>
</svg>