<svg xmlns="http://www.w3.org/2000/svg" xmlns:xlink="http://www.w3.org/1999/xlink" viewBox="0 0 240 240"><defs><style>.cls-1,.cls-2,.cls-5{fill:none;}.cls-2,.cls-5{stroke:#0285b4;stroke-miterlimit:10;}.cls-2{stroke-width:0.5px;}.cls-3{clip-path:url(#clip-path);}.cls-4{fill:#d8e9f0;}.cls-5{stroke-width:2px;}.cls-6{fill:#005d8d;}.cls-7{fill:#0785b4;}.cls-8{fill:#a9d2e2;}</style><clipPath id="clip-path"><path class="cls-1" d="M163.05,57.65c.29-6.13-5.29-10.54-14.34-14a80.69,80.69,0,0,0-28.41-5.25H120a82.47,82.47,0,0,0-28.71,5.25c-9.05,3.42-14.63,7.83-14.34,14v124.7c-.29,6.13,5.29,10.54,14.34,14A82.47,82.47,0,0,0,120,201.56h.57a79.11,79.11,0,0,0,28.14-5.25c9-3.42,14.63-7.83,14.34-14Z"/></clipPath></defs><g id="Шар_2" data-name="Шар 2"><g id="Шар_2-2" data-name="Шар 2"><g id="BLE_Temperature_Humidity_Sensor" data-name="BLE Temperature/Humidity Sensor"><rect class="cls-1" width="240" height="240"/><g id="BLE_Temperature_Humidity_Sensor-2" data-name="BLE Temperature/Humidity Sensor"><path class="cls-2" d="M165.43,55.92c.3-6.3-5.58-10.83-15.13-14.34a87.18,87.18,0,0,0-30-5.4H120a89.11,89.11,0,0,0-30.3,5.4c-9.55,3.51-15.43,8-15.13,14.34V184.08c-.3,6.3,5.58,10.83,15.13,14.34a89.11,89.11,0,0,0,30.3,5.4h.6a85.48,85.48,0,0,0,29.7-5.4c9.55-3.51,15.43-8,15.13-14.34Z"/><g class="cls-3"><circle class="cls-4" cx="116.06" cy="44.56" r="1.7"/><circle class="cls-4" cx="124.16" cy="195.46" r="1.7"/><circle class="cls-4" cx="124.16" cy="44.56" r="1.7"/><circle class="cls-4" cx="116.06" cy="195.46" r="1.7"/><circle class="cls-4" cx="124.16" cy="195.45" r="1.7"/><circle class="cls-4" cx="124.16" cy="44.55" r="1.7"/><circle class="cls-4" cx="116.06" cy="195.45" r="1.7"/><circle class="cls-4" cx="132.17" cy="45.4" r="1.7"/><circle class="cls-4" cx="108.05" cy="194.57" r="1.7"/><circle class="cls-4" cx="140.08" cy="47.12" r="1.7"/><circle class="cls-4" cx="100.14" cy="192.85" r="1.7"/><circle class="cls-4" cx="108.05" cy="194.56" r="1.7"/><circle class="cls-4" cx="140.08" cy="47.11" r="1.7"/><circle class="cls-4" cx="100.14" cy="192.84" r="1.7"/><circle class="cls-4" cx="147.59" cy="49.62" r="1.7"/><circle class="cls-4" cx="92.63" cy="190.38" r="1.7"/><circle class="cls-4" cx="154.96" cy="52.96" r="1.7"/><circle class="cls-4" cx="85.26" cy="187.04" r="1.7"/><circle class="cls-4" cx="92.63" cy="190.37" r="1.7"/><circle class="cls-4" cx="154.96" cy="52.95" r="1.7"/><circle class="cls-4" cx="85.26" cy="187.03" r="1.7"/><circle class="cls-4" cx="108.05" cy="45.41" r="1.7"/><circle class="cls-4" cx="132.17" cy="194.59" r="1.7"/><circle class="cls-4" cx="100.14" cy="47.13" r="1.7"/><circle class="cls-4" cx="140.08" cy="192.87" r="1.7"/><circle class="cls-4" cx="132.17" cy="194.58" r="1.7"/><circle class="cls-4" cx="100.14" cy="47.12" r="1.7"/><circle class="cls-4" cx="140.08" cy="192.86" r="1.7"/><circle class="cls-4" cx="92.63" cy="49.64" r="1.7"/><circle class="cls-4" cx="147.59" cy="190.4" r="1.7"/><circle class="cls-4" cx="85.26" cy="52.98" r="1.7"/><circle class="cls-4" cx="154.96" cy="187.05" r="1.7"/><circle class="cls-4" cx="147.59" cy="190.39" r="1.7"/><circle class="cls-4" cx="85.26" cy="52.97" r="1.7"/><circle class="cls-4" cx="154.96" cy="187.04" r="1.7"/><circle class="cls-4" cx="161.42" cy="56.74" r="1.7"/><circle class="cls-4" cx="78.79" cy="183.26" r="1.7"/><circle class="cls-4" cx="167.95" cy="61.52" r="1.7"/><circle class="cls-4" cx="72.26" cy="178.48" r="1.7"/><circle class="cls-4" cx="78.8" cy="183.25" r="1.7"/><circle class="cls-4" cx="167.96" cy="61.52" r="1.7"/><circle class="cls-4" cx="72.27" cy="178.47" r="1.7"/><circle class="cls-4" cx="78.76" cy="56.74" r="1.7"/><circle class="cls-4" cx="161.39" cy="183.26" r="1.7"/><circle class="cls-4" cx="72.23" cy="61.52" r="1.7"/><circle class="cls-4" cx="167.92" cy="178.48" r="1.7"/><circle class="cls-4" cx="161.38" cy="183.25" r="1.7"/><circle class="cls-4" cx="72.22" cy="61.52" r="1.7"/><circle class="cls-4" cx="167.91" cy="178.47" r="1.7"/><circle class="cls-4" cx="120" cy="49.12" r="1.59"/><circle class="cls-4" cx="120.17" cy="190.85" r="1.59"/><circle class="cls-4" cx="127.58" cy="49.51" r="1.59"/><circle class="cls-4" cx="112.59" cy="190.45" r="1.59"/><circle class="cls-4" cx="120.17" cy="190.84" r="1.59"/><circle class="cls-4" cx="127.58" cy="49.5" r="1.59"/><circle class="cls-4" cx="112.59" cy="190.44" r="1.59"/><circle class="cls-4" cx="135.04" cy="50.69" r="1.59"/><circle class="cls-4" cx="105.13" cy="189.23" r="1.59"/><circle class="cls-4" cx="142.37" cy="52.69" r="1.59"/><circle class="cls-4" cx="97.81" cy="187.23" r="1.59"/><circle class="cls-4" cx="105.13" cy="189.22" r="1.59"/><circle class="cls-4" cx="142.37" cy="52.68" r="1.59"/><circle class="cls-4" cx="97.81" cy="187.22" r="1.59"/><circle class="cls-4" cx="149.28" cy="55.4" r="1.59"/><circle class="cls-4" cx="90.89" cy="184.55" r="1.59"/><circle class="cls-4" cx="156.02" cy="58.89" r="1.59"/><circle class="cls-4" cx="84.15" cy="181.05" r="1.59"/><circle class="cls-4" cx="90.9" cy="184.54" r="1.59"/><circle class="cls-4" cx="156.03" cy="58.89" r="1.59"/><circle class="cls-4" cx="84.16" cy="181.05" r="1.59"/><circle class="cls-4" cx="112.46" cy="49.52" r="1.59"/><circle class="cls-4" cx="127.72" cy="190.43" r="1.59"/><circle class="cls-4" cx="104.96" cy="50.74" r="1.59"/><circle class="cls-4" cx="135.22" cy="189.21" r="1.59"/><circle class="cls-4" cx="127.72" cy="190.42" r="1.59"/><circle class="cls-4" cx="104.96" cy="50.73" r="1.59"/><circle class="cls-4" cx="135.21" cy="189.2" r="1.59"/><circle class="cls-4" cx="97.8" cy="52.72" r="1.59"/><circle class="cls-4" cx="142.37" cy="187.26" r="1.59"/><circle class="cls-4" cx="90.74" cy="55.49" r="1.59"/><circle class="cls-4" cx="149.44" cy="184.49" r="1.59"/><circle class="cls-4" cx="142.37" cy="187.25" r="1.59"/><circle class="cls-4" cx="90.73" cy="55.48" r="1.59"/><circle class="cls-4" cx="149.44" cy="184.48" r="1.59"/><circle class="cls-4" cx="161.89" cy="62.75" r="1.59"/><circle class="cls-4" cx="78.28" cy="177.2" r="1.59"/><circle class="cls-4" cx="167.77" cy="67.55" r="1.59"/><circle class="cls-4" cx="72.4" cy="172.4" r="1.59"/><circle class="cls-4" cx="78.29" cy="177.19" r="1.59"/><circle class="cls-4" cx="167.78" cy="67.54" r="1.59"/><circle class="cls-4" cx="72.41" cy="172.39" r="1.59"/><circle class="cls-4" cx="84.46" cy="58.69" r="1.59"/><circle class="cls-4" cx="155.65" cy="181.25" r="1.59"/><circle class="cls-4" cx="78.11" cy="62.85" r="1.59"/><circle class="cls-4" cx="162" cy="177.09" r="1.59"/><circle class="cls-4" cx="155.64" cy="181.24" r="1.59"/><circle class="cls-4" cx="78.1" cy="62.84" r="1.59"/><circle class="cls-4" cx="161.99" cy="177.09" r="1.59"/><circle class="cls-4" cx="116.59" cy="54.38" r="1.48"/><circle class="cls-4" cx="123.63" cy="185.59" r="1.48"/><circle class="cls-4" cx="123.63" cy="54.38" r="1.48"/><circle class="cls-4" cx="116.59" cy="185.59" r="1.48"/><circle class="cls-4" cx="123.63" cy="185.58" r="1.48"/><circle class="cls-4" cx="123.63" cy="54.37" r="1.48"/><circle class="cls-4" cx="116.59" cy="185.58" r="1.48"/><circle class="cls-4" cx="130.59" cy="55.1" r="1.48"/><circle class="cls-4" cx="109.62" cy="184.82" r="1.48"/><circle class="cls-4" cx="137.47" cy="56.59" r="1.48"/><circle class="cls-4" cx="102.74" cy="183.33" r="1.48"/><circle class="cls-4" cx="109.62" cy="184.81" r="1.48"/><circle class="cls-4" cx="137.47" cy="56.59" r="1.48"/><circle class="cls-4" cx="102.74" cy="183.32" r="1.48"/><circle class="cls-4" cx="144" cy="58.77" r="1.48"/><circle class="cls-4" cx="96.21" cy="181.18" r="1.48"/><circle class="cls-4" cx="150.41" cy="61.68" r="1.48"/><circle class="cls-4" cx="89.8" cy="178.27" r="1.48"/><circle class="cls-4" cx="96.21" cy="181.17" r="1.48"/><circle class="cls-4" cx="150.42" cy="61.67" r="1.48"/><circle class="cls-4" cx="89.8" cy="178.26" r="1.48"/><circle class="cls-4" cx="109.62" cy="55.11" r="1.48"/><circle class="cls-4" cx="130.59" cy="184.83" r="1.48"/><circle class="cls-4" cx="102.74" cy="56.61" r="1.48"/><circle class="cls-4" cx="137.47" cy="183.34" r="1.48"/><circle class="cls-4" cx="130.59" cy="184.83" r="1.48"/><circle class="cls-4" cx="102.74" cy="56.6" r="1.48"/><circle class="cls-4" cx="137.47" cy="183.33" r="1.48"/><circle class="cls-4" cx="96.21" cy="58.79" r="1.48"/><circle class="cls-4" cx="144.01" cy="181.19" r="1.48"/><circle class="cls-4" cx="89.8" cy="61.69" r="1.48"/><circle class="cls-4" cx="150.41" cy="178.28" r="1.48"/><circle class="cls-4" cx="144" cy="181.18" r="1.48"/><circle class="cls-4" cx="89.8" cy="61.68" r="1.48"/><circle class="cls-4" cx="150.41" cy="178.27" r="1.48"/><circle class="cls-4" cx="156.03" cy="64.97" r="1.48"/><circle class="cls-4" cx="84.18" cy="174.98" r="1.48"/><circle class="cls-4" cx="161.71" cy="69.12" r="1.48"/><circle class="cls-4" cx="78.5" cy="170.82" r="1.48"/><circle class="cls-4" cx="84.18" cy="174.98" r="1.48"/><circle class="cls-4" cx="161.72" cy="69.12" r="1.48"/><circle class="cls-4" cx="78.5" cy="170.82" r="1.48"/><circle class="cls-4" cx="84.15" cy="64.97" r="1.48"/><circle class="cls-4" cx="156" cy="174.98" r="1.48"/><circle class="cls-4" cx="78.47" cy="69.12" r="1.48"/><circle class="cls-4" cx="161.68" cy="170.83" r="1.48"/><circle class="cls-4" cx="156" cy="174.98" r="1.48"/><circle class="cls-4" cx="78.46" cy="69.12" r="1.48"/><circle class="cls-4" cx="161.67" cy="170.82" r="1.48"/><circle class="cls-4" cx="120.01" cy="59.06" r="1.37"/><circle class="cls-4" cx="120.16" cy="180.86" r="1.37"/><circle class="cls-4" cx="126.53" cy="59.4" r="1.37"/><circle class="cls-4" cx="113.65" cy="180.52" r="1.37"/><circle class="cls-4" cx="120.16" cy="180.85" r="1.37"/><circle class="cls-4" cx="126.53" cy="59.39" r="1.37"/><circle class="cls-4" cx="113.65" cy="180.51" r="1.37"/><circle class="cls-4" cx="132.94" cy="60.41" r="1.37"/><circle class="cls-4" cx="107.24" cy="179.47" r="1.37"/><circle class="cls-4" cx="139.23" cy="62.13" r="1.37"/><circle class="cls-4" cx="100.94" cy="177.75" r="1.37"/><circle class="cls-4" cx="107.24" cy="179.46" r="1.37"/><circle class="cls-4" cx="139.24" cy="62.12" r="1.37"/><circle class="cls-4" cx="100.94" cy="177.74" r="1.37"/><circle class="cls-4" cx="145.18" cy="64.46" r="1.37"/><circle class="cls-4" cx="95" cy="175.44" r="1.37"/><circle class="cls-4" cx="150.97" cy="67.46" r="1.37"/><circle class="cls-4" cx="89.21" cy="172.44" r="1.37"/><circle class="cls-4" cx="95" cy="175.44" r="1.37"/><circle class="cls-4" cx="150.97" cy="67.45" r="1.37"/><circle class="cls-4" cx="89.21" cy="172.43" r="1.37"/><circle class="cls-4" cx="113.53" cy="59.41" r="1.37"/><circle class="cls-4" cx="126.65" cy="180.5" r="1.37"/><circle class="cls-4" cx="107.09" cy="60.46" r="1.37"/><circle class="cls-4" cx="133.09" cy="179.45" r="1.37"/><circle class="cls-4" cx="126.65" cy="180.49" r="1.37"/><circle class="cls-4" cx="107.09" cy="60.45" r="1.37"/><circle class="cls-4" cx="133.09" cy="179.44" r="1.37"/><circle class="cls-4" cx="100.94" cy="62.15" r="1.37"/><circle class="cls-4" cx="139.24" cy="177.78" r="1.37"/><circle class="cls-4" cx="94.86" cy="64.53" r="1.37"/><circle class="cls-4" cx="145.31" cy="175.4" r="1.37"/><circle class="cls-4" cx="139.24" cy="177.77" r="1.37"/><circle class="cls-4" cx="94.86" cy="64.53" r="1.37"/><circle class="cls-4" cx="145.31" cy="175.39" r="1.37"/><circle class="cls-4" cx="156.01" cy="70.78" r="1.37"/><circle class="cls-4" cx="84.16" cy="169.13" r="1.37"/><circle class="cls-4" cx="161.07" cy="74.9" r="1.37"/><circle class="cls-4" cx="79.11" cy="165" r="1.37"/><circle class="cls-4" cx="84.17" cy="169.12" r="1.37"/><circle class="cls-4" cx="161.07" cy="74.89" r="1.37"/><circle class="cls-4" cx="79.11" cy="165" r="1.37"/><circle class="cls-4" cx="89.47" cy="67.29" r="1.37"/><circle class="cls-4" cx="150.65" cy="172.61" r="1.37"/><circle class="cls-4" cx="84.01" cy="70.86" r="1.37"/><circle class="cls-4" cx="156.1" cy="169.04" r="1.37"/><circle class="cls-4" cx="150.64" cy="172.61" r="1.37"/><circle class="cls-4" cx="84.01" cy="70.86" r="1.37"/><circle class="cls-4" cx="156.1" cy="169.03" r="1.37"/><circle class="cls-4" cx="117.09" cy="63.7" r="1.26"/><circle class="cls-4" cx="123.12" cy="176.01" r="1.26"/><circle class="cls-4" cx="123.12" cy="63.7" r="1.26"/><circle class="cls-4" cx="117.09" cy="176.01" r="1.26"/><circle class="cls-4" cx="123.12" cy="176" r="1.26"/><circle class="cls-4" cx="123.12" cy="63.7" r="1.26"/><circle class="cls-4" cx="117.09" cy="176" r="1.26"/><circle class="cls-4" cx="129.08" cy="64.32" r="1.26"/><circle class="cls-4" cx="111.13" cy="175.35" r="1.26"/><circle class="cls-4" cx="134.96" cy="65.6" r="1.26"/><circle class="cls-4" cx="105.24" cy="174.07" r="1.26"/><circle class="cls-4" cx="111.13" cy="175.34" r="1.26"/><circle class="cls-4" cx="134.97" cy="65.6" r="1.26"/><circle class="cls-4" cx="105.24" cy="174.07" r="1.26"/><circle class="cls-4" cx="140.56" cy="67.47" r="1.26"/><circle class="cls-4" cx="99.65" cy="172.23" r="1.26"/><circle class="cls-4" cx="146.04" cy="69.96" r="1.26"/><circle class="cls-4" cx="94.16" cy="169.74" r="1.26"/><circle class="cls-4" cx="99.65" cy="172.23" r="1.26"/><circle class="cls-4" cx="146.05" cy="69.95" r="1.26"/><circle class="cls-4" cx="94.17" cy="169.74" r="1.26"/><circle class="cls-4" cx="111.13" cy="64.34" r="1.26"/><circle class="cls-4" cx="129.08" cy="175.36" r="1.26"/><circle class="cls-4" cx="105.24" cy="65.61" r="1.26"/><circle class="cls-4" cx="134.97" cy="174.08" r="1.26"/><circle class="cls-4" cx="129.08" cy="175.36" r="1.26"/><circle class="cls-4" cx="105.24" cy="65.61" r="1.26"/><circle class="cls-4" cx="134.97" cy="174.08" r="1.26"/><circle class="cls-4" cx="99.65" cy="67.48" r="1.26"/><circle class="cls-4" cx="140.56" cy="172.24" r="1.26"/><circle class="cls-4" cx="94.17" cy="69.97" r="1.26"/><circle class="cls-4" cx="146.04" cy="169.76" r="1.26"/><circle class="cls-4" cx="140.56" cy="172.24" r="1.26"/><circle class="cls-4" cx="94.16" cy="69.96" r="1.26"/><circle class="cls-4" cx="146.04" cy="169.75" r="1.26"/><circle class="cls-4" cx="150.85" cy="72.77" r="1.26"/><circle class="cls-4" cx="89.35" cy="166.93" r="1.26"/><circle class="cls-4" cx="155.71" cy="76.33" r="1.26"/><circle class="cls-4" cx="84.49" cy="163.37" r="1.26"/><circle class="cls-4" cx="89.36" cy="166.93" r="1.26"/><circle class="cls-4" cx="155.72" cy="76.32" r="1.26"/><circle class="cls-4" cx="84.5" cy="163.37" r="1.26"/><circle class="cls-4" cx="89.33" cy="72.77" r="1.26"/><circle class="cls-4" cx="150.83" cy="166.93" r="1.26"/><circle class="cls-4" cx="84.47" cy="76.33" r="1.26"/><circle class="cls-4" cx="155.69" cy="163.37" r="1.26"/><circle class="cls-4" cx="150.82" cy="166.93" r="1.26"/><circle class="cls-4" cx="84.46" cy="76.32" r="1.26"/><circle class="cls-4" cx="155.68" cy="163.37" r="1.26"/><circle class="cls-4" cx="119.94" cy="68.4" r="1.16"/><circle class="cls-4" cx="120.07" cy="171.28" r="1.16"/><circle class="cls-4" cx="125.44" cy="68.69" r="1.16"/><circle class="cls-4" cx="114.57" cy="170.99" r="1.16"/><circle class="cls-4" cx="120.07" cy="171.27" r="1.16"/><circle class="cls-4" cx="125.45" cy="68.68" r="1.16"/><circle class="cls-4" cx="114.57" cy="170.98" r="1.16"/><circle class="cls-4" cx="130.86" cy="69.54" r="1.16"/><circle class="cls-4" cx="109.15" cy="170.1" r="1.16"/><circle class="cls-4" cx="136.17" cy="70.99" r="1.16"/><circle class="cls-4" cx="103.84" cy="168.65" r="1.16"/><circle class="cls-4" cx="109.16" cy="170.09" r="1.16"/><circle class="cls-4" cx="136.18" cy="70.98" r="1.16"/><circle class="cls-4" cx="103.84" cy="168.64" r="1.16"/><circle class="cls-4" cx="141.19" cy="72.96" r="1.16"/><circle class="cls-4" cx="98.82" cy="166.7" r="1.16"/><circle class="cls-4" cx="146.08" cy="75.5" r="1.16"/><circle class="cls-4" cx="93.93" cy="164.16" r="1.16"/><circle class="cls-4" cx="98.82" cy="166.69" r="1.16"/><circle class="cls-4" cx="146.09" cy="75.49" r="1.16"/><circle class="cls-4" cx="93.93" cy="164.16" r="1.16"/><circle class="cls-4" cx="114.47" cy="68.69" r="1.16"/><circle class="cls-4" cx="125.55" cy="170.97" r="1.16"/><circle class="cls-4" cx="109.03" cy="69.58" r="1.16"/><circle class="cls-4" cx="130.99" cy="170.08" r="1.16"/><circle class="cls-4" cx="125.55" cy="170.96" r="1.16"/><circle class="cls-4" cx="109.03" cy="69.57" r="1.16"/><circle class="cls-4" cx="130.98" cy="170.08" r="1.16"/><circle class="cls-4" cx="103.84" cy="71.01" r="1.16"/><circle class="cls-4" cx="136.18" cy="168.67" r="1.16"/><circle class="cls-4" cx="98.71" cy="73.02" r="1.16"/><circle class="cls-4" cx="141.31" cy="166.66" r="1.16"/><circle class="cls-4" cx="136.18" cy="168.66" r="1.16"/><circle class="cls-4" cx="98.7" cy="73.02" r="1.16"/><circle class="cls-4" cx="141.31" cy="166.65" r="1.16"/><circle class="cls-4" cx="150.34" cy="78.3" r="1.16"/><circle class="cls-4" cx="89.67" cy="161.37" r="1.16"/><circle class="cls-4" cx="154.61" cy="81.78" r="1.16"/><circle class="cls-4" cx="85.4" cy="157.88" r="1.16"/><circle class="cls-4" cx="89.67" cy="161.36" r="1.16"/><circle class="cls-4" cx="154.61" cy="81.77" r="1.16"/><circle class="cls-4" cx="85.41" cy="157.88" r="1.16"/><circle class="cls-4" cx="94.15" cy="75.35" r="1.16"/><circle class="cls-4" cx="145.81" cy="164.31" r="1.16"/><circle class="cls-4" cx="89.54" cy="78.37" r="1.16"/><circle class="cls-4" cx="150.42" cy="161.29" r="1.16"/><circle class="cls-4" cx="145.81" cy="164.3" r="1.16"/><circle class="cls-4" cx="89.54" cy="78.36" r="1.16"/><circle class="cls-4" cx="150.42" cy="161.28" r="1.16"/><circle class="cls-4" cx="158.15" cy="85.32" r="1.16" transform="matrix(0.1, -1, 1, 0.1, 57.79, 234.39)"/><circle class="cls-4" cx="81.87" cy="154.34" r="1.16" transform="translate(-79.72 220.75) rotate(-84.4)"/><circle class="cls-4" cx="81.87" cy="85.32" r="1.16" transform="translate(-7.94 8.4) rotate(-5.6)"/><circle class="cls-4" cx="158.15" cy="154.34" r="1.16" transform="translate(-14.31 16.17) rotate(-5.6)"/><circle class="cls-4" cx="85.84" cy="81.36" r="1.16" transform="translate(-7.13 8.25) rotate(-5.28)"/><circle class="cls-4" cx="154.12" cy="158.3" r="1.16" transform="translate(-13.92 14.87) rotate(-5.28)"/><circle class="cls-4" cx="68.65" cy="119.54" r="1.16"/><circle class="cls-4" cx="171.53" cy="119.41" r="1.16"/><circle class="cls-4" cx="68.94" cy="114.04" r="1.16"/><circle class="cls-4" cx="171.24" cy="124.91" r="1.16"/><circle class="cls-4" cx="171.52" cy="119.41" r="1.16"/><circle class="cls-4" cx="68.93" cy="114.04" r="1.16"/><circle class="cls-4" cx="171.23" cy="124.91" r="1.16"/><circle class="cls-4" cx="69.79" cy="108.62" r="1.16"/><circle class="cls-4" cx="170.35" cy="130.33" r="1.16"/><circle class="cls-4" cx="71.24" cy="103.31" r="1.16"/><circle class="cls-4" cx="168.9" cy="135.64" r="1.16"/><circle class="cls-4" cx="170.34" cy="130.33" r="1.16"/><circle class="cls-4" cx="71.24" cy="103.31" r="1.16"/><circle class="cls-4" cx="168.89" cy="135.64" r="1.16"/><circle class="cls-4" cx="73.21" cy="98.29" r="1.16"/><circle class="cls-4" cx="166.95" cy="140.66" r="1.16"/><circle class="cls-4" cx="75.75" cy="93.4" r="1.16"/><circle class="cls-4" cx="164.42" cy="145.55" r="1.16"/><circle class="cls-4" cx="166.94" cy="140.66" r="1.16"/><circle class="cls-4" cx="75.74" cy="93.4" r="1.16"/><circle class="cls-4" cx="164.41" cy="145.55" r="1.16"/><circle class="cls-4" cx="68.94" cy="125.01" r="1.16"/><circle class="cls-4" cx="171.22" cy="113.94" r="1.16"/><circle class="cls-4" cx="69.83" cy="130.45" r="1.16"/><circle class="cls-4" cx="170.33" cy="108.5" r="1.16"/><circle class="cls-4" cx="171.21" cy="113.94" r="1.16"/><circle class="cls-4" cx="69.82" cy="130.45" r="1.16"/><circle class="cls-4" cx="170.33" cy="108.5" r="1.16"/><circle class="cls-4" cx="71.26" cy="135.65" r="1.16"/><circle class="cls-4" cx="168.92" cy="103.3" r="1.16"/><circle class="cls-4" cx="73.28" cy="140.78" r="1.16"/><circle class="cls-4" cx="166.91" cy="98.17" r="1.16"/><circle class="cls-4" cx="168.91" cy="103.31" r="1.16"/><circle class="cls-4" cx="73.27" cy="140.78" r="1.16"/><circle class="cls-4" cx="166.9" cy="98.18" r="1.16"/><circle class="cls-4" cx="78.55" cy="89.14" r="1.16"/><circle class="cls-4" cx="161.62" cy="149.81" r="1.16"/><circle class="cls-4" cx="161.61" cy="149.81" r="1.16"/><circle class="cls-4" cx="75.6" cy="145.33" r="1.16"/><circle class="cls-4" cx="164.56" cy="93.67" r="1.16"/><circle class="cls-4" cx="78.62" cy="149.94" r="1.16"/><circle class="cls-4" cx="161.54" cy="89.06" r="1.16"/><circle class="cls-4" cx="164.55" cy="93.68" r="1.16"/><circle class="cls-4" cx="78.61" cy="149.94" r="1.16"/><circle class="cls-4" cx="161.53" cy="89.07" r="1.16"/><circle class="cls-4" cx="63.94" cy="116.78" r="1.26"/><circle class="cls-4" cx="176.25" cy="122.9" r="1.26"/><circle class="cls-4" cx="64.59" cy="110.8" r="1.26"/><circle class="cls-4" cx="175.6" cy="128.88" r="1.26"/><circle class="cls-4" cx="176.24" cy="122.89" r="1.26"/><circle class="cls-4" cx="64.59" cy="110.79" r="1.26"/><circle class="cls-4" cx="175.59" cy="128.88" r="1.26"/><circle class="cls-4" cx="65.85" cy="104.93" r="1.26"/><circle class="cls-4" cx="174.3" cy="134.74" r="1.26"/><circle class="cls-4" cx="67.76" cy="99.22" r="1.26"/><circle class="cls-4" cx="172.39" cy="140.46" r="1.26"/><circle class="cls-4" cx="174.29" cy="134.74" r="1.26"/><circle class="cls-4" cx="67.75" cy="99.22" r="1.26"/><circle class="cls-4" cx="172.39" cy="140.45" r="1.26"/><circle class="cls-4" cx="70.21" cy="93.86" r="1.26"/><circle class="cls-4" cx="169.96" cy="145.82" r="1.26"/><circle class="cls-4" cx="73.28" cy="88.68" r="1.26"/><circle class="cls-4" cx="166.9" cy="151" r="1.26"/><circle class="cls-4" cx="169.96" cy="145.81" r="1.26"/><circle class="cls-4" cx="73.27" cy="88.67" r="1.26"/><circle class="cls-4" cx="166.89" cy="151" r="1.26"/><circle class="cls-4" cx="63.93" cy="122.78" r="1.26"/><circle class="cls-4" cx="176.25" cy="116.9" r="1.26"/><circle class="cls-4" cx="64.57" cy="128.77" r="1.26"/><circle class="cls-4" cx="175.61" cy="110.91" r="1.26"/><circle class="cls-4" cx="176.24" cy="116.9" r="1.26"/><circle class="cls-4" cx="64.56" cy="128.77" r="1.26"/><circle class="cls-4" cx="175.6" cy="110.91" r="1.26"/><circle class="cls-4" cx="65.82" cy="134.53" r="1.26"/><circle class="cls-4" cx="174.38" cy="105.15" r="1.26"/><circle class="cls-4" cx="67.7" cy="140.25" r="1.26"/><circle class="cls-4" cx="172.5" cy="99.43" r="1.26"/><circle class="cls-4" cx="174.37" cy="105.15" r="1.26"/><circle class="cls-4" cx="67.69" cy="140.25" r="1.26"/><circle class="cls-4" cx="172.49" cy="99.43" r="1.26"/><circle class="cls-4" cx="76.59" cy="84.2" r="1.26"/><circle class="cls-4" cx="163.58" cy="155.48" r="1.26"/><circle class="cls-4" cx="80.65" cy="79.75" r="1.26"/><circle class="cls-4" cx="159.52" cy="159.93" r="1.26"/><circle class="cls-4" cx="163.58" cy="155.48" r="1.26"/><circle class="cls-4" cx="80.65" cy="79.74" r="1.26"/><circle class="cls-4" cx="159.51" cy="159.93" r="1.26"/><circle class="cls-4" cx="69.96" cy="145.37" r="1.26"/><circle class="cls-4" cx="170.21" cy="94.37" r="1.26"/><circle class="cls-4" cx="72.98" cy="150.58" r="1.26"/><circle class="cls-4" cx="167.19" cy="89.15" r="1.26"/><circle class="cls-4" cx="170.2" cy="94.37" r="1.26"/><circle class="cls-4" cx="72.97" cy="150.58" r="1.26"/><circle class="cls-4" cx="167.18" cy="89.16" r="1.26"/><circle class="cls-4" cx="165.62" cy="89.2" r="1.26"/><circle class="cls-4" cx="165.62" cy="89.21" r="1.26"/><circle class="cls-4" cx="74.56" cy="155.01" r="1.26"/><circle class="cls-4" cx="162.35" cy="84.72" r="1.26"/><circle class="cls-4" cx="78.57" cy="159.5" r="1.26"/><circle class="cls-4" cx="158.34" cy="80.22" r="1.26"/><circle class="cls-4" cx="162.34" cy="84.72" r="1.26"/><circle class="cls-4" cx="78.56" cy="159.51" r="1.26"/><circle class="cls-4" cx="158.33" cy="80.23" r="1.26"/><circle class="cls-4" cx="117.44" cy="72.84" r="1.06" transform="translate(-3.72 6.38) rotate(-3.06)"/><circle class="cls-4" cx="122.63" cy="166.88" r="1.06" transform="translate(-8.74 6.79) rotate(-3.06)"/><circle class="cls-4" cx="122.49" cy="72.83" r="1.06" transform="translate(-3.72 6.65) rotate(-3.06)"/><circle class="cls-4" cx="117.58" cy="166.88" r="1.06" transform="translate(-8.75 6.52) rotate(-3.06)"/><circle class="cls-4" cx="122.63" cy="166.87" r="1.06" transform="translate(-8.74 6.79) rotate(-3.06)"/><circle class="cls-4" cx="122.49" cy="72.82" r="1.06" transform="translate(-3.72 6.65) rotate(-3.06)"/><circle class="cls-4" cx="117.58" cy="166.88" r="1.06" transform="translate(-8.75 6.52) rotate(-3.06)"/><circle class="cls-4" cx="127.48" cy="73.34" r="1.06" transform="translate(-3.74 6.92) rotate(-3.06)"/><circle class="cls-4" cx="112.59" cy="166.34" r="1.06" transform="translate(-8.73 6.25) rotate(-3.06)"/><circle class="cls-4" cx="132.41" cy="74.41" r="1.06" transform="translate(-3.79 7.18) rotate(-3.06)"/><circle class="cls-4" cx="107.66" cy="165.28" r="1.06" transform="translate(-8.68 5.99) rotate(-3.06)"/><circle class="cls-4" cx="112.59" cy="166.33" r="1.06" transform="translate(-8.73 6.25) rotate(-3.06)"/><circle class="cls-4" cx="132.41" cy="74.4" r="1.06" transform="translate(-3.79 7.18) rotate(-3.06)"/><circle class="cls-4" cx="107.66" cy="165.27" r="1.06" transform="translate(-8.68 5.99) rotate(-3.06)"/><circle class="cls-4" cx="137.09" cy="75.96" r="1.06" transform="translate(-3.86 7.43) rotate(-3.06)"/><circle class="cls-4" cx="102.97" cy="163.74" r="1.06" transform="translate(-8.6 5.74) rotate(-3.06)"/><circle class="cls-4" cx="141.69" cy="78.04" r="1.06" transform="translate(-3.97 7.68) rotate(-3.06)"/><circle class="cls-4" cx="98.38" cy="161.66" r="1.06" transform="translate(-8.5 5.49) rotate(-3.06)"/><circle class="cls-4" cx="102.98" cy="163.74" r="1.06" transform="translate(-8.6 5.74) rotate(-3.06)"/><circle class="cls-4" cx="141.69" cy="78.03" r="1.06" transform="translate(-3.97 7.68) rotate(-3.06)"/><circle class="cls-4" cx="98.38" cy="161.66" r="1.06" transform="translate(-8.5 5.49) rotate(-3.06)"/><circle class="cls-4" cx="112.45" cy="73.38" r="1.06" transform="translate(-3.76 6.11) rotate(-3.06)"/><circle class="cls-4" cx="127.62" cy="166.33" r="1.06" transform="translate(-8.7 7.06) rotate(-3.06)"/><circle class="cls-4" cx="107.53" cy="74.45" r="1.06" transform="translate(-3.82 5.85) rotate(-3.06)"/><circle class="cls-4" cx="132.55" cy="165.25" r="1.06" transform="translate(-8.64 7.32) rotate(-3.06)"/><circle class="cls-4" cx="127.62" cy="166.32" r="1.06" transform="translate(-8.7 7.06) rotate(-3.06)"/><circle class="cls-4" cx="107.53" cy="74.45" r="1.06" transform="translate(-3.82 5.85) rotate(-3.06)"/><circle class="cls-4" cx="132.54" cy="165.24" r="1.06" transform="translate(-8.64 7.32) rotate(-3.06)"/><circle class="cls-4" cx="102.85" cy="76.02" r="1.06" transform="translate(-3.91 5.6) rotate(-3.06)"/><circle class="cls-4" cx="137.23" cy="163.7" r="1.06" transform="translate(-8.55 7.57) rotate(-3.06)"/><circle class="cls-4" cx="98.26" cy="78.11" r="1.06" transform="translate(-4.03 5.36) rotate(-3.06)"/><circle class="cls-4" cx="141.82" cy="161.61" r="1.06" transform="translate(-8.43 7.81) rotate(-3.06)"/><circle class="cls-4" cx="137.22" cy="163.69" r="1.06" transform="translate(-8.55 7.57) rotate(-3.06)"/><circle class="cls-4" cx="98.25" cy="78.11" r="1.06" transform="translate(-4.03 5.36) rotate(-3.06)"/><circle class="cls-4" cx="141.81" cy="161.6" r="1.06" transform="translate(-8.43 7.81) rotate(-3.06)"/><circle class="cls-4" cx="145.72" cy="80.39" r="1.06" transform="translate(-4.09 7.9) rotate(-3.06)"/><circle class="cls-4" cx="94.35" cy="159.31" r="1.06" transform="translate(-8.38 5.27) rotate(-3.06)"/><circle class="cls-4" cx="149.79" cy="83.36" r="1.06" transform="translate(-4.24 8.12) rotate(-3.06)"/><circle class="cls-4" cx="90.27" cy="156.34" r="1.06" transform="translate(-8.22 5.05) rotate(-3.06)"/><circle class="cls-4" cx="94.35" cy="159.31" r="1.06" transform="translate(-8.38 5.27) rotate(-3.06)"/><circle class="cls-4" cx="149.8" cy="83.36" r="1.06" transform="translate(-4.24 8.12) rotate(-3.06)"/><circle class="cls-4" cx="90.28" cy="156.33" r="1.06" transform="translate(-8.22 5.05) rotate(-3.06)"/><circle class="cls-4" cx="94.21" cy="80.46" r="1.06" transform="translate(-4.16 5.15) rotate(-3.06)"/><circle class="cls-4" cx="145.82" cy="159.24" r="1.06" transform="translate(-8.3 8.02) rotate(-3.06)"/><circle class="cls-4" cx="90.14" cy="83.45" r="1.06" transform="translate(-4.33 4.94) rotate(-3.06)"/><circle class="cls-4" cx="149.88" cy="156.25" r="1.06" transform="matrix(1, -0.05, 0.05, 1, -8.13, 8.23)"/><circle class="cls-4" cx="145.81" cy="159.23" r="1.06" transform="translate(-8.3 8.02) rotate(-3.06)"/><circle class="cls-4" cx="90.14" cy="83.44" r="1.06" transform="translate(-4.33 4.94) rotate(-3.06)"/><circle class="cls-4" cx="149.88" cy="156.25" r="1.06" transform="translate(-8.13 8.23) rotate(-3.06)"/><circle class="cls-4" cx="153.2" cy="86.43" r="1.06" transform="translate(60.13 235.69) rotate(-87.48)"/><circle class="cls-4" cx="86.87" cy="153.27" r="1.06" transform="translate(-70.07 233.33) rotate(-87.48)"/><circle class="cls-4" cx="83.47" cy="90.19" r="1.06" transform="translate(-12.66 13.64) rotate(-8.68)"/><circle class="cls-4" cx="156.6" cy="149.52" r="1.06" transform="matrix(0.99, -0.15, 0.15, 0.99, -20.78, 25.36)"/><circle class="cls-4" cx="86.91" cy="86.37" r="1.06" transform="translate(-11.64 13.57) rotate(-8.37)"/><circle class="cls-4" cx="153.12" cy="153.34" r="1.06" transform="translate(-20.69 23.92) rotate(-8.37)"/><circle class="cls-4" cx="73.07" cy="122.11" r="1.06" transform="translate(-6.42 4.08) rotate(-3.06)"/><circle class="cls-4" cx="167.11" cy="116.93" r="1.06" transform="translate(-6.01 9.1) rotate(-3.06)"/><circle class="cls-4" cx="73.07" cy="117.07" r="1.06" transform="translate(-6.15 4.07) rotate(-3.06)"/><circle class="cls-4" cx="167.12" cy="121.97" r="1.06" transform="translate(-6.28 9.1) rotate(-3.06)"/><circle class="cls-4" cx="167.1" cy="116.93" r="1.06" transform="translate(-6.01 9.1) rotate(-3.06)"/><circle class="cls-4" cx="73.06" cy="117.07" r="1.06" transform="translate(-6.15 4.07) rotate(-3.06)"/><circle class="cls-4" cx="167.11" cy="121.97" r="1.06" transform="translate(-6.28 9.1) rotate(-3.06)"/><circle class="cls-4" cx="73.58" cy="112.08" r="1.06" transform="translate(-5.88 4.09) rotate(-3.06)"/><circle class="cls-4" cx="166.57" cy="126.97" r="1.06" transform="translate(-6.55 9.08) rotate(-3.06)"/><circle class="cls-4" cx="74.64" cy="107.15" r="1.06" transform="translate(-5.62 4.14) rotate(-3.06)"/><circle class="cls-4" cx="165.51" cy="131.9" r="1.06" transform="translate(-6.81 9.03) rotate(-3.06)"/><circle class="cls-4" cx="166.57" cy="126.97" r="1.06" transform="matrix(1, -0.05, 0.05, 1, -6.55, 9.08)"/><circle class="cls-4" cx="74.64" cy="107.15" r="1.06" transform="translate(-5.62 4.14) rotate(-3.06)"/><circle class="cls-4" cx="165.5" cy="131.9" r="1.06" transform="translate(-6.81 9.03) rotate(-3.06)"/><circle class="cls-4" cx="76.2" cy="102.46" r="1.06" transform="translate(-5.37 4.22) rotate(-3.06)"/><circle class="cls-4" cx="163.98" cy="136.58" r="1.06" transform="translate(-7.06 8.96) rotate(-3.06)"/><circle class="cls-4" cx="78.27" cy="97.87" r="1.06" transform="translate(-5.12 4.32) rotate(-3.06)"/><circle class="cls-4" cx="161.9" cy="141.18" r="1.06" transform="translate(-7.31 8.85) rotate(-3.06)"/><circle class="cls-4" cx="163.97" cy="136.58" r="1.06" transform="translate(-7.06 8.96) rotate(-3.06)"/><circle class="cls-4" cx="78.27" cy="97.87" r="1.06" transform="translate(-5.12 4.32) rotate(-3.06)"/><circle class="cls-4" cx="161.89" cy="141.18" r="1.06" transform="translate(-7.31 8.85) rotate(-3.06)"/><circle class="cls-4" cx="73.61" cy="127.1" r="1.06" transform="translate(-6.69 4.11) rotate(-3.06)"/><circle class="cls-4" cx="166.56" cy="111.94" r="1.06" transform="translate(-5.74 9.06) rotate(-3.06)"/><circle class="cls-4" cx="74.69" cy="132.03" r="1.06" transform="translate(-6.95 4.18) rotate(-3.06)"/><circle class="cls-4" cx="165.48" cy="107.01" r="1.06" transform="translate(-5.48 8.99) rotate(-3.06)"/><circle class="cls-4" cx="166.56" cy="111.94" r="1.06" transform="translate(-5.74 9.06) rotate(-3.06)"/><circle class="cls-4" cx="74.68" cy="132.03" r="1.06" transform="translate(-6.95 4.18) rotate(-3.06)"/><circle class="cls-4" cx="165.48" cy="107.01" r="1.06" transform="translate(-5.48 8.99) rotate(-3.06)"/><circle class="cls-4" cx="76.26" cy="136.71" r="1.06" transform="translate(-7.2 4.27) rotate(-3.06)"/><circle class="cls-4" cx="163.94" cy="102.33" r="1.06" transform="translate(-5.23 8.9) rotate(-3.06)"/><circle class="cls-4" cx="78.35" cy="141.3" r="1.06" transform="translate(-7.44 4.39) rotate(-3.06)"/><circle class="cls-4" cx="161.85" cy="97.74" r="1.06" transform="translate(-4.99 8.79) rotate(-3.06)"/><circle class="cls-4" cx="163.93" cy="102.34" r="1.06" transform="translate(-5.23 8.9) rotate(-3.06)"/><circle class="cls-4" cx="78.34" cy="141.3" r="1.06" transform="translate(-7.44 4.39) rotate(-3.06)"/><circle class="cls-4" cx="161.84" cy="97.75" r="1.06" transform="matrix(1, -0.05, 0.05, 1, -4.99, 8.79)"/><circle class="cls-4" cx="80.62" cy="93.84" r="1.06" transform="translate(-4.9 4.44) rotate(-3.06)"/><circle class="cls-4" cx="159.55" cy="145.21" r="1.06" transform="translate(-7.53 8.73) rotate(-3.06)"/><circle class="cls-4" cx="159.54" cy="145.21" r="1.06" transform="translate(-7.53 8.73) rotate(-3.06)"/><circle class="cls-4" cx="80.7" cy="145.35" r="1.06" transform="matrix(1, -0.05, 0.05, 1, -7.65, 4.52)"/><circle class="cls-4" cx="159.47" cy="93.74" r="1.06" transform="translate(-4.78 8.65) rotate(-3.06)"/><circle class="cls-4" cx="83.68" cy="149.41" r="1.06" transform="matrix(1, -0.05, 0.05, 1, -7.86, 4.68)"/><circle class="cls-4" cx="156.49" cy="89.68" r="1.06" transform="translate(-4.57 8.49) rotate(-3.06)"/><circle class="cls-4" cx="159.47" cy="93.75" r="1.06" transform="translate(-4.78 8.65) rotate(-3.06)"/><circle class="cls-4" cx="83.68" cy="149.42" r="1.06" transform="translate(-7.86 4.68) rotate(-3.06)"/><circle class="cls-4" cx="156.48" cy="89.68" r="1.06" transform="translate(-4.57 8.49) rotate(-3.06)"/><circle class="cls-4" cx="119.97" cy="78.05" r="0.94"/><circle class="cls-4" cx="120.07" cy="161.64" r="0.94"/><circle class="cls-4" cx="124.44" cy="78.28" r="0.94"/><circle class="cls-4" cx="115.6" cy="161.41" r="0.94"/><circle class="cls-4" cx="120.07" cy="161.64" r="0.94"/><circle class="cls-4" cx="124.44" cy="78.28" r="0.94"/><circle class="cls-4" cx="115.6" cy="161.4" r="0.94"/><circle class="cls-4" cx="128.84" cy="78.97" r="0.94"/><circle class="cls-4" cx="111.2" cy="160.69" r="0.94"/><circle class="cls-4" cx="133.16" cy="80.15" r="0.94"/><circle class="cls-4" cx="106.88" cy="159.51" r="0.94"/><circle class="cls-4" cx="111.2" cy="160.68" r="0.94"/><circle class="cls-4" cx="133.16" cy="80.15" r="0.94"/><circle class="cls-4" cx="106.89" cy="159.5" r="0.94"/><circle class="cls-4" cx="137.24" cy="81.75" r="0.94"/><circle class="cls-4" cx="102.81" cy="157.93" r="0.94"/><circle class="cls-4" cx="141.21" cy="83.81" r="0.94"/><circle class="cls-4" cx="98.83" cy="155.87" r="0.94"/><circle class="cls-4" cx="102.81" cy="157.92" r="0.94"/><circle class="cls-4" cx="141.21" cy="83.81" r="0.94"/><circle class="cls-4" cx="98.83" cy="155.86" r="0.94"/><circle class="cls-4" cx="115.52" cy="78.28" r="0.94"/><circle class="cls-4" cx="124.52" cy="161.39" r="0.94"/><circle class="cls-4" cx="111.1" cy="79" r="0.94"/><circle class="cls-4" cx="128.94" cy="160.67" r="0.94"/><circle class="cls-4" cx="124.52" cy="161.39" r="0.94"/><circle class="cls-4" cx="111.1" cy="79" r="0.94"/><circle class="cls-4" cx="128.94" cy="160.67" r="0.94"/><circle class="cls-4" cx="106.88" cy="80.17" r="0.94"/><circle class="cls-4" cx="133.16" cy="159.53" r="0.94"/><circle class="cls-4" cx="102.71" cy="81.8" r="0.94"/><circle class="cls-4" cx="137.33" cy="157.89" r="0.94"/><circle class="cls-4" cx="133.16" cy="159.52" r="0.94"/><circle class="cls-4" cx="102.71" cy="81.8" r="0.94"/><circle class="cls-4" cx="137.33" cy="157.89" r="0.94"/><circle class="cls-4" cx="144.67" cy="86.09" r="0.94"/><circle class="cls-4" cx="95.37" cy="153.59" r="0.94"/><circle class="cls-4" cx="148.14" cy="88.92" r="0.94"/><circle class="cls-4" cx="91.9" cy="150.76" r="0.94"/><circle class="cls-4" cx="95.37" cy="153.59" r="0.94"/><circle class="cls-4" cx="148.14" cy="88.91" r="0.94"/><circle class="cls-4" cx="91.91" cy="150.75" r="0.94"/><circle class="cls-4" cx="99.01" cy="83.7" r="0.94"/><circle class="cls-4" cx="140.99" cy="155.98" r="0.94"/><circle class="cls-4" cx="95.27" cy="86.15" r="0.94"/><circle class="cls-4" cx="144.74" cy="153.53" r="0.94"/><circle class="cls-4" cx="140.99" cy="155.98" r="0.94"/><circle class="cls-4" cx="95.26" cy="86.14" r="0.94"/><circle class="cls-4" cx="144.73" cy="153.52" r="0.94"/><circle class="cls-4" cx="151.01" cy="91.8" r="0.94" transform="translate(44.91 233.13) rotate(-84.4)"/><circle class="cls-4" cx="89.03" cy="147.88" r="0.94" transform="translate(-66.83 222.05) rotate(-84.4)"/><circle class="cls-4" cx="89.03" cy="91.8" r="0.94" transform="translate(-8.53 9.13) rotate(-5.6)"/><circle class="cls-4" cx="151.01" cy="147.88" r="0.94" transform="translate(-13.71 15.44) rotate(-5.6)"/><circle class="cls-4" cx="92.26" cy="88.58" r="0.94" transform="translate(-7.77 8.87) rotate(-5.28)"/><circle class="cls-4" cx="147.75" cy="151.1" r="0.94" transform="translate(-13.29 14.25) rotate(-5.28)"/><circle class="cls-4" cx="78.29" cy="119.6" r="0.94"/><circle class="cls-4" cx="161.89" cy="119.5" r="0.94"/><circle class="cls-4" cx="78.53" cy="115.13" r="0.94"/><circle class="cls-4" cx="161.65" cy="123.97" r="0.94"/><circle class="cls-4" cx="161.88" cy="119.5" r="0.94"/><circle class="cls-4" cx="78.52" cy="115.13" r="0.94"/><circle class="cls-4" cx="161.65" cy="123.97" r="0.94"/><circle class="cls-4" cx="79.22" cy="110.73" r="0.94"/><circle class="cls-4" cx="160.93" cy="128.37" r="0.94"/><circle class="cls-4" cx="80.4" cy="106.41" r="0.94"/><circle class="cls-4" cx="159.75" cy="132.69" r="0.94"/><circle class="cls-4" cx="160.93" cy="128.37" r="0.94"/><circle class="cls-4" cx="80.39" cy="106.41" r="0.94"/><circle class="cls-4" cx="159.75" cy="132.69" r="0.94"/><circle class="cls-4" cx="82" cy="102.34" r="0.94"/><circle class="cls-4" cx="158.17" cy="136.77" r="0.94"/><circle class="cls-4" cx="84.06" cy="98.36" r="0.94"/><circle class="cls-4" cx="156.11" cy="140.74" r="0.94"/><circle class="cls-4" cx="158.16" cy="136.76" r="0.94"/><circle class="cls-4" cx="84.05" cy="98.36" r="0.94"/><circle class="cls-4" cx="156.1" cy="140.74" r="0.94"/><circle class="cls-4" cx="78.53" cy="124.05" r="0.94"/><circle class="cls-4" cx="161.64" cy="115.05" r="0.94"/><circle class="cls-4" cx="79.25" cy="128.47" r="0.94"/><circle class="cls-4" cx="160.92" cy="110.63" r="0.94"/><circle class="cls-4" cx="161.63" cy="115.05" r="0.94"/><circle class="cls-4" cx="79.24" cy="128.47" r="0.94"/><circle class="cls-4" cx="160.91" cy="110.63" r="0.94"/><circle class="cls-4" cx="80.41" cy="132.69" r="0.94"/><circle class="cls-4" cx="159.77" cy="106.41" r="0.94"/><circle class="cls-4" cx="82.05" cy="136.86" r="0.94"/><circle class="cls-4" cx="158.14" cy="102.24" r="0.94"/><circle class="cls-4" cx="159.76" cy="106.41" r="0.94"/><circle class="cls-4" cx="82.04" cy="136.86" r="0.94"/><circle class="cls-4" cx="158.13" cy="102.24" r="0.94"/><circle class="cls-4" cx="86.33" cy="94.9" r="0.94"/><circle class="cls-4" cx="153.83" cy="144.2" r="0.94"/><circle class="cls-4" cx="153.83" cy="144.2" r="0.94"/><circle class="cls-4" cx="83.94" cy="140.56" r="0.94"/><circle class="cls-4" cx="156.23" cy="98.58" r="0.94"/><circle class="cls-4" cx="86.39" cy="144.31" r="0.94"/><circle class="cls-4" cx="153.77" cy="94.84" r="0.94"/><circle class="cls-4" cx="156.22" cy="98.59" r="0.94"/><circle class="cls-4" cx="86.39" cy="144.31" r="0.94"/><circle class="cls-4" cx="153.77" cy="94.84" r="0.94"/><circle class="cls-4" cx="118.01" cy="82.93" r="0.83" transform="translate(-4.26 6.42) rotate(-3.06)"/><circle class="cls-4" cx="122.08" cy="156.79" r="0.83" transform="translate(-8.2 6.75) rotate(-3.06)"/><circle class="cls-4" cx="121.97" cy="82.93" r="0.83" transform="translate(-4.26 6.64) rotate(-3.06)"/><circle class="cls-4" cx="118.12" cy="156.8" r="0.83" transform="translate(-8.21 6.53) rotate(-3.06)"/><circle class="cls-4" cx="122.08" cy="156.79" r="0.83" transform="translate(-8.2 6.75) rotate(-3.06)"/><circle class="cls-4" cx="121.97" cy="82.92" r="0.83" transform="translate(-4.26 6.64) rotate(-3.06)"/><circle class="cls-4" cx="118.12" cy="156.79" r="0.83" transform="translate(-8.21 6.53) rotate(-3.06)"/><circle class="cls-4" cx="125.89" cy="83.33" r="0.83" transform="translate(-4.27 6.85) rotate(-3.06)"/><circle class="cls-4" cx="114.2" cy="156.37" r="0.83" transform="translate(-8.19 6.32) rotate(-3.06)"/><circle class="cls-4" cx="129.77" cy="84.16" r="0.83" transform="translate(-4.31 7.05) rotate(-3.06)"/><circle class="cls-4" cx="110.33" cy="155.53" r="0.83" transform="translate(-8.15 6.12) rotate(-3.06)"/><circle class="cls-4" cx="114.2" cy="156.36" r="0.83" transform="matrix(1, -0.05, 0.05, 1, -8.19, 6.32)"/><circle class="cls-4" cx="129.77" cy="84.16" r="0.83" transform="translate(-4.31 7.05) rotate(-3.06)"/><circle class="cls-4" cx="110.33" cy="155.53" r="0.83" transform="translate(-8.15 6.12) rotate(-3.06)"/><circle class="cls-4" cx="133.44" cy="85.38" r="0.83" transform="translate(-4.37 7.25) rotate(-3.06)"/><circle class="cls-4" cx="106.65" cy="154.33" r="0.83" transform="matrix(1, -0.05, 0.05, 1, -8.09, 5.92)"/><circle class="cls-4" cx="137.05" cy="87.02" r="0.83" transform="translate(-4.45 7.45) rotate(-3.06)"/><circle class="cls-4" cx="103.04" cy="152.7" r="0.83" transform="translate(-8.01 5.72) rotate(-3.06)"/><circle class="cls-4" cx="106.65" cy="154.32" r="0.83" transform="translate(-8.09 5.92) rotate(-3.06)"/><circle class="cls-4" cx="137.06" cy="87.01" r="0.83" transform="translate(-4.45 7.45) rotate(-3.06)"/><circle class="cls-4" cx="103.04" cy="152.69" r="0.83" transform="translate(-8.01 5.72) rotate(-3.06)"/><circle class="cls-4" cx="114.09" cy="83.35" r="0.83" transform="translate(-4.29 6.21) rotate(-3.06)"/><circle class="cls-4" cx="126" cy="156.36" r="0.83" transform="translate(-8.17 6.96) rotate(-3.06)"/><circle class="cls-4" cx="110.22" cy="84.2" r="0.83" transform="translate(-4.34 6.01) rotate(-3.06)"/><circle class="cls-4" cx="129.87" cy="155.51" r="0.83" transform="translate(-8.12 7.16) rotate(-3.06)"/><circle class="cls-4" cx="126" cy="156.35" r="0.83" transform="translate(-8.17 6.96) rotate(-3.06)"/><circle class="cls-4" cx="110.22" cy="84.19" r="0.83" transform="translate(-4.34 6.01) rotate(-3.06)"/><circle class="cls-4" cx="129.87" cy="155.51" r="0.83" transform="translate(-8.12 7.16) rotate(-3.06)"/><circle class="cls-4" cx="106.55" cy="85.43" r="0.83" transform="translate(-4.41 5.81) rotate(-3.06)"/><circle class="cls-4" cx="133.55" cy="154.3" r="0.83" transform="translate(-8.05 7.36) rotate(-3.06)"/><circle class="cls-4" cx="102.94" cy="87.07" r="0.83" transform="translate(-4.51 5.62) rotate(-3.06)"/><circle class="cls-4" cx="137.15" cy="152.65" r="0.83" transform="translate(-7.96 7.55) rotate(-3.06)"/><circle class="cls-4" cx="133.55" cy="154.29" r="0.83" transform="translate(-8.05 7.36) rotate(-3.06)"/><circle class="cls-4" cx="102.94" cy="87.07" r="0.83" transform="translate(-4.5 5.62) rotate(-3.06)"/><circle class="cls-4" cx="137.15" cy="152.65" r="0.83" transform="translate(-7.96 7.55) rotate(-3.06)"/><circle class="cls-4" cx="140.22" cy="88.86" r="0.83" transform="translate(-4.55 7.62) rotate(-3.06)"/><circle class="cls-4" cx="99.87" cy="150.85" r="0.83" transform="translate(-7.92 5.55) rotate(-3.06)"/><circle class="cls-4" cx="143.42" cy="91.2" r="0.83" transform="translate(-4.67 7.79) rotate(-3.06)"/><circle class="cls-4" cx="96.67" cy="148.51" r="0.83" transform="translate(-7.8 5.38) rotate(-3.06)"/><circle class="cls-4" cx="99.87" cy="150.85" r="0.83" transform="matrix(1, -0.05, 0.05, 1, -7.92, 5.55)"/><circle class="cls-4" cx="143.42" cy="91.19" r="0.83" transform="translate(-4.67 7.79) rotate(-3.06)"/><circle class="cls-4" cx="96.67" cy="148.51" r="0.83" transform="translate(-7.8 5.38) rotate(-3.06)"/><circle class="cls-4" cx="99.76" cy="88.92" r="0.83" transform="translate(-4.61 5.46) rotate(-3.06)"/><circle class="cls-4" cx="140.29" cy="150.79" r="0.83" transform="translate(-7.86 7.71) rotate(-3.06)"/><circle class="cls-4" cx="96.57" cy="91.27" r="0.83" transform="matrix(1, -0.05, 0.05, 1, -4.74, 5.29)"/><circle class="cls-4" cx="143.49" cy="148.45" r="0.83" transform="translate(-7.73 7.88) rotate(-3.06)"/><circle class="cls-4" cx="140.29" cy="150.79" r="0.83" transform="translate(-7.86 7.71) rotate(-3.06)"/><circle class="cls-4" cx="96.57" cy="91.26" r="0.83" transform="translate(-4.74 5.29) rotate(-3.06)"/><circle class="cls-4" cx="143.48" cy="148.44" r="0.83" transform="translate(-7.73 7.88) rotate(-3.06)"/><circle class="cls-4" cx="146.09" cy="93.6" r="0.83" transform="matrix(0.04, -1, 1, 0.04, 46.17, 235.45)"/><circle class="cls-4" cx="94" cy="146.11" r="0.83" transform="translate(-56.1 233.6) rotate(-87.48)"/><circle class="cls-4" cx="91.33" cy="96.56" r="0.83" transform="translate(-13.53 14.9) rotate(-8.68)"/><circle class="cls-4" cx="148.76" cy="143.16" r="0.83" transform="translate(-19.91 24.1) rotate(-8.68)"/><circle class="cls-4" cx="94.03" cy="93.56" r="0.83" transform="translate(-12.62 14.68) rotate(-8.37)"/><circle class="cls-4" cx="146.03" cy="146.15" r="0.83" transform="translate(-19.72 22.81) rotate(-8.37)"/><circle class="cls-4" cx="83.16" cy="121.63" r="0.83" transform="translate(-6.38 4.62) rotate(-3.06)"/><circle class="cls-4" cx="157.02" cy="117.56" r="0.83" transform="translate(-6.06 8.56) rotate(-3.06)"/><circle class="cls-4" cx="83.16" cy="117.67" r="0.83" transform="translate(-6.17 4.61) rotate(-3.06)"/><circle class="cls-4" cx="157.03" cy="121.52" r="0.83" transform="translate(-6.27 8.56) rotate(-3.06)"/><circle class="cls-4" cx="157.02" cy="117.56" r="0.83" transform="translate(-6.06 8.56) rotate(-3.06)"/><circle class="cls-4" cx="83.15" cy="117.67" r="0.83" transform="translate(-6.17 4.61) rotate(-3.06)"/><circle class="cls-4" cx="157.02" cy="121.52" r="0.83" transform="translate(-6.27 8.56) rotate(-3.06)"/><circle class="cls-4" cx="83.56" cy="113.75" r="0.83" transform="translate(-5.96 4.63) rotate(-3.06)"/><circle class="cls-4" cx="156.6" cy="125.45" r="0.83" transform="translate(-6.48 8.55) rotate(-3.06)"/><circle class="cls-4" cx="84.39" cy="109.88" r="0.83" transform="translate(-5.75 4.67) rotate(-3.06)"/><circle class="cls-4" cx="155.76" cy="129.32" r="0.83" transform="translate(-6.69 8.51) rotate(-3.06)"/><circle class="cls-4" cx="156.59" cy="125.45" r="0.83" transform="translate(-6.48 8.55) rotate(-3.06)"/><circle class="cls-4" cx="84.39" cy="109.88" r="0.83" transform="translate(-5.75 4.67) rotate(-3.06)"/><circle class="cls-4" cx="155.76" cy="129.32" r="0.83" transform="translate(-6.69 8.51) rotate(-3.06)"/><circle class="cls-4" cx="85.61" cy="106.2" r="0.83" transform="translate(-5.55 4.73) rotate(-3.06)"/><circle class="cls-4" cx="154.56" cy="133" r="0.83" transform="matrix(1, -0.05, 0.05, 1, -6.88, 8.45)"/><circle class="cls-4" cx="87.25" cy="102.59" r="0.83" transform="translate(-5.36 4.81) rotate(-3.06)"/><circle class="cls-4" cx="152.93" cy="136.61" r="0.83" transform="translate(-7.08 8.37) rotate(-3.06)"/><circle class="cls-4" cx="154.55" cy="133" r="0.83" transform="translate(-6.88 8.45) rotate(-3.06)"/><circle class="cls-4" cx="87.24" cy="102.59" r="0.83" transform="translate(-5.36 4.81) rotate(-3.06)"/><circle class="cls-4" cx="152.92" cy="136.6" r="0.83" transform="translate(-7.08 8.37) rotate(-3.06)"/><circle class="cls-4" cx="83.58" cy="125.55" r="0.83" transform="translate(-6.59 4.64) rotate(-3.06)"/><circle class="cls-4" cx="156.59" cy="113.64" r="0.83" transform="translate(-5.85 8.53) rotate(-3.06)"/><circle class="cls-4" cx="84.43" cy="129.42" r="0.83" transform="translate(-6.79 4.7) rotate(-3.06)"/><circle class="cls-4" cx="155.74" cy="109.77" r="0.83" transform="translate(-5.64 8.48) rotate(-3.06)"/><circle class="cls-4" cx="156.58" cy="113.64" r="0.83" transform="translate(-5.85 8.53) rotate(-3.06)"/><circle class="cls-4" cx="84.43" cy="129.42" r="0.83" transform="translate(-6.79 4.7) rotate(-3.06)"/><circle class="cls-4" cx="155.74" cy="109.77" r="0.83" transform="translate(-5.64 8.48) rotate(-3.06)"/><circle class="cls-4" cx="85.66" cy="133.1" r="0.83" transform="matrix(1, -0.05, 0.05, 1, -6.99, 4.77)"/><circle class="cls-4" cx="154.53" cy="106.1" r="0.83" transform="matrix(1, -0.05, 0.05, 1, -5.45, 8.41)"/><circle class="cls-4" cx="87.3" cy="136.7" r="0.83" transform="translate(-7.18 4.86) rotate(-3.06)"/><circle class="cls-4" cx="152.88" cy="102.49" r="0.83" transform="translate(-5.26 8.31) rotate(-3.06)"/><circle class="cls-4" cx="154.52" cy="106.1" r="0.83" transform="translate(-5.45 8.41) rotate(-3.06)"/><circle class="cls-4" cx="87.3" cy="136.7" r="0.83" transform="translate(-7.18 4.86) rotate(-3.06)"/><circle class="cls-4" cx="152.88" cy="102.49" r="0.83" transform="translate(-5.26 8.31) rotate(-3.06)"/><circle class="cls-4" cx="89.09" cy="99.42" r="0.83" transform="translate(-5.18 4.9) rotate(-3.06)"/><circle class="cls-4" cx="151.08" cy="139.77" r="0.83" transform="translate(-7.25 8.27) rotate(-3.06)"/><circle class="cls-4" cx="151.08" cy="139.77" r="0.83" transform="translate(-7.25 8.27) rotate(-3.06)"/><circle class="cls-4" cx="89.15" cy="139.88" r="0.83" transform="translate(-7.35 4.96) rotate(-3.06)"/><circle class="cls-4" cx="151.02" cy="99.35" r="0.83" transform="translate(-5.09 8.21) rotate(-3.06)"/><circle class="cls-4" cx="91.5" cy="143.07" r="0.83" transform="translate(-7.51 5.09) rotate(-3.06)"/><circle class="cls-4" cx="148.68" cy="96.16" r="0.83" transform="translate(-4.93 8.08) rotate(-3.06)"/><circle class="cls-4" cx="151.02" cy="99.35" r="0.83" transform="matrix(1, -0.05, 0.05, 1, -5.09, 8.21)"/><circle class="cls-4" cx="91.49" cy="143.08" r="0.83" transform="translate(-7.51 5.09) rotate(-3.06)"/><circle class="cls-4" cx="148.67" cy="96.16" r="0.83" transform="translate(-4.93 8.08) rotate(-3.06)"/><circle class="cls-4" cx="116.9" cy="88.35" r="0.71" transform="translate(-8.1 11.89) rotate(-5.63)"/><circle class="cls-4" cx="123.23" cy="151.52" r="0.71" transform="translate(-14.26 12.81) rotate(-5.63)"/><circle class="cls-4" cx="120.3" cy="88.2" r="0.71" transform="translate(-8.07 12.22) rotate(-5.63)"/><circle class="cls-4" cx="119.83" cy="151.67" r="0.71" transform="translate(-14.3 12.48) rotate(-5.63)"/><circle class="cls-4" cx="123.23" cy="151.51" r="0.71" transform="matrix(1, -0.1, 0.1, 1, -14.26, 12.81)"/><circle class="cls-4" cx="120.29" cy="88.19" r="0.71" transform="translate(-8.07 12.22) rotate(-5.63)"/><circle class="cls-4" cx="119.83" cy="151.67" r="0.71" transform="translate(-14.3 12.48) rotate(-5.63)"/><circle class="cls-4" cx="123.67" cy="88.39" r="0.71" transform="translate(-8.07 12.55) rotate(-5.63)"/><circle class="cls-4" cx="116.45" cy="151.46" r="0.71" transform="translate(-14.29 12.15) rotate(-5.63)"/><circle class="cls-4" cx="127.02" cy="88.96" r="0.71" transform="translate(-8.11 12.89) rotate(-5.63)"/><circle class="cls-4" cx="113.1" cy="150.89" r="0.71" transform="translate(-14.25 11.82) rotate(-5.63)"/><circle class="cls-4" cx="116.45" cy="151.45" r="0.71" transform="translate(-14.29 12.15) rotate(-5.63)"/><circle class="cls-4" cx="127.02" cy="88.95" r="0.71" transform="translate(-8.11 12.89) rotate(-5.63)"/><circle class="cls-4" cx="113.1" cy="150.89" r="0.71" transform="translate(-14.25 11.82) rotate(-5.63)"/><circle class="cls-4" cx="130.22" cy="89.86" r="0.71" transform="translate(-8.18 13.2) rotate(-5.63)"/><circle class="cls-4" cx="109.9" cy="150" r="0.71" transform="translate(-14.18 11.5) rotate(-5.63)"/><circle class="cls-4" cx="133.38" cy="91.12" r="0.71" transform="translate(-8.29 13.52) rotate(-5.63)"/><circle class="cls-4" cx="106.74" cy="148.74" r="0.71" transform="matrix(1, -0.1, 0.1, 1, -14.07, 11.18)"/><circle class="cls-4" cx="109.9" cy="149.99" r="0.71" transform="translate(-14.18 11.5) rotate(-5.63)"/><circle class="cls-4" cx="133.38" cy="91.12" r="0.71" transform="translate(-8.29 13.52) rotate(-5.63)"/><circle class="cls-4" cx="106.74" cy="148.73" r="0.71" transform="translate(-14.07 11.18) rotate(-5.63)"/><circle class="cls-4" cx="113.56" cy="88.87" r="0.71" transform="translate(-8.17 11.56) rotate(-5.63)"/><circle class="cls-4" cx="126.57" cy="151" r="0.71" transform="translate(-14.2 13.14) rotate(-5.63)"/><circle class="cls-4" cx="110.27" cy="89.74" r="0.71" transform="translate(-8.27 11.25) rotate(-5.63)"/><circle class="cls-4" cx="129.86" cy="150.12" r="0.71" transform="translate(-14.1 13.46) rotate(-5.63)"/><circle class="cls-4" cx="126.57" cy="150.99" r="0.71" transform="translate(-14.2 13.14) rotate(-5.63)"/><circle class="cls-4" cx="110.27" cy="89.74" r="0.71" transform="translate(-8.27 11.25) rotate(-5.63)"/><circle class="cls-4" cx="129.85" cy="150.12" r="0.71" transform="translate(-14.1 13.46) rotate(-5.63)"/><circle class="cls-4" cx="107.17" cy="90.94" r="0.71" transform="translate(-8.4 10.95) rotate(-5.63)"/><circle class="cls-4" cx="132.96" cy="148.94" r="0.71" transform="matrix(1, -0.1, 0.1, 1, -13.96, 13.76)"/><circle class="cls-4" cx="104.14" cy="92.48" r="0.71" transform="translate(-8.57 10.66) rotate(-5.63)"/><circle class="cls-4" cx="135.99" cy="147.39" r="0.71" transform="translate(-13.8 14.05) rotate(-5.63)"/><circle class="cls-4" cx="132.96" cy="148.93" r="0.71" transform="translate(-13.96 13.76) rotate(-5.63)"/><circle class="cls-4" cx="104.14" cy="92.48" r="0.71" transform="translate(-8.57 10.66) rotate(-5.63)"/><circle class="cls-4" cx="135.99" cy="147.39" r="0.71" transform="translate(-13.8 14.05) rotate(-5.63)"/><circle class="cls-4" cx="136.17" cy="92.58" r="0.71" transform="translate(-8.42 13.8) rotate(-5.63)"/><circle class="cls-4" cx="103.96" cy="147.28" r="0.71" transform="translate(-13.94 10.9) rotate(-5.63)"/><circle class="cls-4" cx="139" cy="94.46" r="0.71" transform="translate(-8.59 14.09) rotate(-5.63)"/><circle class="cls-4" cx="101.12" cy="145.4" r="0.71" transform="translate(-13.77 10.62) rotate(-5.63)"/><circle class="cls-4" cx="103.96" cy="147.27" r="0.71" transform="translate(-13.94 10.9) rotate(-5.63)"/><circle class="cls-4" cx="139" cy="94.46" r="0.71" transform="translate(-8.59 14.09) rotate(-5.63)"/><circle class="cls-4" cx="101.13" cy="145.39" r="0.71" transform="translate(-13.77 10.62) rotate(-5.63)"/><circle class="cls-4" cx="101.48" cy="94.19" r="0.71" transform="translate(-8.75 10.41) rotate(-5.63)"/><circle class="cls-4" cx="138.61" cy="145.68" r="0.71" transform="translate(-13.62 14.29) rotate(-5.63)"/><circle class="cls-4" cx="98.84" cy="96.32" r="0.71" transform="translate(-8.97 10.16) rotate(-5.63)"/><circle class="cls-4" cx="141.26" cy="143.54" r="0.71" transform="translate(-13.4 14.54) rotate(-5.63)"/><circle class="cls-4" cx="138.61" cy="145.67" r="0.71" transform="translate(-13.62 14.29) rotate(-5.63)"/><circle class="cls-4" cx="98.83" cy="96.32" r="0.71" transform="translate(-8.97 10.16) rotate(-5.63)"/><circle class="cls-4" cx="141.25" cy="143.54" r="0.71" transform="translate(-13.4 14.54) rotate(-5.63)"/><circle class="cls-4" cx="141.39" cy="96.43" r="0.71"/><circle class="cls-4" cx="98.74" cy="143.44" r="0.71"/><circle class="cls-4" cx="94.55" cy="101.06" r="0.71" transform="translate(-17.9 20.39) rotate(-11.25)"/><circle class="cls-4" cx="145.58" cy="138.8" r="0.71" transform="translate(-24.28 31.07) rotate(-11.25)"/><circle class="cls-4" cx="96.75" cy="98.38" r="0.71" transform="translate(-16.9 20.14) rotate(-10.93)"/><circle class="cls-4" cx="143.35" cy="141.48" r="0.71" transform="translate(-24.23 29.76) rotate(-10.93)"/><circle class="cls-4" cx="88.51" cy="122.87" r="0.71" transform="matrix(1, -0.1, 0.1, 1, -11.62, 9.27)"/><circle class="cls-4" cx="151.67" cy="116.55" r="0.71" transform="translate(-10.7 15.44) rotate(-5.63)"/><circle class="cls-4" cx="88.35" cy="119.48" r="0.71" transform="translate(-11.29 9.24) rotate(-5.63)"/><circle class="cls-4" cx="151.83" cy="119.94" r="0.71" transform="translate(-11.03 15.47) rotate(-5.63)"/><circle class="cls-4" cx="151.67" cy="116.55" r="0.71" transform="matrix(1, -0.1, 0.1, 1, -10.7, 15.43)"/><circle class="cls-4" cx="88.35" cy="119.48" r="0.71" transform="translate(-11.29 9.24) rotate(-5.63)"/><circle class="cls-4" cx="151.83" cy="119.94" r="0.71" transform="translate(-11.03 15.47) rotate(-5.63)"/><circle class="cls-4" cx="88.55" cy="116.1" r="0.71" transform="translate(-10.96 9.24) rotate(-5.63)"/><circle class="cls-4" cx="151.61" cy="123.32" r="0.71" transform="translate(-11.36 15.46) rotate(-5.63)"/><circle class="cls-4" cx="89.11" cy="112.75" r="0.71" transform="translate(-10.63 9.28) rotate(-5.63)"/><circle class="cls-4" cx="151.05" cy="126.67" r="0.71" transform="translate(-11.69 15.42) rotate(-5.63)"/><circle class="cls-4" cx="151.61" cy="123.32" r="0.71" transform="translate(-11.36 15.46) rotate(-5.63)"/><circle class="cls-4" cx="89.11" cy="112.75" r="0.71" transform="translate(-10.63 9.28) rotate(-5.63)"/><circle class="cls-4" cx="151.04" cy="126.67" r="0.71" transform="translate(-11.69 15.42) rotate(-5.63)"/><circle class="cls-4" cx="90.02" cy="109.55" r="0.71" transform="translate(-10.31 9.36) rotate(-5.63)"/><circle class="cls-4" cx="150.15" cy="129.87" r="0.71" transform="translate(-12.01 15.35) rotate(-5.63)"/><circle class="cls-4" cx="91.28" cy="106.39" r="0.71" transform="matrix(1, -0.1, 0.1, 1, -9.99, 9.46)"/><circle class="cls-4" cx="148.89" cy="133.03" r="0.71" transform="translate(-12.33 15.24) rotate(-5.63)"/><circle class="cls-4" cx="150.15" cy="129.87" r="0.71" transform="translate(-12.01 15.35) rotate(-5.63)"/><circle class="cls-4" cx="91.28" cy="106.39" r="0.71" transform="translate(-9.99 9.46) rotate(-5.63)"/><circle class="cls-4" cx="148.89" cy="133.03" r="0.71" transform="translate(-12.33 15.24) rotate(-5.63)"/><circle class="cls-4" cx="89.02" cy="126.22" r="0.71" transform="translate(-11.95 9.34) rotate(-5.63)"/><circle class="cls-4" cx="151.15" cy="113.2" r="0.71" transform="translate(-10.37 15.37) rotate(-5.63)"/><circle class="cls-4" cx="89.9" cy="129.5" r="0.71" transform="translate(-12.27 9.44) rotate(-5.63)"/><circle class="cls-4" cx="150.28" cy="109.92" r="0.71" transform="translate(-10.05 15.27) rotate(-5.63)"/><circle class="cls-4" cx="151.15" cy="113.2" r="0.71" transform="translate(-10.37 15.37) rotate(-5.63)"/><circle class="cls-4" cx="89.89" cy="129.5" r="0.71" transform="translate(-12.27 9.44) rotate(-5.63)"/><circle class="cls-4" cx="150.27" cy="109.92" r="0.71" transform="translate(-10.05 15.27) rotate(-5.63)"/><circle class="cls-4" cx="91.09" cy="132.6" r="0.71" transform="translate(-12.56 9.57) rotate(-5.63)"/><circle class="cls-4" cx="149.09" cy="106.81" r="0.71" transform="translate(-9.76 15.14) rotate(-5.63)"/><circle class="cls-4" cx="92.64" cy="135.63" r="0.71" transform="translate(-12.85 9.74) rotate(-5.63)"/><circle class="cls-4" cx="147.55" cy="103.78" r="0.71" transform="translate(-9.47 14.97) rotate(-5.63)"/><circle class="cls-4" cx="149.09" cy="106.81" r="0.71" transform="translate(-9.76 15.14) rotate(-5.63)"/><circle class="cls-4" cx="92.63" cy="135.63" r="0.71" transform="translate(-12.85 9.74) rotate(-5.63)"/><circle class="cls-4" cx="147.54" cy="103.79" r="0.71" transform="translate(-9.47 14.97) rotate(-5.63)"/><circle class="cls-4" cx="92.74" cy="103.6" r="0.71" transform="translate(-9.71 9.59) rotate(-5.63)"/><circle class="cls-4" cx="147.43" cy="135.81" r="0.71" transform="translate(-12.61 15.11) rotate(-5.63)"/><circle class="cls-4" cx="147.43" cy="135.81" r="0.71" transform="translate(-12.61 15.11) rotate(-5.63)"/><circle class="cls-4" cx="94.34" cy="138.29" r="0.71" transform="translate(-13.11 9.92) rotate(-5.63)"/><circle class="cls-4" cx="145.83" cy="101.16" r="0.71" transform="translate(-9.22 14.79) rotate(-5.63)"/><circle class="cls-4" cx="96.48" cy="140.93" r="0.71" transform="translate(-13.36 10.14) rotate(-5.63)"/><circle class="cls-4" cx="143.7" cy="98.52" r="0.71" transform="translate(-8.97 14.57) rotate(-5.63)"/><circle class="cls-4" cx="145.83" cy="101.16" r="0.71" transform="translate(-9.22 14.79) rotate(-5.63)"/><circle class="cls-4" cx="96.47" cy="140.94" r="0.71" transform="translate(-13.36 10.14) rotate(-5.63)"/><circle class="cls-4" cx="143.69" cy="98.52" r="0.71" transform="translate(-8.97 14.57) rotate(-5.63)"/><circle class="cls-4" cx="118.56" cy="92.76" r="0.61" transform="translate(-4.79 6.47) rotate(-3.06)"/><circle class="cls-4" cx="121.55" cy="146.95" r="0.61" transform="translate(-7.68 6.7) rotate(-3.06)"/><circle class="cls-4" cx="121.47" cy="92.76" r="0.61" transform="translate(-4.78 6.62) rotate(-3.06)"/><circle class="cls-4" cx="118.64" cy="146.95" r="0.61" transform="translate(-7.68 6.55) rotate(-3.06)"/><circle class="cls-4" cx="121.55" cy="146.95" r="0.61" transform="translate(-7.68 6.7) rotate(-3.06)"/><circle class="cls-4" cx="121.47" cy="92.75" r="0.61" transform="translate(-4.78 6.62) rotate(-3.06)"/><circle class="cls-4" cx="118.64" cy="146.95" r="0.61" transform="translate(-7.68 6.55) rotate(-3.06)"/><circle class="cls-4" cx="124.35" cy="93.05" r="0.61" transform="translate(-4.79 6.78) rotate(-3.06)"/><circle class="cls-4" cx="115.77" cy="146.64" r="0.61" transform="translate(-7.67 6.39) rotate(-3.06)"/><circle class="cls-4" cx="127.19" cy="93.67" r="0.61" transform="translate(-4.82 6.93) rotate(-3.06)"/><circle class="cls-4" cx="112.93" cy="146.03" r="0.61" transform="translate(-7.64 6.24) rotate(-3.06)"/><circle class="cls-4" cx="115.77" cy="146.64" r="0.61" transform="translate(-7.67 6.39) rotate(-3.06)"/><circle class="cls-4" cx="127.19" cy="93.66" r="0.61" transform="translate(-4.82 6.93) rotate(-3.06)"/><circle class="cls-4" cx="112.93" cy="146.02" r="0.61" transform="translate(-7.64 6.24) rotate(-3.06)"/><circle class="cls-4" cx="129.89" cy="94.56" r="0.61" transform="translate(-4.87 7.07) rotate(-3.06)"/><circle class="cls-4" cx="110.23" cy="145.14" r="0.61" transform="translate(-7.6 6.1) rotate(-3.06)"/><circle class="cls-4" cx="132.54" cy="95.76" r="0.61" transform="translate(-4.93 7.22) rotate(-3.06)"/><circle class="cls-4" cx="107.58" cy="143.95" r="0.61" transform="translate(-7.54 5.95) rotate(-3.06)"/><circle class="cls-4" cx="110.23" cy="145.14" r="0.61" transform="translate(-7.6 6.1) rotate(-3.06)"/><circle class="cls-4" cx="132.54" cy="95.75" r="0.61" transform="matrix(1, -0.05, 0.05, 1, -4.93, 7.22)"/><circle class="cls-4" cx="107.58" cy="143.94" r="0.61" transform="translate(-7.54 5.95) rotate(-3.06)"/><circle class="cls-4" cx="115.69" cy="93.07" r="0.61" transform="translate(-4.81 6.31) rotate(-3.06)"/><circle class="cls-4" cx="124.43" cy="146.63" r="0.61" transform="translate(-7.66 6.86) rotate(-3.06)"/><circle class="cls-4" cx="112.85" cy="93.69" r="0.61" transform="translate(-4.84 6.16) rotate(-3.06)"/><circle class="cls-4" cx="127.27" cy="146.01" r="0.61" transform="translate(-7.62 7.01) rotate(-3.06)"/><circle class="cls-4" cx="124.43" cy="146.63" r="0.61" transform="translate(-7.66 6.86) rotate(-3.06)"/><circle class="cls-4" cx="112.85" cy="93.69" r="0.61" transform="translate(-4.84 6.16) rotate(-3.06)"/><circle class="cls-4" cx="127.27" cy="146.01" r="0.61" transform="translate(-7.62 7.01) rotate(-3.06)"/><circle class="cls-4" cx="110.15" cy="94.6" r="0.61" transform="translate(-4.9 6.02) rotate(-3.06)"/><circle class="cls-4" cx="129.96" cy="145.12" r="0.61" transform="translate(-7.57 7.15) rotate(-3.06)"/><circle class="cls-4" cx="107.51" cy="95.8" r="0.61" transform="translate(-4.96 5.88) rotate(-3.06)"/><circle class="cls-4" cx="132.61" cy="143.91" r="0.61" transform="translate(-7.5 7.29) rotate(-3.06)"/><circle class="cls-4" cx="129.96" cy="145.12" r="0.61" transform="translate(-7.57 7.15) rotate(-3.06)"/><circle class="cls-4" cx="107.51" cy="95.8" r="0.61" transform="translate(-4.96 5.88) rotate(-3.06)"/><circle class="cls-4" cx="132.61" cy="143.91" r="0.61" transform="translate(-7.5 7.29) rotate(-3.06)"/><circle class="cls-4" cx="134.86" cy="97.11" r="0.61" transform="translate(-5 7.34) rotate(-3.06)"/><circle class="cls-4" cx="105.26" cy="142.59" r="0.61" transform="translate(-7.47 5.83) rotate(-3.06)"/><circle class="cls-4" cx="137.21" cy="98.83" r="0.61" transform="translate(-5.08 7.47) rotate(-3.06)"/><circle class="cls-4" cx="102.91" cy="140.88" r="0.61" transform="translate(-7.38 5.7) rotate(-3.06)"/><circle class="cls-4" cx="105.26" cy="142.59" r="0.61" transform="translate(-7.47 5.83) rotate(-3.06)"/><circle class="cls-4" cx="137.21" cy="98.82" r="0.61" transform="translate(-5.08 7.47) rotate(-3.06)"/><circle class="cls-4" cx="102.91" cy="140.87" r="0.61" transform="translate(-7.38 5.7) rotate(-3.06)"/><circle class="cls-4" cx="105.18" cy="97.15" r="0.61" transform="translate(-5.04 5.76) rotate(-3.06)"/><circle class="cls-4" cx="134.91" cy="142.55" r="0.61" transform="translate(-7.42 7.41) rotate(-3.06)"/><circle class="cls-4" cx="102.83" cy="98.88" r="0.61" transform="translate(-5.14 5.64) rotate(-3.06)"/><circle class="cls-4" cx="137.26" cy="140.83" r="0.61" transform="translate(-7.33 7.53) rotate(-3.06)"/><circle class="cls-4" cx="134.91" cy="142.55" r="0.61" transform="translate(-7.42 7.41) rotate(-3.06)"/><circle class="cls-4" cx="102.83" cy="98.87" r="0.61" transform="translate(-5.14 5.64) rotate(-3.06)"/><circle class="cls-4" cx="137.25" cy="140.82" r="0.61" transform="translate(-7.33 7.53) rotate(-3.06)"/><circle class="cls-4" cx="139.17" cy="100.59" r="0.61" transform="translate(32.56 235.21) rotate(-87.48)"/><circle class="cls-4" cx="100.95" cy="139.11" r="0.61" transform="translate(-42.46 233.85) rotate(-87.48)"/><circle class="cls-4" cx="98.99" cy="102.76" r="0.61" transform="translate(-14.38 16.12) rotate(-8.68)"/><circle class="cls-4" cx="141.13" cy="136.95" r="0.61" transform="translate(-19.06 22.88) rotate(-8.68)"/><circle class="cls-4" cx="100.97" cy="100.56" r="0.61" transform="translate(-13.56 15.77) rotate(-8.37)"/><circle class="cls-4" cx="139.12" cy="139.15" r="0.61" transform="translate(-18.77 21.73) rotate(-8.37)"/><circle class="cls-4" cx="93" cy="121.16" r="0.61" transform="translate(-6.34 5.14) rotate(-3.06)"/><circle class="cls-4" cx="147.18" cy="118.17" r="0.61" transform="translate(-6.1 8.03) rotate(-3.06)"/><circle class="cls-4" cx="92.99" cy="118.25" r="0.61" transform="translate(-6.18 5.14) rotate(-3.06)"/><circle class="cls-4" cx="147.19" cy="121.08" r="0.61" transform="translate(-6.26 8.04) rotate(-3.06)"/><circle class="cls-4" cx="147.18" cy="118.17" r="0.61" transform="translate(-6.1 8.03) rotate(-3.06)"/><circle class="cls-4" cx="92.99" cy="118.25" r="0.61" transform="translate(-6.18 5.14) rotate(-3.06)"/><circle class="cls-4" cx="147.19" cy="121.08" r="0.61" transform="translate(-6.26 8.04) rotate(-3.06)"/><circle class="cls-4" cx="93.29" cy="115.37" r="0.61" transform="translate(-6.03 5.15) rotate(-3.06)"/><circle class="cls-4" cx="146.88" cy="123.95" r="0.61" transform="translate(-6.41 8.02) rotate(-3.06)"/><circle class="cls-4" cx="93.9" cy="112.53" r="0.61" transform="matrix(1, -0.05, 0.05, 1, -5.88, 5.18)"/><circle class="cls-4" cx="146.26" cy="126.79" r="0.61" transform="translate(-6.57 8) rotate(-3.06)"/><circle class="cls-4" cx="146.87" cy="123.95" r="0.61" transform="translate(-6.41 8.02) rotate(-3.06)"/><circle class="cls-4" cx="93.9" cy="112.53" r="0.61" transform="translate(-5.88 5.18) rotate(-3.06)"/><circle class="cls-4" cx="146.26" cy="126.79" r="0.61" transform="translate(-6.57 8) rotate(-3.06)"/><circle class="cls-4" cx="94.8" cy="109.83" r="0.61" transform="translate(-5.73 5.22) rotate(-3.06)"/><circle class="cls-4" cx="145.38" cy="129.49" r="0.61" transform="translate(-6.71 7.95) rotate(-3.06)"/><circle class="cls-4" cx="95.99" cy="107.18" r="0.61" transform="translate(-5.59 5.28) rotate(-3.06)"/><circle class="cls-4" cx="144.18" cy="132.14" r="0.61" transform="translate(-6.85 7.89) rotate(-3.06)"/><circle class="cls-4" cx="145.37" cy="129.49" r="0.61" transform="translate(-6.71 7.95) rotate(-3.06)"/><circle class="cls-4" cx="95.99" cy="107.18" r="0.61" transform="translate(-5.59 5.28) rotate(-3.06)"/><circle class="cls-4" cx="144.18" cy="132.14" r="0.61" transform="translate(-6.85 7.89) rotate(-3.06)"/><circle class="cls-4" cx="93.31" cy="124.03" r="0.61" transform="translate(-6.49 5.16) rotate(-3.06)"/><circle class="cls-4" cx="146.87" cy="115.29" r="0.61" transform="translate(-5.95 8.01) rotate(-3.06)"/><circle class="cls-4" cx="93.93" cy="126.87" r="0.61" transform="translate(-6.64 5.2) rotate(-3.06)"/><circle class="cls-4" cx="146.25" cy="112.45" r="0.61" transform="translate(-5.8 7.97) rotate(-3.06)"/><circle class="cls-4" cx="146.86" cy="115.29" r="0.61" transform="translate(-5.95 8.01) rotate(-3.06)"/><circle class="cls-4" cx="93.92" cy="126.87" r="0.61" transform="translate(-6.64 5.2) rotate(-3.06)"/><circle class="cls-4" cx="146.24" cy="112.45" r="0.61" transform="translate(-5.8 7.97) rotate(-3.06)"/><circle class="cls-4" cx="94.83" cy="129.57" r="0.61" transform="translate(-6.79 5.25) rotate(-3.06)"/><circle class="cls-4" cx="145.35" cy="109.76" r="0.61" transform="translate(-5.66 7.92) rotate(-3.06)"/><circle class="cls-4" cx="96.04" cy="132.21" r="0.61" transform="translate(-6.93 5.32) rotate(-3.06)"/><circle class="cls-4" cx="144.15" cy="107.11" r="0.61" transform="translate(-5.52 7.85) rotate(-3.06)"/><circle class="cls-4" cx="145.35" cy="109.76" r="0.61" transform="translate(-5.66 7.92) rotate(-3.06)"/><circle class="cls-4" cx="96.03" cy="132.21" r="0.61" transform="translate(-6.93 5.32) rotate(-3.06)"/><circle class="cls-4" cx="144.15" cy="107.11" r="0.61" transform="translate(-5.52 7.85) rotate(-3.06)"/><circle class="cls-4" cx="97.35" cy="104.86" r="0.61" transform="translate(-5.46 5.35) rotate(-3.06)"/><circle class="cls-4" cx="142.83" cy="134.46" r="0.61" transform="translate(-6.98 7.82) rotate(-3.06)"/><circle class="cls-4" cx="142.82" cy="134.46" r="0.61" transform="translate(-6.98 7.82) rotate(-3.06)"/><circle class="cls-4" cx="97.39" cy="134.54" r="0.61" transform="translate(-7.05 5.4) rotate(-3.06)"/><circle class="cls-4" cx="142.78" cy="104.81" r="0.61" transform="translate(-5.4 7.78) rotate(-3.06)"/><circle class="cls-4" cx="99.11" cy="136.89" r="0.61" transform="translate(-7.17 5.49) rotate(-3.06)"/><circle class="cls-4" cx="141.06" cy="102.47" r="0.61" transform="translate(-5.27 7.68) rotate(-3.06)"/><circle class="cls-4" cx="142.78" cy="104.81" r="0.61" transform="translate(-5.4 7.78) rotate(-3.06)"/><circle class="cls-4" cx="99.11" cy="136.89" r="0.61" transform="translate(-7.17 5.49) rotate(-3.06)"/><circle class="cls-4" cx="141.06" cy="102.47" r="0.61" transform="translate(-5.27 7.68) rotate(-3.06)"/></g><path class="cls-5" d="M163.05,57.65c.29-6.13-5.29-10.54-14.34-14a80.69,80.69,0,0,0-28.41-5.25H120a82.47,82.47,0,0,0-28.71,5.25c-9.05,3.42-14.63,7.83-14.34,14v124.7c-.29,6.13,5.29,10.54,14.34,14A82.47,82.47,0,0,0,120,201.56h.57a79.11,79.11,0,0,0,28.14-5.25c9-3.42,14.63-7.83,14.34-14Z"/><circle class="cls-2" cx="119.93" cy="119.85" r="23.97"/><g id="earth"><g id="green"><path class="cls-6" d="M122.55,100.26c-.72-.09-.79-.1-2-.17-.61,0-.65,0-1.76,0-.55,0-.57,0-1.61.15l-1.05.17c-6.6,1.37-12.11,6-13.39,11.28,5.17-12.37,19.8-11,20-11l.35.08a9.87,9.87,0,0,1,2.32.8,6.47,6.47,0,0,1,1.1.7l.46.39.21.21a4,4,0,0,1,.73,1.11c1.87,4.42-6.81,8.1-12.19,6.26-4.11-1.41-4.18-5.19-.12-7.1a10.52,10.52,0,0,0-1.7.94c-5.55,3.83-3.15,10.22,4.36,11.59,8.15,1.5,18.91-3.59,14.53-10.41l-.28-.35-.31-.35a10.86,10.86,0,0,0-2.66-2c-.52-.28-1.24-.62-1.78-.87a20.07,20.07,0,0,0-2.82-1,19.35,19.35,0,0,0-2.34-.47"/><path class="cls-7" d="M136.24,108.73l.22.4c2.42,5-1.64,8.56-3.5,9.83-10.46,7.2-29.09,3.14-26.86-8.4-2,4.86-.54,9.87,4,13.38,10.59,8.17,30.61,3.15,29.35-7.35l-.33-1.52a20.29,20.29,0,0,0-1.24-3.49,19.93,19.93,0,0,0-1.84-3.16l-.32-.42Zm-.5-.73v0l-.07-.09Z"/><path class="cls-8" d="M138.78,124.79c-5.47,10.36-31.89,12.16-36.95-4.33.08.59.17,1.13.27,1.6,3.66,16.56,28.9,17.65,34.82,8.18.27-.48.61-1.12.86-1.61a21.09,21.09,0,0,0,1.56-4.56c.14-.65.25-1.54.33-2.2a8,8,0,0,1-.89,2.92"/><path class="cls-4" d="M104.3,131.16c5,8.45,12.9,9.45,19,8.45l.76-.15c.5-.11.5-.11,1.49-.38.51-.15.51-.15,1.52-.52.54-.22.54-.22,1.57-.69a18.34,18.34,0,0,0,1.62-.89,18.15,18.15,0,0,0,1.73-1.19l.06,0c-7,5.26-20.74,4.85-27.52-4.32"/></g></g></g></g></g></g></svg>