<?xml version="1.0" encoding="UTF-8"?>
<svg id="_Шар_2" data-name="Шар 2" xmlns="http://www.w3.org/2000/svg" viewBox="0 0 250 250">
  <defs>
    <style>
      .cls-1 {
        fill: #0085b4;
      }

      .cls-2 {
        fill: none;
      }
    </style>
  </defs>
  <g id="Blue_Square" data-name="Blue Square">
    <g id="Gateway_-_4G" data-name="Gateway - 4G">
      <g>
        <path class="cls-1" d="M135.17,185.21h-17.28c-2.46,0-4.5-1.8-4.5-4.26,0-1.92,.78-3.42,2.16-5.04l18.24-21.18c1.74-2.04,3.06-3.12,5.76-3.12,2.46,0,4.44,1.92,4.44,4.38v21.72h2.22c2.1,0,3.78,1.68,3.78,3.78s-1.68,3.72-3.78,3.72h-2.22v5.04c0,2.46-1.98,4.38-4.44,4.38s-4.38-1.92-4.38-4.38v-5.04Zm0-7.5v-13.08l-11.16,13.08h11.16Z"/>
        <path class="cls-1" d="M152.81,173.39v-.12c0-11.94,9.3-21.72,22.02-21.72,6.36,0,10.56,1.44,14.34,4.08,.9,.66,1.92,1.92,1.92,3.72,0,2.52-2.04,4.56-4.56,4.56-1.32,0-2.16-.48-2.82-.96-2.52-1.8-5.22-2.88-9.18-2.88-6.72,0-12.06,5.94-12.06,13.08v.12c0,7.68,5.28,13.32,12.72,13.32,3.36,0,6.36-.84,8.7-2.52v-6h-6.24c-2.22,0-4.02-1.74-4.02-3.96s1.8-4.02,4.02-4.02h10.56c2.58,0,4.62,2.04,4.62,4.62v10.2c0,2.7-1.02,4.56-3.24,5.88-3.42,2.1-8.4,4.2-14.7,4.2-13.08,0-22.08-9.18-22.08-21.6Z"/>
      </g>
      <path class="cls-1" d="M190,41.16H60c-11.05,0-20,8.95-20,20V191.16c0,11.05,8.95,20,20,20H190c11.05,0,20-8.95,20-20V61.16c0-11.05-8.95-20-20-20Zm13.1,148.45c0,8.09-6.56,14.65-14.65,14.65H61.55c-8.09,0-14.65-6.56-14.65-14.65V62.71c0-8.09,6.56-14.65,14.65-14.65h126.91c8.09,0,14.65,6.56,14.65,14.65v126.91Z"/>
      <path class="cls-1" d="M184.15,73.94c-2.04,0-3.89-.77-5.3-2.04l-14.94,8.62c.91,2.14,1.41,4.49,1.41,6.96,0,5.35-2.37,10.14-6.1,13.41l6.43,9.27c1.88-.92,3.98-1.44,6.21-1.44,7.85,0,14.22,6.37,14.22,14.22s-6.37,14.22-14.22,14.22-14.22-6.37-14.22-14.22c0-4.06,1.71-7.71,4.43-10.3l-6.45-9.3c-2.44,1.25-5.2,1.97-8.13,1.97-9.85,0-17.83-7.98-17.83-17.83,0-.98,.1-1.93,.25-2.86l-14.8-4.45c-1.54,2.56-4.35,4.28-7.56,4.28-4.87,0-8.83-3.95-8.83-8.83s3.95-8.83,8.83-8.83,8.83,3.95,8.83,8.83c0,.13-.01,.25-.02,.38l14.75,4.44c2.73-6.35,9.04-10.79,16.38-10.79,5.82,0,10.97,2.8,14.23,7.12l14.8-8.55c-.21-.71-.32-1.46-.32-2.23,0-4.39,3.56-7.95,7.95-7.95s7.95,3.56,7.95,7.95-3.56,7.95-7.95,7.95Z"/>
      <g id="RSSI">
        <rect class="cls-1" x="73.42" y="166.03" width="7.24" height="28.96" rx="3.62" ry="3.62"/>
        <rect class="cls-1" x="89.71" y="151.55" width="7.24" height="43.44" rx="3.62" ry="3.62"/>
        <rect class="cls-1" x="57.14" y="180.51" width="7.24" height="14.48" rx="3.62" ry="3.62"/>
      </g>
      <rect id="Frame" class="cls-2" y="0" width="250" height="250"/>
    </g>
  </g>
</svg>