<?xml version="1.0" encoding="UTF-8"?><svg xmlns="http://www.w3.org/2000/svg" viewBox="0 0 250 250"><defs><style>.f{fill:#0085b4;}.g{fill:none;}</style></defs><g id="a"/><g id="b"><g id="c"><g id="d"><path class="f" d="M121.56,209.51l-70.4-16.81c-1.26-.3-2.15-1.43-2.15-2.72V58.36c0-1.31,.91-2.44,2.18-2.73l70.4-15.97c1.75-.4,3.42,.93,3.42,2.73V206.79c0,1.81-1.69,3.14-3.45,2.72Z"/><circle class="f" cx="188.08" cy="124.16" r="7.26"/><path class="f" d="M185.33,194.92h-47.65c-1.5,0-2.72-1.22-2.72-2.72s1.22-2.72,2.72-2.72h47.65l.03-45.6c-9.75-1.56-16.82-9.84-16.82-19.71s7.07-18.15,16.82-19.7V58.87l-47.67-.03c-1.5,0-2.72-1.22-2.72-2.72s1.22-2.72,2.72-2.72h47.65c3.02,0,5.47,2.46,5.47,5.47v45.57c0,2.71-1.93,4.97-4.6,5.4-7.08,1.12-12.23,7.14-12.23,14.32s5.14,13.2,12.23,14.32c2.66,.42,4.6,2.69,4.6,5.4v45.57c0,3.02-2.46,5.47-5.47,5.47Z"/><rect id="e" class="g" width="250" height="250"/></g></g></g></svg>