<svg xmlns="http://www.w3.org/2000/svg" viewBox="0 0 250 250"><defs><style>.cls-1{fill:none;}.cls-2{fill:#0085b4;}</style></defs><g id="Шар_2" data-name="Шар 2"><g id="Blue_Equal_shapes" data-name="Blue Equal shapes"><g id="Air_Quality" data-name="Air Quality"><rect class="cls-1" width="250" height="250"/><g id="Air_Quality-2" data-name="Air Quality"><rect class="cls-2" x="78.41" y="106.49" width="9" height="69.36" transform="translate(-58.4 223.84) rotate(-89.9)"/><path class="cls-2" d="M179.17,172a47,47,0,1,1,47-47A47,47,0,0,1,179.17,172Zm0-84.92a38,38,0,1,0,38,38A38,38,0,0,0,179.17,87.1Z"/><path class="cls-2" d="M223.88,171.81a4.47,4.47,0,0,1-3.18-1.32l-26.14-26.14a4.5,4.5,0,0,1,6.36-6.36l26.14,26.14a4.5,4.5,0,0,1-3.18,7.68Z"/><path class="cls-2" d="M131.94,172a4.49,4.49,0,0,1-3.9-2.26L82.91,91.6,37.77,169.77a4.5,4.5,0,1,1-7.79-4.5L79,80.35a4.5,4.5,0,0,1,7.79,0l49,84.92a4.51,4.51,0,0,1-3.89,6.76Z"/></g></g></g></g></svg>