<?xml version="1.0" encoding="UTF-8"?>
<svg id="_Шар_2" data-name="Шар 2" xmlns="http://www.w3.org/2000/svg" viewBox="0 0 250 250">
  <defs>
    <style>
      .cls-1 {
        fill: none;
      }

      .cls-2 {
        fill: #0085b4;
      }
    </style>
  </defs>
  <g id="Blue_Square" data-name="Blue Square">
    <g id="Device_-_Tow_Truck" data-name="Device - Tow Truck">
      <g>
        <path class="cls-2" d="M78.81,189.79c-10.36,0-18.8-8.43-18.8-18.8s8.43-18.8,18.8-18.8,18.8,8.43,18.8,18.8-8.43,18.8-18.8,18.8ZM78.81,160.19c-5.95,0-10.8,4.84-10.8,10.8s4.84,10.8,10.8,10.8,10.8-4.84,10.8-10.8-4.84-10.8-10.8-10.8Z"/>
        <path class="cls-2" d="M183.24,188.58c-10.36,0-18.8-8.43-18.8-18.8s8.43-18.8,18.8-18.8,18.8,8.43,18.8,18.8-8.43,18.8-18.8,18.8ZM183.24,158.99c-5.95,0-10.8,4.84-10.8,10.8s4.84,10.8,10.8,10.8,10.8-4.84,10.8-10.8-4.84-10.8-10.8-10.8Z"/>
        <path class="cls-2" d="M52.7,173.34h-15c-2.21,0-4-1.79-4-4v-23.3c0-2.21,1.79-4,4-4s4,1.79,4,4v19.3h11c2.21,0,4,1.79,4,4s-1.79,4-4,4Z"/>
        <path class="cls-2" d="M149.05,169.34c0,2.21-1.79,4-4,4h-40.13c-2.21,0-4-1.79-4-4s1.79-4,4-4h36.13"/>
        <path class="cls-2" d="M221.44,131.3h-54.24c-1.1,0-2-.9-2-2v-30c0-1.1.9-2,2-2h28.35c.58,0,1.13.25,1.51.69l25.89,30c.51.59.63,1.43.3,2.14s-1.04,1.17-1.82,1.17ZM169.19,127.3h47.87l-22.44-26h-25.43v26Z"/>
        <path class="cls-2" d="M221.44,173.34h-12.04c-2.21,0-4-1.79-4-4s1.79-4,4-4h8.04v-34.55l-35.95-41.65h-32.44v76.19h8.03c2.21,0,4,1.79,4,4s-1.79,4-4,4h-12.03c-2.21,0-4-1.79-4-4v-84.19c0-2.21,1.79-4,4-4h38.27c1.16,0,2.27.51,3.03,1.39l38.12,44.16c.63.73.97,1.65.97,2.61v40.03c0,2.21-1.79,4-4,4Z"/>
        <path class="cls-2" d="M86.26,89.01h7.58v108.9c0,2.09-1.7,3.79-3.79,3.79h0c-2.09,0-3.79-1.7-3.79-3.79v-108.9h0Z" transform="translate(235.4 55.31) rotate(90)"/>
        <path class="cls-2" d="M34.39,61.02l70.49,66.08c2.43,2.28,2.55,6.09.27,8.51-2.28,2.43-6.09,2.55-8.51.27-.16-.09-66.16-70.59-66.36-70.76-2.47-2.74,1.32-6.6,4.11-4.11h0Z"/>
        <rect class="cls-2" x="30.83" y="63.07" width="3" height="34.23"/>
        <path class="cls-2" d="M32.33,113.9c-4.28,0-7.77-3.48-7.77-7.77,0-.83.67-1.5,1.5-1.5s1.5.67,1.5,1.5c0,2.63,2.14,4.77,4.77,4.77s4.77-2.14,4.77-4.77-2.14-4.77-4.77-4.77c-.83,0-1.5-.67-1.5-1.5s.67-1.5,1.5-1.5c4.28,0,7.77,3.48,7.77,7.77s-3.48,7.77-7.77,7.77Z"/>
        <circle class="cls-2" cx="32.33" cy="98.74" r="2.97"/>
        <path class="cls-2" d="M89.89,145.35c0-10.49,8.51-19,19-19s19,8.51,19,19"/>
      </g>
      <rect id="Frame" class="cls-1" x="0" width="250" height="250"/>
    </g>
  </g>
</svg>