<svg xmlns="http://www.w3.org/2000/svg" viewBox="0 0 240 240"><defs><style>.cls-1,.cls-2,.cls-3{fill:none;}.cls-2,.cls-3{stroke:#0285b4;stroke-miterlimit:10;}.cls-2{stroke-width:0.5px;}.cls-3{stroke-width:2px;}.cls-4{fill:#a9d2e2;}.cls-5{fill:#d8e9f0;}.cls-6{fill:#0285b4;}.cls-7{fill:#055e90;}.cls-8{fill:#2988b8;}.cls-9{fill:#afd2e4;}.cls-10{fill:#dbeaf1;}.cls-11{fill:#676767;}</style></defs><g id="Шар_2" data-name="Шар 2"><g id="Шар_2-2" data-name="Шар 2"><g id="NEO-1D"><rect class="cls-1" width="240" height="240"/><rect id="body" class="cls-2" x="71.53" y="56.5" width="92.54" height="146.5" rx="12.26"/><rect id="outline" class="cls-3" x="73.98" y="59.29" width="87.63" height="140.92" rx="9.98"/><rect id="screen_frame" data-name="screen frame" class="cls-4" x="82.79" y="72.67" width="69.68" height="69.68"/><rect id="screen" class="cls-5" x="88.03" y="77.91" width="59.26" height="59.26"/><path id="antenna_base" data-name="antenna base" class="cls-6" d="M136.73,52.49h12.43a1.64,1.64,0,0,1,1.64,1.64V56.5a0,0,0,0,1,0,0H135.08a0,0,0,0,1,0,0V54.13A1.64,1.64,0,0,1,136.73,52.49Z"/><path class="cls-6" d="M145.67,35.43h-5.46a2.4,2.4,0,0,0-2.4,2.39V52.49h10.26V37.82A2.39,2.39,0,0,0,145.67,35.43Zm.62,12.62a.53.53,0,0,1-.53.53h-5.63a.52.52,0,0,1-.53-.53V45.66a.52.52,0,0,1,.53-.53h5.63a.53.53,0,0,1,.53.53Z"/><g id="Logo"><g id="Blue_копия_" data-name="Blue копия "><g id="Слой_2_копия2_" data-name="Слой 2 копия2 "><g id="earth"><g id="green"><path class="cls-7" d="M98,163.17c-.22,0-.43,0-.64,0h-.56l-.52,0-.33.05a5.45,5.45,0,0,0-4.27,3.6c1.65-3.94,6.32-3.52,6.36-3.51l.11,0a3.09,3.09,0,0,1,.74.26,2.07,2.07,0,0,1,.35.22l.15.13.07.06a1.16,1.16,0,0,1,.23.36c.6,1.41-2.17,2.58-3.89,2-1.31-.45-1.33-1.66,0-2.27a3.2,3.2,0,0,0-.54.3c-1.77,1.22-1,3.26,1.39,3.7,2.6.48,6-1.15,4.64-3.32l-.09-.12-.1-.11a3.75,3.75,0,0,0-.85-.63l-.57-.28a7.22,7.22,0,0,0-.89-.31l-.75-.15"/><path class="cls-8" d="M102.32,165.88l.07.12a2.47,2.47,0,0,1-1.11,3.14c-3.34,2.29-9.28,1-8.57-2.68A3.5,3.5,0,0,0,94,170.73c3.38,2.6,9.77,1,9.36-2.35l-.1-.48a7.18,7.18,0,0,0-.39-1.11,6.1,6.1,0,0,0-.59-1l-.1-.14Zm-.15-.24h0l0,0Z"/><path class="cls-9" d="M103.13,171c-1.74,3.3-10.17,3.88-11.78-1.38,0,.18.05.36.08.51,1.17,5.28,9.22,5.63,11.11,2.6.09-.15.19-.35.27-.51a6.72,6.72,0,0,0,.5-1.45c0-.21.08-.49.11-.7a2.8,2.8,0,0,1-.29.93"/><path class="cls-10" d="M92.13,173a5.57,5.57,0,0,0,6.05,2.69l.25,0,.47-.13a2.83,2.83,0,0,0,.49-.16l.5-.22.52-.28c.19-.12.37-.25.55-.38l0,0a6.61,6.61,0,0,1-8.78-1.38"/></g></g><path class="cls-11" d="M107.93,164.57a.68.68,0,1,1,0,1.35.63.63,0,0,1-.47-.19.68.68,0,0,1,0-1A.63.63,0,0,1,107.93,164.57Zm-.41,2.63h.83v6.38h-.83Z"/><path class="cls-11" d="M109.56,173.58l1.23-8.63h.14l3.51,7.08,3.47-7.08h.14l1.25,8.63h-.85l-.85-6.17-3,6.17h-.23l-3.08-6.22-.85,6.22Z"/><path class="cls-11" d="M126.43,167.2v6.39h-.79v-1.2a3.4,3.4,0,0,1-1.12.9,3.13,3.13,0,0,1-1.35.3,3,3,0,0,1-2.24-.94,3.09,3.09,0,0,1-.93-2.28,3.19,3.19,0,0,1,3.19-3.17,2.89,2.89,0,0,1,1.38.32,3.08,3.08,0,0,1,1.08.95V167.2Zm-3.17.75a2.51,2.51,0,0,0-1.23.32,2.47,2.47,0,0,0-.89,3.36,2.38,2.38,0,0,0,.9.91,2.34,2.34,0,0,0,1.21.33,2.48,2.48,0,0,0,1.24-.33,2.35,2.35,0,0,0,.9-.87,2.47,2.47,0,0,0,.31-1.25,2.4,2.4,0,0,0-.71-1.76A2.34,2.34,0,0,0,123.26,168Z"/><path class="cls-11" d="M128.76,164.83h.82v2.37h1.18v.7h-1.18v5.68h-.82v-5.67h-1.2v-.71h1.2Z"/><path class="cls-11" d="M132,167.2h.84v1.09a3,3,0,0,1,.79-.83,1.59,1.59,0,0,1,.87-.27,1.45,1.45,0,0,1,.73.22l-.43.69a1.14,1.14,0,0,0-.44-.11,1.18,1.18,0,0,0-.79.34,2.11,2.11,0,0,0-.58,1,8.6,8.6,0,0,0-.15,2v2.16H132Z"/><path class="cls-11" d="M136.88,164.57a.67.67,0,1,1,0,1.33.69.69,0,0,1-.66-.65.66.66,0,0,1,.2-.48A.67.67,0,0,1,136.88,164.57Zm-.41,2.63h.82v6.38h-.82Z"/><path class="cls-11" d="M138.82,167.2h1l1.69,2.33,1.68-2.33h1l-2.17,3,2.45,3.37h-1l-1.95-2.68-1.93,2.68h-1l2.42-3.36Z"/></g></g></g></g></g></g></svg>