<svg xmlns="http://www.w3.org/2000/svg" viewBox="0 0 250 250"><defs><style>.cls-1{fill:#0085b4;}.cls-2{fill:none;}</style></defs><g id="Шар_2" data-name="Шар 2"><g id="Blue"><g id="Sensor_-_Neo-1D" data-name="Sensor - Neo-1D"><path class="cls-1" d="M177,75.2a8.41,8.41,0,0,1,8.4,8.4V186.73a8.41,8.41,0,0,1-8.4,8.4H73.87a8.41,8.41,0,0,1-8.4-8.4V83.6a8.41,8.41,0,0,1,8.4-8.4H177m0-6H73.87a14.4,14.4,0,0,0-14.4,14.4V186.73a14.4,14.4,0,0,0,14.4,14.4H177a14.4,14.4,0,0,0,14.4-14.4V83.6A14.4,14.4,0,0,0,177,69.2Z"/><g id="temp"><path class="cls-1" d="M105.76,146V100.59a12.73,12.73,0,0,0-25.45,0V146a21.1,21.1,0,1,0,25.45,0ZM93,179.84a17.11,17.11,0,0,1-9.84-31.12,1.33,1.33,0,0,0,.56-1.08V101.22a9.28,9.28,0,0,1,18.56,0v46.42a1.33,1.33,0,0,0,.56,1.08A17.11,17.11,0,0,1,93,179.84Z"/><path class="cls-1" d="M88.43,133.91v18.43a11.22,11.22,0,1,0,9.21,0V133.91Z"/></g><path class="cls-1" d="M165.17,116.81c2.06-3.21,4.14-5.86,4.16-5.88l.6-.76.6.76s2.11,2.67,4.16,5.88c2.82,4.39,4.24,7.71,4.24,9.88,0,5.28-4,9.57-9,9.57s-9-4.29-9-9.57C160.93,124.52,162.36,121.2,165.17,116.81Z"/><path class="cls-1" d="M143.16,149.14c3.7-5.77,7.45-10.54,7.49-10.59l1.08-1.36,1.08,1.36s3.79,4.82,7.49,10.59c5.07,7.91,7.63,13.89,7.63,17.79,0,9.5-7.26,17.23-16.2,17.23s-16.2-7.73-16.2-17.23C135.53,163,138.1,157.05,143.16,149.14Z"/><path class="cls-1" d="M143.31,92.85c1.54-2.41,3.1-4.39,3.12-4.41l.45-.57.45.57s1.58,2,3.12,4.41c2.11,3.29,3.18,5.78,3.18,7.41a6.76,6.76,0,1,1-13.5,0C140.13,98.63,141.2,96.14,143.31,92.85Z"/><rect class="cls-1" x="154.16" y="61.44" width="18.08" height="5.4" rx="1.7"/><rect class="cls-1" x="157.75" y="48.05" width="10.9" height="10.9" rx="1.87" transform="translate(109.69 216.7) rotate(-90)"/><rect id="Frame" class="cls-2" width="250" height="250"/></g></g></g></svg>