<?xml version="1.0" encoding="UTF-8"?>
<svg id="_Шар_2" data-name="Шар 2" xmlns="http://www.w3.org/2000/svg" viewBox="0 0 250 250">
  <defs>
    <style>
      .cls-1 {
        fill: #0085b4;
      }

      .cls-2 {
        fill: none;
      }
    </style>
  </defs>
  <g id="Blue_Square" data-name="Blue Square">
    <g id="Whirpool_-_Horizontal_washer" data-name="Whirpool - Horizontal washer">
      <rect id="Frame" class="cls-2" width="250" height="250"/>
      <g>
        <path class="cls-1" d="m177.9,48.23c3.92,0,7.1,3.19,7.1,7.1v139.33c0,3.92-3.19,7.1-7.1,7.1h-105.8c-3.92,0-7.1-3.19-7.1-7.1V55.33c0-3.92,3.19-7.1,7.1-7.1h105.8m0-7h-105.8c-7.79,0-14.1,6.31-14.1,14.1v139.33c0,7.79,6.31,14.1,14.1,14.1h105.8c7.79,0,14.1-6.31,14.1-14.1V55.33c0-7.79-6.31-14.1-14.1-14.1h0Z"/>
        <path class="cls-1" d="m125,99.44c21.69,0,39.33,17.64,39.33,39.33s-17.64,39.33-39.33,39.33-39.33-17.65-39.33-39.33,17.64-39.33,39.33-39.33m0-6c-25.04,0-45.33,20.3-45.33,45.33s20.3,45.33,45.33,45.33,45.33-20.3,45.33-45.33-20.3-45.33-45.33-45.33h0Z"/>
        <circle class="cls-1" cx="125" cy="65.44" r="9.67"/>
        <rect class="cls-1" x="148.66" y="55.77" width="28.65" height="19.33" rx="5.83" ry="5.83"/>
        <path class="cls-1" d="m82.67,148.44s7.67-13.39,27-13.39,17.37,13.39,35.69,13.39,21.98-12,21.98-12c0,0-3.89,44.11-39.89,44.11s-44.78-32.11-44.78-32.11Z"/>
      </g>
    </g>
  </g>
</svg>