<?xml version="1.0" encoding="UTF-8"?><svg xmlns="http://www.w3.org/2000/svg" viewBox="0 0 250 250"><defs><style>.f{fill:#0085b4;}.g{fill:none;}</style></defs><g id="a"/><g id="b"><g id="c"><g id="d"><rect id="e" class="g" width="250" height="250"/><g><path class="f" d="M125,150.42c-12.19,0-22.1-9.91-22.1-22.1,0-17.12,19.11-37.42,19.93-38.28l2.17-2.29,2.17,2.29c.81,.86,19.93,21.15,19.93,38.28,0,12.19-9.91,22.1-22.1,22.1Zm0-53.8c-4.85,5.67-16.1,20.08-16.1,31.7,0,8.88,7.22,16.1,16.1,16.1s16.1-7.22,16.1-16.1c0-11.61-11.26-26.03-16.1-31.7Z"/><g><path class="f" d="M91.59,177.8c-.7,.12-1.45-.02-2.08-.46-13.17-9.22-21.97-23.02-24.76-38.86-2.79-15.84,.75-31.81,9.97-44.99,.88-1.26,2.61-1.56,3.87-.68,1.26,.88,1.56,2.61,.68,3.87-8.37,11.96-11.59,26.46-9.05,40.83,2.53,14.37,10.52,26.9,22.47,35.27,1.26,.88,1.56,2.61,.68,3.87-.44,.63-1.09,1.02-1.79,1.14Z"/><path class="f" d="M91.59,177.8c-.7,.12-1.45-.02-2.08-.46-13.17-9.22-21.97-23.02-24.76-38.86-2.79-15.84,.75-31.81,9.97-44.99,.88-1.26,2.61-1.56,3.87-.68,1.26,.88,1.56,2.61,.68,3.87-8.37,11.96-11.59,26.46-9.05,40.83,2.53,14.37,10.52,26.9,22.47,35.27,1.26,.88,1.56,2.61,.68,3.87-.44,.63-1.09,1.02-1.79,1.14Z"/><path class="f" d="M102.57,162.12c-.7,.12-1.45-.02-2.08-.46-8.98-6.29-14.98-15.7-16.89-26.51-1.9-10.8,.51-21.7,6.8-30.68,.88-1.26,2.61-1.56,3.87-.68,1.26,.88,1.56,2.61,.68,3.87-5.44,7.77-7.53,17.19-5.88,26.53s6.83,17.48,14.6,22.92c1.26,.88,1.56,2.61,.68,3.87-.44,.63-1.09,1.02-1.79,1.14Z"/><path class="f" d="M102.57,162.12c-.7,.12-1.45-.02-2.08-.46-8.98-6.29-14.98-15.7-16.89-26.51-1.9-10.8,.51-21.7,6.8-30.68,.88-1.26,2.61-1.56,3.87-.68,1.26,.88,1.56,2.61,.68,3.87-5.44,7.77-7.53,17.19-5.88,26.53s6.83,17.48,14.6,22.92c1.26,.88,1.56,2.61,.68,3.87-.44,.63-1.09,1.02-1.79,1.14Z"/></g><path class="f" d="M138.04,64h-26.09c-5.39,0-9.78-4.39-9.78-9.78v-1.93c0-5.39,4.39-9.78,9.78-9.78h26.09c5.39,0,9.78,4.39,9.78,9.78v1.93c0,5.39-4.39,9.78-9.78,9.78Zm-26.09-16.5c-2.64,0-4.78,2.15-4.78,4.78v1.93c0,2.64,2.15,4.78,4.78,4.78h26.09c2.64,0,4.78-2.15,4.78-4.78v-1.93c0-2.64-2.15-4.78-4.78-4.78h-26.09Z"/><path class="f" d="M125,207.5c-44.13,0-80.04-35.91-80.04-80.04,0-35.3,23.64-66.89,57.48-76.81l1.41,4.8c-31.73,9.3-53.88,38.92-53.88,72.02,0,41.38,33.66,75.04,75.04,75.04s75.04-33.66,75.04-75.04c0-33.12-22.18-62.75-53.94-72.03l1.4-4.8c33.88,9.91,57.54,41.5,57.54,76.83,0,44.13-35.9,80.04-80.04,80.04Z"/><path class="f" d="M120.49,59.7h9.02v6.03c0,2.36-1.91,4.27-4.27,4.27h-.47c-2.36,0-4.27-1.91-4.27-4.27v-6.03h0Z"/><g><path class="f" d="M158.41,177.8c-.7-.12-1.35-.51-1.79-1.14-.88-1.26-.58-2.99,.68-3.87,11.96-8.37,19.94-20.9,22.47-35.27,2.53-14.37-.68-28.88-9.05-40.83-.88-1.26-.58-2.99,.68-3.87,1.26-.88,2.99-.57,3.87,.68,9.22,13.17,12.77,29.15,9.97,44.99-2.79,15.84-11.58,29.64-24.76,38.86-.63,.44-1.38,.58-2.08,.46Z"/><path class="f" d="M158.41,177.8c-.7-.12-1.35-.51-1.79-1.14-.88-1.26-.58-2.99,.68-3.87,11.96-8.37,19.94-20.9,22.47-35.27,2.53-14.37-.68-28.88-9.05-40.83-.88-1.26-.58-2.99,.68-3.87,1.26-.88,2.99-.57,3.87,.68,9.22,13.17,12.77,29.15,9.97,44.99-2.79,15.84-11.58,29.64-24.76,38.86-.63,.44-1.38,.58-2.08,.46Z"/><path class="f" d="M147.43,162.12c-.7-.12-1.35-.51-1.79-1.14-.88-1.26-.58-2.99,.68-3.87,7.77-5.44,12.95-13.58,14.6-22.92s-.44-18.76-5.88-26.53c-.88-1.26-.58-2.99,.68-3.87,1.26-.88,2.99-.57,3.87,.68,6.29,8.98,8.71,19.88,6.8,30.68-1.9,10.8-7.9,20.21-16.89,26.51-.63,.44-1.38,.58-2.08,.46Z"/><path class="f" d="M147.43,162.12c-.7-.12-1.35-.51-1.79-1.14-.88-1.26-.58-2.99,.68-3.87,7.77-5.44,12.95-13.58,14.6-22.92s-.44-18.76-5.88-26.53c-.88-1.26-.58-2.99,.68-3.87,1.26-.88,2.99-.57,3.87,.68,6.29,8.98,8.71,19.88,6.8,30.68-1.9,10.8-7.9,20.21-16.89,26.51-.63,.44-1.38,.58-2.08,.46Z"/></g></g></g></g></g></svg>