<?xml version="1.0" encoding="UTF-8"?>
<svg id="_Шар_2" data-name="Шар 2" xmlns="http://www.w3.org/2000/svg" viewBox="0 0 250 250">
  <defs>
    <style>
      .cls-1 {
        fill: #0085b4;
      }

      .cls-2 {
        fill: none;
      }
    </style>
  </defs>
  <g id="Blue_Square" data-name="Blue Square">
    <g id="Whirpool_-_Cooking_Appliance" data-name="Whirpool - Cooking Appliance">
      <rect id="Frame" class="cls-2" width="250" height="250"/>
      <path class="cls-1" d="m194.61,53.13c3.53,0,6.41,2.87,6.41,6.41v142.07c0,3.53-2.87,6.41-6.41,6.41H55.39c-3.53,0-6.41-2.87-6.41-6.41V59.54c0-3.53,2.87-6.41,6.41-6.41h139.22m0-7H55.39c-7.4,0-13.41,6-13.41,13.41v142.07c0,7.4,6,13.41,13.41,13.41h139.22c7.4,0,13.41-6,13.41-13.41V59.54c0-7.4-6-13.41-13.41-13.41h0Z"/>
      <path class="cls-1" d="m184.14,96.95c.99,0,1.8.81,1.8,1.8v91.11c0,.99-.81,1.8-1.8,1.8h-118.28c-.99,0-1.8-.81-1.8-1.8v-91.11c0-.99.81-1.8,1.8-1.8h118.28m0-5h-118.28c-3.75,0-6.8,3.04-6.8,6.8v91.11c0,3.75,3.04,6.8,6.8,6.8h118.28c3.75,0,6.8-3.04,6.8-6.8v-91.11c0-3.75-3.04-6.8-6.8-6.8h0Z"/>
      <rect class="cls-1" x="69.72" y="104.48" width="110.57" height="8.19" rx="4.09" ry="4.09"/>
      <g>
        <circle class="cls-1" cx="66.59" cy="64.76" r="7.53"/>
        <circle class="cls-1" cx="88.54" cy="64.76" r="7.53"/>
        <circle class="cls-1" cx="161.46" cy="64.76" r="7.53"/>
        <circle class="cls-1" cx="183.41" cy="64.76" r="7.53"/>
      </g>
      <path class="cls-1" d="m142.13,62.23v5.06h-34.26v-5.06h34.26m1.42-5h-37.1c-1.98,0-3.58,1.6-3.58,3.58v7.9c0,1.98,1.6,3.58,3.58,3.58h37.1c1.98,0,3.58-1.6,3.58-3.58v-7.9c0-1.98-1.6-3.58-3.58-3.58h0Z"/>
      <path class="cls-1" d="m159.95,185.78h-69.9c-1.81,0-3.27-1.46-3.27-3.27s1.46-3.27,3.27-3.27h69.9c1.81,0,3.27,1.46,3.27,3.27s-1.46,3.27-3.27,3.27Z"/>
      <g>
        <path class="cls-1" d="m96.91,174.82h6.69c-.84-2.58-2.14-4.46-3.35-6.18-1.75-2.49-3.14-4.46-3.14-8.74s1.38-6.25,3.14-8.74c1.91-2.72,4.06-5.78,4.24-11.5.07-.25.11-.52.11-.79,0-1.7-1.38-3.08-3.08-3.08s-3.08,1.38-3.08,3.08h-.09c0,4.28-1.38,6.25-3.14,8.74-2,2.84-4.26,6.06-4.26,12.29s2.26,9.45,4.26,12.29c.63.9,1.21,1.74,1.7,2.64Z"/>
        <path class="cls-1" d="m151.45,174.82h6.7c-.84-2.59-2.15-4.46-3.36-6.18-1.75-2.49-3.14-4.46-3.14-8.74s1.38-6.25,3.14-8.74c2-2.84,4.26-6.06,4.26-12.29,0-1.7-1.38-3.08-3.08-3.08s-3.08,1.38-3.08,3.08c0,4.28-1.38,6.25-3.14,8.74-2,2.84-4.26,6.06-4.26,12.29s2.26,9.45,4.26,12.29c.63.9,1.22,1.74,1.7,2.64Z"/>
        <path class="cls-1" d="m133.26,174.82h6.71c-.84-2.59-2.15-4.46-3.36-6.18-1.75-2.49-3.14-4.46-3.14-8.74s1.38-6.25,3.14-8.74c1.91-2.71,4.05-5.77,4.24-11.47.07-.26.11-.54.11-.82,0-1.7-1.38-3.08-3.08-3.08s-3.08,1.38-3.08,3.08h-.1c0,4.28-1.38,6.25-3.14,8.74-2,2.84-4.26,6.06-4.26,12.29s2.26,9.45,4.26,12.29c.63.9,1.2,1.74,1.69,2.64Z"/>
        <path class="cls-1" d="m115.08,174.82h6.7c-.84-2.59-2.14-4.46-3.35-6.18-1.75-2.49-3.14-4.46-3.14-8.74s1.38-6.25,3.14-8.74c2-2.84,4.26-6.06,4.26-12.29h0c0-1.7-1.38-3.08-3.08-3.08s-3.08,1.38-3.08,3.08c0,.04,0,.07,0,.11-.02,4.21-1.4,6.17-3.14,8.64-2,2.84-4.26,6.06-4.26,12.29s2.26,9.45,4.26,12.29c.63.9,1.2,1.74,1.69,2.64Z"/>
      </g>
    </g>
  </g>
</svg>