<svg xmlns="http://www.w3.org/2000/svg" viewBox="0 0 240 240"><defs><style>.cls-1,.cls-3,.cls-5{fill:none;}.cls-2{fill:#d8e9f0;}.cls-3,.cls-5{stroke:#0285b4;stroke-miterlimit:10;}.cls-3{stroke-width:2px;}.cls-4{fill:#a9d2e2;}.cls-5{stroke-width:0.5px;}.cls-6{fill:#0285b4;}.cls-7{fill:#055e90;}.cls-8{fill:#2988b8;}.cls-9{fill:#afd2e4;}.cls-10{fill:#dbeaf1;}.cls-11{fill:#676767;}</style></defs><g id="Шар_2" data-name="Шар 2"><g id="Шар_2-2" data-name="Шар 2"><g id="NEO-1DP"><g id="BLE_Temperature_Humidity_Sensor" data-name="BLE Temperature/Humidity Sensor"><rect class="cls-1" width="240" height="240"/></g><g id="Cable"><path class="cls-2" d="M173.18,150.17a3,3,0,0,1-3-3V86.32a3,3,0,1,1,6,0v60.83A3,3,0,0,1,173.18,150.17Z"/><path class="cls-3" d="M106.23,52.27A10.27,10.27,0,0,1,116.5,42h48"/><path class="cls-3" d="M157.71,42h7c23.33,0,36.5,15.78,36.5,32.38l.33,5.2V165A32.58,32.58,0,0,1,169,197.57h0A32.58,32.58,0,0,1,136.38,165V79.58A32.58,32.58,0,0,1,169,47h0c17.6,0,29.12,13.93,29.74,31.38v87.55a25,25,0,0,1-25,25h0a25,25,0,0,1-25-25V78.64a25,25,0,0,1,25-25h0c13.28,0,21.35,10.35,22.15,23.43v89.78a17.41,17.41,0,0,1-17.41,17.42h0A17.41,17.41,0,0,1,161,166.86V77.71a17.41,17.41,0,0,1,17.41-17.42h0c9.12,0,14.44,8.75,14.41,15.91v91.6a9.83,9.83,0,0,1-9.83,9.83h0a9.84,9.84,0,0,1-9.83-9.83V150.17"/><path class="cls-4" d="M170.55,138.4h5.27a1.21,1.21,0,0,1,1.21,1.21v10.12a3.47,3.47,0,0,1-3.47,3.47h-.75a3.47,3.47,0,0,1-3.47-3.47V139.61a1.21,1.21,0,0,1,1.21-1.21Z"/></g><rect id="body" class="cls-5" x="34.82" y="56.29" width="92.54" height="146.5" rx="12.26"/><rect id="outline" class="cls-3" x="37.27" y="59.07" width="87.63" height="140.92" rx="9.98"/><rect id="screen_frame" data-name="screen frame" class="cls-4" x="46.08" y="72.45" width="69.68" height="69.68"/><rect id="screen" class="cls-2" x="51.32" y="77.69" width="59.26" height="59.26"/><path id="antenna_base" data-name="antenna base" class="cls-6" d="M100,52.27h12.43a1.64,1.64,0,0,1,1.64,1.64v2.37a0,0,0,0,1,0,0H98.37a0,0,0,0,1,0,0V53.92A1.64,1.64,0,0,1,100,52.27Z"/><g id="Logo"><g id="Blue_копия_" data-name="Blue копия "><g id="Слой_2_копия2_" data-name="Слой 2 копия2 "><g id="earth"><g id="green"><path class="cls-7" d="M61.24,163a4.48,4.48,0,0,0-.64-.05H60l-.51.05-.33,0a5.47,5.47,0,0,0-4.28,3.6c1.65-3.94,6.32-3.52,6.37-3.51l.11,0a3.09,3.09,0,0,1,.74.26,2.56,2.56,0,0,1,.35.22l.15.13.07.06a1.69,1.69,0,0,1,.23.36c.6,1.41-2.17,2.58-3.89,2-1.31-.45-1.33-1.65,0-2.26a2.86,2.86,0,0,0-.54.3c-1.77,1.22-1,3.26,1.39,3.7,2.6.47,6-1.15,4.63-3.33l-.08-.11-.1-.11a3.47,3.47,0,0,0-.85-.63l-.57-.28a5.63,5.63,0,0,0-.9-.31,4.53,4.53,0,0,0-.75-.15"/><path class="cls-8" d="M65.61,165.66l.07.13a2.48,2.48,0,0,1-1.11,3.14c-3.34,2.29-9.29,1-8.57-2.68a3.49,3.49,0,0,0,1.28,4.27c3.38,2.6,9.76,1,9.36-2.35l-.1-.48a5.88,5.88,0,0,0-.4-1.11,5.59,5.59,0,0,0-.58-1l-.1-.14Zm-.16-.23h0l0,0Z"/><path class="cls-9" d="M66.42,170.78c-1.74,3.31-10.17,3.88-11.79-1.38q0,.28.09.51c1.17,5.29,9.22,5.63,11.11,2.61l.27-.51a6.62,6.62,0,0,0,.5-1.46c0-.2.08-.49.1-.7a2.51,2.51,0,0,1-.28.93"/><path class="cls-10" d="M55.42,172.82a5.57,5.57,0,0,0,6,2.69l.24,0,.48-.12.49-.16.5-.22a5.14,5.14,0,0,0,.51-.29,5.28,5.28,0,0,0,.55-.37l0,0a6.6,6.6,0,0,1-8.77-1.38"/></g></g><path class="cls-11" d="M71.22,164.36a.68.68,0,1,1-.48,1.15.69.69,0,0,1,0-.95A.67.67,0,0,1,71.22,164.36ZM70.81,167h.82v6.39h-.82Z"/><path class="cls-11" d="M72.84,173.37l1.24-8.63h.14l3.51,7.08,3.47-7.08h.14l1.24,8.63h-.84l-.86-6.17-3,6.17h-.22l-3.09-6.22-.84,6.22Z"/><path class="cls-11" d="M89.72,167v6.4h-.79v-1.21a3.26,3.26,0,0,1-1.12.9,3.12,3.12,0,0,1-3.59-.63,3.09,3.09,0,0,1-.93-2.28A3.19,3.19,0,0,1,86.48,167a3.07,3.07,0,0,1,1.37.32,3.11,3.11,0,0,1,1.08,1V167Zm-3.18.76a2.47,2.47,0,0,0-1.22.32,2.48,2.48,0,0,0,0,4.27,2.31,2.31,0,0,0,1.21.32,2.4,2.4,0,0,0,1.23-.32,2.18,2.18,0,0,0,.9-.88,2.52,2.52,0,0,0,.32-1.24,2.4,2.4,0,0,0-.71-1.76A2.32,2.32,0,0,0,86.54,167.74Z"/><path class="cls-11" d="M92.05,164.62h.82V167H94v.71H92.87v5.67h-.82v-5.67h-1.2V167h1.2Z"/><path class="cls-11" d="M95.25,167h.84v1.1a2.72,2.72,0,0,1,.79-.83,1.57,1.57,0,0,1,.87-.27,1.54,1.54,0,0,1,.72.21l-.42.7a1,1,0,0,0-.44-.11,1.2,1.2,0,0,0-.79.33,2.11,2.11,0,0,0-.58,1,8.49,8.49,0,0,0-.15,2.05v2.16h-.84Z"/><path class="cls-11" d="M100.16,164.36a.67.67,0,1,1-.67.68.66.66,0,0,1,.2-.48A.6.6,0,0,1,100.16,164.36Zm-.4,2.62h.81v6.39h-.81Z"/><path class="cls-11" d="M102.11,167h1l1.7,2.34,1.68-2.34h1l-2.17,3,2.44,3.37h-1l-1.94-2.68-1.93,2.68h-1L104.3,170Z"/></g></g></g></g></g></g></svg>