<?xml version="1.0" encoding="UTF-8"?>
<svg id="_Шар_2" data-name="Шар 2" xmlns="http://www.w3.org/2000/svg" viewBox="0 0 250 250">
  <defs>
    <style>
      .cls-1 {
        fill: #0085b4;
      }

      .cls-2 {
        fill: none;
      }
    </style>
  </defs>
  <g id="Blue_Square" data-name="Blue Square">
    <g id="Whirpool_-_Dryer" data-name="Whirpool - Dryer">
      <rect id="Frame" class="cls-2" width="250" height="250"/>
      <g>
        <path class="cls-1" d="m177.9,48.23c3.92,0,7.1,3.19,7.1,7.1v139.33c0,3.92-3.19,7.1-7.1,7.1h-105.8c-3.92,0-7.1-3.19-7.1-7.1V55.33c0-3.92,3.19-7.1,7.1-7.1h105.8m0-7h-105.8c-7.79,0-14.1,6.31-14.1,14.1v139.33c0,7.79,6.31,14.1,14.1,14.1h105.8c7.79,0,14.1-6.31,14.1-14.1V55.33c0-7.79-6.31-14.1-14.1-14.1h0Z"/>
        <path class="cls-1" d="m125,99.44c21.69,0,39.33,17.64,39.33,39.33s-17.65,39.33-39.33,39.33-39.33-17.65-39.33-39.33,17.64-39.33,39.33-39.33m0-6c-25.04,0-45.33,20.3-45.33,45.33s20.3,45.33,45.33,45.33,45.33-20.3,45.33-45.33-20.3-45.33-45.33-45.33h0Z"/>
        <circle class="cls-1" cx="125" cy="65.44" r="9.67"/>
        <rect class="cls-1" x="148.66" y="55.77" width="28.65" height="19.33" rx="5.83" ry="5.83"/>
        <g>
          <path class="cls-1" d="m129.17,119.77c0,.12-.03.23-.06.35-.11,3.64-1.82,5.6-3.35,7.31-1.39,1.56-2.48,2.79-2.48,5.47s1.1,3.91,2.48,5.47c1.58,1.77,3.37,3.79,3.37,7.68s-1.79,5.91-3.37,7.68c-1.39,1.56-2.48,2.79-2.48,5.47h-.04s0,.02,0,.03h-.04c-.02,1.05-1.1,1.9-2.43,1.9s-2.44-.86-2.44-1.93c0-.12.03-.23.06-.35.11-3.64,1.82-5.6,3.35-7.31,1.39-1.56,2.48-2.79,2.48-5.47s-1.1-3.91-2.48-5.47c-1.58-1.77-3.37-3.79-3.37-7.68s1.79-5.91,3.37-7.68c1.39-1.56,2.48-2.79,2.48-5.47h.04s0-.02,0-.03h.04c.02-1.05,1.1-1.9,2.43-1.9s2.44.86,2.44,1.93Z"/>
          <path class="cls-1" d="m114.7,119.75h.05c0,3.9-1.79,5.91-3.37,7.68-1.39,1.56-2.48,2.79-2.48,5.47s1.09,3.91,2.48,5.47c1.58,1.77,3.37,3.79,3.37,7.68s-1.79,5.91-3.37,7.68c-1.39,1.56-2.48,2.79-2.48,5.47,0,1.06-1.09,1.93-2.44,1.93s-2.42-.85-2.43-1.9h-.04c0-3.9,1.79-5.91,3.37-7.68,1.39-1.56,2.48-2.79,2.48-5.47s-1.1-3.91-2.48-5.47c-1.58-1.77-3.37-3.79-3.37-7.68s1.79-5.91,3.37-7.68c1.38-1.55,2.46-2.77,2.48-5.4,0-.02,0-.04,0-.07,0-1.06,1.09-1.93,2.44-1.93s2.42.85,2.43,1.9Z"/>
          <path class="cls-1" d="m132.79,159.23h-.05c0-3.9,1.79-5.91,3.37-7.68,1.39-1.56,2.48-2.79,2.48-5.47s-1.09-3.91-2.48-5.47c-1.58-1.77-3.37-3.79-3.37-7.68s1.79-5.91,3.37-7.68c1.39-1.56,2.48-2.79,2.48-5.47,0-1.06,1.09-1.93,2.44-1.93s2.42.85,2.43,1.9h.04c0,3.9-1.79,5.91-3.37,7.68-1.39,1.56-2.48,2.79-2.48,5.47s1.1,3.91,2.48,5.47c1.58,1.77,3.37,3.79,3.37,7.68s-1.79,5.91-3.37,7.68c-1.38,1.55-2.46,2.77-2.48,5.4,0,.02,0,.04,0,.07,0,1.06-1.09,1.93-2.44,1.93s-2.42-.85-2.43-1.9Z"/>
        </g>
      </g>
    </g>
  </g>
</svg>