<?xml version="1.0" encoding="utf-8"?>
<!-- Generator: Adobe Illustrator 26.0.1, SVG Export Plug-In . SVG Version: 6.00 Build 0)  -->
<svg version="1.1" id="Слой_1" xmlns="http://www.w3.org/2000/svg" xmlns:xlink="http://www.w3.org/1999/xlink" x="0px" y="0px"
	 viewBox="0 0 128 128" style="enable-background:new 0 0 128 128;" xml:space="preserve">
<style type="text/css">
	.st0{fill:#0085B4;}
</style>
<path class="st0" d="M83.6,37.4c-0.9-0.7-2.1-0.5-2.8,0.3c-0.7,0.9-0.5,2.1,0.3,2.8c0,0,0.1,0,0.1,0.1c2.2,1.6,4.2,3.6,5.9,5.8
	c9.7,12.7,7.3,30.9-5.5,40.6S50.7,94.3,41,81.6c-8.7-11.5-7.7-27.6,2.4-37.9V51c0,1.1,0.9,2,2,2s2-0.9,2-2V39c0-1.1-0.9-2-2-2H32.9
	c-1.1,0-2,0.9-2,2s0.9,2,2,2h7.5C27.7,54.1,28,75,41.1,87.7c5.1,4.9,11.6,8.1,18.6,9c1.5,0.2,3,0.3,4.5,0.3
	c18.2,0,33-14.8,32.9-33.1c0-7.2-2.4-14.2-6.8-19.9C88.4,41.5,86.2,39.3,83.6,37.4z"/>
<path class="st0" d="M63.9,66.5L63.9,66.5c1.2,0,2.1-0.9,2.1-2V33c0-1.1-0.9-2-2-2h-0.1c-1.1,0-2,0.9-2,2v31.5
	C61.9,65.6,62.8,66.5,63.9,66.5z"/>
<path class="st0" d="M64,0C28.7,0,0,28.7,0,64s28.7,64,64,64s64-28.7,64-64C128,28.7,99.3,0,64,0z M64,124C30.9,124,4,97.1,4,64
	S30.9,4,64,4s60,26.9,60,60C124,97.1,97.1,124,64,124z"/>
</svg>
