<?xml version="1.0" encoding="UTF-8"?>
<svg id="_Шар_2" data-name="Шар 2" xmlns="http://www.w3.org/2000/svg" viewBox="0 0 250 250">
  <defs>
    <style>
      .cls-1 {
        fill: none;
      }

      .cls-2 {
        fill: #0085b4;
      }
    </style>
  </defs>
  <g id="Blue_Square" data-name="Blue Square">
    <g id="Telematics_-_Vehicle_idling" data-name="Telematics - Vehicle idling">
      <g>
        <path class="cls-2" d="M51,154.52c-20.81,0-37.74-16.93-37.74-37.74s16.93-37.74,37.74-37.74,37.74,16.93,37.74,37.74-16.93,37.74-37.74,37.74ZM51,83.03c-18.61,0-33.74,15.14-33.74,33.74s15.14,33.74,33.74,33.74,33.74-15.14,33.74-33.74-15.14-33.74-33.74-33.74Z"/>
        <path class="cls-2" d="M92.11,187.36c-10.36,0-18.8-8.43-18.8-18.8s8.43-18.8,18.8-18.8,18.8,8.43,18.8,18.8-8.43,18.8-18.8,18.8ZM92.11,157.77c-5.95,0-10.8,4.84-10.8,10.8s4.84,10.8,10.8,10.8,10.8-4.84,10.8-10.8-4.84-10.8-10.8-10.8Z"/>
        <path class="cls-2" d="M196.54,186.16c-10.36,0-18.8-8.43-18.8-18.8s8.43-18.8,18.8-18.8,18.8,8.43,18.8,18.8-8.43,18.8-18.8,18.8ZM196.54,156.56c-5.95,0-10.8,4.84-10.8,10.8s4.84,10.8,10.8,10.8,10.8-4.84,10.8-10.8-4.84-10.8-10.8-10.8Z"/>
        <path class="cls-2" d="M66,170.91h-15c-2.21,0-4-1.79-4-4v-12.3c0-2.21,1.79-4,4-4s4,1.79,4,4v8.3h11c2.21,0,4,1.79,4,4s-1.79,4-4,4Z"/>
        <path class="cls-2" d="M158.35,170.91h-40.13c-2.21,0-4-1.79-4-4s1.79-4,4-4h36.13v-88.91c0-1.85-1.51-3.36-3.36-3.36H58.37c-1.85,0-3.36,1.51-3.36,3.36v4.61c0,2.21-1.79,4-4,4s-4-1.79-4-4v-4.61c0-6.26,5.1-11.36,11.36-11.36h92.62c6.27,0,11.36,5.1,11.36,11.36v92.91c0,2.21-1.79,4-4,4Z"/>
        <path class="cls-2" d="M234.74,128.88h-54.24c-1.1,0-2-.9-2-2v-30c0-1.1.9-2,2-2h28.35c.58,0,1.13.25,1.51.69l25.89,30c.51.59.63,1.43.3,2.14s-1.04,1.17-1.82,1.17ZM182.5,124.88h47.87l-22.44-26h-25.43v26Z"/>
        <path class="cls-2" d="M234.74,170.91h-12.04c-2.21,0-4-1.79-4-4s1.79-4,4-4h8.04v-34.55l-35.95-41.65h-32.44v76.19h8.03c2.21,0,4,1.79,4,4s-1.79,4-4,4h-12.03c-2.21,0-4-1.79-4-4v-84.19c0-2.21,1.79-4,4-4h38.27c1.16,0,2.27.51,3.03,1.39l38.12,44.16c.63.73.97,1.65.97,2.61v40.03c0,2.21-1.79,4-4,4Z"/>
        <polygon class="cls-2" points="58.64 95.23 36.54 120.12 48.86 120.12 43.14 138.32 65.47 113.29 53.3 113.29 58.64 95.23"/>
      </g>
      <rect id="Frame" class="cls-1" width="250" height="250"/>
    </g>
  </g>
</svg>