<?xml version="1.0" encoding="UTF-8"?>
<svg id="_Шар_2" data-name="Шар 2" xmlns="http://www.w3.org/2000/svg" viewBox="0 0 250 250">
  <defs>
    <style>
      .cls-1 {
        fill: none;
      }

      .cls-2 {
        fill: #0085b4;
      }
    </style>
  </defs>
  <g id="Blue_Square" data-name="Blue Square">
    <g id="Telematics_-_Hard_brake" data-name="Telematics - Hard brake">
      <g>
        <g>
          <path class="cls-2" d="M123.66,204.85c-21.34,0-41.26-8.31-56.09-23.41-14.84-15.1-22.8-35.17-22.42-56.52.77-43.99,37.2-79.78,81.19-79.78,21.34,0,41.26,8.31,56.09,23.41,14.84,15.1,22.8,35.17,22.42,56.51l-4-.07,4,.07c-.77,43.99-37.2,79.78-81.19,79.78ZM126.34,53.15c-39.66,0-72.49,32.27-73.19,71.92-.34,19.18,6.81,37.21,20.13,50.77,13.32,13.55,31.21,21.02,50.39,21.02,39.66,0,72.49-32.27,73.19-71.92.34-19.18-6.81-37.21-20.13-50.77-13.32-13.55-31.21-21.02-50.39-21.02Z"/>
          <path class="cls-2" d="M124.12,177.08c-13.92,0-26.91-5.42-36.58-15.26-9.67-9.84-14.86-22.93-14.62-36.85.51-28.7,24.26-52.04,52.96-52.04,13.92,0,26.91,5.42,36.58,15.26,9.67,9.84,14.86,22.93,14.62,36.85-.51,28.7-24.26,52.04-52.96,52.04ZM125.88,76.92c-26.53,0-48.49,21.58-48.96,48.11-.23,12.84,4.56,24.9,13.47,33.98,8.91,9.07,20.89,14.07,33.72,14.07,26.53,0,48.49-21.58,48.96-48.11h0c.23-12.84-4.56-24.9-13.47-33.98-8.91-9.07-20.89-14.07-33.72-14.07Z"/>
          <path class="cls-2" d="M124.26,168.75c-11.69,0-22.61-4.55-30.73-12.83-8.13-8.27-12.49-19.27-12.28-30.96.42-24.11,20.38-43.72,44.49-43.72,11.69,0,22.61,4.55,30.73,12.83,8.13,8.27,12.49,19.27,12.28,30.96l-2-.04,2,.04c-.42,24.11-20.38,43.72-44.49,43.72ZM125.74,85.25c-21.94,0-40.1,17.85-40.49,39.79-.19,10.61,3.77,20.59,11.14,28.09,7.37,7.5,17.27,11.63,27.88,11.63,21.94,0,40.1-17.85,40.49-39.79.19-10.61-3.77-20.59-11.14-28.09-7.37-7.5-17.27-11.63-27.88-11.63Z"/>
          <path class="cls-2" d="M124.86,134.8c-2.62,0-5.08-1.02-6.9-2.88-1.83-1.86-2.81-4.33-2.76-6.95.09-5.39,4.55-9.77,9.94-9.77,2.62,0,5.08,1.02,6.9,2.88s2.81,4.33,2.76,6.95c-.09,5.39-4.55,9.77-9.94,9.77ZM125.14,119.2c-3.22,0-5.88,2.62-5.94,5.84-.03,1.54.55,2.99,1.62,4.08,1.07,1.09,2.51,1.69,4.05,1.69,3.22,0,5.88-2.62,5.94-5.84h0c.03-1.54-.55-2.99-1.62-4.08-1.07-1.09-2.51-1.69-4.05-1.69Z"/>
          <g>
            <path class="cls-2" d="M168.74,121.94h-23.06c-3.18,0-6.01-1.64-7.57-4.39-1.58-2.78-1.54-6.1.12-8.88l11.89-19.99,1.78,1.36c9.35,7.14,15.4,17.96,16.61,29.69l.23,2.21ZM151.23,94.65l-9.56,16.07c-.91,1.53-.94,3.35-.08,4.86.84,1.48,2.37,2.36,4.09,2.36h18.56c-1.46-9.04-6.1-17.33-13.02-23.29Z"/>
            <path class="cls-2" d="M99.88,161.32l-1.78-1.36c-9.34-7.14-15.4-17.96-16.61-29.69l-.23-2.21h23.06c3.18,0,6.01,1.64,7.57,4.39,1.58,2.78,1.54,6.1-.12,8.88l-11.89,19.99ZM85.75,132.06c1.46,9.04,6.1,17.33,13.02,23.29l9.56-16.07c.91-1.53.94-3.35.08-4.86-.84-1.48-2.37-2.36-4.09-2.36h-18.56Z"/>
            <path class="cls-2" d="M148.88,161.33l-11.22-20.05c-1.54-2.75-1.49-6.03.12-8.78,1.63-2.78,4.52-4.44,7.72-4.44h23.14l-.31,2.27c-1.62,11.71-8.04,22.51-17.62,29.63l-1.83,1.36ZM145.5,132.06c-1.77,0-3.37.92-4.27,2.47-.89,1.51-.91,3.31-.08,4.8l8.96,16.02c7.13-5.96,12.07-14.25,13.87-23.28h-18.48Z"/>
            <path class="cls-2" d="M104.5,121.94h-23.14l.31-2.27c1.62-11.71,8.04-22.51,17.62-29.63l1.83-1.36,11.22,20.05c1.54,2.75,1.49,6.03-.12,8.78-1.63,2.78-4.52,4.44-7.72,4.44ZM86.02,117.94h18.48c1.77,0,3.37-.92,4.27-2.47.89-1.51.91-3.31.08-4.8l-8.96-16.02c-7.13,5.96-12.07,14.25-13.87,23.28Z"/>
            <path class="cls-2" d="M125.3,110.05s-.08,0-.12,0c-3.15-.04-5.95-1.7-7.48-4.44l-11.2-20.02,2.06-.87c5.46-2.31,11.25-3.48,17.18-3.48s11.69,1.17,17.08,3.49l2.1.9-11.92,20.03c-1.64,2.76-4.51,4.39-7.69,4.39ZM112.2,87.6l8.99,16.06c.83,1.48,2.34,2.37,4.04,2.39,1.77,0,3.4-.89,4.32-2.44l9.55-16.05c-4.26-1.54-8.75-2.32-13.37-2.32s-9.19.79-13.54,2.35Z"/>
            <path class="cls-2" d="M124.26,168.75c-5.94,0-11.69-1.17-17.08-3.49l-2.1-.9,11.92-20.03c1.66-2.79,4.57-4.45,7.81-4.39,3.15.04,5.95,1.7,7.48,4.44l11.2,20.02-2.06.87c-5.46,2.31-11.25,3.48-17.18,3.48ZM110.9,162.43c4.26,1.54,8.75,2.32,13.37,2.32s9.19-.79,13.54-2.35l-8.99-16.06c-.83-1.48-2.34-2.37-4.04-2.39-1.78,0-3.4.89-4.32,2.44l-9.55,16.05ZM118.73,145.36h.01-.01Z"/>
          </g>
        </g>
        <g>
          <path class="cls-2" d="M202.3,189.48c-.84,0-1.69-.26-2.41-.81-1.76-1.33-2.11-3.84-.77-5.6,25.88-34.18,25.89-81.94.01-116.12-1.33-1.76-.99-4.27.78-5.6,1.76-1.33,4.27-.99,5.6.78,28.03,37.03,28.02,88.75-.01,125.78-.79,1.04-1.98,1.59-3.19,1.59Z"/>
          <path class="cls-2" d="M47.69,189.48c-1.21,0-2.41-.55-3.19-1.59-28.03-37.03-28.02-88.75.01-125.78,1.33-1.76,3.84-2.11,5.6-.77,1.76,1.33,2.11,3.84.77,5.6-25.88,34.18-25.89,81.94-.01,116.12,1.33,1.76.99,4.27-.78,5.6-.72.55-1.57.81-2.41.81Z"/>
        </g>
      </g>
      <rect id="Frame" class="cls-1" width="250" height="250"/>
    </g>
  </g>
</svg>