<?xml version="1.0" encoding="UTF-8"?>
<svg id="_Шар_2" data-name="Шар 2" xmlns="http://www.w3.org/2000/svg" viewBox="0 0 250 250">
  <defs>
    <style>
      .cls-1 {
        fill: none;
      }

      .cls-2 {
        fill: #0085b4;
      }
    </style>
  </defs>
  <g id="Blue_Square" data-name="Blue Square">
    <g id="Telematics_-_Vehicle_stopped" data-name="Telematics - Vehicle stopped">
      <g>
        <path class="cls-2" d="M92.11,187.36c-10.36,0-18.8-8.43-18.8-18.8s8.43-18.8,18.8-18.8,18.8,8.43,18.8,18.8-8.43,18.8-18.8,18.8ZM92.11,157.77c-5.95,0-10.8,4.84-10.8,10.8s4.84,10.8,10.8,10.8,10.8-4.84,10.8-10.8-4.84-10.8-10.8-10.8Z"/>
        <path class="cls-2" d="M196.54,186.16c-10.36,0-18.8-8.43-18.8-18.8s8.43-18.8,18.8-18.8,18.8,8.43,18.8,18.8-8.43,18.8-18.8,18.8ZM196.54,156.56c-5.95,0-10.8,4.84-10.8,10.8s4.84,10.8,10.8,10.8,10.8-4.84,10.8-10.8-4.84-10.8-10.8-10.8Z"/>
        <path class="cls-2" d="M66,170.91h-15c-2.21,0-4-1.79-4-4v-12.3c0-2.21,1.79-4,4-4s4,1.79,4,4v8.3h11c2.21,0,4,1.79,4,4s-1.79,4-4,4Z"/>
        <path class="cls-2" d="M158.35,170.91h-40.13c-2.21,0-4-1.79-4-4s1.79-4,4-4h36.13v-88.91c0-1.85-1.51-3.36-3.36-3.36H58.37c-1.85,0-3.36,1.51-3.36,3.36v4.61c0,2.21-1.79,4-4,4s-4-1.79-4-4v-4.61c0-6.26,5.1-11.36,11.36-11.36h92.62c6.26,0,11.36,5.1,11.36,11.36v92.91c0,2.21-1.79,4-4,4Z"/>
        <path class="cls-2" d="M234.74,128.88h-54.24c-1.1,0-2-.9-2-2v-30c0-1.1.9-2,2-2h28.35c.58,0,1.13.25,1.51.69l25.89,30c.51.59.63,1.43.3,2.14s-1.04,1.17-1.82,1.17ZM182.5,124.88h47.87l-22.44-26h-25.43v26Z"/>
        <path class="cls-2" d="M234.74,170.91h-12.04c-2.21,0-4-1.79-4-4s1.79-4,4-4h8.04v-34.55l-35.95-41.65h-32.44v76.19h8.03c2.21,0,4,1.79,4,4s-1.79,4-4,4h-12.03c-2.21,0-4-1.79-4-4v-84.19c0-2.21,1.79-4,4-4h38.27c1.16,0,2.27.51,3.03,1.39l38.12,44.16c.63.73.97,1.65.97,2.61v40.03c0,2.21-1.79,4-4,4Z"/>
        <path class="cls-2" d="M65.81,154.52h-29.61c-.53,0-1.04-.21-1.41-.59l-20.94-20.94c-.38-.38-.59-.88-.59-1.41v-29.61c0-.53.21-1.04.59-1.41l20.94-20.94c.38-.38.88-.59,1.41-.59h29.61c.53,0,1.04.21,1.41.59l20.94,20.94c.38.38.59.88.59,1.41v29.61c0,.53-.21,1.04-.59,1.41l-20.94,20.94c-.38.38-.88.59-1.41.59ZM37.03,150.52h27.95l19.77-19.77v-27.95l-19.77-19.77h-27.95l-19.77,19.77v27.95l19.77,19.77Z"/>
        <g>
          <path class="cls-2" d="M29.79,121.27v1.62c0,1.54.38,2.25,1.41,2.25s1.28-1.06,1.28-2.16c0-2.21-.41-2.84-2.8-4.84-2.63-2.23-3.99-3.55-3.99-6.99s1.11-6.41,5.53-6.41c4.7,0,5.39,3.21,5.39,5.88v1.34h-4.24v-1.4c0-1.42-.23-2.12-1.12-2.12-.83,0-1.1.71-1.1,2.04,0,1.41.26,2.1,2.19,3.61,3.44,2.7,4.67,4.22,4.67,8.06s-1.25,6.67-5.89,6.67-5.73-2.69-5.73-6.15v-1.4h4.4Z"/>
          <path class="cls-2" d="M41.22,109.08h-3.4v-3.97h11.32v3.97h-3.43v19.39h-4.49v-19.39Z"/>
          <path class="cls-2" d="M62.42,111.36v10.84c0,4.64-2.18,6.63-6.27,6.63s-5.87-2.04-5.87-6.58v-11.01c0-4.51,2.48-6.48,6.08-6.48s6.06,1.94,6.06,6.6ZM54.83,110.85v11.94c0,1.44.49,2.2,1.5,2.2s1.52-.68,1.52-2.22v-11.96c0-1.46-.4-2.21-1.53-2.21-.96,0-1.49.69-1.49,2.24Z"/>
          <path class="cls-2" d="M64.83,105.1h5.99c3.88,0,5.8,2.05,5.8,6.19v1.43c0,4.09-1.54,6.56-5.98,6.56h-1.32v9.19h-4.5v-23.37ZM69.33,115.64h.73c1.71,0,2.07-.96,2.07-2.9v-1.61c0-1.51-.35-2.48-1.85-2.48h-.94v7Z"/>
        </g>
      </g>
      <rect id="Frame" class="cls-1" width="250" height="250"/>
    </g>
  </g>
</svg>