<?xml version="1.0" encoding="UTF-8"?>
<svg id="_Шар_2" data-name="Шар 2" xmlns="http://www.w3.org/2000/svg" viewBox="0 0 250 250">
  <defs>
    <style>
      .cls-1 {
        fill: none;
      }

      .cls-2 {
        fill: #0085b4;
      }
    </style>
  </defs>
  <g id="Blue_Square" data-name="Blue Square">
    <g id="Telematics_-_Hard_impact" data-name="Telematics - Hard impact">
      <rect id="Frame" class="cls-1" width="250" height="250"/>
      <g>
        <path class="cls-2" d="M196.74,70.33l-19.6,17.23-25.46-36.63,3.21,42.81c.1,1.38,1.3,2.41,2.68,2.31,1.38-.1,2.41-1.3,2.31-2.68l-1.84-24.53,18.2,26.18,15.49-13.62-.03,19.88,30.04-.29-20.63,18.53,25.47,10.68-25.68,7.48,11.43,18.86-15.15-7.91c-1.22-.64-2.73-.17-3.37,1.06-.64,1.22-.17,2.74,1.06,3.37l31.02,16.2-17.34-28.6,32.98-9.6-31.21-13.09,24.6-22.1-38.22.36.03-25.9Z"/>
        <path class="cls-2" d="M44.65,203.06c-4.8,0-9.12-1.89-12.16-5.33-3.06-3.46-4.42-8.03-3.83-12.86,1.19-9.65,9.69-17.21,19.35-17.21,4.8,0,9.12,1.89,12.16,5.33,3.06,3.46,4.42,8.03,3.83,12.86-1.18,9.65-9.69,17.21-19.35,17.21ZM48.02,175.66c-5.51,0-10.73,4.67-11.41,10.19-.31,2.53.36,4.86,1.88,6.59,1.5,1.69,3.69,2.63,6.17,2.63,5.51,0,10.73-4.67,11.41-10.19h0c.31-2.53-.36-4.86-1.88-6.59-1.5-1.69-3.69-2.63-6.17-2.63Z"/>
        <path class="cls-2" d="M141.48,201.95c-4.8,0-9.12-1.89-12.16-5.33-3.06-3.46-4.42-8.03-3.83-12.86,1.19-9.65,9.69-17.21,19.35-17.21,4.8,0,9.12,1.89,12.16,5.33,3.06,3.46,4.42,8.03,3.83,12.86-1.18,9.65-9.69,17.21-19.35,17.21ZM144.85,174.55c-5.51,0-10.73,4.67-11.41,10.19-.31,2.53.36,4.86,1.88,6.59,1.5,1.69,3.69,2.63,6.17,2.63,5.51,0,10.73-4.67,11.41-10.19h0c.31-2.53-.36-4.86-1.88-6.59-1.5-1.69-3.69-2.63-6.17-2.63Z"/>
        <path class="cls-2" d="M107.86,187.84h-37.16c-2.21,0-4-1.79-4-4s1.79-4,4-4h33.62l10.13-82.52c.08-.69-.07-1.27-.45-1.7-.36-.41-.9-.63-1.56-.63H26.68c-1.75,0-3.47,1.54-3.68,3.3l-10.01,81.54h9.37c2.21,0,4,1.79,4,4s-1.79,4-4,4h-13.89c-1.15,0-2.24-.49-3-1.35-.76-.86-1.11-2-.97-3.14l10.56-86.03c.71-5.79,5.82-10.33,11.62-10.33h85.76c2.93,0,5.68,1.21,7.55,3.33,1.88,2.13,2.76,5.04,2.4,7.98l-10.56,86.03c-.25,2.01-1.95,3.51-3.97,3.51Z"/>
        <path class="cls-2" d="M183.14,148.77h-50.22c-.57,0-1.12-.25-1.5-.67-.38-.43-.56-1-.49-1.57l3.41-27.78c.12-1,.97-1.76,1.98-1.76h26.25c.63,0,1.23.3,1.61.81l20.56,27.78c.45.61.52,1.42.18,2.09-.34.67-1.03,1.1-1.79,1.1ZM135.17,144.77h43.99l-17.6-23.78h-23.47l-2.92,23.78Z"/>
        <path class="cls-2" d="M178.58,187.84h-11.15c-2.21,0-4-1.79-4-4s1.79-4,4-4h7.61l3.93-31.97-28.12-37.99h-29.88l-8.59,69.96h6.62c2.21,0,4,1.79,4,4s-1.79,4-4,4h-11.14c-1.15,0-2.24-.49-3-1.35-.76-.86-1.11-2-.97-3.14l9.57-77.96c.25-2.01,1.95-3.51,3.97-3.51h35.44c1.27,0,2.46.6,3.21,1.62l30.27,40.89c.61.82.88,1.85.76,2.87l-4.55,37.07c-.25,2.01-1.95,3.51-3.97,3.51Z"/>
      </g>
    </g>
  </g>
</svg>