<?xml version="1.0" encoding="UTF-8"?>
<svg id="_Шар_2" data-name="Шар 2" xmlns="http://www.w3.org/2000/svg" viewBox="0 0 250 250">
  <defs>
    <style>
      .cls-1 {
        fill: none;
      }

      .cls-2 {
        fill: #0085b4;
      }
    </style>
  </defs>
  <g id="Blue_Square" data-name="Blue Square">
    <g id="Telematics_-_Hard_turn" data-name="Telematics - Hard turn">
      <g>
        <path class="cls-2" d="M205.25,209.77c-1.06,0-2.08-.42-2.83-1.17l-22.95-22.96c-1.56-1.56-1.56-4.1,0-5.66,1.56-1.56,4.09-1.56,5.66,0l20.13,20.13,20.13-20.13c1.56-1.56,4.09-1.56,5.66,0,1.56,1.56,1.56,4.09,0,5.66l-22.95,22.96c-.75.75-1.77,1.17-2.83,1.17Z"/>
        <path class="cls-2" d="M205.25,209.09c-2.21,0-4-1.79-4-4v-79.84c0-42.47-34.55-77.02-77.02-77.02S47.2,82.78,47.2,125.25v79.84c0,2.21-1.79,4-4,4s-4-1.79-4-4v-79.84c0-46.88,38.14-85.02,85.02-85.02s85.02,38.14,85.02,85.02v79.84c0,2.21-1.79,4-4,4Z"/>
        <g>
          <path class="cls-2" d="M124.67,186.73c-34.22,0-62.07-27.84-62.07-62.07s27.84-62.07,62.07-62.07,62.07,27.84,62.07,62.07-27.84,62.07-62.07,62.07ZM124.67,70.59c-29.81,0-54.07,24.25-54.07,54.07s24.25,54.07,54.07,54.07,54.07-24.25,54.07-54.07-24.25-54.07-54.07-54.07Z"/>
          <path class="cls-2" d="M124.67,136.99c-6.8,0-12.33-5.53-12.33-12.33s5.53-12.33,12.33-12.33,12.33,5.53,12.33,12.33-5.53,12.33-12.33,12.33ZM124.67,116.32c-4.6,0-8.33,3.74-8.33,8.33s3.74,8.33,8.33,8.33,8.33-3.74,8.33-8.33-3.74-8.33-8.33-8.33Z"/>
          <path class="cls-2" d="M137.43,183.74h-25.52c-1.1,0-2-.9-2-2v-32.72c0-8.39-6.83-15.22-15.22-15.22h-25.16c-1.1,0-2-.9-2-2v-21.4c0-1.1.9-2,2-2h30.47c4.33,0,8.33-1.21,11.58-3.49,3.85-2.71,8.38-4.14,13.1-4.14s9.25,1.43,13.1,4.14c3.24,2.28,7.25,3.49,11.58,3.49h30.47c1.1,0,2,.9,2,2v21.4c0,1.1-.9,2-2,2h-25.16c-8.39,0-15.22,6.83-15.22,15.22v32.72c0,1.1-.9,2-2,2ZM113.9,179.74h21.52v-30.72c0-10.6,8.62-19.22,19.22-19.22h23.16v-17.4h-28.47c-5.16,0-9.96-1.46-13.88-4.21-3.17-2.23-6.91-3.41-10.8-3.41s-7.63,1.18-10.8,3.41c-3.92,2.76-8.72,4.21-13.88,4.21h-28.47v17.4h23.16c10.6,0,19.22,8.62,19.22,19.22v30.72Z"/>
        </g>
      </g>
      <rect id="Frame" class="cls-1" width="250" height="250"/>
    </g>
  </g>
</svg>