<svg xmlns="http://www.w3.org/2000/svg" viewBox="0 0 250 250"><defs><style>.cls-1{fill:#0085b4;}.cls-2{fill:none;}</style></defs><g id="Шар_2" data-name="Шар 2"><g id="Blue"><g id="Service_-_WiFi_Channel" data-name="Service - WiFi Channel"><path class="cls-1" d="M36.51,183.26v-.09A16.37,16.37,0,0,1,53.3,166.51a17.06,17.06,0,0,1,10.77,3.27,3.55,3.55,0,0,1,1.38,2.8A3.46,3.46,0,0,1,62,176a3.67,3.67,0,0,1-2.12-.69,10.57,10.57,0,0,0-6.57-2.3c-5.43,0-9.34,4.51-9.34,10v.1c0,5.52,3.81,10.12,9.34,10.12a10.34,10.34,0,0,0,7-2.53,3.29,3.29,0,0,1,5.43,2.48,3.35,3.35,0,0,1-1.2,2.53,16.18,16.18,0,0,1-11.45,4A16.26,16.26,0,0,1,36.51,183.26Z"/><path class="cls-1" d="M70,168.9a3.5,3.5,0,0,1,7,0v9.2c1.61-2.07,3.68-3.95,7.22-3.95,5.29,0,8.38,3.49,8.38,9.15v12.75a3.5,3.5,0,0,1-7,0V185.51c0-3.31-1.56-5-4.23-5s-4.37,1.7-4.37,5v10.54a3.5,3.5,0,0,1-7,0Z"/><path class="cls-1" d="M96,192.18v-.09c0-5.38,4.1-7.87,9.94-7.87a17.51,17.51,0,0,1,6,1v-.42c0-2.9-1.8-4.51-5.3-4.51a16.2,16.2,0,0,0-4.83.69,2.91,2.91,0,0,1-1,.19,2.86,2.86,0,0,1-2.9-2.86,2.9,2.9,0,0,1,1.89-2.71,21.43,21.43,0,0,1,7.87-1.29c3.82,0,6.58,1,8.32,2.76s2.67,4.56,2.67,7.87v11.22a3.36,3.36,0,0,1-3.4,3.36,3.12,3.12,0,0,1-3.36-2.9v0a9.5,9.5,0,0,1-7.45,3.13C99.85,199.73,96,197.06,96,192.18Zm16.06-1.61v-1.24a10.89,10.89,0,0,0-4.46-.92c-3,0-4.84,1.2-4.84,3.4v.1c0,1.88,1.57,3,3.82,3C109.88,194.9,112.09,193.1,112.09,190.57Z"/><path class="cls-1" d="M123.59,177.83a3.5,3.5,0,1,1,7,0v.27c1.61-2.07,3.68-3.95,7.22-3.95,5.29,0,8.37,3.49,8.37,9.15v12.75a3.5,3.5,0,0,1-7,0V185.51c0-3.31-1.56-5-4.23-5s-4.37,1.7-4.37,5v10.54a3.5,3.5,0,0,1-7,0Z"/><path class="cls-1" d="M151.09,177.83a3.5,3.5,0,0,1,7,0v.27c1.61-2.07,3.68-3.95,7.22-3.95,5.29,0,8.37,3.49,8.37,9.15v12.75a3.5,3.5,0,0,1-7,0V185.51c0-3.31-1.56-5-4.23-5s-4.37,1.7-4.37,5v10.54a3.5,3.5,0,0,1-7,0Z"/><path class="cls-1" d="M190.29,199.82c-7.41,0-12.88-5.2-12.88-12.74V187c0-7,5-12.83,12.19-12.83,8.23,0,11.87,6.76,11.87,11.87a3.2,3.2,0,0,1-3.27,3.36H184.35a5.72,5.72,0,0,0,6,4.83,8.08,8.08,0,0,0,5-1.66,2.57,2.57,0,0,1,1.7-.55,2.67,2.67,0,0,1,2.71,2.76,2.73,2.73,0,0,1-.92,2.07A12.77,12.77,0,0,1,190.29,199.82Zm4.5-14.82c-.41-3.12-2.25-5.24-5.19-5.24s-4.79,2.07-5.34,5.24Z"/><path class="cls-1" d="M206,168.9a3.5,3.5,0,0,1,7,0v27.15a3.5,3.5,0,0,1-7,0Z"/><path class="cls-1" d="M162.51,144.41a44.22,44.22,0,0,0-75.33,0,4.07,4.07,0,0,0,1.35,5.6,3.86,3.86,0,0,0,2.13.58,4.3,4.3,0,0,0,3.47-1.93,35.74,35.74,0,0,1,30.71-17.19,36.59,36.59,0,0,1,30.71,17.19,4.08,4.08,0,0,0,7-4.25Z"/><path class="cls-1" d="M187.23,121.24a73.35,73.35,0,0,0-124.77,0,4.07,4.07,0,0,0,1.35,5.6,3.94,3.94,0,0,0,2.12.58,4.31,4.31,0,0,0,3.48-1.94,65.18,65.18,0,0,1,110.87,0,4.07,4.07,0,1,0,6.95-4.24Z"/><path class="cls-1" d="M209.25,97.09a99.37,99.37,0,0,0-168.81,0,4.07,4.07,0,0,0,1.35,5.6,3.85,3.85,0,0,0,2.12.58,4.3,4.3,0,0,0,3.48-1.93,91.29,91.29,0,0,1,154.91.19,4.07,4.07,0,0,0,5.6,1.36A4.35,4.35,0,0,0,209.25,97.09Z"/><rect id="Frame" class="cls-2" width="250" height="250"/></g></g></g></svg>