<?xml version="1.0" encoding="utf-8"?>
<!-- Generator: Adobe Illustrator 25.4.1, SVG Export Plug-In . SVG Version: 6.00 Build 0)  -->
<svg version="1.1" id="Layer_1" xmlns="http://www.w3.org/2000/svg" xmlns:xlink="http://www.w3.org/1999/xlink" x="0px" y="0px"
	 viewBox="0 0 1280 1280" style="enable-background:new 0 0 1280 1280;" xml:space="preserve">
<style type="text/css">
	.st0{fill:#0085B4;}
</style>
<g transform="translate(0.000000,1280.000000) scale(0.100000,-0.100000)">
	<path class="st0" d="M6180,12754c-920-50-1679-235-2465-602c-869-405-1665-1032-2268-1787C722,9458,264,8389,105,7235
		c-48-354-69-901-46-1245c76-1139,425-2184,1046-3125C2070,1400,3601,396,5330,96c396-69,643-89,1080-90c361-1,502,7,805,45
		c1851,229,3509,1263,4537,2829c917,1395,1248,3085,927,4730c-157,804-481,1594-936,2283c-779,1180-1926,2067-3263,2522
		c-506,173-985,273-1535,320C6779,12750,6309,12761,6180,12754z M6135,11793c-3-236-8-782-11-1214l-6-787l-292-6
		c-160-3-762-7-1338-10l-1046-4l11,32c21,62,245,494,327,631c351,590,774,1054,1248,1372c165,110,445,249,621,307
		c147,49,386,104,454,105l37,1L6135,11793z M6780,12200c36-6,108-22,160-36c479-129,902-385,1316-798c387-387,680-812,966-1400
		c42-88,76-161,75-162s-600-5-1330-9l-1329-7l6,934c4,513,9,1060,12,1216l6,283l27-5C6703,12213,6744,12206,6780,12200z M8710,11772
		c863-366,1630-939,2236-1672c89-107,214-272,214-282c0-5-292-8-648-8h-648l-34,78c-254,585-549,1085-879,1487
		c-106,129-306,349-379,416C8493,11863,8494,11863,8710,11772z M4049,11653c-339-352-639-781-900-1288c-93-180-215-443-254-547
		l-18-48h-411c-226,0-502-3-613-7c-125-4-203-3-203,3c0,14,171,239,296,389c137,165,541,569,703,705c340,282,694,519,1061,709
		c160,83,446,219,464,220C4178,11790,4122,11728,4049,11653z M11568,9178c381-703,611-1464,687-2272c9-92,15-169,13-171
		c-2-1-400-5-885-7l-881-4l-6,106c-49,872-181,1640-402,2332c-19,59-34,112-34,118c0,7,239,10,724,10h723L11568,9178z M9525,9233
		c250-718,402-1530,450-2394l6-116l-1028-6c-565-4-1324-7-1685-7c-620,0-657,1-654,18c2,9,7,585,11,1279l8,1263l596,3
		c328,1,975,3,1438,5l841,2L9525,9233z M6111,9020c-3-1156-15-2312-25-2315c-6-2-755-6-1664-10l-1653-6l6,103
		c52,892,170,1564,407,2301l50,157l217,1c1104,8,2376,15,2504,15l158-1V9020z M2680,9240c0-5-13-51-29-102
		c-198-627-337-1400-381-2108c-6-96-13-211-16-256l-6-81l-420-6c-232-4-609-7-837-7H575l7,118c30,454,133,967,288,1432
		c99,299,186,508,325,785l111,220l289,5C2158,9250,2680,9250,2680,9240z M12276,6143c-3-38-8-113-11-168c-35-618-215-1351-477-1945
		c-67-153-266-546-282-559c-6-5-336-11-733-13c-722-3-723-3-717,17c3,11,21,67,40,125c226,712,375,1602,400,2390l7,209l131,4
		c72,1,472,4,889,5l758,2L12276,6143z M9977,6001c-27-798-179-1657-421-2380c-30-89-56-165-58-166c-2-2-657-7-1457-11l-1454-7l7,639
		c3,351,9,971,12,1376l7,738l976,3c537,1,1295,3,1685,5l709,2L9977,6001z M6086,5428c-3-414-9-1033-12-1375l-7-623h-577
		c-317,0-948-3-1401-7l-824-6l-68,204c-248,755-387,1538-423,2386l-7,163l624,3c343,1,1092,3,1663,5l1039,2L6086,5428z M2254,5998
		c34-843,177-1681,412-2426c25-79,43-147,39-150c-3-3-304-8-668-10l-663-4l-77,140c-411,743-654,1572-717,2437c-5,77-10,148-10,157
		c0,17,34,18,538,21c295,1,673,3,838,5l301,2L2254,5998z M11154,2928c-20-34-140-188-248-318c-148-179-515-548-696-700
		c-403-339-830-613-1296-833c-138-65-379-167-394-167c-4,0,26,33,67,73c85,82,276,293,374,412c308,378,611,885,830,1387l64,148
		l195,3c107,1,401,3,653,5C11067,2940,11160,2937,11154,2928z M9287,2923c-3-5-32-66-66-137c-184-388-418-759-690-1096
		c-117-145-443-468-577-572c-338-264-675-437-1029-528c-97-25-297-60-341-60c-15,0-16,97-10,1053c3,578,9,1116,12,1194l6,143l817,3
		c449,1,1056,3,1349,5C9051,2929,9289,2927,9287,2923z M6065,2698c-3-117-8-649-11-1182l-6-968l-47,6c-183,24-470,121-691,233
		c-284,145-549,341-815,608c-365,364-646,762-917,1300l-100,200l423,5c233,3,817,6,1297,8l872,2L6065,2698z M2984,2735
		c150-335,324-652,509-930c203-303,352-489,580-722c61-62,107-113,104-113c-4,0-65,25-135,56c-876,387-1684,1024-2262,1784l-61,80
		l368,3c202,1,471,2,596,2h229L2984,2735z"/>
</g>
</svg>
