<?xml version="1.0" encoding="UTF-8"?>
<svg id="_Шар_2" data-name="Шар 2" xmlns="http://www.w3.org/2000/svg" viewBox="0 0 250 250">
  <defs>
    <style>
      .cls-1 {
        fill: none;
      }

      .cls-2 {
        fill: #0085b4;
      }
    </style>
  </defs>
  <g id="Blue_Square" data-name="Blue Square">
    <g id="Telematics_-_Hard_pothole" data-name="Telematics - Hard pothole">
      <g>
        <path class="cls-2" d="M214.72,187.12H35.28c-4.26,0-8.07-2.2-10.2-5.89-2.13-3.69-2.13-8.09,0-11.77l24.27-42.04c3.13-5.42,8.96-8.79,15.22-8.79h3.03c.58,0,1.07.02,1.54.06,8.23.72,15.7,5.23,19.97,12.05,7.89,12.6,21.47,20.12,36.32,20.12s27.36-6.98,35.36-18.67c5.46-7.98,14.58-13.05,24.41-13.56h.21c6.26,0,12.09,3.36,15.22,8.78h0l24.27,42.04c2.13,3.69,2.13,8.09,0,11.77-2.13,3.69-5.94,5.89-10.19,5.89ZM64.58,126.64c-3.41,0-6.59,1.83-8.3,4.79l-24.27,42.04c-.98,1.7-.33,3.21,0,3.77.33.57,1.3,1.89,3.27,1.89h179.43c1.97,0,2.94-1.32,3.27-1.89.33-.57.98-2.07,0-3.77l-24.27-42.04c-1.69-2.93-4.82-4.75-8.2-4.79-7.31.42-14.08,4.18-18.12,10.08-9.49,13.87-25.18,22.16-41.96,22.16-17.62,0-33.74-8.93-43.1-23.88-2.95-4.71-8.14-7.83-13.89-8.33-.28-.02-.56-.03-.84-.03h-3.03Z"/>
        <path class="cls-2" d="M125,129.01c-1.06,0-2.08-.42-2.83-1.17l-29.06-29.06c-1.56-1.56-1.56-4.09,0-5.66,1.56-1.56,4.09-1.56,5.66,0l26.24,26.24,26.24-26.24c1.56-1.56,4.09-1.56,5.66,0,1.56,1.56,1.56,4.09,0,5.66l-29.06,29.06c-.75.75-1.77,1.17-2.83,1.17Z"/>
        <path class="cls-2" d="M125,125.62c-2.21,0-4-1.79-4-4v-54.74c0-2.21,1.79-4,4-4s4,1.79,4,4v54.74c0,2.21-1.79,4-4,4Z"/>
        <path class="cls-2" d="M59.91,91.66c-.34,0-.68-.09-1-.27l-16.36-9.45c-.96-.55-1.28-1.78-.73-2.73.55-.96,1.78-1.29,2.73-.73l16.36,9.45c.96.55,1.28,1.78.73,2.73-.37.64-1.04,1-1.73,1Z"/>
        <path class="cls-2" d="M58.26,104.65c-.09,0-.19,0-.28-.02l-16.3-2.3c-1.09-.15-1.85-1.17-1.7-2.26.15-1.09,1.17-1.85,2.26-1.7l16.3,2.3c1.09.15,1.85,1.17,1.7,2.26-.14,1-1,1.72-1.98,1.72Z"/>
        <path class="cls-2" d="M70.34,83.74c-.59,0-1.18-.26-1.58-.77l-10.15-12.97c-.68-.87-.53-2.13.34-2.81s2.13-.53,2.81.34l10.15,12.97c.68.87.53,2.13-.34,2.81-.37.29-.8.42-1.23.42Z"/>
        <path class="cls-2" d="M190.09,91.66c-.69,0-1.36-.36-1.73-1-.55-.96-.22-2.18.73-2.73l16.36-9.45c.96-.55,2.18-.22,2.73.73.55.96.22,2.18-.73,2.73l-16.36,9.45c-.31.18-.66.27-1,.27Z"/>
        <path class="cls-2" d="M179.66,83.74c-.43,0-.87-.14-1.23-.42-.87-.68-1.02-1.94-.34-2.81l10.15-12.97c.68-.87,1.94-1.02,2.81-.34.87.68,1.02,1.94.34,2.81l-10.15,12.97c-.39.5-.98.77-1.58.77Z"/>
        <path class="cls-2" d="M191.74,104.65c-.98,0-1.84-.72-1.98-1.72-.15-1.09.61-2.11,1.7-2.26l16.3-2.3c1.09-.15,2.11.61,2.26,1.7.15,1.09-.61,2.11-1.7,2.26l-16.3,2.3c-.09.01-.19.02-.28.02Z"/>
      </g>
      <rect id="Frame" class="cls-1" width="250" height="250"/>
    </g>
  </g>
</svg>