<?xml version="1.0" encoding="UTF-8"?>
<svg id="_Шар_2" data-name="Шар 2" xmlns="http://www.w3.org/2000/svg" viewBox="0 0 250 250">
  <defs>
    <style>
      .cls-1 {
        fill: none;
      }

      .cls-2 {
        fill: #0085b4;
      }
    </style>
  </defs>
  <g id="Blue_Square" data-name="Blue Square">
    <g id="Telematics_-_Hard_acceleration" data-name="Telematics - Hard acceleration">
      <g>
        <g>
          <path class="cls-2" d="M148.88,205.07c-21.4,0-41.37-8.34-56.24-23.47-14.88-15.14-22.86-35.26-22.48-56.67.78-44.11,37.3-80,81.41-80,21.4,0,41.37,8.34,56.24,23.47,14.87,15.14,22.86,35.26,22.48,56.66l-4-.07,4,.07c-.78,44.11-37.3,80-81.41,80ZM151.56,52.93c-39.78,0-72.71,32.36-73.41,72.14-.34,19.24,6.83,37.32,20.19,50.92,13.36,13.59,31.3,21.08,50.54,21.08,39.78,0,72.71-32.36,73.41-72.14.34-19.24-6.83-37.32-20.19-50.92-13.36-13.59-31.3-21.08-50.54-21.08Z"/>
          <path class="cls-2" d="M149.33,177.22c-13.95,0-26.98-5.44-36.68-15.3-9.7-9.87-14.91-22.99-14.66-36.95.51-28.77,24.33-52.18,53.1-52.18,13.95,0,26.98,5.44,36.68,15.3,9.7,9.87,14.91,22.99,14.66,36.95l-2-.04,2,.04c-.51,28.77-24.33,52.18-53.1,52.18ZM151.1,76.78c-26.61,0-48.64,21.65-49.1,48.25-.23,12.88,4.57,24.98,13.51,34.08,8.94,9.1,20.95,14.11,33.82,14.11,26.61,0,48.64-21.65,49.1-48.25.23-12.88-4.57-24.98-13.51-34.08-8.94-9.1-20.95-14.11-33.82-14.11Z"/>
          <path class="cls-2" d="M149.48,168.87c-11.72,0-22.67-4.57-30.82-12.86-8.15-8.29-12.52-19.32-12.32-31.05.43-24.17,20.44-43.84,44.61-43.84,11.72,0,22.67,4.57,30.82,12.86,8.15,8.29,12.52,19.32,12.32,31.05-.43,24.17-20.44,43.84-44.61,43.84ZM150.95,85.13c-22,0-40.22,17.9-40.61,39.91-.19,10.65,3.78,20.65,11.17,28.17,7.39,7.52,17.32,11.66,27.96,11.66,22,0,40.22-17.9,40.61-39.91h0c.19-10.64-3.78-20.65-11.17-28.17-7.39-7.52-17.32-11.66-27.96-11.66Z"/>
          <path class="cls-2" d="M150.08,134.82c-2.63,0-5.09-1.03-6.92-2.89-1.83-1.86-2.81-4.34-2.77-6.97.1-5.4,4.56-9.79,9.96-9.79,2.63,0,5.09,1.03,6.92,2.89,1.83,1.86,2.81,4.34,2.77,6.97l-2-.04,2,.04c-.1,5.4-4.56,9.79-9.96,9.79ZM150.35,119.18c-3.23,0-5.91,2.63-5.96,5.86-.03,1.55.55,3,1.62,4.1,1.07,1.09,2.52,1.69,4.07,1.69,3.23,0,5.91-2.63,5.96-5.86.03-1.55-.55-3-1.62-4.1-1.07-1.09-2.52-1.69-4.07-1.69Z"/>
          <g>
            <path class="cls-2" d="M194.08,121.93h-23.12c-3.19,0-6.02-1.64-7.59-4.4-1.58-2.79-1.54-6.11.12-8.9l11.92-20.04,1.78,1.36c9.37,7.16,15.44,18.01,16.66,29.77l.23,2.21ZM176.52,94.55l-9.59,16.12c-.91,1.53-.94,3.36-.08,4.88.84,1.49,2.38,2.37,4.11,2.37h18.62c-1.47-9.07-6.12-17.4-13.06-23.37Z"/>
            <path class="cls-2" d="M125.02,161.41l-1.78-1.36c-9.37-7.16-15.44-18.01-16.66-29.77l-.23-2.21h23.12c3.19,0,6.02,1.64,7.59,4.4,1.58,2.79,1.54,6.11-.12,8.9l-11.92,20.04ZM110.85,132.07c1.47,9.07,6.12,17.4,13.06,23.37l9.59-16.12c.91-1.53.94-3.36.08-4.88-.84-1.49-2.38-2.37-4.11-2.37h-18.62Z"/>
            <path class="cls-2" d="M174.17,161.42l-11.25-20.1c-1.54-2.75-1.5-6.04.12-8.8,1.63-2.79,4.53-4.45,7.74-4.45h23.2l-.31,2.27c-1.63,11.74-8.07,22.57-17.67,29.71l-1.83,1.36ZM170.78,132.07c-1.78,0-3.38.93-4.29,2.48-.89,1.52-.92,3.32-.08,4.82l8.99,16.07c7.16-5.98,12.11-14.3,13.91-23.36h-18.54Z"/>
            <path class="cls-2" d="M129.65,121.93h-23.2l.31-2.27c1.63-11.74,8.07-22.57,17.67-29.71l1.83-1.36,11.25,20.1c1.54,2.75,1.5,6.04-.12,8.8-1.63,2.79-4.53,4.45-7.74,4.45ZM111.11,117.93h18.54c1.78,0,3.38-.93,4.29-2.48.89-1.52.92-3.32.08-4.82l-8.99-16.07c-7.16,5.98-12.11,14.3-13.91,23.36Z"/>
            <path class="cls-2" d="M150.52,110s-.08,0-.12,0c-3.16-.04-5.96-1.7-7.5-4.45l-11.23-20.07,2.06-.87c5.48-2.32,11.28-3.49,17.23-3.49s11.72,1.18,17.12,3.5l2.1.9-11.95,20.08c-1.64,2.76-4.52,4.4-7.71,4.4ZM137.37,87.49l9.02,16.11c.83,1.48,2.35,2.38,4.06,2.4,1.8.06,3.41-.89,4.34-2.45l9.58-16.1c-4.28-1.55-8.78-2.33-13.41-2.33s-9.22.79-13.58,2.36ZM156.51,104.58h.01-.01Z"/>
            <path class="cls-2" d="M149.48,168.87c-5.96,0-11.72-1.18-17.12-3.5l-2.1-.9,11.95-20.08c1.67-2.8,4.58-4.44,7.83-4.4,3.16.04,5.96,1.7,7.5,4.45l11.23,20.07-2.06.87c-5.48,2.32-11.28,3.49-17.23,3.49ZM136.06,162.54c4.28,1.55,8.78,2.33,13.41,2.33s9.22-.79,13.58-2.36l-9.02-16.11c-.83-1.48-2.35-2.38-4.06-2.4-1.81-.02-3.41.89-4.34,2.45l-9.58,16.1Z"/>
          </g>
        </g>
        <path class="cls-2" d="M90.89,82.43h-50.1c-2.21,0-4-1.79-4-4s1.79-4,4-4h50.1c2.21,0,4,1.79,4,4s-1.79,4-4,4Z"/>
        <path class="cls-2" d="M85.86,175.57h-39.18c-2.21,0-4-1.79-4-4s1.79-4,4-4h39.18c2.21,0,4,1.79,4,4s-1.79,4-4,4Z"/>
        <path class="cls-2" d="M75.01,146.85h-19.98c-2.21,0-4-1.79-4-4s1.79-4,4-4h19.98c2.21,0,4,1.79,4,4s-1.79,4-4,4Z"/>
        <path class="cls-2" d="M76.44,111.15H23.71c-2.21,0-4-1.79-4-4s1.79-4,4-4h52.73c2.21,0,4,1.79,4,4s-1.79,4-4,4Z"/>
        <path class="cls-2" d="M37,146.85h-5.59c-2.21,0-4-1.79-4-4s1.79-4,4-4h5.59c2.21,0,4,1.79,4,4s-1.79,4-4,4Z"/>
      </g>
      <rect id="Frame" class="cls-1" width="250" height="250"/>
    </g>
  </g>
</svg>