<?xml version="1.0" encoding="utf-8"?>
<!-- Generator: Adobe Illustrator 26.0.3, SVG Export Plug-In . SVG Version: 6.00 Build 0)  -->
<svg version="1.1" id="Layer_1" xmlns="http://www.w3.org/2000/svg" xmlns:xlink="http://www.w3.org/1999/xlink" x="0px" y="0px"
	 viewBox="0 0 156 165.8" style="enable-background:new 0 0 156 165.8;" xml:space="preserve">
<style type="text/css">
	.st0{fill:none;}
	.st1{fill:none;stroke:#0085B4;stroke-width:15;stroke-miterlimit:10;}
	.st2{fill:#0085B4;}
	.st3{fill:none;stroke:#FFFFFF;stroke-width:25;stroke-miterlimit:10;}
	.st4{fill:#FFFFFF;}
</style>
<g>
	<path class="st0" d="M92,154.7"/>
</g>
<path class="st1" d="M39.4,95.3c-17.4,0-31.6,14.1-31.6,31.6s14.1,31.6,31.6,31.6"/>
<path class="st1" d="M111,158.4c20.9,0,37.8-18.1,37.8-40.3S131.9,77.7,111,77.7"/>
<path class="st1" d="M32.3,91.5c0-24.4,19-44.1,42.4-44.1s42.4,19.7,42.4,44.1"/>
<line class="st1" x1="39.4" y1="158.4" x2="111" y2="158.4"/>
<rect x="11.4" y="105.3" class="st2" width="131" height="46.5"/>
<rect x="23.6" y="91.5" class="st2" width="120.9" height="21"/>
<rect x="36.9" y="69.4" class="st2" width="80.1" height="25.9"/>
<rect x="46.4" y="54.4" class="st2" width="59.6" height="23.3"/>
<rect x="122" y="84.6" class="st2" width="10.1" height="13"/>
<g>
	<g>
		<line class="st3" x1="76.2" y1="66" x2="76.2" y2="111.5"/>
		<g>
			<polygon class="st4" points="51.3,104.2 76.2,147.4 101.1,104.2 			"/>
		</g>
	</g>
</g>
</svg>
