<?xml version="1.0" encoding="UTF-8"?>
<svg id="_Шар_2" data-name="Шар 2" xmlns="http://www.w3.org/2000/svg" viewBox="0 0 250 250">
  <defs>
    <style>
      .cls-1 {
        fill: none;
      }

      .cls-2 {
        fill: #0085b4;
      }
    </style>
  </defs>
  <g id="Blue_Square" data-name="Blue Square">
    <g id="Telematics_-_Odometer" data-name="Telematics - Odometer">
      <g>
        <g>
          <path class="cls-2" d="M80.13,178.82h-41.73c-5.46,0-9.9-4.44-9.9-9.9v-87.84c0-5.46,4.44-9.9,9.9-9.9h41.73c5.46,0,9.9,4.44,9.9,9.9v87.84c0,5.46-4.44,9.9-9.9,9.9ZM38.4,79.18c-1.05,0-1.9.85-1.9,1.9v87.84c0,1.05.85,1.9,1.9,1.9h41.73c1.05,0,1.9-.85,1.9-1.9v-87.84c0-1.05-.85-1.9-1.9-1.9h-41.73Z"/>
          <path class="cls-2" d="M72.73,107.29v37.12c0,12.76-5.47,17-13.62,17-7.44,0-13.31-4.04-13.31-16.8v-37.09c0-13.83,6.8-17.32,13.68-17.32s13.25,3.46,13.25,17.09ZM51.09,107.28v37.3c0,8.12,2.56,11.78,8.26,11.78,4.91,0,8.06-2.46,8.06-12.01v-37.03c0-9.27-3.51-12.07-8.15-12.07s-8.17,2.39-8.17,12.03Z"/>
        </g>
        <g>
          <path class="cls-2" d="M145.87,178.82h-41.73c-5.46,0-9.9-4.44-9.9-9.9v-87.84c0-5.46,4.44-9.9,9.9-9.9h41.73c5.46,0,9.9,4.44,9.9,9.9v87.84c0,5.46-4.44,9.9-9.9,9.9ZM104.13,79.18c-1.05,0-1.9.85-1.9,1.9v87.84c0,1.05.85,1.9,1.9,1.9h41.73c1.05,0,1.9-.85,1.9-1.9v-87.84c0-1.05-.85-1.9-1.9-1.9h-41.73Z"/>
          <path class="cls-2" d="M138.46,107.29v37.12c0,12.76-5.47,17-13.62,17-7.44,0-13.31-4.04-13.31-16.8v-37.09c0-13.83,6.8-17.32,13.68-17.32s13.25,3.46,13.25,17.09ZM116.83,107.28v37.3c0,8.12,2.56,11.78,8.26,11.78,4.91,0,8.06-2.46,8.06-12.01v-37.03c0-9.27-3.51-12.07-8.15-12.07s-8.17,2.39-8.17,12.03Z"/>
        </g>
        <g>
          <path class="cls-2" d="M211.6,178.82h-41.73c-5.46,0-9.9-4.44-9.9-9.9v-87.84c0-5.46,4.44-9.9,9.9-9.9h41.73c5.46,0,9.9,4.44,9.9,9.9v87.84c0,5.46-4.44,9.9-9.9,9.9ZM169.87,79.18c-1.05,0-1.9.85-1.9,1.9v87.84c0,1.05.85,1.9,1.9,1.9h41.73c1.05,0,1.9-.85,1.9-1.9v-87.84c0-1.05-.85-1.9-1.9-1.9h-41.73Z"/>
          <path class="cls-2" d="M180.71,136.64v4.4c2.04-.34,6.79-2.1,8.71-3.38v35.27h5.24v-42.18h-3.74c-1.67,1.83-6.51,4.85-10.21,5.89Z"/>
          <path class="cls-2" d="M198.89,77.01v27.46c0,9.55-3.15,12.01-8.06,12.01-5.7,0-8.26-3.66-8.26-11.78v-27.69h-5.3v27.72c0,12.76,5.87,16.8,13.31,16.8,8.15,0,13.62-4.24,13.62-17v-27.52h-5.31Z"/>
        </g>
      </g>
      <rect id="Frame" class="cls-1" width="250" height="250"/>
    </g>
  </g>
</svg>