<svg xmlns="http://www.w3.org/2000/svg" viewBox="0 0 250 250"><defs><style>.cls-1{fill:none;}.cls-2{fill:#0085b4;}</style></defs><g id="Шар_2" data-name="Шар 2"><g id="Blue_Equal_shapes" data-name="Blue Equal shapes"><g id="Battery_Level" data-name="Battery Level"><rect class="cls-1" width="250" height="250"/><g id="Battery_Level-2" data-name="Battery Level"><path class="cls-2" d="M212.12,104.94h-14a1,1,0,0,1-1-1V84.68a6.3,6.3,0,0,0-6.3-6.3H54.72a6.3,6.3,0,0,0-6.3,6.3v83a6.3,6.3,0,0,0,6.3,6.3H190.87a6.3,6.3,0,0,0,6.3-6.3V148.43a1,1,0,0,1,1-1h14a6.3,6.3,0,0,0,6.3-6.3v-29.9A6.3,6.3,0,0,0,212.12,104.94ZM55.42,167V85.38H190.17V167Zm156-26.56H198.16a8.26,8.26,0,0,0-1,.07V111.87a8.26,8.26,0,0,0,1,.07h13.26Z"/><rect class="cls-2" x="67.6" y="95.19" width="10" height="60" rx="4.9"/><rect class="cls-2" x="92.65" y="95.19" width="10" height="60" rx="4.9"/><rect class="cls-2" x="117.7" y="95.19" width="10" height="60" rx="4.9"/><rect class="cls-2" x="142.75" y="95.19" width="10" height="60" rx="4.9"/><rect class="cls-2" x="167.79" y="95.19" width="10" height="60" rx="4.9"/></g></g></g></g></svg>