<svg xmlns="http://www.w3.org/2000/svg" viewBox="0 0 250 250"><defs><style>.cls-1{fill:none;}.cls-2{fill:#0085b4;}</style></defs><g id="Шар_2" data-name="Шар 2"><g id="Blue_Equal_shapes" data-name="Blue Equal shapes"><g id="Sensor_General" data-name="Sensor General"><rect class="cls-1" width="250" height="250"/><g id="Sensor_General-2" data-name="Sensor General"><path class="cls-2" d="M66.66,186.34a3,3,0,0,1-2.12-.88,85.51,85.51,0,0,1,0-120.92,3,3,0,1,1,4.25,4.24,79.5,79.5,0,0,0,0,112.44,3,3,0,0,1,0,4.24A3,3,0,0,1,66.66,186.34Z"/><path class="cls-2" d="M81.16,171.84A3,3,0,0,1,79,171,65,65,0,0,1,79,79a3,3,0,0,1,4.24,4.24,59,59,0,0,0,0,83.44,3,3,0,0,1,0,4.24A3,3,0,0,1,81.16,171.84Z"/><path class="cls-2" d="M168.84,171.84a3,3,0,0,1-2.12-5.12,59,59,0,0,0,0-83.44A3,3,0,1,1,171,79,65,65,0,0,1,171,171,3,3,0,0,1,168.84,171.84Z"/><path class="cls-2" d="M183.34,186.34a3,3,0,0,1-2.12-5.12,79.52,79.52,0,0,0,0-112.44,3,3,0,1,1,4.24-4.24,85.51,85.51,0,0,1,0,120.92A3,3,0,0,1,183.34,186.34Z"/><path class="cls-2" d="M81.16,171.84A3,3,0,0,1,79,171,65,65,0,0,1,79,79a3,3,0,0,1,4.24,4.24,59,59,0,0,0,0,83.44,3,3,0,0,1,0,4.24A3,3,0,0,1,81.16,171.84Z"/><path class="cls-2" d="M95.77,157.23a3,3,0,0,1-2.12-.88,44.35,44.35,0,0,1,0-62.7,3,3,0,0,1,4.24,4.24,38.36,38.36,0,0,0,0,54.22,3,3,0,0,1-2.12,5.12Z"/><path class="cls-2" d="M168.84,171.84a3,3,0,0,1-2.12-5.12,59,59,0,0,0,0-83.44A3,3,0,1,1,171,79,65,65,0,0,1,171,171,3,3,0,0,1,168.84,171.84Z"/><path class="cls-2" d="M154.23,157.23a3,3,0,0,1-2.12-5.12,38.36,38.36,0,0,0,0-54.22,3,3,0,0,1,4.24-4.24,44.35,44.35,0,0,1,0,62.7A3,3,0,0,1,154.23,157.23Z"/><path class="cls-2" d="M95.77,157.23a3,3,0,0,1-2.12-.88,44.35,44.35,0,0,1,0-62.7,3,3,0,0,1,4.24,4.24,38.36,38.36,0,0,0,0,54.22,3,3,0,0,1-2.12,5.12Z"/><path class="cls-2" d="M154.23,157.23a3,3,0,0,1-2.12-5.12,38.36,38.36,0,0,0,0-54.22,3,3,0,0,1,4.24-4.24,44.35,44.35,0,0,1,0,62.7A3,3,0,0,1,154.23,157.23Z"/><circle class="cls-2" cx="125" cy="125" r="18"/></g></g></g></g></svg>